<?xml version="1.0" encoding="UTF-8" standalone="no"?><svg xmlns="http://www.w3.org/2000/svg" xmlns:xlink="http://www.w3.org/1999/xlink" clip-rule="evenodd" stroke-miterlimit="4.00" viewBox="0 0 500 227"><desc>SVG generated by Keynote</desc><defs></defs><g transform="matrix(1.00, 0.00, -0.00, -1.00, 0.0, 227.0)"><g><clipPath id="clip-2324"><path d="M 36.6 79.8 L 153.9 79.8 L 153.9 173.7 L 36.6 173.7 Z M 36.6 79.8 "></path></clipPath><g clip-path="url(#clip-2324)"><image xlink:href="../../432B082E-9EC6-412F-8513-17D6612FAF89/assets/488FF586B0961CD3631AB702435CE673.png" width="118.00" height="94.00" transform="matrix(0.99, 0.00, -0.00, -1.00, 37.0, 174.0)"></image></g></g><g><clipPath id="clip-2325"><path d="M 0.0 0.9 L 499.3 0.9 L 499.3 226.1 L 0.0 226.1 Z M 0.0 0.9 "></path></clipPath><g clip-path="url(#clip-2325)"><path d="M 1.9 99.0 C 1.9 101.9 1.8 114.6 1.9 114.7 C 1.9 110.0 1.9 99.9 1.9 99.0 C 1.9 99.0 1.9 99.0 1.9 99.0 Z M 1.9 73.5 C 1.8 78.1 1.8 88.2 1.9 91.4 C 1.9 86.0 1.9 75.2 1.9 73.5 C 1.9 73.5 1.9 73.5 1.9 73.5 Z M 2.0 112.6 C 2.0 119.4 2.0 131.9 2.0 135.0 C 2.0 128.2 2.0 115.7 2.0 112.6 C 2.0 112.6 2.0 112.6 2.0 112.6 Z M 250.1 2.2 C 247.1 2.2 234.4 2.2 234.4 2.2 C 239.0 2.2 249.2 2.2 250.1 2.2 C 250.1 2.2 250.1 2.2 250.1 2.2 Z M 179.2 2.3 C 174.6 2.3 164.5 2.3 161.3 2.3 C 166.6 2.3 177.5 2.3 179.2 2.3 C 179.2 2.3 179.2 2.3 179.2 2.3 Z M 138.0 2.3 C 128.4 2.3 118.2 2.3 120.1 2.3 C 123.2 2.3 137.0 2.3 138.0 2.3 C 138.0 2.3 138.0 2.3 138.0 2.3 Z M 3.6 105.3 C 3.6 95.1 3.6 87.8 3.6 80.9 C 3.6 46.5 3.5 98.5 3.6 105.3 C 3.6 105.3 3.6 105.3 3.6 105.3 Z M 65.6 2.4 C 72.5 2.4 78.0 2.4 81.3 2.4 C 74.9 2.4 66.0 2.4 65.6 2.4 C 65.6 2.4 65.6 2.4 65.6 2.4 Z M 6.1 2.5 C 5.8 2.5 4.1 2.4 1.5 2.4 C 1.5 12.9 1.5 38.7 1.6 54.4 C 1.6 41.5 1.6 13.5 1.5 2.5 C 4.7 2.5 6.4 2.5 6.1 2.5 C 6.1 2.5 6.1 2.5 6.1 2.5 Z M 3.6 23.1 C 3.6 17.6 3.6 11.2 3.6 4.5 C 24.3 4.5 48.1 4.5 60.5 4.5 C 75.1 4.5 40.7 4.5 3.5 4.5 C 3.5 9.2 3.5 13.9 3.5 18.6 C 3.5 60.7 3.6 26.1 3.6 43.2 C 3.7 60.2 3.7 26.9 3.7 9.9 C 3.6 6.5 3.6 4.9 3.6 4.6 C 3.8 4.6 3.7 4.6 3.6 4.6 C 3.6 5.8 3.6 21.7 3.6 23.1 C 3.6 23.1 3.6 23.1 3.6 23.1 Z M 3.8 24.3 C 3.7 32.5 3.8 39.6 3.8 44.3 C 3.8 35.9 3.8 27.8 3.8 24.3 C 3.8 24.3 3.8 24.3 3.8 24.3 Z M 7.5 223.4 C 10.3 223.8 30.2 224.1 52.1 224.3 C 57.5 224.4 63.0 224.4 68.6 224.5 C 108.6 224.7 148.9 224.8 189.2 224.8 C 197.2 224.8 205.2 224.8 213.4 224.8 C 238.1 224.9 262.9 224.9 287.9 224.9 C 296.2 224.9 304.4 224.9 313.0 224.9 C 342.9 224.9 371.5 224.9 401.0 224.9 C 415.7 224.9 430.7 224.9 446.1 225.0 C 453.7 225.0 486.5 225.0 498.2 224.9 C 498.2 224.9 498.2 224.9 498.2 224.9 C 498.2 224.9 498.2 224.9 498.2 224.9 C 498.2 227.1 498.2 226.8 498.2 225.0 C 498.2 217.3 498.2 182.2 498.2 184.2 C 498.2 178.1 498.2 171.8 498.2 165.5 C 498.1 159.1 498.1 167.1 498.1 175.1 C 498.1 168.0 498.1 160.9 498.1 153.7 C 498.1 146.1 498.1 138.5 498.1 130.7 C 498.1 105.3 498.1 77.9 498.1 54.3 C 498.1 40.8 498.1 22.5 498.1 2.2 C 421.4 2.2 316.4 2.2 341.6 2.2 C 377.5 2.2 359.0 2.3 349.4 2.3 C 343.8 2.3 336.2 2.3 327.7 2.3 C 328.0 2.3 328.6 2.3 329.9 2.2 C 313.9 2.2 291.4 2.2 269.3 2.2 C 273.4 2.2 278.7 2.2 280.6 2.3 C 269.4 2.3 278.3 2.3 271.0 2.3 C 250.6 2.3 240.8 2.3 264.4 2.3 C 242.5 2.4 228.5 2.4 206.9 2.5 C 198.7 2.5 203.2 2.5 205.6 2.5 C 191.3 2.4 158.4 2.5 155.3 2.4 C 152.2 2.4 244.4 2.4 228.0 2.4 C 221.4 2.4 207.5 2.4 202.3 2.4 C 213.9 2.4 228.3 2.4 235.7 2.4 C 227.6 2.3 216.2 2.3 210.0 2.3 C 217.8 2.3 223.2 2.3 225.5 2.3 C 214.1 2.3 205.5 2.3 191.9 2.3 C 185.9 2.3 197.0 2.3 184.2 2.3 C 181.9 2.4 192.7 2.4 191.9 2.4 C 181.5 2.4 160.9 2.4 155.8 2.4 C 150.8 2.4 168.3 2.4 168.7 2.4 C 128.6 2.4 83.0 2.4 68.9 2.4 C 54.7 2.4 68.1 2.4 74.1 2.5 C 57.6 2.5 45.1 2.5 25.6 2.5 C 13.0 2.5 18.0 2.5 22.8 2.5 C 19.4 2.5 16.5 2.5 14.6 2.5 C 13.2 2.5 9.6 2.5 7.2 2.5 C 14.9 2.5 29.2 2.5 35.5 2.5 C 27.9 2.6 13.5 2.6 1.6 2.6 C 1.6 8.7 1.6 14.2 1.7 17.6 C 1.7 12.7 1.7 7.7 1.7 2.6 C 13.1 2.6 25.0 2.6 37.3 2.6 C 25.4 2.6 13.4 2.6 1.7 2.6 C 1.7 25.1 1.6 46.8 1.7 65.2 C 1.7 60.2 1.7 58.0 1.7 53.9 C 1.7 64.6 1.7 80.3 1.7 89.8 C 1.7 95.0 1.8 105.4 1.8 115.8 C 1.8 97.6 1.8 85.5 1.8 72.8 C 1.8 73.0 1.8 74.2 1.8 76.4 C 1.8 48.0 1.7 31.7 1.7 11.4 C 1.7 9.9 1.7 8.3 1.7 6.7 C 1.8 0.2 1.7 23.2 1.8 25.6 C 1.8 18.0 1.8 10.3 1.8 2.7 C 24.2 2.7 45.2 2.7 56.2 2.7 C 36.8 2.7 18.7 2.7 1.8 2.7 C 1.8 16.7 1.8 29.8 1.8 42.0 C 1.9 36.3 1.9 16.6 1.9 2.8 C 4.6 2.8 7.1 2.8 9.2 2.8 C 6.7 2.8 4.2 2.8 1.9 2.8 C 1.9 54.2 1.9 59.8 1.9 64.3 C 1.9 59.9 1.9 55.4 1.9 50.8 C 1.9 51.9 2.0 53.1 2.0 54.2 C 2.0 79.8 2.0 109.9 2.0 108.4 C 2.0 107.2 2.0 83.8 2.0 59.1 C 2.0 61.7 2.0 64.3 2.0 67.0 C 2.1 95.9 2.1 128.6 2.1 157.5 C 2.1 152.8 2.1 155.2 2.2 161.2 C 2.2 152.2 2.2 139.3 2.2 129.6 C 2.2 132.9 2.2 138.9 2.2 140.8 C 2.2 136.0 2.2 128.3 2.3 125.9 C 2.3 139.5 2.3 154.2 2.3 168.7 C 2.3 171.6 2.3 162.4 2.3 163.2 C 2.3 176.8 2.3 196.0 2.4 206.0 C 2.4 194.5 2.4 172.0 2.4 165.0 C 2.4 169.5 2.4 174.1 2.4 178.8 C 2.4 188.1 2.4 192.6 2.4 182.1 C 2.4 176.5 2.5 176.6 2.5 178.0 C 2.5 184.4 2.5 206.6 2.5 206.0 C 2.5 200.4 2.5 178.2 2.6 172.6 C 2.6 176.8 2.6 188.1 2.6 189.3 C 2.6 164.7 2.6 165.6 2.6 159.4 C 2.6 162.1 2.6 169.1 2.6 168.9 C 2.6 153.7 2.6 138.6 2.6 123.0 C 2.6 123.0 2.6 123.0 2.6 123.0 C 2.6 123.0 2.6 123.0 2.6 123.0 C 2.6 123.0 2.6 123.0 2.6 123.0 C 2.6 124.4 2.6 123.9 2.7 122.5 C 2.7 129.1 2.7 136.0 2.7 148.4 C 2.7 145.1 2.7 133.7 2.7 123.3 C 2.7 123.3 2.7 123.4 2.7 123.5 C 2.7 140.5 2.7 166.4 2.8 183.7 C 2.8 175.8 2.8 146.6 2.8 126.7 C 2.8 127.4 2.8 128.0 2.8 128.7 C 2.8 103.7 2.8 74.4 2.8 46.4 C 2.9 59.9 2.8 75.7 2.8 93.1 C 2.8 101.2 2.9 108.6 2.9 116.3 C 2.9 138.5 2.9 204.3 2.9 211.9 C 2.9 220.1 2.9 153.4 2.9 153.0 C 3.0 152.7 3.0 183.7 3.0 169.1 C 3.0 161.5 3.0 144.8 3.0 132.7 C 3.0 132.3 3.0 131.9 3.0 131.4 C 3.1 142.0 3.1 154.5 3.0 155.0 C 3.0 160.2 3.0 171.1 3.0 172.8 C 3.0 171.0 3.0 168.3 3.0 168.3 C 3.0 170.9 3.0 174.6 3.0 175.0 C 3.1 162.2 3.1 144.7 3.1 130.8 C 3.1 129.6 3.1 128.5 3.1 127.3 C 3.1 127.5 3.1 138.3 3.1 147.6 C 3.1 157.4 3.2 137.1 3.2 120.9 C 3.2 118.4 3.2 115.8 3.2 113.2 C 3.2 118.8 3.2 125.3 3.2 132.9 C 3.2 141.8 3.3 141.6 3.3 150.5 C 3.3 134.1 3.3 114.3 3.3 98.4 C 3.3 92.6 3.3 86.8 3.4 80.9 C 3.4 94.1 3.4 106.3 3.4 113.6 C 3.4 119.4 3.4 125.5 3.4 127.7 C 3.5 122.2 3.5 136.4 3.5 134.3 C 3.5 126.5 3.5 111.0 3.4 105.4 C 3.4 93.2 3.4 79.9 3.4 68.1 C 3.4 66.6 3.4 65.1 3.5 63.5 C 3.5 73.6 3.5 83.1 3.5 93.8 C 3.5 89.0 3.5 59.5 3.5 38.2 C 3.5 27.0 3.5 15.7 3.5 4.4 C 35.8 4.4 68.3 4.3 100.5 4.2 C 102.3 4.2 104.8 4.2 107.6 4.3 C 110.8 4.3 114.0 4.3 117.2 4.3 C 106.8 4.3 97.5 4.3 89.9 4.3 C 120.7 4.4 45.9 4.4 41.1 4.4 C 91.0 4.5 184.2 4.4 241.8 4.5 C 228.0 4.5 223.5 4.5 238.4 4.5 C 242.4 4.5 246.4 4.5 250.6 4.5 C 192.0 4.5 131.1 4.4 84.6 4.5 C 112.3 4.5 154.3 4.5 165.9 4.5 C 157.7 4.6 145.9 4.5 144.3 4.6 C 158.5 4.6 206.1 4.6 220.1 4.6 C 151.8 4.6 59.1 4.6 8.9 4.7 C 84.9 4.6 187.5 4.7 252.6 4.6 C 241.3 4.6 241.2 4.6 247.1 4.6 C 267.3 4.6 287.5 4.6 308.4 4.5 C 312.5 4.6 311.1 4.6 301.1 4.6 C 292.9 4.6 288.0 4.6 285.4 4.6 C 290.9 4.6 355.3 4.6 304.1 4.6 C 253.1 4.6 164.8 4.7 216.4 4.7 C 268.1 4.7 288.5 4.7 260.3 4.7 C 232.0 4.7 142.7 4.8 172.7 4.8 C 202.5 4.8 265.4 4.8 300.9 4.8 C 336.6 4.8 276.8 4.7 329.3 4.7 C 381.7 4.7 338.0 4.7 348.0 4.7 C 363.9 4.7 393.1 4.7 420.8 4.7 C 440.2 4.7 465.2 4.7 477.7 4.8 C 476.8 4.8 417.7 4.8 441.0 4.8 C 459.5 4.8 478.8 4.8 495.4 4.8 C 495.4 39.6 495.4 63.1 495.5 45.3 C 495.5 80.6 495.5 106.6 495.5 128.7 C 495.4 162.9 495.4 202.8 495.4 207.1 C 495.4 208.3 495.4 213.9 495.4 222.2 C 466.2 222.2 403.1 222.3 375.5 222.2 C 372.8 222.2 309.2 222.2 303.8 222.2 C 243.2 222.2 251.7 222.2 192.1 222.2 C 142.2 222.2 126.9 222.2 118.5 222.2 C 66.0 222.2 66.4 222.2 40.7 222.4 C 32.9 222.5 21.0 222.5 16.9 222.6 C 8.8 222.8 4.9 223.0 7.5 223.4 C 7.5 223.4 7.5 223.4 7.5 223.4 Z M 2.5 116.0 C 2.5 125.3 2.5 142.2 2.5 152.0 C 2.4 140.8 2.5 126.9 2.5 112.7 C 2.5 113.8 2.5 114.9 2.5 116.0 C 2.5 116.0 2.5 116.0 2.5 116.0 Z M 3.1 44.6 C 3.1 50.8 3.1 58.3 3.1 65.3 C 3.1 71.9 3.1 78.8 3.1 88.9 C 3.2 88.0 3.2 71.5 3.2 58.6 C 3.2 58.6 3.2 58.6 3.2 58.6 C 3.2 64.9 3.2 72.3 3.2 81.0 C 3.2 84.0 3.2 87.0 3.2 90.1 C 3.2 90.3 3.2 85.6 3.2 83.8 C 3.2 86.1 3.1 93.8 3.1 103.9 C 3.1 105.1 3.1 106.3 3.1 107.5 C 3.1 108.9 3.1 101.3 3.1 109.8 C 3.0 103.8 3.1 88.3 3.1 78.6 C 3.1 89.5 3.1 48.6 3.1 38.6 C 3.1 40.6 3.1 42.5 3.1 44.6 Z M 39.5 2.6 C 45.0 2.6 50.6 2.6 56.3 2.6 C 48.1 2.6 41.8 2.6 36.1 2.6 C 37.2 2.6 38.3 2.6 39.5 2.6 Z M 498.0 4.7 C 497.9 3.9 497.9 3.1 497.9 2.3 C 463.4 2.4 396.2 2.3 391.7 2.3 C 384.5 2.3 377.3 2.3 369.9 2.3 C 415.5 2.3 464.4 2.3 498.0 2.3 C 498.0 3.1 498.0 3.9 498.0 4.7 C 498.0 4.7 498.0 4.7 498.0 4.7 Z M 380.6 4.6 C 377.8 4.6 379.0 4.6 385.7 4.6 C 421.5 4.5 442.8 4.5 420.1 4.5 C 400.8 4.5 358.8 4.5 371.1 4.5 C 387.5 4.5 403.9 4.5 420.8 4.5 C 433.8 4.5 446.3 4.5 459.1 4.6 C 431.4 4.6 404.9 4.6 380.6 4.6 C 380.6 4.6 380.6 4.6 380.6 4.6 Z M 474.5 4.6 C 464.6 4.6 452.8 4.6 440.9 4.6 C 451.3 4.6 461.6 4.6 472.3 4.6 C 473.0 4.6 473.8 4.6 474.5 4.6 Z M 487.2 4.7 C 467.0 4.7 446.8 4.7 467.1 4.6 C 471.7 4.6 476.3 4.6 481.0 4.6 C 483.0 4.6 485.1 4.7 487.2 4.7 Z M 495.5 8.7 C 495.6 8.6 495.6 7.2 495.6 4.7 C 493.9 4.7 491.8 4.7 489.2 4.7 C 491.1 4.7 493.3 4.7 495.6 4.7 C 495.6 19.0 495.6 39.0 495.6 38.0 C 495.6 28.9 495.5 18.9 495.5 8.7 C 495.5 8.7 495.5 8.7 495.5 8.7 Z M 498.0 27.1 C 498.0 18.1 498.0 10.2 498.0 24.5 C 498.0 30.0 498.0 35.4 498.0 41.0 C 498.0 36.4 498.0 31.8 498.0 27.1 Z M 54.5 4.6 C 58.3 4.6 72.8 4.6 81.2 4.6 C 82.0 4.4 49.1 4.5 54.5 4.6 C 54.5 4.6 54.5 4.6 54.5 4.6 Z M 3.7 8.0 C 3.7 7.2 3.7 6.1 3.7 4.6 C 9.6 4.6 20.2 4.6 27.0 4.6 C 27.5 4.5 11.3 4.5 3.6 4.6 C 3.7 7.8 3.7 9.5 3.7 8.0 C 3.7 8.0 3.7 8.0 3.7 8.0 Z M 375.4 222.2 C 375.4 222.2 375.4 222.2 375.5 222.2 C 375.4 222.2 375.4 222.2 375.4 222.2 C 375.4 222.2 375.4 222.2 375.4 222.2 Z M 375.4 222.2 " fill="#66635F"></path></g></g><g><clipPath id="clip-2326"><path d="M 18.8 14.1 L 480.5 14.1 L 480.5 75.8 L 18.8 75.8 Z M 18.8 14.1 "></path></clipPath><g clip-path="url(#clip-2326)"><text xml:space="preserve" font-family="GillSans" font-size="36.0" fill="#605F5F" transform="matrix(1.00, 0.00, -0.00, -1.00, 30.0, 33.0)">w</text><text xml:space="preserve" font-family="GillSans" font-size="36.0" fill="#605F5F" transform="matrix(1.00, 0.00, -0.00, -1.00, 55.9, 33.0)">w</text><text xml:space="preserve" font-family="GillSans" font-size="36.0" fill="#605F5F" transform="matrix(1.00, 0.00, -0.00, -1.00, 81.8, 33.0)">w</text><text xml:space="preserve" font-family="GillSans" font-size="36.0" fill="#605F5F" transform="matrix(1.00, 0.00, -0.00, -1.00, 105.5, 33.0)">.</text><text xml:space="preserve" font-family="GillSans" font-size="36.0" fill="#605F5F" transform="matrix(1.00, 0.00, -0.00, -1.00, 113.4, 33.0)">c</text><text xml:space="preserve" font-family="GillSans" font-size="36.0" fill="#605F5F" transform="matrix(1.00, 0.00, -0.00, -1.00, 129.2, 33.0)">o</text><text xml:space="preserve" font-family="GillSans" font-size="36.0" fill="#605F5F" transform="matrix(1.00, 0.00, -0.00, -1.00, 149.1, 33.0)">m</text><text xml:space="preserve" font-family="GillSans" font-size="36.0" fill="#605F5F" transform="matrix(1.00, 0.00, -0.00, -1.00, 176.8, 33.0)">m</text><text xml:space="preserve" font-family="GillSans" font-size="36.0" fill="#605F5F" transform="matrix(1.00, 0.00, -0.00, -1.00, 204.2, 33.0)">u</text><text xml:space="preserve" font-family="GillSans" font-size="36.0" fill="#605F5F" transform="matrix(1.00, 0.00, -0.00, -1.00, 222.2, 33.0)">n</text><text xml:space="preserve" font-family="GillSans" font-size="36.0" fill="#605F5F" transform="matrix(1.00, 0.00, -0.00, -1.00, 240.2, 33.0)">i</text><text xml:space="preserve" font-family="GillSans" font-size="36.0" fill="#605F5F" transform="matrix(1.00, 0.00, -0.00, -1.00, 248.1, 33.0)">t</text><text xml:space="preserve" font-family="GillSans" font-size="36.0" fill="#605F5F" transform="matrix(1.00, 0.00, -0.00, -1.00, 260.1, 33.0)">y</text><text xml:space="preserve" font-family="GillSans" font-size="36.0" fill="#605F5F" transform="matrix(1.00, 0.00, -0.00, -1.00, 275.9, 33.0)">c</text><text xml:space="preserve" font-family="GillSans" font-size="36.0" fill="#605F5F" transform="matrix(1.00, 0.00, -0.00, -1.00, 291.6, 33.0)">o</text><text xml:space="preserve" font-family="GillSans" font-size="36.0" fill="#605F5F" transform="matrix(1.00, 0.00, -0.00, -1.00, 311.5, 33.0)">u</text><text xml:space="preserve" font-family="GillSans" font-size="36.0" fill="#605F5F" transform="matrix(1.00, 0.00, -0.00, -1.00, 329.5, 33.0)">n</text><text xml:space="preserve" font-family="GillSans" font-size="36.0" fill="#605F5F" transform="matrix(1.00, 0.00, -0.00, -1.00, 347.5, 33.0)">t</text><text xml:space="preserve" font-family="GillSans" font-size="36.0" fill="#605F5F" transform="matrix(1.00, 0.00, -0.00, -1.00, 359.5, 33.0)">s</text><text xml:space="preserve" font-family="GillSans" font-size="36.0" fill="#605F5F" transform="matrix(1.00, 0.00, -0.00, -1.00, 373.3, 33.0)">.</text><text xml:space="preserve" font-family="GillSans" font-size="36.0" fill="#605F5F" transform="matrix(1.00, 0.00, -0.00, -1.00, 381.2, 33.0)">m</text><text xml:space="preserve" font-family="GillSans" font-size="36.0" fill="#605F5F" transform="matrix(1.00, 0.00, -0.00, -1.00, 409.0, 33.0)">e</text><text xml:space="preserve" font-family="GillSans" font-size="36.0" fill="#605F5F" transform="matrix(1.00, 0.00, -0.00, -1.00, 427.0, 33.0)">.</text><text xml:space="preserve" font-family="GillSans" font-size="36.0" fill="#605F5F" transform="matrix(1.00, 0.00, -0.00, -1.00, 434.9, 33.0)">u</text><text xml:space="preserve" font-family="GillSans" font-size="36.0" fill="#605F5F" transform="matrix(1.00, 0.00, -0.00, -1.00, 452.9, 33.0)">k</text><path d="M 4.5 39.4 L 444.6 39.4 " fill="none" stroke="#605F5F" stroke-width="1.79" stroke-miterlimit="0.00" transform="matrix(1.00, 0.00, 0.00, -1.00, 25.1, 69.5)"></path></g></g><g><clipPath id="clip-2327"><path d="M 177.4 77.1 L 446.0 77.1 L 446.0 176.4 L 177.4 176.4 Z M 177.4 77.1 "></path></clipPath><g clip-path="url(#clip-2327)"><image xlink:href="../../432B082E-9EC6-412F-8513-17D6612FAF89/assets/6BA95B8926436AAE64176B621C3BB652.jpeg" width="269.00" height="99.00" transform="matrix(1.00, 0.00, -0.00, -1.00, 177.0, 176.0)"></image></g></g></g></svg>