<?xml version="1.0" encoding="UTF-8" standalone="no"?><svg xmlns="http://www.w3.org/2000/svg" xmlns:xlink="http://www.w3.org/1999/xlink" clip-rule="evenodd" stroke-miterlimit="4.00" viewBox="0 0 973 32"><desc>SVG generated by Keynote</desc><defs></defs><g transform="matrix(1.00, 0.00, -0.00, -1.00, 0.0, 32.0)"><text xml:space="preserve" font-family="GillSans" font-size="26.0" fill="#605F5F" transform="matrix(1.00, 0.00, -0.00, -1.00, 0.0, 7.0)">h</text><text xml:space="preserve" font-family="GillSans" font-size="26.0" fill="#605F5F" transform="matrix(1.00, 0.00, -0.00, -1.00, 13.0, 7.0)">t</text><text xml:space="preserve" font-family="GillSans" font-size="26.0" fill="#605F5F" transform="matrix(1.00, 0.00, -0.00, -1.00, 21.7, 7.0)">t</text><text xml:space="preserve" font-family="GillSans" font-size="26.0" fill="#605F5F" transform="matrix(1.00, 0.00, -0.00, -1.00, 30.3, 7.0)">p</text><text xml:space="preserve" font-family="GillSans" font-size="26.0" fill="#605F5F" transform="matrix(1.00, 0.00, -0.00, -1.00, 43.3, 7.0)">s</text><text xml:space="preserve" font-family="GillSans" font-size="26.0" fill="#605F5F" transform="matrix(1.00, 0.00, -0.00, -1.00, 53.3, 7.0)">:</text><text xml:space="preserve" font-family="GillSans" font-size="26.0" fill="#605F5F" transform="matrix(1.00, 0.00, -0.00, -1.00, 59.0, 7.0)">/</text><text xml:space="preserve" font-family="GillSans" font-size="26.0" fill="#605F5F" transform="matrix(1.00, 0.00, -0.00, -1.00, 66.3, 7.0)">/</text><text xml:space="preserve" font-family="GillSans" font-size="26.0" fill="#605F5F" transform="matrix(1.00, 0.00, -0.00, -1.00, 73.6, 7.0)">w</text><text xml:space="preserve" font-family="GillSans" font-size="26.0" fill="#605F5F" transform="matrix(1.00, 0.00, -0.00, -1.00, 92.3, 7.0)">w</text><text xml:space="preserve" font-family="GillSans" font-size="26.0" fill="#605F5F" transform="matrix(1.00, 0.00, -0.00, -1.00, 111.0, 7.0)">w</text><text xml:space="preserve" font-family="GillSans" font-size="26.0" fill="#605F5F" transform="matrix(1.00, 0.00, -0.00, -1.00, 128.2, 7.0)">.</text><text xml:space="preserve" font-family="GillSans" font-size="26.0" fill="#605F5F" transform="matrix(1.00, 0.00, -0.00, -1.00, 133.9, 7.0)">o</text><text xml:space="preserve" font-family="GillSans" font-size="26.0" fill="#605F5F" transform="matrix(1.00, 0.00, -0.00, -1.00, 148.2, 7.0)">r</text><text xml:space="preserve" font-family="GillSans" font-size="26.0" fill="#605F5F" transform="matrix(1.00, 0.00, -0.00, -1.00, 158.1, 7.0)">d</text><text xml:space="preserve" font-family="GillSans" font-size="26.0" fill="#605F5F" transform="matrix(1.00, 0.00, -0.00, -1.00, 171.4, 7.0)">n</text><text xml:space="preserve" font-family="GillSans" font-size="26.0" fill="#605F5F" transform="matrix(1.00, 0.00, -0.00, -1.00, 184.4, 7.0)">a</text><text xml:space="preserve" font-family="GillSans" font-size="26.0" fill="#605F5F" transform="matrix(1.00, 0.00, -0.00, -1.00, 195.5, 7.0)">n</text><text xml:space="preserve" font-family="GillSans" font-size="26.0" fill="#605F5F" transform="matrix(1.00, 0.00, -0.00, -1.00, 208.5, 7.0)">c</text><text xml:space="preserve" font-family="GillSans" font-size="26.0" fill="#605F5F" transform="matrix(1.00, 0.00, -0.00, -1.00, 219.8, 7.0)">e</text><text xml:space="preserve" font-family="GillSans" font-size="26.0" fill="#605F5F" transform="matrix(1.00, 0.00, -0.00, -1.00, 232.3, 7.0)">s</text><text xml:space="preserve" font-family="GillSans" font-size="26.0" fill="#605F5F" transform="matrix(1.00, 0.00, -0.00, -1.00, 242.3, 7.0)">u</text><text xml:space="preserve" font-family="GillSans" font-size="26.0" fill="#605F5F" transform="matrix(1.00, 0.00, -0.00, -1.00, 255.3, 7.0)">r</text><text xml:space="preserve" font-family="GillSans" font-size="26.0" fill="#605F5F" transform="matrix(1.00, 0.00, -0.00, -1.00, 266.4, 7.0)">v</text><text xml:space="preserve" font-family="GillSans" font-size="26.0" fill="#605F5F" transform="matrix(1.00, 0.00, -0.00, -1.00, 277.2, 7.0)">e</text><text xml:space="preserve" font-family="GillSans" font-size="26.0" fill="#605F5F" transform="matrix(1.00, 0.00, -0.00, -1.00, 289.3, 7.0)">y</text><text xml:space="preserve" font-family="GillSans" font-size="26.0" fill="#605F5F" transform="matrix(1.00, 0.00, -0.00, -1.00, 298.6, 7.0)">.</text><text xml:space="preserve" font-family="GillSans" font-size="26.0" fill="#605F5F" transform="matrix(1.00, 0.00, -0.00, -1.00, 304.3, 7.0)">c</text><text xml:space="preserve" font-family="GillSans" font-size="26.0" fill="#605F5F" transform="matrix(1.00, 0.00, -0.00, -1.00, 315.7, 7.0)">o</text><text xml:space="preserve" font-family="GillSans" font-size="26.0" fill="#605F5F" transform="matrix(1.00, 0.00, -0.00, -1.00, 329.3, 7.0)">.</text><text xml:space="preserve" font-family="GillSans" font-size="26.0" fill="#605F5F" transform="matrix(1.00, 0.00, -0.00, -1.00, 335.0, 7.0)">u</text><text xml:space="preserve" font-family="GillSans" font-size="26.0" fill="#605F5F" transform="matrix(1.00, 0.00, -0.00, -1.00, 348.0, 7.0)">k</text><text xml:space="preserve" font-family="GillSans" font-size="26.0" fill="#605F5F" transform="matrix(1.00, 0.00, -0.00, -1.00, 360.4, 7.0)">/</text><text xml:space="preserve" font-family="GillSans" font-size="26.0" fill="#605F5F" transform="matrix(1.00, 0.00, -0.00, -1.00, 367.7, 7.0)">b</text><text xml:space="preserve" font-family="GillSans" font-size="26.0" fill="#605F5F" transform="matrix(1.00, 0.00, -0.00, -1.00, 380.7, 7.0)">u</text><text xml:space="preserve" font-family="GillSans" font-size="26.0" fill="#605F5F" transform="matrix(1.00, 0.00, -0.00, -1.00, 393.7, 7.0)">s</text><text xml:space="preserve" font-family="GillSans" font-size="26.0" fill="#605F5F" transform="matrix(1.00, 0.00, -0.00, -1.00, 403.7, 7.0)">i</text><text xml:space="preserve" font-family="GillSans" font-size="26.0" fill="#605F5F" transform="matrix(1.00, 0.00, -0.00, -1.00, 409.4, 7.0)">n</text><text xml:space="preserve" font-family="GillSans" font-size="26.0" fill="#605F5F" transform="matrix(1.00, 0.00, -0.00, -1.00, 422.4, 7.0)">e</text><text xml:space="preserve" font-family="GillSans" font-size="26.0" fill="#605F5F" transform="matrix(1.00, 0.00, -0.00, -1.00, 434.9, 7.0)">s</text><text xml:space="preserve" font-family="GillSans" font-size="26.0" fill="#605F5F" transform="matrix(1.00, 0.00, -0.00, -1.00, 444.9, 7.0)">s</text><text xml:space="preserve" font-family="GillSans" font-size="26.0" fill="#605F5F" transform="matrix(1.00, 0.00, -0.00, -1.00, 454.9, 7.0)">-</text><text xml:space="preserve" font-family="GillSans" font-size="26.0" fill="#605F5F" transform="matrix(1.00, 0.00, -0.00, -1.00, 463.3, 7.0)">a</text><text xml:space="preserve" font-family="GillSans" font-size="26.0" fill="#605F5F" transform="matrix(1.00, 0.00, -0.00, -1.00, 474.4, 7.0)">n</text><text xml:space="preserve" font-family="GillSans" font-size="26.0" fill="#605F5F" transform="matrix(1.00, 0.00, -0.00, -1.00, 487.4, 7.0)">d</text><text xml:space="preserve" font-family="GillSans" font-size="26.0" fill="#605F5F" transform="matrix(1.00, 0.00, -0.00, -1.00, 500.6, 7.0)">-</text><text xml:space="preserve" font-family="GillSans" font-size="26.0" fill="#605F5F" transform="matrix(1.00, 0.00, -0.00, -1.00, 509.0, 7.0)">g</text><text xml:space="preserve" font-family="GillSans" font-size="26.0" fill="#605F5F" transform="matrix(1.00, 0.00, -0.00, -1.00, 519.9, 7.0)">o</text><text xml:space="preserve" font-family="GillSans" font-size="26.0" fill="#605F5F" transform="matrix(1.00, 0.00, -0.00, -1.00, 533.9, 7.0)">v</text><text xml:space="preserve" font-family="GillSans" font-size="26.0" fill="#605F5F" transform="matrix(1.00, 0.00, -0.00, -1.00, 544.8, 7.0)">e</text><text xml:space="preserve" font-family="GillSans" font-size="26.0" fill="#605F5F" transform="matrix(1.00, 0.00, -0.00, -1.00, 557.3, 7.0)">r</text><text xml:space="preserve" font-family="GillSans" font-size="26.0" fill="#605F5F" transform="matrix(1.00, 0.00, -0.00, -1.00, 567.6, 7.0)">n</text><text xml:space="preserve" font-family="GillSans" font-size="26.0" fill="#605F5F" transform="matrix(1.00, 0.00, -0.00, -1.00, 580.6, 7.0)">m</text><text xml:space="preserve" font-family="GillSans" font-size="26.0" fill="#605F5F" transform="matrix(1.00, 0.00, -0.00, -1.00, 600.6, 7.0)">e</text><text xml:space="preserve" font-family="GillSans" font-size="26.0" fill="#605F5F" transform="matrix(1.00, 0.00, -0.00, -1.00, 613.1, 7.0)">n</text><text xml:space="preserve" font-family="GillSans" font-size="26.0" fill="#605F5F" transform="matrix(1.00, 0.00, -0.00, -1.00, 626.1, 7.0)">t</text><text xml:space="preserve" font-family="GillSans" font-size="26.0" fill="#605F5F" transform="matrix(1.00, 0.00, -0.00, -1.00, 634.7, 7.0)">/</text><text xml:space="preserve" font-family="GillSans" font-size="26.0" fill="#605F5F" transform="matrix(1.00, 0.00, -0.00, -1.00, 642.0, 7.0)">p</text><text xml:space="preserve" font-family="GillSans" font-size="26.0" fill="#605F5F" transform="matrix(1.00, 0.00, -0.00, -1.00, 655.0, 7.0)">r</text><text xml:space="preserve" font-family="GillSans" font-size="26.0" fill="#605F5F" transform="matrix(1.00, 0.00, -0.00, -1.00, 664.7, 7.0)">o</text><text xml:space="preserve" font-family="GillSans" font-size="26.0" fill="#605F5F" transform="matrix(1.00, 0.00, -0.00, -1.00, 679.0, 7.0)">d</text><text xml:space="preserve" font-family="GillSans" font-size="26.0" fill="#605F5F" transform="matrix(1.00, 0.00, -0.00, -1.00, 692.3, 7.0)">u</text><text xml:space="preserve" font-family="GillSans" font-size="26.0" fill="#605F5F" transform="matrix(1.00, 0.00, -0.00, -1.00, 705.3, 7.0)">c</text><text xml:space="preserve" font-family="GillSans" font-size="26.0" fill="#605F5F" transform="matrix(1.00, 0.00, -0.00, -1.00, 716.6, 7.0)">t</text><text xml:space="preserve" font-family="GillSans" font-size="26.0" fill="#605F5F" transform="matrix(1.00, 0.00, -0.00, -1.00, 725.3, 7.0)">s</text><text xml:space="preserve" font-family="GillSans" font-size="26.0" fill="#605F5F" transform="matrix(1.00, 0.00, -0.00, -1.00, 735.3, 7.0)">/</text><text xml:space="preserve" font-family="GillSans" font-size="26.0" fill="#605F5F" transform="matrix(1.00, 0.00, -0.00, -1.00, 742.6, 7.0)">c</text><text xml:space="preserve" font-family="GillSans" font-size="26.0" fill="#605F5F" transform="matrix(1.00, 0.00, -0.00, -1.00, 754.0, 7.0)">o</text><text xml:space="preserve" font-family="GillSans" font-size="26.0" fill="#605F5F" transform="matrix(1.00, 0.00, -0.00, -1.00, 768.3, 7.0)">d</text><text xml:space="preserve" font-family="GillSans" font-size="26.0" fill="#605F5F" transform="matrix(1.00, 0.00, -0.00, -1.00, 781.6, 7.0)">e</text><text xml:space="preserve" font-family="GillSans" font-size="26.0" fill="#605F5F" transform="matrix(1.00, 0.00, -0.00, -1.00, 794.0, 7.0)">-</text><text xml:space="preserve" font-family="GillSans" font-size="26.0" fill="#605F5F" transform="matrix(1.00, 0.00, -0.00, -1.00, 802.4, 7.0)">p</text><text xml:space="preserve" font-family="GillSans" font-size="26.0" fill="#605F5F" transform="matrix(1.00, 0.00, -0.00, -1.00, 815.4, 7.0)">o</text><text xml:space="preserve" font-family="GillSans" font-size="26.0" fill="#605F5F" transform="matrix(1.00, 0.00, -0.00, -1.00, 829.8, 7.0)">i</text><text xml:space="preserve" font-family="GillSans" font-size="26.0" fill="#605F5F" transform="matrix(1.00, 0.00, -0.00, -1.00, 835.5, 7.0)">n</text><text xml:space="preserve" font-family="GillSans" font-size="26.0" fill="#605F5F" transform="matrix(1.00, 0.00, -0.00, -1.00, 848.5, 7.0)">t</text><text xml:space="preserve" font-family="GillSans" font-size="26.0" fill="#605F5F" transform="matrix(1.00, 0.00, -0.00, -1.00, 857.1, 7.0)">-</text><text xml:space="preserve" font-family="GillSans" font-size="26.0" fill="#605F5F" transform="matrix(1.00, 0.00, -0.00, -1.00, 865.5, 7.0)">o</text><text xml:space="preserve" font-family="GillSans" font-size="26.0" fill="#605F5F" transform="matrix(1.00, 0.00, -0.00, -1.00, 879.9, 7.0)">p</text><text xml:space="preserve" font-family="GillSans" font-size="26.0" fill="#605F5F" transform="matrix(1.00, 0.00, -0.00, -1.00, 892.9, 7.0)">e</text><text xml:space="preserve" font-family="GillSans" font-size="26.0" fill="#605F5F" transform="matrix(1.00, 0.00, -0.00, -1.00, 905.3, 7.0)">n</text><text xml:space="preserve" font-family="GillSans" font-size="26.0" fill="#605F5F" transform="matrix(1.00, 0.00, -0.00, -1.00, 918.3, 7.0)">.</text><text xml:space="preserve" font-family="GillSans" font-size="26.0" fill="#605F5F" transform="matrix(1.00, 0.00, -0.00, -1.00, 924.0, 7.0)">h</text><text xml:space="preserve" font-family="GillSans" font-size="26.0" fill="#605F5F" transform="matrix(1.00, 0.00, -0.00, -1.00, 937.0, 7.0)">t</text><text xml:space="preserve" font-family="GillSans" font-size="26.0" fill="#605F5F" transform="matrix(1.00, 0.00, -0.00, -1.00, 945.7, 7.0)">m</text><text xml:space="preserve" font-family="GillSans" font-size="26.0" fill="#605F5F" transform="matrix(1.00, 0.00, -0.00, -1.00, 965.8, 7.0)">l</text><g><clipPath id="clip-2330"><path d="M -0.8 3.5 L 971.8 3.5 L 971.8 6.8 L -0.8 6.8 Z M -0.8 3.5 "></path></clipPath><g clip-path="url(#clip-2330)"><path d="M 4.5 30.0 L 976.0 30.0 " fill="none" stroke="#605F5F" stroke-width="1.29" stroke-miterlimit="0.00" transform="matrix(1.00, 0.00, 0.00, -1.00, -4.3, 35.1)"></path></g></g></g></svg>