<?xml version="1.0" encoding="UTF-8" standalone="no"?><svg xmlns="http://www.w3.org/2000/svg" xmlns:xlink="http://www.w3.org/1999/xlink" clip-rule="evenodd" stroke-miterlimit="4.00" viewBox="0 0 440 188"><desc>SVG generated by Keynote</desc><defs></defs><g transform="matrix(1.00, 0.00, -0.00, -1.00, 0.0, 188.0)"><g><clipPath id="clip-1242"><path d="M 1.8 186.1 L 437.7 186.1 L 437.7 2.1 L 1.8 2.1 Z M 1.8 186.1 "></path></clipPath><g clip-path="url(#clip-1242)"><image xlink:href="70FBD9C9FE4E58D2F2748B4521C4522F.png" width="436.00" height="185.00" transform="matrix(1.00, 0.00, -0.00, 1.00, 1.8, 1.1)"></image></g></g><path d="M 0.0 0.0 L 435.9 0.0 L 435.9 184.0 L 0.0 184.0 Z M 0.0 0.0 " fill="none" stroke="#A29D97" stroke-width="1.00" transform="matrix(1.00, 0.00, 0.00, -1.00, 1.8, 186.1)"></path><g><clipPath id="clip-1243"><path d="M 5.3 169.0 L 17.7 169.0 L 17.7 156.6 L 5.3 156.6 Z M 5.3 169.0 "></path></clipPath><g clip-path="url(#clip-1243)"><g><clipPath id="clip-1244"><path d="M 6.3 157.7 L 16.7 157.7 L 16.7 168.0 L 6.3 168.0 Z M 6.3 157.7 "></path></clipPath><g clip-path="url(#clip-1244)"><path d="M 16.7 157.7 L 6.3 157.7 L 6.3 168.0 L 16.7 168.0 Z M 16.7 157.7 " fill="#BDBDBD"></path></g></g></g></g><g><clipPath id="clip-1245"><path d="M -2.3 -2.0 L 441.9 -2.0 L 441.9 190.2 L -2.3 190.2 Z M -2.3 -2.0 "></path></clipPath><g clip-path="url(#clip-1245)"><text xml:space="preserve" font-family="GillSans" font-size="30.0" fill="#605F5F" transform="matrix(1.00, 0.00, -0.00, -1.00, 35.0, 154.0)">N</text><text xml:space="preserve" font-family="GillSans" font-size="30.0" fill="#605F5F" transform="matrix(1.00, 0.00, -0.00, -1.00, 58.4, 154.0)">e</text><text xml:space="preserve" font-family="GillSans" font-size="30.0" fill="#605F5F" transform="matrix(1.00, 0.00, -0.00, -1.00, 72.3, 154.0)">w</text><text xml:space="preserve" font-family="GillSans" font-size="30.0" fill="#605F5F" transform="matrix(1.00, 0.00, -0.00, -1.00, 93.9, 154.0)"> </text><text xml:space="preserve" font-family="GillSans" font-size="30.0" fill="#605F5F" transform="matrix(1.00, 0.00, -0.00, -1.00, 102.2, 154.0)">D</text><text xml:space="preserve" font-family="GillSans" font-size="30.0" fill="#605F5F" transform="matrix(1.00, 0.00, -0.00, -1.00, 124.7, 154.0)">a</text><text xml:space="preserve" font-family="GillSans" font-size="30.0" fill="#605F5F" transform="matrix(1.00, 0.00, -0.00, -1.00, 137.5, 154.0)">t</text><text xml:space="preserve" font-family="GillSans" font-size="30.0" fill="#605F5F" transform="matrix(1.00, 0.00, -0.00, -1.00, 147.5, 154.0)">a</text><text xml:space="preserve" font-family="GillSans" font-size="30.0" fill="#605F5F" transform="matrix(1.00, 0.00, -0.00, -1.00, 160.3, 154.0)">S</text><text xml:space="preserve" font-family="GillSans" font-size="30.0" fill="#605F5F" transform="matrix(1.00, 0.00, -0.00, -1.00, 174.1, 154.0)">e</text><text xml:space="preserve" font-family="GillSans" font-size="30.0" fill="#605F5F" transform="matrix(1.00, 0.00, -0.00, -1.00, 188.4, 154.0)">t</text><text xml:space="preserve" font-family="GillSans" font-size="30.0" fill="#605F5F" transform="matrix(1.00, 0.00, -0.00, -1.00, 198.4, 154.0)"> </text><text xml:space="preserve" font-family="GillSans" font-size="30.0" fill="#605F5F" transform="matrix(1.00, 0.00, -0.00, -1.00, 206.8, 154.0)">i</text><text xml:space="preserve" font-family="GillSans" font-size="30.0" fill="#605F5F" transform="matrix(1.00, 0.00, -0.00, -1.00, 213.3, 154.0)">s</text><text xml:space="preserve" font-family="GillSans" font-size="30.0" fill="#605F5F" transform="matrix(1.00, 0.00, -0.00, -1.00, 224.9, 154.0)">s</text><text xml:space="preserve" font-family="GillSans" font-size="30.0" fill="#605F5F" transform="matrix(1.00, 0.00, -0.00, -1.00, 236.4, 154.0)">u</text><text xml:space="preserve" font-family="GillSans" font-size="30.0" fill="#605F5F" transform="matrix(1.00, 0.00, -0.00, -1.00, 251.4, 154.0)">e</text><text xml:space="preserve" font-family="GillSans" font-size="30.0" fill="#605F5F" transform="matrix(1.00, 0.00, -0.00, -1.00, 265.8, 154.0)">d</text><text xml:space="preserve" font-family="GillSans" font-size="30.0" fill="#605F5F" transform="matrix(1.00, 0.00, -0.00, -1.00, 281.1, 154.0)"> </text><text xml:space="preserve" font-family="GillSans" font-size="30.0" fill="#605F5F" transform="matrix(1.00, 0.00, -0.00, -1.00, 289.4, 154.0)">a</text><text xml:space="preserve" font-family="GillSans" font-size="30.0" fill="#605F5F" transform="matrix(1.00, 0.00, -0.00, -1.00, 301.9, 154.0)">p</text><text xml:space="preserve" font-family="GillSans" font-size="30.0" fill="#605F5F" transform="matrix(1.00, 0.00, -0.00, -1.00, 316.9, 154.0)">p</text><text xml:space="preserve" font-family="GillSans" font-size="30.0" fill="#605F5F" transform="matrix(1.00, 0.00, -0.00, -1.00, 331.9, 154.0)">r</text><text xml:space="preserve" font-family="GillSans" font-size="30.0" fill="#605F5F" transform="matrix(1.00, 0.00, -0.00, -1.00, 343.0, 154.0)">o</text><text xml:space="preserve" font-family="GillSans" font-size="30.0" fill="#605F5F" transform="matrix(1.00, 0.00, -0.00, -1.00, 359.1, 154.0)">x</text><text xml:space="preserve" font-family="GillSans" font-size="30.0" fill="#605F5F" transform="matrix(1.00, 0.00, -0.00, -1.00, 374.1, 154.0)"> </text><text xml:space="preserve" font-family="GillSans" font-size="30.0" fill="#605F5F" transform="matrix(1.00, 0.00, -0.00, -1.00, 35.0, 119.0)">e</text><text xml:space="preserve" font-family="GillSans" font-size="30.0" fill="#605F5F" transform="matrix(1.00, 0.00, -0.00, -1.00, 48.9, 119.0)">v</text><text xml:space="preserve" font-family="GillSans" font-size="30.0" fill="#605F5F" transform="matrix(1.00, 0.00, -0.00, -1.00, 61.5, 119.0)">e</text><text xml:space="preserve" font-family="GillSans" font-size="30.0" fill="#605F5F" transform="matrix(1.00, 0.00, -0.00, -1.00, 75.8, 119.0)">r</text><text xml:space="preserve" font-family="GillSans" font-size="30.0" fill="#605F5F" transform="matrix(1.00, 0.00, -0.00, -1.00, 88.6, 119.0)">y</text><text xml:space="preserve" font-family="GillSans" font-size="30.0" fill="#605F5F" transform="matrix(1.00, 0.00, -0.00, -1.00, 101.7, 119.0)"> </text><text xml:space="preserve" font-family="GillSans" font-size="30.0" fill="#605F5F" transform="matrix(1.00, 0.00, -0.00, -1.00, 110.1, 119.0)">3</text><text xml:space="preserve" font-family="GillSans" font-size="30.0" fill="#605F5F" transform="matrix(1.00, 0.00, -0.00, -1.00, 125.1, 119.0)"> </text><text xml:space="preserve" font-family="GillSans" font-size="30.0" fill="#605F5F" transform="matrix(1.00, 0.00, -0.00, -1.00, 133.4, 119.0)">m</text><text xml:space="preserve" font-family="GillSans" font-size="30.0" fill="#605F5F" transform="matrix(1.00, 0.00, -0.00, -1.00, 156.5, 119.0)">o</text><text xml:space="preserve" font-family="GillSans" font-size="30.0" fill="#605F5F" transform="matrix(1.00, 0.00, -0.00, -1.00, 173.1, 119.0)">n</text><text xml:space="preserve" font-family="GillSans" font-size="30.0" fill="#605F5F" transform="matrix(1.00, 0.00, -0.00, -1.00, 188.1, 119.0)">t</text><text xml:space="preserve" font-family="GillSans" font-size="30.0" fill="#605F5F" transform="matrix(1.00, 0.00, -0.00, -1.00, 198.1, 119.0)">h</text><text xml:space="preserve" font-family="GillSans" font-size="30.0" fill="#605F5F" transform="matrix(1.00, 0.00, -0.00, -1.00, 213.1, 119.0)">s</text></g></g><g><clipPath id="clip-1246"><path d="M 5.3 99.0 L 17.7 99.0 L 17.7 86.6 L 5.3 86.6 Z M 5.3 99.0 "></path></clipPath><g clip-path="url(#clip-1246)"><g><clipPath id="clip-1247"><path d="M 6.3 87.7 L 16.7 87.7 L 16.7 98.0 L 6.3 98.0 Z M 6.3 87.7 "></path></clipPath><g clip-path="url(#clip-1247)"><path d="M 16.7 87.7 L 6.3 87.7 L 6.3 98.0 L 16.7 98.0 Z M 16.7 87.7 " fill="#BDBDBD"></path></g></g></g></g><g><clipPath id="clip-1248"><path d="M -2.3 -2.0 L 441.9 -2.0 L 441.9 190.2 L -2.3 190.2 Z M -2.3 -2.0 "></path></clipPath><g clip-path="url(#clip-1248)"><text xml:space="preserve" font-family="GillSans" font-size="30.0" fill="#605F5F" transform="matrix(1.00, 0.00, -0.00, -1.00, 35.0, 84.0)">B</text><text xml:space="preserve" font-family="GillSans" font-size="30.0" fill="#605F5F" transform="matrix(1.00, 0.00, -0.00, -1.00, 51.9, 84.0)">a</text><text xml:space="preserve" font-family="GillSans" font-size="30.0" fill="#605F5F" transform="matrix(1.00, 0.00, -0.00, -1.00, 64.7, 84.0)">c</text><text xml:space="preserve" font-family="GillSans" font-size="30.0" fill="#605F5F" transform="matrix(1.00, 0.00, -0.00, -1.00, 77.8, 84.0)">k</text><text xml:space="preserve" font-family="GillSans" font-size="30.0" fill="#605F5F" transform="matrix(1.00, 0.00, -0.00, -1.00, 92.2, 84.0)">g</text><text xml:space="preserve" font-family="GillSans" font-size="30.0" fill="#605F5F" transform="matrix(1.00, 0.00, -0.00, -1.00, 105.0, 84.0)">r</text><text xml:space="preserve" font-family="GillSans" font-size="30.0" fill="#605F5F" transform="matrix(1.00, 0.00, -0.00, -1.00, 116.1, 84.0)">o</text><text xml:space="preserve" font-family="GillSans" font-size="30.0" fill="#605F5F" transform="matrix(1.00, 0.00, -0.00, -1.00, 132.7, 84.0)">u</text><text xml:space="preserve" font-family="GillSans" font-size="30.0" fill="#605F5F" transform="matrix(1.00, 0.00, -0.00, -1.00, 147.7, 84.0)">n</text><text xml:space="preserve" font-family="GillSans" font-size="30.0" fill="#605F5F" transform="matrix(1.00, 0.00, -0.00, -1.00, 162.7, 84.0)">d</text><text xml:space="preserve" font-family="GillSans" font-size="30.0" fill="#605F5F" transform="matrix(1.00, 0.00, -0.00, -1.00, 178.0, 84.0)"> </text><text xml:space="preserve" font-family="GillSans" font-size="30.0" fill="#605F5F" transform="matrix(1.00, 0.00, -0.00, -1.00, 186.3, 84.0)">p</text><text xml:space="preserve" font-family="GillSans" font-size="30.0" fill="#605F5F" transform="matrix(1.00, 0.00, -0.00, -1.00, 201.3, 84.0)">r</text><text xml:space="preserve" font-family="GillSans" font-size="30.0" fill="#605F5F" transform="matrix(1.00, 0.00, -0.00, -1.00, 212.4, 84.0)">o</text><text xml:space="preserve" font-family="GillSans" font-size="30.0" fill="#605F5F" transform="matrix(1.00, 0.00, -0.00, -1.00, 229.0, 84.0)">c</text><text xml:space="preserve" font-family="GillSans" font-size="30.0" fill="#605F5F" transform="matrix(1.00, 0.00, -0.00, -1.00, 242.1, 84.0)">e</text><text xml:space="preserve" font-family="GillSans" font-size="30.0" fill="#605F5F" transform="matrix(1.00, 0.00, -0.00, -1.00, 256.5, 84.0)">s</text><text xml:space="preserve" font-family="GillSans" font-size="30.0" fill="#605F5F" transform="matrix(1.00, 0.00, -0.00, -1.00, 268.0, 84.0)">s</text><text xml:space="preserve" font-family="GillSans" font-size="30.0" fill="#605F5F" transform="matrix(1.00, 0.00, -0.00, -1.00, 279.6, 84.0)"> </text><text xml:space="preserve" font-family="GillSans" font-size="30.0" fill="#605F5F" transform="matrix(1.00, 0.00, -0.00, -1.00, 287.9, 84.0)">t</text><text xml:space="preserve" font-family="GillSans" font-size="30.0" fill="#605F5F" transform="matrix(1.00, 0.00, -0.00, -1.00, 297.9, 84.0)">o</text><text xml:space="preserve" font-family="GillSans" font-size="30.0" fill="#605F5F" transform="matrix(1.00, 0.00, -0.00, -1.00, 314.4, 84.0)"> </text><text xml:space="preserve" font-family="GillSans" font-size="30.0" fill="#605F5F" transform="matrix(1.00, 0.00, -0.00, -1.00, 322.7, 84.0)">m</text><text xml:space="preserve" font-family="GillSans" font-size="30.0" fill="#605F5F" transform="matrix(1.00, 0.00, -0.00, -1.00, 345.9, 84.0)">e</text><text xml:space="preserve" font-family="GillSans" font-size="30.0" fill="#605F5F" transform="matrix(1.00, 0.00, -0.00, -1.00, 360.2, 84.0)">r</text><text xml:space="preserve" font-family="GillSans" font-size="30.0" fill="#605F5F" transform="matrix(1.00, 0.00, -0.00, -1.00, 372.1, 84.0)">g</text><text xml:space="preserve" font-family="GillSans" font-size="30.0" fill="#605F5F" transform="matrix(1.00, 0.00, -0.00, -1.00, 384.9, 84.0)">e</text><text xml:space="preserve" font-family="GillSans" font-size="30.0" fill="#605F5F" transform="matrix(1.00, 0.00, -0.00, -1.00, 399.3, 84.0)"> </text><text xml:space="preserve" font-family="GillSans" font-size="30.0" fill="#605F5F" transform="matrix(1.00, 0.00, -0.00, -1.00, 35.0, 49.0)">t</text><text xml:space="preserve" font-family="GillSans" font-size="30.0" fill="#605F5F" transform="matrix(1.00, 0.00, -0.00, -1.00, 45.0, 49.0)">h</text><text xml:space="preserve" font-family="GillSans" font-size="30.0" fill="#605F5F" transform="matrix(1.00, 0.00, -0.00, -1.00, 60.0, 49.0)">e</text><text xml:space="preserve" font-family="GillSans" font-size="30.0" fill="#605F5F" transform="matrix(1.00, 0.00, -0.00, -1.00, 74.4, 49.0)"> </text><text xml:space="preserve" font-family="GillSans" font-size="30.0" fill="#605F5F" transform="matrix(1.00, 0.00, -0.00, -1.00, 82.7, 49.0)">n</text><text xml:space="preserve" font-family="GillSans" font-size="30.0" fill="#605F5F" transform="matrix(1.00, 0.00, -0.00, -1.00, 97.7, 49.0)">e</text><text xml:space="preserve" font-family="GillSans" font-size="30.0" fill="#605F5F" transform="matrix(1.00, 0.00, -0.00, -1.00, 111.6, 49.0)">w</text><text xml:space="preserve" font-family="GillSans" font-size="30.0" fill="#605F5F" transform="matrix(1.00, 0.00, -0.00, -1.00, 133.2, 49.0)"> </text><text xml:space="preserve" font-family="GillSans" font-size="30.0" fill="#605F5F" transform="matrix(1.00, 0.00, -0.00, -1.00, 141.5, 49.0)">d</text><text xml:space="preserve" font-family="GillSans" font-size="30.0" fill="#605F5F" transform="matrix(1.00, 0.00, -0.00, -1.00, 156.8, 49.0)">a</text><text xml:space="preserve" font-family="GillSans" font-size="30.0" fill="#605F5F" transform="matrix(1.00, 0.00, -0.00, -1.00, 169.6, 49.0)">t</text><text xml:space="preserve" font-family="GillSans" font-size="30.0" fill="#605F5F" transform="matrix(1.00, 0.00, -0.00, -1.00, 179.6, 49.0)">a</text><text xml:space="preserve" font-family="GillSans" font-size="30.0" fill="#605F5F" transform="matrix(1.00, 0.00, -0.00, -1.00, 192.4, 49.0)"> </text><text xml:space="preserve" font-family="GillSans" font-size="30.0" fill="#605F5F" transform="matrix(1.00, 0.00, -0.00, -1.00, 200.7, 49.0)">i</text><text xml:space="preserve" font-family="GillSans" font-size="30.0" fill="#605F5F" transform="matrix(1.00, 0.00, -0.00, -1.00, 207.3, 49.0)">n</text><text xml:space="preserve" font-family="GillSans" font-size="30.0" fill="#605F5F" transform="matrix(1.00, 0.00, -0.00, -1.00, 222.3, 49.0)">t</text><text xml:space="preserve" font-family="GillSans" font-size="30.0" fill="#605F5F" transform="matrix(1.00, 0.00, -0.00, -1.00, 232.3, 49.0)">o</text><text xml:space="preserve" font-family="GillSans" font-size="30.0" fill="#605F5F" transform="matrix(1.00, 0.00, -0.00, -1.00, 248.8, 49.0)">W</text><text xml:space="preserve" font-family="GillSans" font-size="30.0" fill="#605F5F" transform="matrix(1.00, 0.00, -0.00, -1.00, 277.4, 49.0)">e</text><text xml:space="preserve" font-family="GillSans" font-size="30.0" fill="#605F5F" transform="matrix(1.00, 0.00, -0.00, -1.00, 291.8, 49.0)">b</text><text xml:space="preserve" font-family="GillSans" font-size="30.0" fill="#605F5F" transform="matrix(1.00, 0.00, -0.00, -1.00, 306.8, 49.0)"> </text><text xml:space="preserve" font-family="GillSans" font-size="30.0" fill="#605F5F" transform="matrix(1.00, 0.00, -0.00, -1.00, 315.1, 49.0)">S</text><text xml:space="preserve" font-family="GillSans" font-size="30.0" fill="#605F5F" transform="matrix(1.00, 0.00, -0.00, -1.00, 328.8, 49.0)">y</text><text xml:space="preserve" font-family="GillSans" font-size="30.0" fill="#605F5F" transform="matrix(1.00, 0.00, -0.00, -1.00, 342.0, 49.0)">s</text><text xml:space="preserve" font-family="GillSans" font-size="30.0" fill="#605F5F" transform="matrix(1.00, 0.00, -0.00, -1.00, 353.5, 49.0)">t</text><text xml:space="preserve" font-family="GillSans" font-size="30.0" fill="#605F5F" transform="matrix(1.00, 0.00, -0.00, -1.00, 363.5, 49.0)">e</text><text xml:space="preserve" font-family="GillSans" font-size="30.0" fill="#605F5F" transform="matrix(1.00, 0.00, -0.00, -1.00, 377.9, 49.0)">m</text></g></g><g><clipPath id="clip-1249"><path d="M 5.3 29.0 L 17.7 29.0 L 17.7 16.6 L 5.3 16.6 Z M 5.3 29.0 "></path></clipPath><g clip-path="url(#clip-1249)"><g><clipPath id="clip-1250"><path d="M 6.3 17.7 L 16.7 17.7 L 16.7 28.0 L 6.3 28.0 Z M 6.3 17.7 "></path></clipPath><g clip-path="url(#clip-1250)"><path d="M 16.7 17.7 L 6.3 17.7 L 6.3 28.0 L 16.7 28.0 Z M 16.7 17.7 " fill="#BDBDBD"></path></g></g></g></g><g><clipPath id="clip-1251"><path d="M -2.3 -2.0 L 441.9 -2.0 L 441.9 190.2 L -2.3 190.2 Z M -2.3 -2.0 "></path></clipPath><g clip-path="url(#clip-1251)"><text xml:space="preserve" font-family="GillSans" font-size="30.0" fill="#605F5F" transform="matrix(1.00, 0.00, -0.00, -1.00, 35.0, 14.0)">?</text><text xml:space="preserve" font-family="GillSans" font-size="30.0" fill="#605F5F" transform="matrix(1.00, 0.00, -0.00, -1.00, 45.0, 14.0)">O</text><text xml:space="preserve" font-family="GillSans" font-size="30.0" fill="#605F5F" transform="matrix(1.00, 0.00, -0.00, -1.00, 69.7, 14.0)">b</text><text xml:space="preserve" font-family="GillSans" font-size="30.0" fill="#605F5F" transform="matrix(1.00, 0.00, -0.00, -1.00, 84.7, 14.0)">s</text><text xml:space="preserve" font-family="GillSans" font-size="30.0" fill="#605F5F" transform="matrix(1.00, 0.00, -0.00, -1.00, 96.2, 14.0)">o</text><text xml:space="preserve" font-family="GillSans" font-size="30.0" fill="#605F5F" transform="matrix(1.00, 0.00, -0.00, -1.00, 112.8, 14.0)">l</text><text xml:space="preserve" font-family="GillSans" font-size="30.0" fill="#605F5F" transform="matrix(1.00, 0.00, -0.00, -1.00, 119.4, 14.0)">e</text><text xml:space="preserve" font-family="GillSans" font-size="30.0" fill="#605F5F" transform="matrix(1.00, 0.00, -0.00, -1.00, 133.7, 14.0)">t</text><text xml:space="preserve" font-family="GillSans" font-size="30.0" fill="#605F5F" transform="matrix(1.00, 0.00, -0.00, -1.00, 143.7, 14.0)">e</text><text xml:space="preserve" font-family="GillSans" font-size="30.0" fill="#605F5F" transform="matrix(1.00, 0.00, -0.00, -1.00, 158.1, 14.0)"> </text><text xml:space="preserve" font-family="GillSans" font-size="30.0" fill="#605F5F" transform="matrix(1.00, 0.00, -0.00, -1.00, 166.4, 14.0)">P</text><text xml:space="preserve" font-family="GillSans" font-size="30.0" fill="#605F5F" transform="matrix(1.00, 0.00, -0.00, -1.00, 181.0, 14.0)">o</text><text xml:space="preserve" font-family="GillSans" font-size="30.0" fill="#605F5F" transform="matrix(1.00, 0.00, -0.00, -1.00, 197.5, 14.0)">s</text><text xml:space="preserve" font-family="GillSans" font-size="30.0" fill="#605F5F" transform="matrix(1.00, 0.00, -0.00, -1.00, 209.0, 14.0)">t</text><text xml:space="preserve" font-family="GillSans" font-size="30.0" fill="#605F5F" transform="matrix(1.00, 0.00, -0.00, -1.00, 219.0, 14.0)">c</text><text xml:space="preserve" font-family="GillSans" font-size="30.0" fill="#605F5F" transform="matrix(1.00, 0.00, -0.00, -1.00, 232.2, 14.0)">o</text><text xml:space="preserve" font-family="GillSans" font-size="30.0" fill="#605F5F" transform="matrix(1.00, 0.00, -0.00, -1.00, 248.7, 14.0)">d</text><text xml:space="preserve" font-family="GillSans" font-size="30.0" fill="#605F5F" transform="matrix(1.00, 0.00, -0.00, -1.00, 264.0, 14.0)">e</text><text xml:space="preserve" font-family="GillSans" font-size="30.0" fill="#605F5F" transform="matrix(1.00, 0.00, -0.00, -1.00, 278.4, 14.0)">s</text></g></g></g></svg>