<?xml version="1.0" encoding="UTF-8" standalone="no"?><svg xmlns="http://www.w3.org/2000/svg" xmlns:xlink="http://www.w3.org/1999/xlink" clip-rule="evenodd" stroke-miterlimit="4.00" viewBox="0 0 477 40"><desc>SVG generated by Keynote</desc><defs></defs><g transform="matrix(1.00, 0.00, -0.00, -1.00, 0.0, 40.0)"><text xml:space="preserve" font-family="GillSans-Light" font-size="52.5" fill="#605F5F" transform="matrix(1.00, 0.00, -0.00, -1.00, 2.0, 2.0)">T</text><text xml:space="preserve" font-family="GillSans-Light" font-size="52.5" fill="#605F5F" transform="matrix(1.00, 0.00, -0.00, -1.00, 32.1, 2.0)">H</text><text xml:space="preserve" font-family="GillSans-Light" font-size="52.5" fill="#605F5F" transform="matrix(1.00, 0.00, -0.00, -1.00, 69.9, 2.0)">E</text><text xml:space="preserve" font-family="GillSans-Light" font-size="52.5" fill="#605F5F" transform="matrix(1.00, 0.00, -0.00, -1.00, 95.6, 2.0)"> </text><text xml:space="preserve" font-family="GillSans-Light" font-size="52.5" fill="#605F5F" transform="matrix(1.00, 0.00, -0.00, -1.00, 102.8, 2.0)">T</text><text xml:space="preserve" font-family="GillSans-Light" font-size="52.5" fill="#605F5F" transform="matrix(1.00, 0.00, -0.00, -1.00, 132.9, 2.0)">H</text><text xml:space="preserve" font-family="GillSans-Light" font-size="52.5" fill="#605F5F" transform="matrix(1.00, 0.00, -0.00, -1.00, 170.7, 2.0)">R</text><text xml:space="preserve" font-family="GillSans-Light" font-size="52.5" fill="#605F5F" transform="matrix(1.00, 0.00, -0.00, -1.00, 200.8, 2.0)">E</text><text xml:space="preserve" font-family="GillSans-Light" font-size="52.5" fill="#605F5F" transform="matrix(1.00, 0.00, -0.00, -1.00, 226.5, 2.0)">E</text><text xml:space="preserve" font-family="GillSans-Light" font-size="52.5" fill="#605F5F" transform="matrix(1.00, 0.00, -0.00, -1.00, 252.2, 2.0)"> </text><text xml:space="preserve" font-family="GillSans-Light" font-size="52.5" fill="#605F5F" transform="matrix(1.00, 0.00, -0.00, -1.00, 266.8, 2.0)">P</text><text xml:space="preserve" font-family="GillSans-Light" font-size="52.5" fill="#605F5F" transform="matrix(1.00, 0.00, -0.00, -1.00, 288.8, 2.0)">A</text><text xml:space="preserve" font-family="GillSans-Light" font-size="52.5" fill="#605F5F" transform="matrix(1.00, 0.00, -0.00, -1.00, 323.8, 2.0)">R</text><text xml:space="preserve" font-family="GillSans-Light" font-size="52.5" fill="#605F5F" transform="matrix(1.00, 0.00, -0.00, -1.00, 352.4, 2.0)">T</text><text xml:space="preserve" font-family="GillSans-Light" font-size="52.5" fill="#605F5F" transform="matrix(1.00, 0.00, -0.00, -1.00, 382.5, 2.0)">S</text><text xml:space="preserve" font-family="GillSans-Light" font-size="52.5" fill="#605F5F" transform="matrix(1.00, 0.00, -0.00, -1.00, 407.1, 2.0)">…</text><text xml:space="preserve" font-family="GillSans-Light" font-size="52.5" fill="#605F5F" transform="matrix(1.00, 0.00, -0.00, -1.00, 459.6, 2.0)">.</text><text xml:space="preserve" font-family="GillSans-Light" font-size="52.5" fill="#605F5F" transform="matrix(1.00, 0.00, -0.00, -1.00, 468.8, 2.0)">.</text></g></svg>