<?xml version="1.0" encoding="UTF-8" standalone="no"?><svg xmlns="http://www.w3.org/2000/svg" xmlns:xlink="http://www.w3.org/1999/xlink" clip-rule="evenodd" stroke-miterlimit="4.00" viewBox="0 0 1024 768"><desc>SVG generated by Keynote</desc><defs></defs><g transform="matrix(1.00, 0.00, -0.00, -1.00, 0.0, 768.0)"><g><clipPath id="clip-2008"><path d="M 0.0 768.0 L 1024.0 768.0 L 1024.0 0.0 L 0.0 0.0 Z M 0.0 768.0 "></path></clipPath><g clip-path="url(#clip-2008)"><image xlink:href="../../41F9CECD-E746-4B6A-B57C-11EF94883B77/assets/A48D6513BC58F3BBF0655FD09F4A8718.jpeg" width="768.00" height="768.00" transform="matrix(1.33, 0.00, -0.00, -1.33, 0.0, 768.0)"></image></g></g><g opacity="0.30"><g><clipPath id="clip-2009"><path d="M 38.0 36.0 L 986.0 36.0 L 986.0 45.0 L 38.0 45.0 Z M 38.0 36.0 "></path></clipPath><g clip-path="url(#clip-2009)"><path d="M 0.0 0.0 L 944.0 0.0 " fill="none" stroke="#434343" stroke-width="6.00" transform="matrix(1.00, 0.00, 0.00, -1.00, 40.0, 40.0)"></path></g></g></g><g opacity="0.30"><g><clipPath id="clip-2010"><path d="M 38.0 726.0 L 986.0 726.0 L 986.0 730.0 L 38.0 730.0 Z M 38.0 726.0 "></path></clipPath><g clip-path="url(#clip-2010)"><path d="M 0.0 0.0 L 944.0 0.0 " fill="none" stroke="#434343" stroke-width="1.00" transform="matrix(1.00, 0.00, 0.00, -1.00, 40.0, 728.0)"></path></g></g></g><g><clipPath id="clip-2011"><path d="M 36.7 624.2 L 91.9 624.2 L 91.9 723.5 L 36.7 723.5 Z M 36.7 624.2 "></path></clipPath><g clip-path="url(#clip-2011)"><image xlink:href="../../41F9CECD-E746-4B6A-B57C-11EF94883B77/assets/8412EA7883B927C520D3E7200E74D714.png" width="55.00" height="100.00" transform="matrix(1.00, 0.00, -0.00, -1.00, 37.0, 724.0)"></image></g></g><g><clipPath id="clip-2012"><path d="M 111.4 651.0 L 492.6 651.0 L 492.6 712.7 L 111.4 712.7 Z M 111.4 651.0 "></path></clipPath><g clip-path="url(#clip-2012)"><text xml:space="preserve" font-family="GillSans" font-size="36.0" fill="#0B75FE" transform="matrix(1.00, 0.00, -0.00, -1.00, 122.0, 670.0)">C</text><text xml:space="preserve" font-family="GillSans" font-size="36.0" fill="#605F5F" transform="matrix(1.00, 0.00, -0.00, -1.00, 147.5, 670.0)">o</text><text xml:space="preserve" font-family="GillSans" font-size="36.0" fill="#605F5F" transform="matrix(1.00, 0.00, -0.00, -1.00, 167.3, 670.0)">m</text><text xml:space="preserve" font-family="GillSans" font-size="36.0" fill="#605F5F" transform="matrix(1.00, 0.00, -0.00, -1.00, 195.1, 670.0)">m</text><text xml:space="preserve" font-family="GillSans" font-size="36.0" fill="#605F5F" transform="matrix(1.00, 0.00, -0.00, -1.00, 222.5, 670.0)">u</text><text xml:space="preserve" font-family="GillSans" font-size="36.0" fill="#605F5F" transform="matrix(1.00, 0.00, -0.00, -1.00, 240.5, 670.0)">n</text><text xml:space="preserve" font-family="GillSans" font-size="36.0" fill="#605F5F" transform="matrix(1.00, 0.00, -0.00, -1.00, 258.5, 670.0)">i</text><text xml:space="preserve" font-family="GillSans" font-size="36.0" fill="#605F5F" transform="matrix(1.00, 0.00, -0.00, -1.00, 266.4, 670.0)">t</text><text xml:space="preserve" font-family="GillSans" font-size="36.0" fill="#605F5F" transform="matrix(1.00, 0.00, -0.00, -1.00, 278.4, 670.0)">y</text><text xml:space="preserve" font-family="GillSans" font-size="36.0" fill="#605F5F" transform="matrix(1.00, 0.00, -0.00, -1.00, 294.2, 670.0)"> </text><text xml:space="preserve" font-family="GillSans" font-size="36.0" fill="#FDA602" transform="matrix(1.00, 0.00, -0.00, -1.00, 304.2, 670.0)">C</text><text xml:space="preserve" font-family="GillSans" font-size="36.0" fill="#605F5F" transform="matrix(1.00, 0.00, -0.00, -1.00, 329.7, 670.0)">o</text><text xml:space="preserve" font-family="GillSans" font-size="36.0" fill="#605F5F" transform="matrix(1.00, 0.00, -0.00, -1.00, 349.5, 670.0)">u</text><text xml:space="preserve" font-family="GillSans" font-size="36.0" fill="#605F5F" transform="matrix(1.00, 0.00, -0.00, -1.00, 367.5, 670.0)">n</text><text xml:space="preserve" font-family="GillSans" font-size="36.0" fill="#605F5F" transform="matrix(1.00, 0.00, -0.00, -1.00, 385.5, 670.0)">t</text><text xml:space="preserve" font-family="GillSans" font-size="36.0" fill="#605F5F" transform="matrix(1.00, 0.00, -0.00, -1.00, 397.5, 670.0)">s</text><text xml:space="preserve" font-family="GillSans" font-size="36.0" fill="#605F5F" transform="matrix(1.00, 0.00, -0.00, -1.00, 411.3, 670.0)"> </text><text xml:space="preserve" font-family="GillSans" font-size="36.0" fill="#605F5F" transform="matrix(1.00, 0.00, -0.00, -1.00, 415.9, 670.0)">V</text><text xml:space="preserve" font-family="GillSans" font-size="36.0" fill="#605F5F" transform="matrix(1.00, 0.00, -0.00, -1.00, 437.7, 670.0)">3</text><text xml:space="preserve" font-family="GillSans" font-size="36.0" fill="#605F5F" transform="matrix(1.00, 0.00, -0.00, -1.00, 455.7, 670.0)">.</text><text xml:space="preserve" font-family="GillSans" font-size="36.0" fill="#605F5F" transform="matrix(1.00, 0.00, -0.00, -1.00, 463.6, 670.0)">0</text></g></g><g><clipPath id="clip-2013"><path d="M 536.0 691.0 L 975.0 691.0 L 975.0 98.0 L 536.0 98.0 Z M 535.9 690.7 "></path></clipPath><g clip-path="url(#clip-2013)"><image xlink:href="../../7A6FC383-712B-4333-B01E-6AC4EA5CF8B7/assets/03FFC3115DE1982FA75C33D7D46EA64D.png" width="544.00" height="494.00" transform="matrix(1.20, 0.00, -0.00, -1.20, 429.0, 691.0)"></image></g></g><image xlink:href="../../44D16C1D-35BA-4D58-8488-9F6684379900/assets/2F7B7175CFD8834A297F56FF81B3A114.png" width="459.00" height="619.00" transform="matrix(1.00, 0.00, -0.00, 1.00, 525.9, 78.7)"></image><text xml:space="preserve" font-family="GillSans-Light" font-size="64.0" fill="#605F5F" transform="matrix(1.00, 0.00, -0.00, -1.00, 44.0, 518.0)">B</text><text xml:space="preserve" font-family="GillSans-Light" font-size="64.0" fill="#605F5F" transform="matrix(1.00, 0.00, -0.00, -1.00, 78.0, 518.0)">R</text><text xml:space="preserve" font-family="GillSans-Light" font-size="64.0" fill="#605F5F" transform="matrix(1.00, 0.00, -0.00, -1.00, 114.7, 518.0)">E</text><text xml:space="preserve" font-family="GillSans-Light" font-size="64.0" fill="#605F5F" transform="matrix(1.00, 0.00, -0.00, -1.00, 146.0, 518.0)">A</text><text xml:space="preserve" font-family="GillSans-Light" font-size="64.0" fill="#605F5F" transform="matrix(1.00, 0.00, -0.00, -1.00, 188.7, 518.0)">K</text></g></svg>