<?xml version="1.0" encoding="UTF-8" standalone="no"?><svg xmlns="http://www.w3.org/2000/svg" xmlns:xlink="http://www.w3.org/1999/xlink" clip-rule="evenodd" stroke-miterlimit="4.00" viewBox="0 0 438 102"><desc>SVG generated by Keynote</desc><defs></defs><g transform="matrix(1.00, 0.00, -0.00, -1.00, 0.0, 102.0)"><g><clipPath id="clip-1376"><path d="M -0.2 94.9 L 12.6 94.9 L 12.6 82.1 L -0.2 82.1 Z M -0.2 94.9 "></path></clipPath><g clip-path="url(#clip-1376)"><g><clipPath id="clip-1377"><path d="M 0.9 83.2 L 11.5 83.2 L 11.5 93.9 L 0.9 93.9 Z M 0.9 83.2 "></path></clipPath><g clip-path="url(#clip-1377)"><path d="M 11.5 83.2 L 0.9 83.2 L 0.9 93.9 L 11.5 93.9 Z M 11.5 83.2 " fill="#BDBDBD"></path></g></g></g></g><text xml:space="preserve" font-family="GillSans" font-size="31.0" fill="#605F5F" transform="matrix(1.00, 0.00, -0.00, -1.00, 36.0, 79.0)">T</text><text xml:space="preserve" font-family="GillSans" font-size="31.0" fill="#605F5F" transform="matrix(1.00, 0.00, -0.00, -1.00, 54.7, 79.0)">h</text><text xml:space="preserve" font-family="GillSans" font-size="31.0" fill="#605F5F" transform="matrix(1.00, 0.00, -0.00, -1.00, 70.2, 79.0)">e</text><text xml:space="preserve" font-family="GillSans" font-size="31.0" fill="#605F5F" transform="matrix(1.00, 0.00, -0.00, -1.00, 85.1, 79.0)"> </text><text xml:space="preserve" font-family="GillSans" font-size="31.0" fill="#605F5F" transform="matrix(1.00, 0.00, -0.00, -1.00, 93.7, 79.0)">p</text><text xml:space="preserve" font-family="GillSans" font-size="31.0" fill="#605F5F" transform="matrix(1.00, 0.00, -0.00, -1.00, 109.2, 79.0)">r</text><text xml:space="preserve" font-family="GillSans" font-size="31.0" fill="#605F5F" transform="matrix(1.00, 0.00, -0.00, -1.00, 120.7, 79.0)">o</text><text xml:space="preserve" font-family="GillSans" font-size="31.0" fill="#605F5F" transform="matrix(1.00, 0.00, -0.00, -1.00, 137.8, 79.0)">b</text><text xml:space="preserve" font-family="GillSans" font-size="31.0" fill="#605F5F" transform="matrix(1.00, 0.00, -0.00, -1.00, 153.3, 79.0)">l</text><text xml:space="preserve" font-family="GillSans" font-size="31.0" fill="#605F5F" transform="matrix(1.00, 0.00, -0.00, -1.00, 160.1, 79.0)">e</text><text xml:space="preserve" font-family="GillSans" font-size="31.0" fill="#605F5F" transform="matrix(1.00, 0.00, -0.00, -1.00, 174.9, 79.0)">m</text><text xml:space="preserve" font-family="GillSans" font-size="31.0" fill="#605F5F" transform="matrix(1.00, 0.00, -0.00, -1.00, 198.8, 79.0)"> </text><text xml:space="preserve" font-family="GillSans" font-size="31.0" fill="#605F5F" transform="matrix(1.00, 0.00, -0.00, -1.00, 207.4, 79.0)">i</text><text xml:space="preserve" font-family="GillSans" font-size="31.0" fill="#605F5F" transform="matrix(1.00, 0.00, -0.00, -1.00, 214.2, 79.0)">s</text><text xml:space="preserve" font-family="GillSans" font-size="31.0" fill="#605F5F" transform="matrix(1.00, 0.00, -0.00, -1.00, 226.2, 79.0)"> </text><text xml:space="preserve" font-family="GillSans" font-size="31.0" fill="#605F5F" transform="matrix(1.00, 0.00, -0.00, -1.00, 234.8, 79.0)">s</text><text xml:space="preserve" font-family="GillSans" font-size="31.0" fill="#605F5F" transform="matrix(1.00, 0.00, -0.00, -1.00, 246.7, 79.0)">o</text><text xml:space="preserve" font-family="GillSans" font-size="31.0" fill="#605F5F" transform="matrix(1.00, 0.00, -0.00, -1.00, 263.8, 79.0)">m</text><text xml:space="preserve" font-family="GillSans" font-size="31.0" fill="#605F5F" transform="matrix(1.00, 0.00, -0.00, -1.00, 287.7, 79.0)">e</text><text xml:space="preserve" font-family="GillSans" font-size="31.0" fill="#605F5F" transform="matrix(1.00, 0.00, -0.00, -1.00, 302.5, 79.0)">t</text><text xml:space="preserve" font-family="GillSans" font-size="31.0" fill="#605F5F" transform="matrix(1.00, 0.00, -0.00, -1.00, 312.9, 79.0)">i</text><text xml:space="preserve" font-family="GillSans" font-size="31.0" fill="#605F5F" transform="matrix(1.00, 0.00, -0.00, -1.00, 319.7, 79.0)">m</text><text xml:space="preserve" font-family="GillSans" font-size="31.0" fill="#605F5F" transform="matrix(1.00, 0.00, -0.00, -1.00, 343.6, 79.0)">e</text><text xml:space="preserve" font-family="GillSans" font-size="31.0" fill="#605F5F" transform="matrix(1.00, 0.00, -0.00, -1.00, 358.4, 79.0)">s</text><text xml:space="preserve" font-family="GillSans" font-size="31.0" fill="#605F5F" transform="matrix(1.00, 0.00, -0.00, -1.00, 370.3, 79.0)"> </text><text xml:space="preserve" font-family="GillSans" font-size="31.0" fill="#605F5F" transform="matrix(1.00, 0.00, -0.00, -1.00, 36.0, 44.0)">w</text><text xml:space="preserve" font-family="GillSans" font-size="31.0" fill="#605F5F" transform="matrix(1.00, 0.00, -0.00, -1.00, 57.7, 44.0)">o</text><text xml:space="preserve" font-family="GillSans" font-size="31.0" fill="#605F5F" transform="matrix(1.00, 0.00, -0.00, -1.00, 74.8, 44.0)">r</text><text xml:space="preserve" font-family="GillSans" font-size="31.0" fill="#605F5F" transform="matrix(1.00, 0.00, -0.00, -1.00, 87.1, 44.0)">k</text><text xml:space="preserve" font-family="GillSans" font-size="31.0" fill="#605F5F" transform="matrix(1.00, 0.00, -0.00, -1.00, 101.9, 44.0)">i</text><text xml:space="preserve" font-family="GillSans" font-size="31.0" fill="#605F5F" transform="matrix(1.00, 0.00, -0.00, -1.00, 108.7, 44.0)">n</text><text xml:space="preserve" font-family="GillSans" font-size="31.0" fill="#605F5F" transform="matrix(1.00, 0.00, -0.00, -1.00, 124.2, 44.0)">g</text><text xml:space="preserve" font-family="GillSans" font-size="31.0" fill="#605F5F" transform="matrix(1.00, 0.00, -0.00, -1.00, 137.4, 44.0)"> </text><text xml:space="preserve" font-family="GillSans" font-size="31.0" fill="#605F5F" transform="matrix(1.00, 0.00, -0.00, -1.00, 146.0, 44.0)">o</text><text xml:space="preserve" font-family="GillSans" font-size="31.0" fill="#605F5F" transform="matrix(1.00, 0.00, -0.00, -1.00, 163.1, 44.0)">u</text><text xml:space="preserve" font-family="GillSans" font-size="31.0" fill="#605F5F" transform="matrix(1.00, 0.00, -0.00, -1.00, 178.6, 44.0)">t</text><text xml:space="preserve" font-family="GillSans" font-size="31.0" fill="#605F5F" transform="matrix(1.00, 0.00, -0.00, -1.00, 189.0, 44.0)"> </text><text xml:space="preserve" font-family="GillSans" font-size="31.0" fill="#605F5F" transform="matrix(1.00, 0.00, -0.00, -1.00, 197.6, 44.0)">w</text><text xml:space="preserve" font-family="GillSans" font-size="31.0" fill="#605F5F" transform="matrix(1.00, 0.00, -0.00, -1.00, 219.9, 44.0)">h</text><text xml:space="preserve" font-family="GillSans" font-size="31.0" fill="#605F5F" transform="matrix(1.00, 0.00, -0.00, -1.00, 235.4, 44.0)">i</text><text xml:space="preserve" font-family="GillSans" font-size="31.0" fill="#605F5F" transform="matrix(1.00, 0.00, -0.00, -1.00, 242.2, 44.0)">c</text><text xml:space="preserve" font-family="GillSans" font-size="31.0" fill="#605F5F" transform="matrix(1.00, 0.00, -0.00, -1.00, 255.7, 44.0)">h</text><text xml:space="preserve" font-family="GillSans" font-size="31.0" fill="#605F5F" transform="matrix(1.00, 0.00, -0.00, -1.00, 271.2, 44.0)"> </text><text xml:space="preserve" font-family="GillSans" font-size="31.0" fill="#605F5F" transform="matrix(1.00, 0.00, -0.00, -1.00, 279.9, 44.0)">q</text><text xml:space="preserve" font-family="GillSans" font-size="31.0" fill="#605F5F" transform="matrix(1.00, 0.00, -0.00, -1.00, 295.4, 44.0)">u</text><text xml:space="preserve" font-family="GillSans" font-size="31.0" fill="#605F5F" transform="matrix(1.00, 0.00, -0.00, -1.00, 310.9, 44.0)">e</text><text xml:space="preserve" font-family="GillSans" font-size="31.0" fill="#605F5F" transform="matrix(1.00, 0.00, -0.00, -1.00, 325.7, 44.0)">s</text><text xml:space="preserve" font-family="GillSans" font-size="31.0" fill="#605F5F" transform="matrix(1.00, 0.00, -0.00, -1.00, 337.6, 44.0)">t</text><text xml:space="preserve" font-family="GillSans" font-size="31.0" fill="#605F5F" transform="matrix(1.00, 0.00, -0.00, -1.00, 347.9, 44.0)">i</text><text xml:space="preserve" font-family="GillSans" font-size="31.0" fill="#605F5F" transform="matrix(1.00, 0.00, -0.00, -1.00, 354.8, 44.0)">o</text><text xml:space="preserve" font-family="GillSans" font-size="31.0" fill="#605F5F" transform="matrix(1.00, 0.00, -0.00, -1.00, 371.9, 44.0)">n</text><text xml:space="preserve" font-family="GillSans" font-size="31.0" fill="#605F5F" transform="matrix(1.00, 0.00, -0.00, -1.00, 387.4, 44.0)"> </text><text xml:space="preserve" font-family="GillSans" font-size="31.0" fill="#605F5F" transform="matrix(1.00, 0.00, -0.00, -1.00, 396.0, 44.0)">t</text><text xml:space="preserve" font-family="GillSans" font-size="31.0" fill="#605F5F" transform="matrix(1.00, 0.00, -0.00, -1.00, 406.3, 44.0)">h</text><text xml:space="preserve" font-family="GillSans" font-size="31.0" fill="#605F5F" transform="matrix(1.00, 0.00, -0.00, -1.00, 421.8, 44.0)">e</text><text xml:space="preserve" font-family="GillSans" font-size="31.0" fill="#605F5F" transform="matrix(1.00, 0.00, -0.00, -1.00, 436.6, 44.0)"> </text><text xml:space="preserve" font-family="GillSans" font-size="31.0" fill="#605F5F" transform="matrix(1.00, 0.00, -0.00, -1.00, 36.0, 9.0)">a</text><text xml:space="preserve" font-family="GillSans" font-size="31.0" fill="#605F5F" transform="matrix(1.00, 0.00, -0.00, -1.00, 49.2, 9.0)">n</text><text xml:space="preserve" font-family="GillSans" font-size="31.0" fill="#605F5F" transform="matrix(1.00, 0.00, -0.00, -1.00, 64.7, 9.0)">s</text><text xml:space="preserve" font-family="GillSans" font-size="31.0" fill="#605F5F" transform="matrix(1.00, 0.00, -0.00, -1.00, 76.3, 9.0)">w</text><text xml:space="preserve" font-family="GillSans" font-size="31.0" fill="#605F5F" transform="matrix(1.00, 0.00, -0.00, -1.00, 98.0, 9.0)">e</text><text xml:space="preserve" font-family="GillSans" font-size="31.0" fill="#605F5F" transform="matrix(1.00, 0.00, -0.00, -1.00, 112.9, 9.0)">r</text><text xml:space="preserve" font-family="GillSans" font-size="31.0" fill="#605F5F" transform="matrix(1.00, 0.00, -0.00, -1.00, 125.1, 9.0)"> </text><text xml:space="preserve" font-family="GillSans" font-size="31.0" fill="#605F5F" transform="matrix(1.00, 0.00, -0.00, -1.00, 133.8, 9.0)">a</text><text xml:space="preserve" font-family="GillSans" font-size="31.0" fill="#605F5F" transform="matrix(1.00, 0.00, -0.00, -1.00, 146.7, 9.0)">p</text><text xml:space="preserve" font-family="GillSans" font-size="31.0" fill="#605F5F" transform="matrix(1.00, 0.00, -0.00, -1.00, 162.2, 9.0)">p</text><text xml:space="preserve" font-family="GillSans" font-size="31.0" fill="#605F5F" transform="matrix(1.00, 0.00, -0.00, -1.00, 177.7, 9.0)">l</text><text xml:space="preserve" font-family="GillSans" font-size="31.0" fill="#605F5F" transform="matrix(1.00, 0.00, -0.00, -1.00, 184.5, 9.0)">i</text><text xml:space="preserve" font-family="GillSans" font-size="31.0" fill="#605F5F" transform="matrix(1.00, 0.00, -0.00, -1.00, 191.3, 9.0)">e</text><text xml:space="preserve" font-family="GillSans" font-size="31.0" fill="#605F5F" transform="matrix(1.00, 0.00, -0.00, -1.00, 206.1, 9.0)">s</text><text xml:space="preserve" font-family="GillSans" font-size="31.0" fill="#605F5F" transform="matrix(1.00, 0.00, -0.00, -1.00, 218.1, 9.0)"> </text><text xml:space="preserve" font-family="GillSans" font-size="31.0" fill="#605F5F" transform="matrix(1.00, 0.00, -0.00, -1.00, 226.7, 9.0)">t</text><text xml:space="preserve" font-family="GillSans" font-size="31.0" fill="#605F5F" transform="matrix(1.00, 0.00, -0.00, -1.00, 237.0, 9.0)">o</text><text xml:space="preserve" font-family="GillSans" font-size="31.0" fill="#605F5F" transform="matrix(1.00, 0.00, -0.00, -1.00, 254.1, 9.0)">!</text></g></svg>