<?xml version="1.0" encoding="UTF-8" standalone="no"?><svg xmlns="http://www.w3.org/2000/svg" xmlns:xlink="http://www.w3.org/1999/xlink" clip-rule="evenodd" stroke-miterlimit="4.00" viewBox="0 0 426 137"><desc>SVG generated by Keynote</desc><defs></defs><g transform="matrix(1.00, 0.00, -0.00, -1.00, 0.0, 137.0)"><g><clipPath id="clip-1370"><path d="M -0.1 130.0 L 12.7 130.0 L 12.7 117.2 L -0.1 117.2 Z M -0.1 130.0 "></path></clipPath><g clip-path="url(#clip-1370)"><g><clipPath id="clip-1371"><path d="M 1.0 118.3 L 11.7 118.3 L 11.7 129.0 L 1.0 129.0 Z M 1.0 118.3 "></path></clipPath><g clip-path="url(#clip-1371)"><path d="M 11.7 118.3 L 1.0 118.3 L 1.0 129.0 L 11.7 129.0 Z M 11.7 118.3 " fill="#BDBDBD"></path></g></g></g></g><text xml:space="preserve" font-family="GillSans" font-size="31.0" fill="#605F5F" transform="matrix(1.00, 0.00, -0.00, -1.00, 36.0, 114.0)">Y</text><text xml:space="preserve" font-family="GillSans" font-size="31.0" fill="#605F5F" transform="matrix(1.00, 0.00, -0.00, -1.00, 50.4, 114.0)">o</text><text xml:space="preserve" font-family="GillSans" font-size="31.0" fill="#605F5F" transform="matrix(1.00, 0.00, -0.00, -1.00, 67.5, 114.0)">u</text><text xml:space="preserve" font-family="GillSans" font-size="31.0" fill="#605F5F" transform="matrix(1.00, 0.00, -0.00, -1.00, 83.0, 114.0)"> </text><text xml:space="preserve" font-family="GillSans" font-size="31.0" fill="#605F5F" transform="matrix(1.00, 0.00, -0.00, -1.00, 91.6, 114.0)">c</text><text xml:space="preserve" font-family="GillSans" font-size="31.0" fill="#605F5F" transform="matrix(1.00, 0.00, -0.00, -1.00, 105.2, 114.0)">a</text><text xml:space="preserve" font-family="GillSans" font-size="31.0" fill="#605F5F" transform="matrix(1.00, 0.00, -0.00, -1.00, 118.4, 114.0)">n</text><text xml:space="preserve" font-family="GillSans" font-size="31.0" fill="#605F5F" transform="matrix(1.00, 0.00, -0.00, -1.00, 133.9, 114.0)"> </text><text xml:space="preserve" font-family="GillSans" font-size="31.0" fill="#605F5F" transform="matrix(1.00, 0.00, -0.00, -1.00, 142.5, 114.0)">u</text><text xml:space="preserve" font-family="GillSans" font-size="31.0" fill="#605F5F" transform="matrix(1.00, 0.00, -0.00, -1.00, 158.0, 114.0)">s</text><text xml:space="preserve" font-family="GillSans" font-size="31.0" fill="#605F5F" transform="matrix(1.00, 0.00, -0.00, -1.00, 169.9, 114.0)">e</text><text xml:space="preserve" font-family="GillSans" font-size="31.0" fill="#605F5F" transform="matrix(1.00, 0.00, -0.00, -1.00, 184.8, 114.0)"> </text><text xml:space="preserve" font-family="GillSans" font-size="31.0" fill="#605F5F" transform="matrix(1.00, 0.00, -0.00, -1.00, 193.4, 114.0)">a</text><text xml:space="preserve" font-family="GillSans" font-size="31.0" fill="#605F5F" transform="matrix(1.00, 0.00, -0.00, -1.00, 206.6, 114.0)">l</text><text xml:space="preserve" font-family="GillSans" font-size="31.0" fill="#605F5F" transform="matrix(1.00, 0.00, -0.00, -1.00, 213.4, 114.0)">r</text><text xml:space="preserve" font-family="GillSans" font-size="31.0" fill="#605F5F" transform="matrix(1.00, 0.00, -0.00, -1.00, 225.1, 114.0)">e</text><text xml:space="preserve" font-family="GillSans" font-size="31.0" fill="#605F5F" transform="matrix(1.00, 0.00, -0.00, -1.00, 239.9, 114.0)">a</text><text xml:space="preserve" font-family="GillSans" font-size="31.0" fill="#605F5F" transform="matrix(1.00, 0.00, -0.00, -1.00, 253.1, 114.0)">d</text><text xml:space="preserve" font-family="GillSans" font-size="31.0" fill="#605F5F" transform="matrix(1.00, 0.00, -0.00, -1.00, 268.9, 114.0)">y</text><text xml:space="preserve" font-family="GillSans" font-size="31.0" fill="#605F5F" transform="matrix(1.00, 0.00, -0.00, -1.00, 282.5, 114.0)"> </text><text xml:space="preserve" font-family="GillSans" font-size="31.0" fill="#605F5F" transform="matrix(1.00, 0.00, -0.00, -1.00, 291.1, 114.0)">s</text><text xml:space="preserve" font-family="GillSans" font-size="31.0" fill="#605F5F" transform="matrix(1.00, 0.00, -0.00, -1.00, 303.0, 114.0)">u</text><text xml:space="preserve" font-family="GillSans" font-size="31.0" fill="#605F5F" transform="matrix(1.00, 0.00, -0.00, -1.00, 318.5, 114.0)">p</text><text xml:space="preserve" font-family="GillSans" font-size="31.0" fill="#605F5F" transform="matrix(1.00, 0.00, -0.00, -1.00, 334.0, 114.0)">p</text><text xml:space="preserve" font-family="GillSans" font-size="31.0" fill="#605F5F" transform="matrix(1.00, 0.00, -0.00, -1.00, 349.5, 114.0)">l</text><text xml:space="preserve" font-family="GillSans" font-size="31.0" fill="#605F5F" transform="matrix(1.00, 0.00, -0.00, -1.00, 356.3, 114.0)">i</text><text xml:space="preserve" font-family="GillSans" font-size="31.0" fill="#605F5F" transform="matrix(1.00, 0.00, -0.00, -1.00, 363.1, 114.0)">e</text><text xml:space="preserve" font-family="GillSans" font-size="31.0" fill="#605F5F" transform="matrix(1.00, 0.00, -0.00, -1.00, 378.0, 114.0)">d</text><text xml:space="preserve" font-family="GillSans" font-size="31.0" fill="#605F5F" transform="matrix(1.00, 0.00, -0.00, -1.00, 393.8, 114.0)"> </text><text xml:space="preserve" font-family="GillSans" font-size="31.0" fill="#605F5F" transform="matrix(1.00, 0.00, -0.00, -1.00, 36.0, 79.0)">t</text><text xml:space="preserve" font-family="GillSans" font-size="31.0" fill="#605F5F" transform="matrix(1.00, 0.00, -0.00, -1.00, 46.3, 79.0)">e</text><text xml:space="preserve" font-family="GillSans" font-size="31.0" fill="#605F5F" transform="matrix(1.00, 0.00, -0.00, -1.00, 61.2, 79.0)">m</text><text xml:space="preserve" font-family="GillSans" font-size="31.0" fill="#605F5F" transform="matrix(1.00, 0.00, -0.00, -1.00, 85.1, 79.0)">p</text><text xml:space="preserve" font-family="GillSans" font-size="31.0" fill="#605F5F" transform="matrix(1.00, 0.00, -0.00, -1.00, 100.6, 79.0)">l</text><text xml:space="preserve" font-family="GillSans" font-size="31.0" fill="#605F5F" transform="matrix(1.00, 0.00, -0.00, -1.00, 107.4, 79.0)">a</text><text xml:space="preserve" font-family="GillSans" font-size="31.0" fill="#605F5F" transform="matrix(1.00, 0.00, -0.00, -1.00, 120.6, 79.0)">t</text><text xml:space="preserve" font-family="GillSans" font-size="31.0" fill="#605F5F" transform="matrix(1.00, 0.00, -0.00, -1.00, 130.9, 79.0)">e</text><text xml:space="preserve" font-family="GillSans" font-size="31.0" fill="#605F5F" transform="matrix(1.00, 0.00, -0.00, -1.00, 145.8, 79.0)">s</text><text xml:space="preserve" font-family="GillSans" font-size="31.0" fill="#605F5F" transform="matrix(1.00, 0.00, -0.00, -1.00, 157.7, 79.0)"> </text><text xml:space="preserve" font-family="GillSans" font-size="31.0" fill="#605F5F" transform="matrix(1.00, 0.00, -0.00, -1.00, 166.3, 79.0)">g</text><text xml:space="preserve" font-family="GillSans" font-size="31.0" fill="#605F5F" transform="matrix(1.00, 0.00, -0.00, -1.00, 179.5, 79.0)">i</text><text xml:space="preserve" font-family="GillSans" font-size="31.0" fill="#605F5F" transform="matrix(1.00, 0.00, -0.00, -1.00, 186.3, 79.0)">v</text><text xml:space="preserve" font-family="GillSans" font-size="31.0" fill="#605F5F" transform="matrix(1.00, 0.00, -0.00, -1.00, 199.9, 79.0)">i</text><text xml:space="preserve" font-family="GillSans" font-size="31.0" fill="#605F5F" transform="matrix(1.00, 0.00, -0.00, -1.00, 206.7, 79.0)">n</text><text xml:space="preserve" font-family="GillSans" font-size="31.0" fill="#605F5F" transform="matrix(1.00, 0.00, -0.00, -1.00, 222.2, 79.0)">g</text><text xml:space="preserve" font-family="GillSans" font-size="31.0" fill="#605F5F" transform="matrix(1.00, 0.00, -0.00, -1.00, 235.4, 79.0)"> </text><text xml:space="preserve" font-family="GillSans" font-size="31.0" fill="#605F5F" transform="matrix(1.00, 0.00, -0.00, -1.00, 244.0, 79.0)">s</text><text xml:space="preserve" font-family="GillSans" font-size="31.0" fill="#605F5F" transform="matrix(1.00, 0.00, -0.00, -1.00, 256.0, 79.0)">t</text><text xml:space="preserve" font-family="GillSans" font-size="31.0" fill="#605F5F" transform="matrix(1.00, 0.00, -0.00, -1.00, 266.3, 79.0)">a</text><text xml:space="preserve" font-family="GillSans" font-size="31.0" fill="#605F5F" transform="matrix(1.00, 0.00, -0.00, -1.00, 279.5, 79.0)">n</text><text xml:space="preserve" font-family="GillSans" font-size="31.0" fill="#605F5F" transform="matrix(1.00, 0.00, -0.00, -1.00, 295.0, 79.0)">d</text><text xml:space="preserve" font-family="GillSans" font-size="31.0" fill="#605F5F" transform="matrix(1.00, 0.00, -0.00, -1.00, 310.8, 79.0)">a</text><text xml:space="preserve" font-family="GillSans" font-size="31.0" fill="#605F5F" transform="matrix(1.00, 0.00, -0.00, -1.00, 324.0, 79.0)">r</text><text xml:space="preserve" font-family="GillSans" font-size="31.0" fill="#605F5F" transform="matrix(1.00, 0.00, -0.00, -1.00, 335.8, 79.0)">d</text><text xml:space="preserve" font-family="GillSans" font-size="31.0" fill="#605F5F" transform="matrix(1.00, 0.00, -0.00, -1.00, 351.6, 79.0)"> </text><text xml:space="preserve" font-family="GillSans" font-size="31.0" fill="#605F5F" transform="matrix(1.00, 0.00, -0.00, -1.00, 36.0, 44.0)">a</text><text xml:space="preserve" font-family="GillSans" font-size="31.0" fill="#605F5F" transform="matrix(1.00, 0.00, -0.00, -1.00, 49.2, 44.0)">n</text><text xml:space="preserve" font-family="GillSans" font-size="31.0" fill="#605F5F" transform="matrix(1.00, 0.00, -0.00, -1.00, 64.7, 44.0)">s</text><text xml:space="preserve" font-family="GillSans" font-size="31.0" fill="#605F5F" transform="matrix(1.00, 0.00, -0.00, -1.00, 76.3, 44.0)">w</text><text xml:space="preserve" font-family="GillSans" font-size="31.0" fill="#605F5F" transform="matrix(1.00, 0.00, -0.00, -1.00, 98.0, 44.0)">e</text><text xml:space="preserve" font-family="GillSans" font-size="31.0" fill="#605F5F" transform="matrix(1.00, 0.00, -0.00, -1.00, 112.9, 44.0)">r</text><text xml:space="preserve" font-family="GillSans" font-size="31.0" fill="#605F5F" transform="matrix(1.00, 0.00, -0.00, -1.00, 125.1, 44.0)">s</text><text xml:space="preserve" font-family="GillSans" font-size="31.0" fill="#605F5F" transform="matrix(1.00, 0.00, -0.00, -1.00, 137.1, 44.0)"> </text><text xml:space="preserve" font-family="GillSans" font-size="31.0" fill="#605F5F" transform="matrix(1.00, 0.00, -0.00, -1.00, 145.7, 44.0)">b</text><text xml:space="preserve" font-family="GillSans" font-size="31.0" fill="#605F5F" transform="matrix(1.00, 0.00, -0.00, -1.00, 161.2, 44.0)">u</text><text xml:space="preserve" font-family="GillSans" font-size="31.0" fill="#605F5F" transform="matrix(1.00, 0.00, -0.00, -1.00, 176.7, 44.0)">t</text><text xml:space="preserve" font-family="GillSans" font-size="31.0" fill="#605F5F" transform="matrix(1.00, 0.00, -0.00, -1.00, 187.0, 44.0)"> </text><text xml:space="preserve" font-family="GillSans" font-size="31.0" fill="#605F5F" transform="matrix(1.00, 0.00, -0.00, -1.00, 195.6, 44.0)">y</text><text xml:space="preserve" font-family="GillSans" font-size="31.0" fill="#605F5F" transform="matrix(1.00, 0.00, -0.00, -1.00, 208.6, 44.0)">o</text><text xml:space="preserve" font-family="GillSans" font-size="31.0" fill="#605F5F" transform="matrix(1.00, 0.00, -0.00, -1.00, 225.7, 44.0)">u</text><text xml:space="preserve" font-family="GillSans" font-size="31.0" fill="#605F5F" transform="matrix(1.00, 0.00, -0.00, -1.00, 241.2, 44.0)"> </text><text xml:space="preserve" font-family="GillSans" font-size="31.0" fill="#605F5F" transform="matrix(1.00, 0.00, -0.00, -1.00, 249.8, 44.0)">c</text><text xml:space="preserve" font-family="GillSans" font-size="31.0" fill="#605F5F" transform="matrix(1.00, 0.00, -0.00, -1.00, 263.3, 44.0)">a</text><text xml:space="preserve" font-family="GillSans" font-size="31.0" fill="#605F5F" transform="matrix(1.00, 0.00, -0.00, -1.00, 276.6, 44.0)">n</text><text xml:space="preserve" font-family="GillSans" font-size="31.0" fill="#605F5F" transform="matrix(1.00, 0.00, -0.00, -1.00, 292.1, 44.0)"> </text><text xml:space="preserve" font-family="GillSans" font-size="31.0" fill="#605F5F" transform="matrix(1.00, 0.00, -0.00, -1.00, 300.7, 44.0)">a</text><text xml:space="preserve" font-family="GillSans" font-size="31.0" fill="#605F5F" transform="matrix(1.00, 0.00, -0.00, -1.00, 313.9, 44.0)">l</text><text xml:space="preserve" font-family="GillSans" font-size="31.0" fill="#605F5F" transform="matrix(1.00, 0.00, -0.00, -1.00, 320.7, 44.0)">s</text><text xml:space="preserve" font-family="GillSans" font-size="31.0" fill="#605F5F" transform="matrix(1.00, 0.00, -0.00, -1.00, 332.6, 44.0)">o</text><text xml:space="preserve" font-family="GillSans" font-size="31.0" fill="#605F5F" transform="matrix(1.00, 0.00, -0.00, -1.00, 349.7, 44.0)"> </text><text xml:space="preserve" font-family="GillSans" font-size="31.0" fill="#605F5F" transform="matrix(1.00, 0.00, -0.00, -1.00, 358.3, 44.0)">m</text><text xml:space="preserve" font-family="GillSans" font-size="31.0" fill="#605F5F" transform="matrix(1.00, 0.00, -0.00, -1.00, 382.2, 44.0)">a</text><text xml:space="preserve" font-family="GillSans" font-size="31.0" fill="#605F5F" transform="matrix(1.00, 0.00, -0.00, -1.00, 395.5, 44.0)">k</text><text xml:space="preserve" font-family="GillSans" font-size="31.0" fill="#605F5F" transform="matrix(1.00, 0.00, -0.00, -1.00, 409.4, 44.0)">e</text><text xml:space="preserve" font-family="GillSans" font-size="31.0" fill="#605F5F" transform="matrix(1.00, 0.00, -0.00, -1.00, 424.2, 44.0)"> </text><text xml:space="preserve" font-family="GillSans" font-size="31.0" fill="#605F5F" transform="matrix(1.00, 0.00, -0.00, -1.00, 36.0, 9.0)">y</text><text xml:space="preserve" font-family="GillSans" font-size="31.0" fill="#605F5F" transform="matrix(1.00, 0.00, -0.00, -1.00, 49.0, 9.0)">o</text><text xml:space="preserve" font-family="GillSans" font-size="31.0" fill="#605F5F" transform="matrix(1.00, 0.00, -0.00, -1.00, 66.1, 9.0)">u</text><text xml:space="preserve" font-family="GillSans" font-size="31.0" fill="#605F5F" transform="matrix(1.00, 0.00, -0.00, -1.00, 81.6, 9.0)">r</text><text xml:space="preserve" font-family="GillSans" font-size="31.0" fill="#605F5F" transform="matrix(1.00, 0.00, -0.00, -1.00, 93.8, 9.0)"> </text><text xml:space="preserve" font-family="GillSans" font-size="31.0" fill="#605F5F" transform="matrix(1.00, 0.00, -0.00, -1.00, 102.4, 9.0)">o</text><text xml:space="preserve" font-family="GillSans" font-size="31.0" fill="#605F5F" transform="matrix(1.00, 0.00, -0.00, -1.00, 119.2, 9.0)">w</text><text xml:space="preserve" font-family="GillSans" font-size="31.0" fill="#605F5F" transform="matrix(1.00, 0.00, -0.00, -1.00, 141.5, 9.0)">n</text><text xml:space="preserve" font-family="GillSans" font-size="31.0" fill="#605F5F" transform="matrix(1.00, 0.00, -0.00, -1.00, 157.0, 9.0)"> </text><text xml:space="preserve" font-family="GillSans" font-size="31.0" fill="#605F5F" transform="matrix(1.00, 0.00, -0.00, -1.00, 165.6, 9.0)">-</text><text xml:space="preserve" font-family="GillSans" font-size="31.0" fill="#605F5F" transform="matrix(1.00, 0.00, -0.00, -1.00, 175.7, 9.0)"> </text><text xml:space="preserve" font-family="GillSans" font-size="31.0" fill="#605F5F" transform="matrix(1.00, 0.00, -0.00, -1.00, 184.3, 9.0)">t</text><text xml:space="preserve" font-family="GillSans" font-size="31.0" fill="#605F5F" transform="matrix(1.00, 0.00, -0.00, -1.00, 194.6, 9.0)">h</text><text xml:space="preserve" font-family="GillSans" font-size="31.0" fill="#605F5F" transform="matrix(1.00, 0.00, -0.00, -1.00, 210.1, 9.0)">e</text><text xml:space="preserve" font-family="GillSans" font-size="31.0" fill="#605F5F" transform="matrix(1.00, 0.00, -0.00, -1.00, 224.9, 9.0)">r</text><text xml:space="preserve" font-family="GillSans" font-size="31.0" fill="#605F5F" transform="matrix(1.00, 0.00, -0.00, -1.00, 236.6, 9.0)">e</text><text xml:space="preserve" font-family="GillSans" font-size="31.0" fill="#605F5F" transform="matrix(1.00, 0.00, -0.00, -1.00, 251.5, 9.0)"> </text><text xml:space="preserve" font-family="GillSans" font-size="31.0" fill="#605F5F" transform="matrix(1.00, 0.00, -0.00, -1.00, 260.1, 9.0)">i</text><text xml:space="preserve" font-family="GillSans" font-size="31.0" fill="#605F5F" transform="matrix(1.00, 0.00, -0.00, -1.00, 266.9, 9.0)">s</text><text xml:space="preserve" font-family="GillSans" font-size="31.0" fill="#605F5F" transform="matrix(1.00, 0.00, -0.00, -1.00, 278.8, 9.0)"> </text><text xml:space="preserve" font-family="GillSans" font-size="31.0" fill="#605F5F" transform="matrix(1.00, 0.00, -0.00, -1.00, 287.4, 9.0)">n</text><text xml:space="preserve" font-family="GillSans" font-size="31.0" fill="#605F5F" transform="matrix(1.00, 0.00, -0.00, -1.00, 302.9, 9.0)">o</text><text xml:space="preserve" font-family="GillSans" font-size="31.0" fill="#605F5F" transform="matrix(1.00, 0.00, -0.00, -1.00, 320.0, 9.0)"> </text><text xml:space="preserve" font-family="GillSans" font-size="31.0" fill="#605F5F" transform="matrix(1.00, 0.00, -0.00, -1.00, 328.6, 9.0)">l</text><text xml:space="preserve" font-family="GillSans" font-size="31.0" fill="#605F5F" transform="matrix(1.00, 0.00, -0.00, -1.00, 335.4, 9.0)">i</text><text xml:space="preserve" font-family="GillSans" font-size="31.0" fill="#605F5F" transform="matrix(1.00, 0.00, -0.00, -1.00, 342.2, 9.0)">m</text><text xml:space="preserve" font-family="GillSans" font-size="31.0" fill="#605F5F" transform="matrix(1.00, 0.00, -0.00, -1.00, 366.1, 9.0)">i</text><text xml:space="preserve" font-family="GillSans" font-size="31.0" fill="#605F5F" transform="matrix(1.00, 0.00, -0.00, -1.00, 372.9, 9.0)">t</text></g></svg>