<?xml version="1.0" encoding="UTF-8" standalone="no"?><svg xmlns="http://www.w3.org/2000/svg" xmlns:xlink="http://www.w3.org/1999/xlink" clip-rule="evenodd" stroke-miterlimit="4.00" viewBox="0 0 378 32"><desc>SVG generated by Keynote</desc><defs></defs><g transform="matrix(1.00, 0.00, -0.00, -1.00, 0.0, 32.0)"><g><clipPath id="clip-2467"><path d="M -0.2 24.9 L 12.6 24.9 L 12.6 12.1 L -0.2 12.1 Z M -0.2 24.9 "></path></clipPath><g clip-path="url(#clip-2467)"><g><clipPath id="clip-2468"><path d="M 0.9 13.2 L 11.5 13.2 L 11.5 23.9 L 0.9 23.9 Z M 0.9 13.2 "></path></clipPath><g clip-path="url(#clip-2468)"><path d="M 11.5 13.2 L 0.9 13.2 L 0.9 23.9 L 11.5 23.9 Z M 11.5 13.2 " fill="#BDBDBD"></path></g></g></g></g><text xml:space="preserve" font-family="GillSans" font-size="31.0" fill="#605F5F" transform="matrix(1.00, 0.00, -0.00, -1.00, 36.0, 9.0)">T</text><text xml:space="preserve" font-family="GillSans" font-size="31.0" fill="#605F5F" transform="matrix(1.00, 0.00, -0.00, -1.00, 54.7, 9.0)">h</text><text xml:space="preserve" font-family="GillSans" font-size="31.0" fill="#605F5F" transform="matrix(1.00, 0.00, -0.00, -1.00, 70.2, 9.0)">e</text><text xml:space="preserve" font-family="GillSans" font-size="31.0" fill="#605F5F" transform="matrix(1.00, 0.00, -0.00, -1.00, 85.1, 9.0)"> </text><text xml:space="preserve" font-family="GillSans" font-size="31.0" fill="#605F5F" transform="matrix(1.00, 0.00, -0.00, -1.00, 93.7, 9.0)">a</text><text xml:space="preserve" font-family="GillSans" font-size="31.0" fill="#605F5F" transform="matrix(1.00, 0.00, -0.00, -1.00, 106.9, 9.0)">n</text><text xml:space="preserve" font-family="GillSans" font-size="31.0" fill="#605F5F" transform="matrix(1.00, 0.00, -0.00, -1.00, 122.4, 9.0)">s</text><text xml:space="preserve" font-family="GillSans" font-size="31.0" fill="#605F5F" transform="matrix(1.00, 0.00, -0.00, -1.00, 134.0, 9.0)">w</text><text xml:space="preserve" font-family="GillSans" font-size="31.0" fill="#605F5F" transform="matrix(1.00, 0.00, -0.00, -1.00, 155.7, 9.0)">e</text><text xml:space="preserve" font-family="GillSans" font-size="31.0" fill="#605F5F" transform="matrix(1.00, 0.00, -0.00, -1.00, 170.6, 9.0)">r</text><text xml:space="preserve" font-family="GillSans" font-size="31.0" fill="#605F5F" transform="matrix(1.00, 0.00, -0.00, -1.00, 182.8, 9.0)"> </text><text xml:space="preserve" font-family="GillSans" font-size="31.0" fill="#605F5F" transform="matrix(1.00, 0.00, -0.00, -1.00, 191.4, 9.0)">i</text><text xml:space="preserve" font-family="GillSans" font-size="31.0" fill="#605F5F" transform="matrix(1.00, 0.00, -0.00, -1.00, 198.2, 9.0)">s</text><text xml:space="preserve" font-family="GillSans" font-size="31.0" fill="#605F5F" transform="matrix(1.00, 0.00, -0.00, -1.00, 210.2, 9.0)"> </text><text xml:space="preserve" font-family="GillSans" font-size="31.0" fill="#605F5F" transform="matrix(1.00, 0.00, -0.00, -1.00, 218.8, 9.0)">n</text><text xml:space="preserve" font-family="GillSans" font-size="31.0" fill="#605F5F" transform="matrix(1.00, 0.00, -0.00, -1.00, 234.3, 9.0)">e</text><text xml:space="preserve" font-family="GillSans" font-size="31.0" fill="#605F5F" transform="matrix(1.00, 0.00, -0.00, -1.00, 248.6, 9.0)">v</text><text xml:space="preserve" font-family="GillSans" font-size="31.0" fill="#605F5F" transform="matrix(1.00, 0.00, -0.00, -1.00, 261.6, 9.0)">e</text><text xml:space="preserve" font-family="GillSans" font-size="31.0" fill="#605F5F" transform="matrix(1.00, 0.00, -0.00, -1.00, 276.5, 9.0)">r</text><text xml:space="preserve" font-family="GillSans" font-size="31.0" fill="#605F5F" transform="matrix(1.00, 0.00, -0.00, -1.00, 288.7, 9.0)"> </text><text xml:space="preserve" font-family="GillSans" font-size="31.0" fill="#605F5F" transform="matrix(1.00, 0.00, -0.00, -1.00, 297.3, 9.0)">w</text><text xml:space="preserve" font-family="GillSans" font-size="31.0" fill="#605F5F" transform="matrix(1.00, 0.00, -0.00, -1.00, 319.6, 9.0)">r</text><text xml:space="preserve" font-family="GillSans" font-size="31.0" fill="#605F5F" transform="matrix(1.00, 0.00, -0.00, -1.00, 331.1, 9.0)">o</text><text xml:space="preserve" font-family="GillSans" font-size="31.0" fill="#605F5F" transform="matrix(1.00, 0.00, -0.00, -1.00, 348.2, 9.0)">n</text><text xml:space="preserve" font-family="GillSans" font-size="31.0" fill="#605F5F" transform="matrix(1.00, 0.00, -0.00, -1.00, 363.7, 9.0)">g</text></g></svg>