<?xml version="1.0" encoding="UTF-8" standalone="no"?><svg xmlns="http://www.w3.org/2000/svg" xmlns:xlink="http://www.w3.org/1999/xlink" clip-rule="evenodd" stroke-miterlimit="4.00" viewBox="0 0 432 44"><desc>SVG generated by Keynote</desc><defs></defs><g transform="matrix(1.00, 0.00, -0.00, -1.00, 0.0, 44.0)"><text xml:space="preserve" font-family="GillSans-Light" font-size="58.2" fill="#605F5F" transform="matrix(1.00, 0.00, -0.00, -1.00, 2.0, 2.0)">T</text><text xml:space="preserve" font-family="GillSans-Light" font-size="58.2" fill="#605F5F" transform="matrix(1.00, 0.00, -0.00, -1.00, 35.4, 2.0)">H</text><text xml:space="preserve" font-family="GillSans-Light" font-size="58.2" fill="#605F5F" transform="matrix(1.00, 0.00, -0.00, -1.00, 77.3, 2.0)">E</text><text xml:space="preserve" font-family="GillSans-Light" font-size="58.2" fill="#605F5F" transform="matrix(1.00, 0.00, -0.00, -1.00, 105.9, 2.0)"> </text><text xml:space="preserve" font-family="GillSans-Light" font-size="58.2" fill="#605F5F" transform="matrix(1.00, 0.00, -0.00, -1.00, 116.2, 2.0)">W</text><text xml:space="preserve" font-family="GillSans-Light" font-size="58.2" fill="#605F5F" transform="matrix(1.00, 0.00, -0.00, -1.00, 176.2, 2.0)">E</text><text xml:space="preserve" font-family="GillSans-Light" font-size="58.2" fill="#605F5F" transform="matrix(1.00, 0.00, -0.00, -1.00, 204.8, 2.0)">B</text><text xml:space="preserve" font-family="GillSans-Light" font-size="58.2" fill="#605F5F" transform="matrix(1.00, 0.00, -0.00, -1.00, 235.7, 2.0)"> </text><text xml:space="preserve" font-family="GillSans-Light" font-size="58.2" fill="#605F5F" transform="matrix(1.00, 0.00, -0.00, -1.00, 251.9, 2.0)">P</text><text xml:space="preserve" font-family="GillSans-Light" font-size="58.2" fill="#605F5F" transform="matrix(1.00, 0.00, -0.00, -1.00, 276.3, 2.0)">A</text><text xml:space="preserve" font-family="GillSans-Light" font-size="58.2" fill="#605F5F" transform="matrix(1.00, 0.00, -0.00, -1.00, 315.1, 2.0)">R</text><text xml:space="preserve" font-family="GillSans-Light" font-size="58.2" fill="#605F5F" transform="matrix(1.00, 0.00, -0.00, -1.00, 346.8, 2.0)">T</text><text xml:space="preserve" font-family="GillSans-Light" font-size="58.2" fill="#605F5F" transform="matrix(1.00, 0.00, -0.00, -1.00, 380.2, 2.0)">…</text></g></svg>