<?xml version="1.0" encoding="UTF-8" standalone="no"?><svg xmlns="http://www.w3.org/2000/svg" xmlns:xlink="http://www.w3.org/1999/xlink" clip-rule="evenodd" stroke-miterlimit="4.00" viewBox="0 0 656 76"><desc>SVG generated by Keynote</desc><defs></defs><g transform="matrix(1.00, 0.00, -0.00, -1.00, 0.0, 76.0)"><g><clipPath id="clip-1190"><path d="M -0.2 25.4 L 12.5 25.4 L 12.5 12.6 L -0.2 12.6 Z M -0.2 25.4 "></path></clipPath><g clip-path="url(#clip-1190)"><g><clipPath id="clip-1191"><path d="M 0.8 13.7 L 11.5 13.7 L 11.5 24.4 L 0.8 24.4 Z M 0.8 13.7 "></path></clipPath><g clip-path="url(#clip-1191)"><path d="M 11.5 13.7 L 0.8 13.7 L 0.8 24.4 L 11.5 24.4 Z M 11.5 13.7 " fill="#BDBDBD"></path></g></g></g></g><text xml:space="preserve" font-family="GillSans" font-size="30.9" fill="#605F5F" transform="matrix(1.00, 0.00, -0.00, -1.00, 31.0, 9.0)">M</text><text xml:space="preserve" font-family="GillSans" font-size="30.9" fill="#605F5F" transform="matrix(1.00, 0.00, -0.00, -1.00, 55.2, 9.0)">i</text><text xml:space="preserve" font-family="GillSans" font-size="30.9" fill="#605F5F" transform="matrix(1.00, 0.00, -0.00, -1.00, 61.9, 9.0)">c</text><text xml:space="preserve" font-family="GillSans" font-size="30.9" fill="#605F5F" transform="matrix(1.00, 0.00, -0.00, -1.00, 75.5, 9.0)">r</text><text xml:space="preserve" font-family="GillSans" font-size="30.9" fill="#605F5F" transform="matrix(1.00, 0.00, -0.00, -1.00, 87.0, 9.0)">o</text><text xml:space="preserve" font-family="GillSans" font-size="30.9" fill="#605F5F" transform="matrix(1.00, 0.00, -0.00, -1.00, 104.0, 9.0)">s</text><text xml:space="preserve" font-family="GillSans" font-size="30.9" fill="#605F5F" transform="matrix(1.00, 0.00, -0.00, -1.00, 115.9, 9.0)">o</text><text xml:space="preserve" font-family="GillSans" font-size="30.9" fill="#605F5F" transform="matrix(1.00, 0.00, -0.00, -1.00, 133.0, 9.0)">f</text><text xml:space="preserve" font-family="GillSans" font-size="30.9" fill="#605F5F" transform="matrix(1.00, 0.00, -0.00, -1.00, 140.7, 9.0)">t</text><text xml:space="preserve" font-family="GillSans" font-size="30.9" fill="#605F5F" transform="matrix(1.00, 0.00, -0.00, -1.00, 151.0, 9.0)">’</text><text xml:space="preserve" font-family="GillSans" font-size="30.9" fill="#605F5F" transform="matrix(1.00, 0.00, -0.00, -1.00, 155.4, 9.0)">s</text><text xml:space="preserve" font-family="GillSans" font-size="30.9" fill="#605F5F" transform="matrix(1.00, 0.00, -0.00, -1.00, 167.3, 9.0)"> </text><text xml:space="preserve" font-family="GillSans" font-size="30.9" fill="#605F5F" transform="matrix(1.00, 0.00, -0.00, -1.00, 175.8, 9.0)">E</text><text xml:space="preserve" font-family="GillSans" font-size="30.9" fill="#605F5F" transform="matrix(1.00, 0.00, -0.00, -1.00, 191.3, 9.0)">n</text><text xml:space="preserve" font-family="GillSans" font-size="30.9" fill="#605F5F" transform="matrix(1.00, 0.00, -0.00, -1.00, 206.8, 9.0)">t</text><text xml:space="preserve" font-family="GillSans" font-size="30.9" fill="#605F5F" transform="matrix(1.00, 0.00, -0.00, -1.00, 217.1, 9.0)">i</text><text xml:space="preserve" font-family="GillSans" font-size="30.9" fill="#605F5F" transform="matrix(1.00, 0.00, -0.00, -1.00, 223.9, 9.0)">t</text><text xml:space="preserve" font-family="GillSans" font-size="30.9" fill="#605F5F" transform="matrix(1.00, 0.00, -0.00, -1.00, 234.2, 9.0)">y</text><text xml:space="preserve" font-family="GillSans" font-size="30.9" fill="#605F5F" transform="matrix(1.00, 0.00, -0.00, -1.00, 247.7, 9.0)"> </text><text xml:space="preserve" font-family="GillSans" font-size="30.9" fill="#605F5F" transform="matrix(1.00, 0.00, -0.00, -1.00, 256.3, 9.0)">F</text><text xml:space="preserve" font-family="GillSans" font-size="30.9" fill="#605F5F" transform="matrix(1.00, 0.00, -0.00, -1.00, 270.8, 9.0)">r</text><text xml:space="preserve" font-family="GillSans" font-size="30.9" fill="#605F5F" transform="matrix(1.00, 0.00, -0.00, -1.00, 283.1, 9.0)">a</text><text xml:space="preserve" font-family="GillSans" font-size="30.9" fill="#605F5F" transform="matrix(1.00, 0.00, -0.00, -1.00, 296.3, 9.0)">m</text><text xml:space="preserve" font-family="GillSans" font-size="30.9" fill="#605F5F" transform="matrix(1.00, 0.00, -0.00, -1.00, 320.1, 9.0)">e</text><text xml:space="preserve" font-family="GillSans" font-size="30.9" fill="#605F5F" transform="matrix(1.00, 0.00, -0.00, -1.00, 334.5, 9.0)">w</text><text xml:space="preserve" font-family="GillSans" font-size="30.9" fill="#605F5F" transform="matrix(1.00, 0.00, -0.00, -1.00, 356.1, 9.0)">o</text><text xml:space="preserve" font-family="GillSans" font-size="30.9" fill="#605F5F" transform="matrix(1.00, 0.00, -0.00, -1.00, 373.2, 9.0)">r</text><text xml:space="preserve" font-family="GillSans" font-size="30.9" fill="#605F5F" transform="matrix(1.00, 0.00, -0.00, -1.00, 385.5, 9.0)">k</text><text xml:space="preserve" font-family="GillSans" font-size="30.9" fill="#605F5F" transform="matrix(1.00, 0.00, -0.00, -1.00, 400.3, 9.0)"> </text><text xml:space="preserve" font-family="GillSans" font-size="30.9" fill="#605F5F" transform="matrix(1.00, 0.00, -0.00, -1.00, 408.9, 9.0)">-</text><text xml:space="preserve" font-family="GillSans" font-size="30.9" fill="#605F5F" transform="matrix(1.00, 0.00, -0.00, -1.00, 418.9, 9.0)"> </text><text xml:space="preserve" font-family="GillSans" font-size="30.9" fill="#605F5F" transform="matrix(1.00, 0.00, -0.00, -1.00, 424.4, 9.0)">A</text><text xml:space="preserve" font-family="GillSans" font-size="30.9" fill="#605F5F" transform="matrix(1.00, 0.00, -0.00, -1.00, 445.0, 9.0)">S</text><text xml:space="preserve" font-family="GillSans" font-size="30.9" fill="#605F5F" transform="matrix(1.00, 0.00, -0.00, -1.00, 459.2, 9.0)">P</text><text xml:space="preserve" font-family="GillSans" font-size="30.9" fill="#605F5F" transform="matrix(1.00, 0.00, -0.00, -1.00, 470.3, 9.0)">.</text><text xml:space="preserve" font-family="GillSans" font-size="30.9" fill="#605F5F" transform="matrix(1.00, 0.00, -0.00, -1.00, 477.1, 9.0)">N</text><text xml:space="preserve" font-family="GillSans" font-size="30.9" fill="#605F5F" transform="matrix(1.00, 0.00, -0.00, -1.00, 501.3, 9.0)">E</text><text xml:space="preserve" font-family="GillSans" font-size="30.9" fill="#605F5F" transform="matrix(1.00, 0.00, -0.00, -1.00, 516.7, 9.0)">T</text><text xml:space="preserve" font-family="GillSans" font-size="30.9" fill="#605F5F" transform="matrix(1.00, 0.00, -0.00, -1.00, 535.4, 9.0)"> </text><text xml:space="preserve" font-family="GillSans" font-size="30.9" fill="#605F5F" transform="matrix(1.00, 0.00, -0.00, -1.00, 544.0, 9.0)">M</text><text xml:space="preserve" font-family="GillSans" font-size="30.9" fill="#605F5F" transform="matrix(1.00, 0.00, -0.00, -1.00, 568.2, 9.0)">V</text><text xml:space="preserve" font-family="GillSans" font-size="30.9" fill="#605F5F" transform="matrix(1.00, 0.00, -0.00, -1.00, 586.9, 9.0)">C</text><text xml:space="preserve" font-family="GillSans" font-size="30.9" fill="#605F5F" transform="matrix(1.00, 0.00, -0.00, -1.00, 608.8, 9.0)"> </text><text xml:space="preserve" font-family="GillSans" font-size="30.9" fill="#605F5F" transform="matrix(1.00, 0.00, -0.00, -1.00, 617.4, 9.0)">4</text><text xml:space="preserve" font-family="GillSans" font-size="30.9" fill="#605F5F" transform="matrix(1.00, 0.00, -0.00, -1.00, 632.8, 9.0)">.</text><text xml:space="preserve" font-family="GillSans" font-size="30.9" fill="#605F5F" transform="matrix(1.00, 0.00, -0.00, -1.00, 639.6, 9.0)">6</text><g><clipPath id="clip-1192"><path d="M 423.2 5.3 L 535.3 5.3 L 535.3 8.9 L 423.2 8.9 Z M 423.2 5.3 "></path></clipPath><g clip-path="url(#clip-1192)"><path d="M 460.4 145.4 L 571.5 145.4 " fill="none" stroke="#605F5F" stroke-width="1.54" stroke-miterlimit="0.00" transform="matrix(1.00, 0.00, 0.00, -1.00, -36.2, 152.5)"></path></g></g></g></svg>