<?xml version="1.0" encoding="UTF-8" standalone="no"?><svg xmlns="http://www.w3.org/2000/svg" xmlns:xlink="http://www.w3.org/1999/xlink" clip-rule="evenodd" stroke-miterlimit="4.00" viewBox="0 0 472 32"><desc>SVG generated by Keynote</desc><defs></defs><g transform="matrix(1.00, 0.00, -0.00, -1.00, 0.0, 32.0)"><g><clipPath id="clip-1197"><path d="M -0.2 24.8 L 12.5 24.8 L 12.5 12.0 L -0.2 12.0 Z M -0.2 24.8 "></path></clipPath><g clip-path="url(#clip-1197)"><g><clipPath id="clip-1198"><path d="M 0.8 13.1 L 11.5 13.1 L 11.5 23.7 L 0.8 23.7 Z M 0.8 13.1 "></path></clipPath><g clip-path="url(#clip-1198)"><path d="M 11.5 13.1 L 0.8 13.1 L 0.8 23.7 L 11.5 23.7 Z M 11.5 13.1 " fill="#BDBDBD"></path></g></g></g></g><text xml:space="preserve" font-family="GillSans" font-size="30.9" fill="#605F5F" transform="matrix(1.00, 0.00, -0.00, -1.00, 31.0, 9.0)">W</text><text xml:space="preserve" font-family="GillSans" font-size="30.9" fill="#605F5F" transform="matrix(1.00, 0.00, -0.00, -1.00, 63.2, 9.0)">r</text><text xml:space="preserve" font-family="GillSans" font-size="30.9" fill="#605F5F" transform="matrix(1.00, 0.00, -0.00, -1.00, 75.5, 9.0)">i</text><text xml:space="preserve" font-family="GillSans" font-size="30.9" fill="#605F5F" transform="matrix(1.00, 0.00, -0.00, -1.00, 82.3, 9.0)">t</text><text xml:space="preserve" font-family="GillSans" font-size="30.9" fill="#605F5F" transform="matrix(1.00, 0.00, -0.00, -1.00, 92.6, 9.0)">t</text><text xml:space="preserve" font-family="GillSans" font-size="30.9" fill="#605F5F" transform="matrix(1.00, 0.00, -0.00, -1.00, 102.9, 9.0)">e</text><text xml:space="preserve" font-family="GillSans" font-size="30.9" fill="#605F5F" transform="matrix(1.00, 0.00, -0.00, -1.00, 117.7, 9.0)">n</text><text xml:space="preserve" font-family="GillSans" font-size="30.9" fill="#605F5F" transform="matrix(1.00, 0.00, -0.00, -1.00, 133.2, 9.0)"> </text><text xml:space="preserve" font-family="GillSans" font-size="30.9" fill="#605F5F" transform="matrix(1.00, 0.00, -0.00, -1.00, 141.8, 9.0)">i</text><text xml:space="preserve" font-family="GillSans" font-size="30.9" fill="#605F5F" transform="matrix(1.00, 0.00, -0.00, -1.00, 148.6, 9.0)">n</text><text xml:space="preserve" font-family="GillSans" font-size="30.9" fill="#605F5F" transform="matrix(1.00, 0.00, -0.00, -1.00, 164.0, 9.0)"> </text><text xml:space="preserve" font-family="GillSans" font-size="30.9" fill="#605F5F" transform="matrix(1.00, 0.00, -0.00, -1.00, 172.6, 9.0)">M</text><text xml:space="preserve" font-family="GillSans" font-size="30.9" fill="#605F5F" transform="matrix(1.00, 0.00, -0.00, -1.00, 196.8, 9.0)">i</text><text xml:space="preserve" font-family="GillSans" font-size="30.9" fill="#605F5F" transform="matrix(1.00, 0.00, -0.00, -1.00, 203.6, 9.0)">c</text><text xml:space="preserve" font-family="GillSans" font-size="30.9" fill="#605F5F" transform="matrix(1.00, 0.00, -0.00, -1.00, 217.1, 9.0)">r</text><text xml:space="preserve" font-family="GillSans" font-size="30.9" fill="#605F5F" transform="matrix(1.00, 0.00, -0.00, -1.00, 228.6, 9.0)">o</text><text xml:space="preserve" font-family="GillSans" font-size="30.9" fill="#605F5F" transform="matrix(1.00, 0.00, -0.00, -1.00, 245.7, 9.0)">s</text><text xml:space="preserve" font-family="GillSans" font-size="30.9" fill="#605F5F" transform="matrix(1.00, 0.00, -0.00, -1.00, 257.6, 9.0)">o</text><text xml:space="preserve" font-family="GillSans" font-size="30.9" fill="#605F5F" transform="matrix(1.00, 0.00, -0.00, -1.00, 274.6, 9.0)">f</text><text xml:space="preserve" font-family="GillSans" font-size="30.9" fill="#605F5F" transform="matrix(1.00, 0.00, -0.00, -1.00, 282.4, 9.0)">t</text><text xml:space="preserve" font-family="GillSans" font-size="30.9" fill="#605F5F" transform="matrix(1.00, 0.00, -0.00, -1.00, 292.7, 9.0)">’</text><text xml:space="preserve" font-family="GillSans" font-size="30.9" fill="#605F5F" transform="matrix(1.00, 0.00, -0.00, -1.00, 297.0, 9.0)">s</text><text xml:space="preserve" font-family="GillSans" font-size="30.9" fill="#605F5F" transform="matrix(1.00, 0.00, -0.00, -1.00, 308.9, 9.0)"> </text><text xml:space="preserve" font-family="GillSans" font-size="30.9" fill="#605F5F" transform="matrix(1.00, 0.00, -0.00, -1.00, 317.5, 9.0)">C</text><text xml:space="preserve" font-family="GillSans" font-size="30.9" fill="#605F5F" transform="matrix(1.00, 0.00, -0.00, -1.00, 339.4, 9.0)">#</text><text xml:space="preserve" font-family="GillSans" font-size="30.9" fill="#605F5F" transform="matrix(1.00, 0.00, -0.00, -1.00, 357.4, 9.0)"> </text><text xml:space="preserve" font-family="GillSans" font-size="30.9" fill="#605F5F" transform="matrix(1.00, 0.00, -0.00, -1.00, 366.0, 9.0)">l</text><text xml:space="preserve" font-family="GillSans" font-size="30.9" fill="#605F5F" transform="matrix(1.00, 0.00, -0.00, -1.00, 372.8, 9.0)">a</text><text xml:space="preserve" font-family="GillSans" font-size="30.9" fill="#605F5F" transform="matrix(1.00, 0.00, -0.00, -1.00, 386.0, 9.0)">n</text><text xml:space="preserve" font-family="GillSans" font-size="30.9" fill="#605F5F" transform="matrix(1.00, 0.00, -0.00, -1.00, 401.5, 9.0)">g</text><text xml:space="preserve" font-family="GillSans" font-size="30.9" fill="#605F5F" transform="matrix(1.00, 0.00, -0.00, -1.00, 414.7, 9.0)">u</text><text xml:space="preserve" font-family="GillSans" font-size="30.9" fill="#605F5F" transform="matrix(1.00, 0.00, -0.00, -1.00, 430.1, 9.0)">a</text><text xml:space="preserve" font-family="GillSans" font-size="30.9" fill="#605F5F" transform="matrix(1.00, 0.00, -0.00, -1.00, 443.3, 9.0)">g</text><text xml:space="preserve" font-family="GillSans" font-size="30.9" fill="#605F5F" transform="matrix(1.00, 0.00, -0.00, -1.00, 456.5, 9.0)">e</text></g></svg>