<?xml version="1.0" encoding="UTF-8" standalone="no"?><svg xmlns="http://www.w3.org/2000/svg" xmlns:xlink="http://www.w3.org/1999/xlink" clip-rule="evenodd" stroke-miterlimit="4.00" viewBox="0 0 367 26"><desc>SVG generated by Keynote</desc><defs></defs><g transform="matrix(1.00, 0.00, -0.00, -1.00, 0.0, 26.0)"><g><clipPath id="clip-1199"><path d="M -0.2 18.5 L 12.5 18.5 L 12.5 5.7 L -0.2 5.7 Z M -0.2 18.5 "></path></clipPath><g clip-path="url(#clip-1199)"><g><clipPath id="clip-1200"><path d="M 0.8 6.8 L 11.5 6.8 L 11.5 17.5 L 0.8 17.5 Z M 0.8 6.8 "></path></clipPath><g clip-path="url(#clip-1200)"><path d="M 11.5 6.8 L 0.8 6.8 L 0.8 17.5 L 11.5 17.5 Z M 11.5 6.8 " fill="#BDBDBD"></path></g></g></g></g><text xml:space="preserve" font-family="GillSans" font-size="30.9" fill="#605F5F" transform="matrix(1.00, 0.00, -0.00, -1.00, 31.0, 3.0)">C</text><text xml:space="preserve" font-family="GillSans" font-size="30.9" fill="#605F5F" transform="matrix(1.00, 0.00, -0.00, -1.00, 52.9, 3.0)">o</text><text xml:space="preserve" font-family="GillSans" font-size="30.9" fill="#605F5F" transform="matrix(1.00, 0.00, -0.00, -1.00, 70.0, 3.0)">n</text><text xml:space="preserve" font-family="GillSans" font-size="30.9" fill="#605F5F" transform="matrix(1.00, 0.00, -0.00, -1.00, 85.4, 3.0)">s</text><text xml:space="preserve" font-family="GillSans" font-size="30.9" fill="#605F5F" transform="matrix(1.00, 0.00, -0.00, -1.00, 97.3, 3.0)">i</text><text xml:space="preserve" font-family="GillSans" font-size="30.9" fill="#605F5F" transform="matrix(1.00, 0.00, -0.00, -1.00, 104.1, 3.0)">s</text><text xml:space="preserve" font-family="GillSans" font-size="30.9" fill="#605F5F" transform="matrix(1.00, 0.00, -0.00, -1.00, 116.0, 3.0)">t</text><text xml:space="preserve" font-family="GillSans" font-size="30.9" fill="#605F5F" transform="matrix(1.00, 0.00, -0.00, -1.00, 126.3, 3.0)">s</text><text xml:space="preserve" font-family="GillSans" font-size="30.9" fill="#605F5F" transform="matrix(1.00, 0.00, -0.00, -1.00, 138.2, 3.0)"> </text><text xml:space="preserve" font-family="GillSans" font-size="30.9" fill="#605F5F" transform="matrix(1.00, 0.00, -0.00, -1.00, 146.8, 3.0)">o</text><text xml:space="preserve" font-family="GillSans" font-size="30.9" fill="#605F5F" transform="matrix(1.00, 0.00, -0.00, -1.00, 163.9, 3.0)">f</text><text xml:space="preserve" font-family="GillSans" font-size="30.9" fill="#605F5F" transform="matrix(1.00, 0.00, -0.00, -1.00, 171.6, 3.0)"> </text><text xml:space="preserve" font-family="GillSans" font-size="30.9" fill="#605F5F" transform="matrix(1.00, 0.00, -0.00, -1.00, 180.2, 3.0)">1</text><text xml:space="preserve" font-family="GillSans" font-size="30.9" fill="#605F5F" transform="matrix(1.00, 0.00, -0.00, -1.00, 195.7, 3.0)">8</text><text xml:space="preserve" font-family="GillSans" font-size="30.9" fill="#605F5F" transform="matrix(1.00, 0.00, -0.00, -1.00, 211.1, 3.0)">3</text><text xml:space="preserve" font-family="GillSans" font-size="30.9" fill="#605F5F" transform="matrix(1.00, 0.00, -0.00, -1.00, 226.6, 3.0)"> </text><text xml:space="preserve" font-family="GillSans" font-size="30.9" fill="#605F5F" transform="matrix(1.00, 0.00, -0.00, -1.00, 235.2, 3.0)">s</text><text xml:space="preserve" font-family="GillSans" font-size="30.9" fill="#605F5F" transform="matrix(1.00, 0.00, -0.00, -1.00, 247.1, 3.0)">c</text><text xml:space="preserve" font-family="GillSans" font-size="30.9" fill="#605F5F" transform="matrix(1.00, 0.00, -0.00, -1.00, 260.7, 3.0)">r</text><text xml:space="preserve" font-family="GillSans" font-size="30.9" fill="#605F5F" transform="matrix(1.00, 0.00, -0.00, -1.00, 272.3, 3.0)">e</text><text xml:space="preserve" font-family="GillSans" font-size="30.9" fill="#605F5F" transform="matrix(1.00, 0.00, -0.00, -1.00, 287.1, 3.0)">e</text><text xml:space="preserve" font-family="GillSans" font-size="30.9" fill="#605F5F" transform="matrix(1.00, 0.00, -0.00, -1.00, 301.9, 3.0)">n</text><text xml:space="preserve" font-family="GillSans" font-size="30.9" fill="#605F5F" transform="matrix(1.00, 0.00, -0.00, -1.00, 317.4, 3.0)">s</text><text xml:space="preserve" font-family="GillSans" font-size="30.9" fill="#605F5F" transform="matrix(1.00, 0.00, -0.00, -1.00, 329.3, 3.0)">…</text><text xml:space="preserve" font-family="GillSans" font-size="30.9" fill="#605F5F" transform="matrix(1.00, 0.00, -0.00, -1.00, 360.2, 3.0)">.</text></g></svg>