<?xml version="1.0" encoding="UTF-8" standalone="no"?><svg xmlns="http://www.w3.org/2000/svg" xmlns:xlink="http://www.w3.org/1999/xlink" clip-rule="evenodd" stroke-miterlimit="4.00" viewBox="0 0 214 22"><desc>SVG generated by Keynote</desc><defs></defs><g transform="matrix(1.00, 0.00, -0.00, -1.00, 0.0, 22.0)"><g><clipPath id="clip-2127"><path d="M -0.7 15.9 L 7.7 15.9 L 7.7 7.5 L -0.7 7.5 Z M -0.7 15.9 "></path></clipPath><g clip-path="url(#clip-2127)"><g><clipPath id="clip-2128"><path d="M 0.0 8.2 L 7.0 8.2 L 7.0 15.3 L 0.0 15.3 Z M 0.0 8.2 "></path></clipPath><g clip-path="url(#clip-2128)"><path d="M 7.0 8.2 L -0.0 8.2 L -0.0 15.3 L 7.0 15.3 Z M 7.0 8.2 " fill="#BDBDBD"></path></g></g></g></g><text xml:space="preserve" font-family="Raleway" font-size="20.0" fill="#000000" transform="matrix(1.00, 0.00, -0.00, -1.00, 16.0, 6.0)">C</text><text xml:space="preserve" font-family="Raleway" font-size="20.0" fill="#000000" transform="matrix(1.00, 0.00, -0.00, -1.00, 29.8, 6.0)">l</text><text xml:space="preserve" font-family="Raleway" font-size="20.0" fill="#000000" transform="matrix(1.00, 0.00, -0.00, -1.00, 35.1, 6.0)">i</text><text xml:space="preserve" font-family="Raleway" font-size="20.0" fill="#000000" transform="matrix(1.00, 0.00, -0.00, -1.00, 39.3, 6.0)">e</text><text xml:space="preserve" font-family="Raleway" font-size="20.0" fill="#000000" transform="matrix(1.00, 0.00, -0.00, -1.00, 51.1, 6.0)">n</text><text xml:space="preserve" font-family="Raleway" font-size="20.0" fill="#000000" transform="matrix(1.00, 0.00, -0.00, -1.00, 62.6, 6.0)">t</text><text xml:space="preserve" font-family="Raleway" font-size="20.0" fill="#000000" transform="matrix(1.00, 0.00, -0.00, -1.00, 69.2, 6.0)"> </text><text xml:space="preserve" font-family="Raleway" font-size="20.0" fill="#000000" transform="matrix(1.00, 0.00, -0.00, -1.00, 74.3, 6.0)">N</text><text xml:space="preserve" font-family="Raleway" font-size="20.0" fill="#000000" transform="matrix(1.00, 0.00, -0.00, -1.00, 89.8, 6.0)">e</text><text xml:space="preserve" font-family="Raleway" font-size="20.0" fill="#000000" transform="matrix(1.00, 0.00, -0.00, -1.00, 101.5, 6.0)">e</text><text xml:space="preserve" font-family="Raleway" font-size="20.0" fill="#000000" transform="matrix(1.00, 0.00, -0.00, -1.00, 113.3, 6.0)">d</text><text xml:space="preserve" font-family="Raleway" font-size="20.0" fill="#000000" transform="matrix(1.00, 0.00, -0.00, -1.00, 125.7, 6.0)">s</text><text xml:space="preserve" font-family="Raleway" font-size="20.0" fill="#000000" transform="matrix(1.00, 0.00, -0.00, -1.00, 135.5, 6.0)"> </text><text xml:space="preserve" font-family="Raleway" font-size="20.0" fill="#000000" transform="matrix(1.00, 0.00, -0.00, -1.00, 140.6, 6.0)">p</text><text xml:space="preserve" font-family="Raleway" font-size="20.0" fill="#000000" transform="matrix(1.00, 0.00, -0.00, -1.00, 152.9, 6.0)">r</text><text xml:space="preserve" font-family="Raleway" font-size="20.0" fill="#000000" transform="matrix(1.00, 0.00, -0.00, -1.00, 159.4, 6.0)">o</text><text xml:space="preserve" font-family="Raleway" font-size="20.0" fill="#000000" transform="matrix(1.00, 0.00, -0.00, -1.00, 171.3, 6.0)">c</text><text xml:space="preserve" font-family="Raleway" font-size="20.0" fill="#000000" transform="matrix(1.00, 0.00, -0.00, -1.00, 182.3, 6.0)">e</text><text xml:space="preserve" font-family="Raleway" font-size="20.0" fill="#000000" transform="matrix(1.00, 0.00, -0.00, -1.00, 194.1, 6.0)">s</text><text xml:space="preserve" font-family="Raleway" font-size="20.0" fill="#000000" transform="matrix(1.00, 0.00, -0.00, -1.00, 203.8, 6.0)">s</text></g></svg>