<?xml version="1.0" encoding="UTF-8" standalone="no"?><svg xmlns="http://www.w3.org/2000/svg" xmlns:xlink="http://www.w3.org/1999/xlink" clip-rule="evenodd" stroke-miterlimit="4.00" viewBox="0 0 130 18"><desc>SVG generated by Keynote</desc><defs></defs><g transform="matrix(1.00, 0.00, -0.00, -1.00, 0.0, 18.0)"><g><clipPath id="clip-1082"><path d="M -0.7 11.9 L 7.7 11.9 L 7.7 3.5 L -0.7 3.5 Z M -0.7 11.9 "></path></clipPath><g clip-path="url(#clip-1082)"><g><clipPath id="clip-1083"><path d="M 0.0 4.2 L 7.0 4.2 L 7.0 11.3 L 0.0 11.3 Z M 0.0 4.2 "></path></clipPath><g clip-path="url(#clip-1083)"><path d="M 7.0 4.2 L -0.0 4.2 L -0.0 11.3 L 7.0 11.3 Z M 7.0 4.2 " fill="#BDBDBD"></path></g></g></g></g><text xml:space="preserve" font-family="Raleway" font-size="20.0" fill="#000000" transform="matrix(1.00, 0.00, -0.00, -1.00, 19.0, 2.0)">P</text><text xml:space="preserve" font-family="Raleway" font-size="20.0" fill="#000000" transform="matrix(1.00, 0.00, -0.00, -1.00, 31.4, 2.0)">i</text><text xml:space="preserve" font-family="Raleway" font-size="20.0" fill="#000000" transform="matrix(1.00, 0.00, -0.00, -1.00, 35.7, 2.0)">v</text><text xml:space="preserve" font-family="Raleway" font-size="20.0" fill="#000000" transform="matrix(1.00, 0.00, -0.00, -1.00, 45.9, 2.0)">o</text><text xml:space="preserve" font-family="Raleway" font-size="20.0" fill="#000000" transform="matrix(1.00, 0.00, -0.00, -1.00, 57.7, 2.0)">t</text><text xml:space="preserve" font-family="Raleway" font-size="20.0" fill="#000000" transform="matrix(1.00, 0.00, -0.00, -1.00, 64.3, 2.0)"> </text><text xml:space="preserve" font-family="Raleway" font-size="20.0" fill="#000000" transform="matrix(1.00, 0.00, -0.00, -1.00, 68.9, 2.0)">T</text><text xml:space="preserve" font-family="Raleway" font-size="20.0" fill="#000000" transform="matrix(1.00, 0.00, -0.00, -1.00, 79.2, 2.0)">a</text><text xml:space="preserve" font-family="Raleway" font-size="20.0" fill="#000000" transform="matrix(1.00, 0.00, -0.00, -1.00, 90.2, 2.0)">b</text><text xml:space="preserve" font-family="Raleway" font-size="20.0" fill="#000000" transform="matrix(1.00, 0.00, -0.00, -1.00, 102.5, 2.0)">l</text><text xml:space="preserve" font-family="Raleway" font-size="20.0" fill="#000000" transform="matrix(1.00, 0.00, -0.00, -1.00, 107.8, 2.0)">e</text><text xml:space="preserve" font-family="Raleway" font-size="20.0" fill="#000000" transform="matrix(1.00, 0.00, -0.00, -1.00, 119.5, 2.0)">s</text></g></svg>