<?xml version="1.0" encoding="UTF-8" standalone="no"?><svg xmlns="http://www.w3.org/2000/svg" xmlns:xlink="http://www.w3.org/1999/xlink" clip-rule="evenodd" stroke-miterlimit="4.00" viewBox="0 0 528 22"><desc>SVG generated by Keynote</desc><defs></defs><g transform="matrix(1.00, 0.00, -0.00, -1.00, 0.0, 22.0)"><g><clipPath id="clip-1090"><path d="M -0.7 15.9 L 7.7 15.9 L 7.7 7.5 L -0.7 7.5 Z M -0.7 15.9 "></path></clipPath><g clip-path="url(#clip-1090)"><g><clipPath id="clip-1091"><path d="M 0.0 8.2 L 7.0 8.2 L 7.0 15.3 L 0.0 15.3 Z M 0.0 8.2 "></path></clipPath><g clip-path="url(#clip-1091)"><path d="M 7.0 8.2 L -0.0 8.2 L -0.0 15.3 L 7.0 15.3 Z M 7.0 8.2 " fill="#BDBDBD"></path></g></g></g></g><text xml:space="preserve" font-family="Raleway" font-size="20.0" fill="#000000" transform="matrix(1.00, 0.00, -0.00, -1.00, 19.0, 6.0)">M</text><text xml:space="preserve" font-family="Raleway" font-size="20.0" fill="#000000" transform="matrix(1.00, 0.00, -0.00, -1.00, 36.6, 6.0)">a</text><text xml:space="preserve" font-family="Raleway" font-size="20.0" fill="#000000" transform="matrix(1.00, 0.00, -0.00, -1.00, 47.5, 6.0)">n</text><text xml:space="preserve" font-family="Raleway" font-size="20.0" fill="#000000" transform="matrix(1.00, 0.00, -0.00, -1.00, 59.1, 6.0)">a</text><text xml:space="preserve" font-family="Raleway" font-size="20.0" fill="#000000" transform="matrix(1.00, 0.00, -0.00, -1.00, 70.1, 6.0)">g</text><text xml:space="preserve" font-family="Raleway" font-size="20.0" fill="#000000" transform="matrix(1.00, 0.00, -0.00, -1.00, 82.4, 6.0)">e</text><text xml:space="preserve" font-family="Raleway" font-size="20.0" fill="#000000" transform="matrix(1.00, 0.00, -0.00, -1.00, 94.1, 6.0)">r</text><text xml:space="preserve" font-family="Raleway" font-size="20.0" fill="#000000" transform="matrix(1.00, 0.00, -0.00, -1.00, 101.0, 6.0)">s</text><text xml:space="preserve" font-family="Raleway" font-size="20.0" fill="#000000" transform="matrix(1.00, 0.00, -0.00, -1.00, 110.8, 6.0)"> </text><text xml:space="preserve" font-family="Raleway" font-size="20.0" fill="#000000" transform="matrix(1.00, 0.00, -0.00, -1.00, 115.9, 6.0)">:</text><text xml:space="preserve" font-family="Raleway" font-size="20.0" fill="#000000" transform="matrix(1.00, 0.00, -0.00, -1.00, 119.8, 6.0)"> </text><text xml:space="preserve" font-family="Raleway" font-size="20.0" fill="#000000" transform="matrix(1.00, 0.00, -0.00, -1.00, 125.0, 6.0)">M</text><text xml:space="preserve" font-family="Raleway" font-size="20.0" fill="#000000" transform="matrix(1.00, 0.00, -0.00, -1.00, 142.5, 6.0)">o</text><text xml:space="preserve" font-family="Raleway" font-size="20.0" fill="#000000" transform="matrix(1.00, 0.00, -0.00, -1.00, 154.1, 6.0)">v</text><text xml:space="preserve" font-family="Raleway" font-size="20.0" fill="#000000" transform="matrix(1.00, 0.00, -0.00, -1.00, 164.7, 6.0)">i</text><text xml:space="preserve" font-family="Raleway" font-size="20.0" fill="#000000" transform="matrix(1.00, 0.00, -0.00, -1.00, 168.9, 6.0)">n</text><text xml:space="preserve" font-family="Raleway" font-size="20.0" fill="#000000" transform="matrix(1.00, 0.00, -0.00, -1.00, 180.5, 6.0)">g</text><text xml:space="preserve" font-family="Raleway" font-size="20.0" fill="#000000" transform="matrix(1.00, 0.00, -0.00, -1.00, 192.8, 6.0)"> </text><text xml:space="preserve" font-family="Raleway" font-size="20.0" fill="#000000" transform="matrix(1.00, 0.00, -0.00, -1.00, 198.0, 6.0)">t</text><text xml:space="preserve" font-family="Raleway" font-size="20.0" fill="#000000" transform="matrix(1.00, 0.00, -0.00, -1.00, 204.4, 6.0)">o</text><text xml:space="preserve" font-family="Raleway" font-size="20.0" fill="#000000" transform="matrix(1.00, 0.00, -0.00, -1.00, 215.9, 6.0)">w</text><text xml:space="preserve" font-family="Raleway" font-size="20.0" fill="#000000" transform="matrix(1.00, 0.00, -0.00, -1.00, 231.9, 6.0)">a</text><text xml:space="preserve" font-family="Raleway" font-size="20.0" fill="#000000" transform="matrix(1.00, 0.00, -0.00, -1.00, 242.9, 6.0)">r</text><text xml:space="preserve" font-family="Raleway" font-size="20.0" fill="#000000" transform="matrix(1.00, 0.00, -0.00, -1.00, 249.4, 6.0)">d</text><text xml:space="preserve" font-family="Raleway" font-size="20.0" fill="#000000" transform="matrix(1.00, 0.00, -0.00, -1.00, 261.9, 6.0)">s</text><text xml:space="preserve" font-family="Raleway" font-size="20.0" fill="#000000" transform="matrix(1.00, 0.00, -0.00, -1.00, 271.6, 6.0)"> </text><text xml:space="preserve" font-family="Raleway" font-size="20.0" fill="#000000" transform="matrix(1.00, 0.00, -0.00, -1.00, 276.7, 6.0)">1</text><text xml:space="preserve" font-family="Raleway" font-size="20.0" fill="#000000" transform="matrix(1.00, 0.00, -0.00, -1.00, 285.3, 6.0)">s</text><text xml:space="preserve" font-family="Raleway" font-size="20.0" fill="#000000" transform="matrix(1.00, 0.00, -0.00, -1.00, 295.0, 6.0)">t</text><text xml:space="preserve" font-family="Raleway" font-size="20.0" fill="#000000" transform="matrix(1.00, 0.00, -0.00, -1.00, 301.7, 6.0)"> </text><text xml:space="preserve" font-family="Raleway" font-size="20.0" fill="#000000" transform="matrix(1.00, 0.00, -0.00, -1.00, 306.2, 6.0)">A</text><text xml:space="preserve" font-family="Raleway" font-size="20.0" fill="#000000" transform="matrix(1.00, 0.00, -0.00, -1.00, 319.7, 6.0)">p</text><text xml:space="preserve" font-family="Raleway" font-size="20.0" fill="#000000" transform="matrix(1.00, 0.00, -0.00, -1.00, 332.0, 6.0)">r</text><text xml:space="preserve" font-family="Raleway" font-size="20.0" fill="#000000" transform="matrix(1.00, 0.00, -0.00, -1.00, 339.1, 6.0)">i</text><text xml:space="preserve" font-family="Raleway" font-size="20.0" fill="#000000" transform="matrix(1.00, 0.00, -0.00, -1.00, 343.3, 6.0)">l</text><text xml:space="preserve" font-family="Raleway" font-size="20.0" fill="#000000" transform="matrix(1.00, 0.00, -0.00, -1.00, 348.1, 6.0)"> </text><text xml:space="preserve" font-family="Raleway" font-size="20.0" fill="#000000" transform="matrix(1.00, 0.00, -0.00, -1.00, 353.2, 6.0)">2</text><text xml:space="preserve" font-family="Raleway" font-size="20.0" fill="#000000" transform="matrix(1.00, 0.00, -0.00, -1.00, 363.8, 6.0)">0</text><text xml:space="preserve" font-family="Raleway" font-size="20.0" fill="#000000" transform="matrix(1.00, 0.00, -0.00, -1.00, 376.1, 6.0)">1</text><text xml:space="preserve" font-family="Raleway" font-size="20.0" fill="#000000" transform="matrix(1.00, 0.00, -0.00, -1.00, 384.7, 6.0)">6</text><text xml:space="preserve" font-family="Raleway" font-size="20.0" fill="#000000" transform="matrix(1.00, 0.00, -0.00, -1.00, 396.8, 6.0)"> </text><text xml:space="preserve" font-family="Raleway" font-size="20.0" fill="#000000" transform="matrix(1.00, 0.00, -0.00, -1.00, 401.9, 6.0)">…</text><text xml:space="preserve" font-family="Raleway" font-size="20.0" fill="#000000" transform="matrix(1.00, 0.00, -0.00, -1.00, 411.1, 6.0)"> </text><text xml:space="preserve" font-family="Raleway" font-size="20.0" fill="#000000" transform="matrix(1.00, 0.00, -0.00, -1.00, 416.2, 6.0)">a</text><text xml:space="preserve" font-family="Raleway" font-size="20.0" fill="#000000" transform="matrix(1.00, 0.00, -0.00, -1.00, 427.2, 6.0)"> </text><text xml:space="preserve" font-family="Raleway" font-size="20.0" fill="#000000" transform="matrix(1.00, 0.00, -0.00, -1.00, 432.3, 6.0)">n</text><text xml:space="preserve" font-family="Raleway" font-size="20.0" fill="#000000" transform="matrix(1.00, 0.00, -0.00, -1.00, 443.9, 6.0)">e</text><text xml:space="preserve" font-family="Raleway" font-size="20.0" fill="#000000" transform="matrix(1.00, 0.00, -0.00, -1.00, 455.3, 6.0)">w</text><text xml:space="preserve" font-family="Raleway" font-size="20.0" fill="#000000" transform="matrix(1.00, 0.00, -0.00, -1.00, 471.0, 6.0)"> </text><text xml:space="preserve" font-family="Raleway" font-size="20.0" fill="#000000" transform="matrix(1.00, 0.00, -0.00, -1.00, 475.4, 6.0)">Y</text><text xml:space="preserve" font-family="Raleway" font-size="20.0" fill="#000000" transform="matrix(1.00, 0.00, -0.00, -1.00, 488.1, 6.0)">e</text><text xml:space="preserve" font-family="Raleway" font-size="20.0" fill="#000000" transform="matrix(1.00, 0.00, -0.00, -1.00, 499.8, 6.0)">a</text><text xml:space="preserve" font-family="Raleway" font-size="20.0" fill="#000000" transform="matrix(1.00, 0.00, -0.00, -1.00, 510.8, 6.0)">r</text><text xml:space="preserve" font-family="Raleway" font-size="20.0" fill="#000000" transform="matrix(1.00, 0.00, -0.00, -1.00, 517.8, 6.0)">…</text></g></svg>