<?xml version="1.0" encoding="UTF-8" standalone="no"?><svg xmlns="http://www.w3.org/2000/svg" xmlns:xlink="http://www.w3.org/1999/xlink" clip-rule="evenodd" stroke-miterlimit="4.00" viewBox="0 0 501 22"><desc>SVG generated by Keynote</desc><defs></defs><g transform="matrix(1.00, 0.00, -0.00, -1.00, 0.0, 22.0)"><g><clipPath id="clip-2135"><path d="M -0.7 15.9 L 7.7 15.9 L 7.7 7.5 L -0.7 7.5 Z M -0.7 15.9 "></path></clipPath><g clip-path="url(#clip-2135)"><g><clipPath id="clip-2136"><path d="M 0.0 8.2 L 7.0 8.2 L 7.0 15.3 L 0.0 15.3 Z M 0.0 8.2 "></path></clipPath><g clip-path="url(#clip-2136)"><path d="M 7.0 8.2 L -0.0 8.2 L -0.0 15.3 L 7.0 15.3 Z M 7.0 8.2 " fill="#BDBDBD"></path></g></g></g></g><text xml:space="preserve" font-family="Raleway" font-size="20.0" fill="#000000" transform="matrix(1.00, 0.00, -0.00, -1.00, 19.0, 6.0)">B</text><text xml:space="preserve" font-family="Raleway" font-size="20.0" fill="#000000" transform="matrix(1.00, 0.00, -0.00, -1.00, 32.4, 6.0)">r</text><text xml:space="preserve" font-family="Raleway" font-size="20.0" fill="#000000" transform="matrix(1.00, 0.00, -0.00, -1.00, 39.4, 6.0)">i</text><text xml:space="preserve" font-family="Raleway" font-size="20.0" fill="#000000" transform="matrix(1.00, 0.00, -0.00, -1.00, 43.7, 6.0)">e</text><text xml:space="preserve" font-family="Raleway" font-size="20.0" fill="#000000" transform="matrix(1.00, 0.00, -0.00, -1.00, 55.4, 6.0)">f</text><text xml:space="preserve" font-family="Raleway" font-size="20.0" fill="#000000" transform="matrix(1.00, 0.00, -0.00, -1.00, 62.0, 6.0)"> </text><text xml:space="preserve" font-family="Raleway" font-size="20.0" fill="#000000" transform="matrix(1.00, 0.00, -0.00, -1.00, 67.1, 6.0)">r</text><text xml:space="preserve" font-family="Raleway" font-size="20.0" fill="#000000" transform="matrix(1.00, 0.00, -0.00, -1.00, 74.1, 6.0)">e</text><text xml:space="preserve" font-family="Raleway" font-size="20.0" fill="#000000" transform="matrix(1.00, 0.00, -0.00, -1.00, 85.8, 6.0)">f</text><text xml:space="preserve" font-family="Raleway" font-size="20.0" fill="#000000" transform="matrix(1.00, 0.00, -0.00, -1.00, 92.7, 6.0)">r</text><text xml:space="preserve" font-family="Raleway" font-size="20.0" fill="#000000" transform="matrix(1.00, 0.00, -0.00, -1.00, 99.8, 6.0)">e</text><text xml:space="preserve" font-family="Raleway" font-size="20.0" fill="#000000" transform="matrix(1.00, 0.00, -0.00, -1.00, 111.5, 6.0)">s</text><text xml:space="preserve" font-family="Raleway" font-size="20.0" fill="#000000" transform="matrix(1.00, 0.00, -0.00, -1.00, 121.2, 6.0)">h</text><text xml:space="preserve" font-family="Raleway" font-size="20.0" fill="#000000" transform="matrix(1.00, 0.00, -0.00, -1.00, 132.8, 6.0)">e</text><text xml:space="preserve" font-family="Raleway" font-size="20.0" fill="#000000" transform="matrix(1.00, 0.00, -0.00, -1.00, 144.6, 6.0)">r</text><text xml:space="preserve" font-family="Raleway" font-size="20.0" fill="#000000" transform="matrix(1.00, 0.00, -0.00, -1.00, 151.1, 6.0)"> </text><text xml:space="preserve" font-family="Raleway" font-size="20.0" fill="#000000" transform="matrix(1.00, 0.00, -0.00, -1.00, 156.3, 6.0)">o</text><text xml:space="preserve" font-family="Raleway" font-size="20.0" fill="#000000" transform="matrix(1.00, 0.00, -0.00, -1.00, 168.1, 6.0)">f</text><text xml:space="preserve" font-family="Raleway" font-size="20.0" fill="#000000" transform="matrix(1.00, 0.00, -0.00, -1.00, 174.6, 6.0)"> </text><text xml:space="preserve" font-family="Raleway" font-size="20.0" fill="#000000" transform="matrix(1.00, 0.00, -0.00, -1.00, 179.8, 6.0)">t</text><text xml:space="preserve" font-family="Raleway" font-size="20.0" fill="#000000" transform="matrix(1.00, 0.00, -0.00, -1.00, 186.4, 6.0)">h</text><text xml:space="preserve" font-family="Raleway" font-size="20.0" fill="#000000" transform="matrix(1.00, 0.00, -0.00, -1.00, 198.0, 6.0)">e</text><text xml:space="preserve" font-family="Raleway" font-size="20.0" fill="#000000" transform="matrix(1.00, 0.00, -0.00, -1.00, 209.7, 6.0)"> </text><text xml:space="preserve" font-family="Raleway" font-size="20.0" fill="#000000" transform="matrix(1.00, 0.00, -0.00, -1.00, 214.8, 6.0)">s</text><text xml:space="preserve" font-family="Raleway" font-size="20.0" fill="#000000" transform="matrix(1.00, 0.00, -0.00, -1.00, 224.6, 6.0)">t</text><text xml:space="preserve" font-family="Raleway" font-size="20.0" fill="#000000" transform="matrix(1.00, 0.00, -0.00, -1.00, 231.2, 6.0)">a</text><text xml:space="preserve" font-family="Raleway" font-size="20.0" fill="#000000" transform="matrix(1.00, 0.00, -0.00, -1.00, 242.2, 6.0)">n</text><text xml:space="preserve" font-family="Raleway" font-size="20.0" fill="#000000" transform="matrix(1.00, 0.00, -0.00, -1.00, 253.7, 6.0)">d</text><text xml:space="preserve" font-family="Raleway" font-size="20.0" fill="#000000" transform="matrix(1.00, 0.00, -0.00, -1.00, 266.2, 6.0)">a</text><text xml:space="preserve" font-family="Raleway" font-size="20.0" fill="#000000" transform="matrix(1.00, 0.00, -0.00, -1.00, 277.2, 6.0)">r</text><text xml:space="preserve" font-family="Raleway" font-size="20.0" fill="#000000" transform="matrix(1.00, 0.00, -0.00, -1.00, 283.7, 6.0)">d</text><text xml:space="preserve" font-family="Raleway" font-size="20.0" fill="#000000" transform="matrix(1.00, 0.00, -0.00, -1.00, 296.2, 6.0)"> </text><text xml:space="preserve" font-family="Raleway" font-size="20.0" fill="#000000" transform="matrix(1.00, 0.00, -0.00, -1.00, 301.3, 6.0)">s</text><text xml:space="preserve" font-family="Raleway" font-size="20.0" fill="#000000" transform="matrix(1.00, 0.00, -0.00, -1.00, 311.0, 6.0)">u</text><text xml:space="preserve" font-family="Raleway" font-size="20.0" fill="#000000" transform="matrix(1.00, 0.00, -0.00, -1.00, 322.9, 6.0)">p</text><text xml:space="preserve" font-family="Raleway" font-size="20.0" fill="#000000" transform="matrix(1.00, 0.00, -0.00, -1.00, 335.2, 6.0)">p</text><text xml:space="preserve" font-family="Raleway" font-size="20.0" fill="#000000" transform="matrix(1.00, 0.00, -0.00, -1.00, 347.5, 6.0)">l</text><text xml:space="preserve" font-family="Raleway" font-size="20.0" fill="#000000" transform="matrix(1.00, 0.00, -0.00, -1.00, 352.8, 6.0)">i</text><text xml:space="preserve" font-family="Raleway" font-size="20.0" fill="#000000" transform="matrix(1.00, 0.00, -0.00, -1.00, 357.1, 6.0)">e</text><text xml:space="preserve" font-family="Raleway" font-size="20.0" fill="#000000" transform="matrix(1.00, 0.00, -0.00, -1.00, 368.8, 6.0)">d</text><text xml:space="preserve" font-family="Raleway" font-size="20.0" fill="#000000" transform="matrix(1.00, 0.00, -0.00, -1.00, 381.3, 6.0)"> </text><text xml:space="preserve" font-family="Raleway" font-size="20.0" fill="#000000" transform="matrix(1.00, 0.00, -0.00, -1.00, 386.4, 6.0)">P</text><text xml:space="preserve" font-family="Raleway" font-size="20.0" fill="#000000" transform="matrix(1.00, 0.00, -0.00, -1.00, 398.8, 6.0)">i</text><text xml:space="preserve" font-family="Raleway" font-size="20.0" fill="#000000" transform="matrix(1.00, 0.00, -0.00, -1.00, 403.1, 6.0)">v</text><text xml:space="preserve" font-family="Raleway" font-size="20.0" fill="#000000" transform="matrix(1.00, 0.00, -0.00, -1.00, 413.3, 6.0)">o</text><text xml:space="preserve" font-family="Raleway" font-size="20.0" fill="#000000" transform="matrix(1.00, 0.00, -0.00, -1.00, 425.1, 6.0)">t</text><text xml:space="preserve" font-family="Raleway" font-size="20.0" fill="#000000" transform="matrix(1.00, 0.00, -0.00, -1.00, 431.7, 6.0)"> </text><text xml:space="preserve" font-family="Raleway" font-size="20.0" fill="#000000" transform="matrix(1.00, 0.00, -0.00, -1.00, 436.3, 6.0)">T</text><text xml:space="preserve" font-family="Raleway" font-size="20.0" fill="#000000" transform="matrix(1.00, 0.00, -0.00, -1.00, 446.6, 6.0)">a</text><text xml:space="preserve" font-family="Raleway" font-size="20.0" fill="#000000" transform="matrix(1.00, 0.00, -0.00, -1.00, 457.6, 6.0)">b</text><text xml:space="preserve" font-family="Raleway" font-size="20.0" fill="#000000" transform="matrix(1.00, 0.00, -0.00, -1.00, 469.9, 6.0)">l</text><text xml:space="preserve" font-family="Raleway" font-size="20.0" fill="#000000" transform="matrix(1.00, 0.00, -0.00, -1.00, 475.2, 6.0)">e</text><text xml:space="preserve" font-family="Raleway" font-size="20.0" fill="#000000" transform="matrix(1.00, 0.00, -0.00, -1.00, 486.9, 6.0)">s</text><text xml:space="preserve" font-family="Raleway" font-size="20.0" fill="#000000" transform="matrix(1.00, 0.00, -0.00, -1.00, 496.6, 6.0)">.</text></g></svg>