<?xml version="1.0" encoding="UTF-8" standalone="no"?><svg xmlns="http://www.w3.org/2000/svg" xmlns:xlink="http://www.w3.org/1999/xlink" clip-rule="evenodd" stroke-miterlimit="4.00" viewBox="0 0 906 46"><desc>SVG generated by Keynote</desc><defs></defs><g transform="matrix(1.00, 0.00, -0.00, -1.00, 0.0, 46.0)"><g><clipPath id="clip-2139"><path d="M -0.7 39.9 L 7.7 39.9 L 7.7 31.5 L -0.7 31.5 Z M -0.7 39.9 "></path></clipPath><g clip-path="url(#clip-2139)"><g><clipPath id="clip-2140"><path d="M 0.0 32.2 L 7.0 32.2 L 7.0 39.3 L 0.0 39.3 Z M 0.0 32.2 "></path></clipPath><g clip-path="url(#clip-2140)"><path d="M 7.0 32.2 L -0.0 32.2 L -0.0 39.3 L 7.0 39.3 Z M 7.0 32.2 " fill="#BDBDBD"></path></g></g></g></g><text xml:space="preserve" font-family="Raleway" font-size="20.0" fill="#000000" transform="matrix(1.00, 0.00, -0.00, -1.00, 19.0, 30.0)">D</text><text xml:space="preserve" font-family="Raleway" font-size="20.0" fill="#000000" transform="matrix(1.00, 0.00, -0.00, -1.00, 33.4, 30.0)">e</text><text xml:space="preserve" font-family="Raleway" font-size="20.0" fill="#000000" transform="matrix(1.00, 0.00, -0.00, -1.00, 45.0, 30.0)">t</text><text xml:space="preserve" font-family="Raleway" font-size="20.0" fill="#000000" transform="matrix(1.00, 0.00, -0.00, -1.00, 51.6, 30.0)">a</text><text xml:space="preserve" font-family="Raleway" font-size="20.0" fill="#000000" transform="matrix(1.00, 0.00, -0.00, -1.00, 62.6, 30.0)">i</text><text xml:space="preserve" font-family="Raleway" font-size="20.0" fill="#000000" transform="matrix(1.00, 0.00, -0.00, -1.00, 66.9, 30.0)">l</text><text xml:space="preserve" font-family="Raleway" font-size="20.0" fill="#000000" transform="matrix(1.00, 0.00, -0.00, -1.00, 72.2, 30.0)">e</text><text xml:space="preserve" font-family="Raleway" font-size="20.0" fill="#000000" transform="matrix(1.00, 0.00, -0.00, -1.00, 83.9, 30.0)">d</text><text xml:space="preserve" font-family="Raleway" font-size="20.0" fill="#000000" transform="matrix(1.00, 0.00, -0.00, -1.00, 96.4, 30.0)"> </text><text xml:space="preserve" font-family="Raleway" font-size="20.0" fill="#000000" transform="matrix(1.00, 0.00, -0.00, -1.00, 101.5, 30.0)">d</text><text xml:space="preserve" font-family="Raleway" font-size="20.0" fill="#000000" transform="matrix(1.00, 0.00, -0.00, -1.00, 113.9, 30.0)">i</text><text xml:space="preserve" font-family="Raleway" font-size="20.0" fill="#000000" transform="matrix(1.00, 0.00, -0.00, -1.00, 118.2, 30.0)">s</text><text xml:space="preserve" font-family="Raleway" font-size="20.0" fill="#000000" transform="matrix(1.00, 0.00, -0.00, -1.00, 128.0, 30.0)">c</text><text xml:space="preserve" font-family="Raleway" font-size="20.0" fill="#000000" transform="matrix(1.00, 0.00, -0.00, -1.00, 139.0, 30.0)">u</text><text xml:space="preserve" font-family="Raleway" font-size="20.0" fill="#000000" transform="matrix(1.00, 0.00, -0.00, -1.00, 150.8, 30.0)">s</text><text xml:space="preserve" font-family="Raleway" font-size="20.0" fill="#000000" transform="matrix(1.00, 0.00, -0.00, -1.00, 160.6, 30.0)">s</text><text xml:space="preserve" font-family="Raleway" font-size="20.0" fill="#000000" transform="matrix(1.00, 0.00, -0.00, -1.00, 170.3, 30.0)">i</text><text xml:space="preserve" font-family="Raleway" font-size="20.0" fill="#000000" transform="matrix(1.00, 0.00, -0.00, -1.00, 174.6, 30.0)">o</text><text xml:space="preserve" font-family="Raleway" font-size="20.0" fill="#000000" transform="matrix(1.00, 0.00, -0.00, -1.00, 186.5, 30.0)">n</text><text xml:space="preserve" font-family="Raleway" font-size="20.0" fill="#000000" transform="matrix(1.00, 0.00, -0.00, -1.00, 198.1, 30.0)"> </text><text xml:space="preserve" font-family="Raleway" font-size="20.0" fill="#000000" transform="matrix(1.00, 0.00, -0.00, -1.00, 203.2, 30.0)">o</text><text xml:space="preserve" font-family="Raleway" font-size="20.0" fill="#000000" transform="matrix(1.00, 0.00, -0.00, -1.00, 215.1, 30.0)">n</text><text xml:space="preserve" font-family="Raleway" font-size="20.0" fill="#000000" transform="matrix(1.00, 0.00, -0.00, -1.00, 226.7, 30.0)"> </text><text xml:space="preserve" font-family="Raleway" font-size="20.0" fill="#000000" transform="matrix(1.00, 0.00, -0.00, -1.00, 231.8, 30.0)">d</text><text xml:space="preserve" font-family="Raleway" font-size="20.0" fill="#000000" transform="matrix(1.00, 0.00, -0.00, -1.00, 244.3, 30.0)">e</text><text xml:space="preserve" font-family="Raleway" font-size="20.0" fill="#000000" transform="matrix(1.00, 0.00, -0.00, -1.00, 255.9, 30.0)">t</text><text xml:space="preserve" font-family="Raleway" font-size="20.0" fill="#000000" transform="matrix(1.00, 0.00, -0.00, -1.00, 262.5, 30.0)">a</text><text xml:space="preserve" font-family="Raleway" font-size="20.0" fill="#000000" transform="matrix(1.00, 0.00, -0.00, -1.00, 273.5, 30.0)">i</text><text xml:space="preserve" font-family="Raleway" font-size="20.0" fill="#000000" transform="matrix(1.00, 0.00, -0.00, -1.00, 277.8, 30.0)">l</text><text xml:space="preserve" font-family="Raleway" font-size="20.0" fill="#000000" transform="matrix(1.00, 0.00, -0.00, -1.00, 283.1, 30.0)">e</text><text xml:space="preserve" font-family="Raleway" font-size="20.0" fill="#000000" transform="matrix(1.00, 0.00, -0.00, -1.00, 294.8, 30.0)">d</text><text xml:space="preserve" font-family="Raleway" font-size="20.0" fill="#000000" transform="matrix(1.00, 0.00, -0.00, -1.00, 307.3, 30.0)"> </text><text xml:space="preserve" font-family="Raleway" font-size="20.0" fill="#000000" transform="matrix(1.00, 0.00, -0.00, -1.00, 312.4, 30.0)">d</text><text xml:space="preserve" font-family="Raleway" font-size="20.0" fill="#000000" transform="matrix(1.00, 0.00, -0.00, -1.00, 324.8, 30.0)">a</text><text xml:space="preserve" font-family="Raleway" font-size="20.0" fill="#000000" transform="matrix(1.00, 0.00, -0.00, -1.00, 335.7, 30.0)">t</text><text xml:space="preserve" font-family="Raleway" font-size="20.0" fill="#000000" transform="matrix(1.00, 0.00, -0.00, -1.00, 342.3, 30.0)">a</text><text xml:space="preserve" font-family="Raleway" font-size="20.0" fill="#000000" transform="matrix(1.00, 0.00, -0.00, -1.00, 353.3, 30.0)"> </text><text xml:space="preserve" font-family="Raleway" font-size="20.0" fill="#000000" transform="matrix(1.00, 0.00, -0.00, -1.00, 358.4, 30.0)">p</text><text xml:space="preserve" font-family="Raleway" font-size="20.0" fill="#000000" transform="matrix(1.00, 0.00, -0.00, -1.00, 370.7, 30.0)">r</text><text xml:space="preserve" font-family="Raleway" font-size="20.0" fill="#000000" transform="matrix(1.00, 0.00, -0.00, -1.00, 377.2, 30.0)">o</text><text xml:space="preserve" font-family="Raleway" font-size="20.0" fill="#000000" transform="matrix(1.00, 0.00, -0.00, -1.00, 389.1, 30.0)">c</text><text xml:space="preserve" font-family="Raleway" font-size="20.0" fill="#000000" transform="matrix(1.00, 0.00, -0.00, -1.00, 400.1, 30.0)">e</text><text xml:space="preserve" font-family="Raleway" font-size="20.0" fill="#000000" transform="matrix(1.00, 0.00, -0.00, -1.00, 411.9, 30.0)">s</text><text xml:space="preserve" font-family="Raleway" font-size="20.0" fill="#000000" transform="matrix(1.00, 0.00, -0.00, -1.00, 421.6, 30.0)">s</text><text xml:space="preserve" font-family="Raleway" font-size="20.0" fill="#000000" transform="matrix(1.00, 0.00, -0.00, -1.00, 431.3, 30.0)">i</text><text xml:space="preserve" font-family="Raleway" font-size="20.0" fill="#000000" transform="matrix(1.00, 0.00, -0.00, -1.00, 435.6, 30.0)">n</text><text xml:space="preserve" font-family="Raleway" font-size="20.0" fill="#000000" transform="matrix(1.00, 0.00, -0.00, -1.00, 447.2, 30.0)">g</text><text xml:space="preserve" font-family="Raleway" font-size="20.0" fill="#000000" transform="matrix(1.00, 0.00, -0.00, -1.00, 459.5, 30.0)"> </text><text xml:space="preserve" font-family="Raleway" font-size="20.0" fill="#000000" transform="matrix(1.00, 0.00, -0.00, -1.00, 464.6, 30.0)">-</text><text xml:space="preserve" font-family="Raleway" font-size="20.0" fill="#000000" transform="matrix(1.00, 0.00, -0.00, -1.00, 473.1, 30.0)"> </text><text xml:space="preserve" font-family="Raleway" font-size="20.0" fill="#000000" transform="matrix(1.00, 0.00, -0.00, -1.00, 478.2, 30.0)">u</text><text xml:space="preserve" font-family="Raleway" font-size="20.0" fill="#000000" transform="matrix(1.00, 0.00, -0.00, -1.00, 490.1, 30.0)">s</text><text xml:space="preserve" font-family="Raleway" font-size="20.0" fill="#000000" transform="matrix(1.00, 0.00, -0.00, -1.00, 499.8, 30.0)">i</text><text xml:space="preserve" font-family="Raleway" font-size="20.0" fill="#000000" transform="matrix(1.00, 0.00, -0.00, -1.00, 504.1, 30.0)">n</text><text xml:space="preserve" font-family="Raleway" font-size="20.0" fill="#000000" transform="matrix(1.00, 0.00, -0.00, -1.00, 515.7, 30.0)">g</text><text xml:space="preserve" font-family="Raleway" font-size="20.0" fill="#000000" transform="matrix(1.00, 0.00, -0.00, -1.00, 528.0, 30.0)"> </text><text xml:space="preserve" font-family="Raleway" font-size="20.0" fill="#000000" transform="matrix(1.00, 0.00, -0.00, -1.00, 533.1, 30.0)">P</text><text xml:space="preserve" font-family="Raleway" font-size="20.0" fill="#000000" transform="matrix(1.00, 0.00, -0.00, -1.00, 545.6, 30.0)">i</text><text xml:space="preserve" font-family="Raleway" font-size="20.0" fill="#000000" transform="matrix(1.00, 0.00, -0.00, -1.00, 549.8, 30.0)">v</text><text xml:space="preserve" font-family="Raleway" font-size="20.0" fill="#000000" transform="matrix(1.00, 0.00, -0.00, -1.00, 560.1, 30.0)">o</text><text xml:space="preserve" font-family="Raleway" font-size="20.0" fill="#000000" transform="matrix(1.00, 0.00, -0.00, -1.00, 571.8, 30.0)">t</text><text xml:space="preserve" font-family="Raleway" font-size="20.0" fill="#000000" transform="matrix(1.00, 0.00, -0.00, -1.00, 578.5, 30.0)"> </text><text xml:space="preserve" font-family="Raleway" font-size="20.0" fill="#000000" transform="matrix(1.00, 0.00, -0.00, -1.00, 583.0, 30.0)">T</text><text xml:space="preserve" font-family="Raleway" font-size="20.0" fill="#000000" transform="matrix(1.00, 0.00, -0.00, -1.00, 593.3, 30.0)">a</text><text xml:space="preserve" font-family="Raleway" font-size="20.0" fill="#000000" transform="matrix(1.00, 0.00, -0.00, -1.00, 604.3, 30.0)">b</text><text xml:space="preserve" font-family="Raleway" font-size="20.0" fill="#000000" transform="matrix(1.00, 0.00, -0.00, -1.00, 616.6, 30.0)">l</text><text xml:space="preserve" font-family="Raleway" font-size="20.0" fill="#000000" transform="matrix(1.00, 0.00, -0.00, -1.00, 621.9, 30.0)">e</text><text xml:space="preserve" font-family="Raleway" font-size="20.0" fill="#000000" transform="matrix(1.00, 0.00, -0.00, -1.00, 633.6, 30.0)">s</text><text xml:space="preserve" font-family="Raleway" font-size="20.0" fill="#000000" transform="matrix(1.00, 0.00, -0.00, -1.00, 643.4, 30.0)"> </text><text xml:space="preserve" font-family="Raleway" font-size="20.0" fill="#000000" transform="matrix(1.00, 0.00, -0.00, -1.00, 648.5, 30.0)">t</text><text xml:space="preserve" font-family="Raleway" font-size="20.0" fill="#000000" transform="matrix(1.00, 0.00, -0.00, -1.00, 654.9, 30.0)">o</text><text xml:space="preserve" font-family="Raleway" font-size="20.0" fill="#000000" transform="matrix(1.00, 0.00, -0.00, -1.00, 666.8, 30.0)"> </text><text xml:space="preserve" font-family="Raleway" font-size="20.0" fill="#000000" transform="matrix(1.00, 0.00, -0.00, -1.00, 671.9, 30.0)">a</text><text xml:space="preserve" font-family="Raleway" font-size="20.0" fill="#000000" transform="matrix(1.00, 0.00, -0.00, -1.00, 682.9, 30.0)">n</text><text xml:space="preserve" font-family="Raleway" font-size="20.0" fill="#000000" transform="matrix(1.00, 0.00, -0.00, -1.00, 694.5, 30.0)">s</text><text xml:space="preserve" font-family="Raleway" font-size="20.0" fill="#000000" transform="matrix(1.00, 0.00, -0.00, -1.00, 704.0, 30.0)">w</text><text xml:space="preserve" font-family="Raleway" font-size="20.0" fill="#000000" transform="matrix(1.00, 0.00, -0.00, -1.00, 720.3, 30.0)">e</text><text xml:space="preserve" font-family="Raleway" font-size="20.0" fill="#000000" transform="matrix(1.00, 0.00, -0.00, -1.00, 732.0, 30.0)">r</text><text xml:space="preserve" font-family="Raleway" font-size="20.0" fill="#000000" transform="matrix(1.00, 0.00, -0.00, -1.00, 738.6, 30.0)"> </text><text xml:space="preserve" font-family="Raleway" font-size="20.0" fill="#000000" transform="matrix(1.00, 0.00, -0.00, -1.00, 743.7, 30.0)">q</text><text xml:space="preserve" font-family="Raleway" font-size="20.0" fill="#000000" transform="matrix(1.00, 0.00, -0.00, -1.00, 756.0, 30.0)">u</text><text xml:space="preserve" font-family="Raleway" font-size="20.0" fill="#000000" transform="matrix(1.00, 0.00, -0.00, -1.00, 767.9, 30.0)">e</text><text xml:space="preserve" font-family="Raleway" font-size="20.0" fill="#000000" transform="matrix(1.00, 0.00, -0.00, -1.00, 779.6, 30.0)">s</text><text xml:space="preserve" font-family="Raleway" font-size="20.0" fill="#000000" transform="matrix(1.00, 0.00, -0.00, -1.00, 789.4, 30.0)">t</text><text xml:space="preserve" font-family="Raleway" font-size="20.0" fill="#000000" transform="matrix(1.00, 0.00, -0.00, -1.00, 796.0, 30.0)">i</text><text xml:space="preserve" font-family="Raleway" font-size="20.0" fill="#000000" transform="matrix(1.00, 0.00, -0.00, -1.00, 800.3, 30.0)">o</text><text xml:space="preserve" font-family="Raleway" font-size="20.0" fill="#000000" transform="matrix(1.00, 0.00, -0.00, -1.00, 812.2, 30.0)">n</text><text xml:space="preserve" font-family="Raleway" font-size="20.0" fill="#000000" transform="matrix(1.00, 0.00, -0.00, -1.00, 823.8, 30.0)">s</text><text xml:space="preserve" font-family="Raleway" font-size="20.0" fill="#000000" transform="matrix(1.00, 0.00, -0.00, -1.00, 833.5, 30.0)"> </text><text xml:space="preserve" font-family="Raleway" font-size="20.0" fill="#000000" transform="matrix(1.00, 0.00, -0.00, -1.00, 838.6, 30.0)">t</text><text xml:space="preserve" font-family="Raleway" font-size="20.0" fill="#000000" transform="matrix(1.00, 0.00, -0.00, -1.00, 845.3, 30.0)">h</text><text xml:space="preserve" font-family="Raleway" font-size="20.0" fill="#000000" transform="matrix(1.00, 0.00, -0.00, -1.00, 856.8, 30.0)">a</text><text xml:space="preserve" font-family="Raleway" font-size="20.0" fill="#000000" transform="matrix(1.00, 0.00, -0.00, -1.00, 867.7, 30.0)">t</text><text xml:space="preserve" font-family="Raleway" font-size="20.0" fill="#000000" transform="matrix(1.00, 0.00, -0.00, -1.00, 874.3, 30.0)"> </text><text xml:space="preserve" font-family="Raleway" font-size="20.0" fill="#000000" transform="matrix(1.00, 0.00, -0.00, -1.00, 879.4, 30.0)">d</text><text xml:space="preserve" font-family="Raleway" font-size="20.0" fill="#000000" transform="matrix(1.00, 0.00, -0.00, -1.00, 891.9, 30.0)">o</text><text xml:space="preserve" font-family="Raleway" font-size="20.0" fill="#000000" transform="matrix(1.00, 0.00, -0.00, -1.00, 903.8, 30.0)"> </text><text xml:space="preserve" font-family="Raleway" font-size="20.0" fill="#000000" transform="matrix(1.00, 0.00, -0.00, -1.00, 91.0, 6.0)">n</text><text xml:space="preserve" font-family="Raleway" font-size="20.0" fill="#000000" transform="matrix(1.00, 0.00, -0.00, -1.00, 102.6, 6.0)">o</text><text xml:space="preserve" font-family="Raleway" font-size="20.0" fill="#000000" transform="matrix(1.00, 0.00, -0.00, -1.00, 114.3, 6.0)">t</text><text xml:space="preserve" font-family="Raleway" font-size="20.0" fill="#000000" transform="matrix(1.00, 0.00, -0.00, -1.00, 121.0, 6.0)"> </text><text xml:space="preserve" font-family="Raleway" font-size="20.0" fill="#000000" transform="matrix(1.00, 0.00, -0.00, -1.00, 126.1, 6.0)">e</text><text xml:space="preserve" font-family="Raleway" font-size="20.0" fill="#000000" transform="matrix(1.00, 0.00, -0.00, -1.00, 137.5, 6.0)">v</text><text xml:space="preserve" font-family="Raleway" font-size="20.0" fill="#000000" transform="matrix(1.00, 0.00, -0.00, -1.00, 148.1, 6.0)">e</text><text xml:space="preserve" font-family="Raleway" font-size="20.0" fill="#000000" transform="matrix(1.00, 0.00, -0.00, -1.00, 159.9, 6.0)">n</text><text xml:space="preserve" font-family="Raleway" font-size="20.0" fill="#000000" transform="matrix(1.00, 0.00, -0.00, -1.00, 171.5, 6.0)"> </text><text xml:space="preserve" font-family="Raleway" font-size="20.0" fill="#000000" transform="matrix(1.00, 0.00, -0.00, -1.00, 176.6, 6.0)">e</text><text xml:space="preserve" font-family="Raleway" font-size="20.0" fill="#000000" transform="matrix(1.00, 0.00, -0.00, -1.00, 187.9, 6.0)">x</text><text xml:space="preserve" font-family="Raleway" font-size="20.0" fill="#000000" transform="matrix(1.00, 0.00, -0.00, -1.00, 197.9, 6.0)">i</text><text xml:space="preserve" font-family="Raleway" font-size="20.0" fill="#000000" transform="matrix(1.00, 0.00, -0.00, -1.00, 202.2, 6.0)">s</text><text xml:space="preserve" font-family="Raleway" font-size="20.0" fill="#000000" transform="matrix(1.00, 0.00, -0.00, -1.00, 211.9, 6.0)">t</text><text xml:space="preserve" font-family="Raleway" font-size="20.0" fill="#000000" transform="matrix(1.00, 0.00, -0.00, -1.00, 218.6, 6.0)"> </text><text xml:space="preserve" font-family="Raleway" font-size="20.0" fill="#000000" transform="matrix(1.00, 0.00, -0.00, -1.00, 223.1, 6.0)">y</text><text xml:space="preserve" font-family="Raleway" font-size="20.0" fill="#000000" transform="matrix(1.00, 0.00, -0.00, -1.00, 234.0, 6.0)">e</text><text xml:space="preserve" font-family="Raleway" font-size="20.0" fill="#000000" transform="matrix(1.00, 0.00, -0.00, -1.00, 245.6, 6.0)">t</text><text xml:space="preserve" font-family="Raleway" font-size="20.0" fill="#000000" transform="matrix(1.00, 0.00, -0.00, -1.00, 252.3, 6.0)">.</text></g></svg>