<?xml version="1.0" encoding="UTF-8" standalone="no"?><svg xmlns="http://www.w3.org/2000/svg" xmlns:xlink="http://www.w3.org/1999/xlink" clip-rule="evenodd" stroke-miterlimit="4.00" viewBox="0 0 1024 768"><desc>SVG generated by Keynote</desc><defs></defs><g transform="matrix(1.00, 0.00, -0.00, -1.00, 0.0, 768.0)"><g><clipPath id="clip-1420"><path d="M 0.0 768.0 L 1024.0 768.0 L 1024.0 0.0 L 0.0 0.0 Z M 0.0 768.0 "></path></clipPath><g clip-path="url(#clip-1420)"><image xlink:href="../../41F9CECD-E746-4B6A-B57C-11EF94883B77/assets/A48D6513BC58F3BBF0655FD09F4A8718.jpeg" width="768.00" height="768.00" transform="matrix(1.33, 0.00, -0.00, -1.33, 0.0, 768.0)"></image></g></g><g opacity="0.30"><g><clipPath id="clip-1421"><path d="M 39.0 563.0 L 985.0 563.0 L 985.0 567.0 L 39.0 567.0 Z M 39.0 563.0 "></path></clipPath><g clip-path="url(#clip-1421)"><path d="M 0.0 0.0 L 944.0 0.0 " fill="none" stroke="#434343" stroke-width="1.00" transform="matrix(1.00, 0.00, 0.00, -1.00, 40.0, 565.0)"></path></g></g></g><g opacity="0.30"><g><clipPath id="clip-1422"><path d="M 38.0 36.0 L 986.0 36.0 L 986.0 45.0 L 38.0 45.0 Z M 38.0 36.0 "></path></clipPath><g clip-path="url(#clip-1422)"><path d="M 0.0 0.0 L 944.0 0.0 " fill="none" stroke="#434343" stroke-width="6.00" transform="matrix(1.00, 0.00, 0.00, -1.00, 40.0, 40.0)"></path></g></g></g><g opacity="0.30"><g><clipPath id="clip-1423"><path d="M 38.0 726.0 L 986.0 726.0 L 986.0 730.0 L 38.0 730.0 Z M 38.0 726.0 "></path></clipPath><g clip-path="url(#clip-1423)"><path d="M 0.0 0.0 L 944.0 0.0 " fill="none" stroke="#434343" stroke-width="1.00" transform="matrix(1.00, 0.00, 0.00, -1.00, 40.0, 728.0)"></path></g></g></g><g><clipPath id="clip-1424"><path d="M 36.7 624.2 L 91.9 624.2 L 91.9 723.5 L 36.7 723.5 Z M 36.7 624.2 "></path></clipPath><g clip-path="url(#clip-1424)"><image xlink:href="../../41F9CECD-E746-4B6A-B57C-11EF94883B77/assets/8412EA7883B927C520D3E7200E74D714.png" width="55.00" height="100.00" transform="matrix(1.00, 0.00, -0.00, -1.00, 37.0, 724.0)"></image></g></g><g><clipPath id="clip-1425"><path d="M 111.4 651.0 L 492.6 651.0 L 492.6 712.7 L 111.4 712.7 Z M 111.4 651.0 "></path></clipPath><g clip-path="url(#clip-1425)"><text xml:space="preserve" font-family="GillSans" font-size="36.0" fill="#0B75FE" transform="matrix(1.00, 0.00, -0.00, -1.00, 122.0, 670.0)">C</text><text xml:space="preserve" font-family="GillSans" font-size="36.0" fill="#605F5F" transform="matrix(1.00, 0.00, -0.00, -1.00, 147.5, 670.0)">o</text><text xml:space="preserve" font-family="GillSans" font-size="36.0" fill="#605F5F" transform="matrix(1.00, 0.00, -0.00, -1.00, 167.3, 670.0)">m</text><text xml:space="preserve" font-family="GillSans" font-size="36.0" fill="#605F5F" transform="matrix(1.00, 0.00, -0.00, -1.00, 195.1, 670.0)">m</text><text xml:space="preserve" font-family="GillSans" font-size="36.0" fill="#605F5F" transform="matrix(1.00, 0.00, -0.00, -1.00, 222.5, 670.0)">u</text><text xml:space="preserve" font-family="GillSans" font-size="36.0" fill="#605F5F" transform="matrix(1.00, 0.00, -0.00, -1.00, 240.5, 670.0)">n</text><text xml:space="preserve" font-family="GillSans" font-size="36.0" fill="#605F5F" transform="matrix(1.00, 0.00, -0.00, -1.00, 258.5, 670.0)">i</text><text xml:space="preserve" font-family="GillSans" font-size="36.0" fill="#605F5F" transform="matrix(1.00, 0.00, -0.00, -1.00, 266.4, 670.0)">t</text><text xml:space="preserve" font-family="GillSans" font-size="36.0" fill="#605F5F" transform="matrix(1.00, 0.00, -0.00, -1.00, 278.4, 670.0)">y</text><text xml:space="preserve" font-family="GillSans" font-size="36.0" fill="#605F5F" transform="matrix(1.00, 0.00, -0.00, -1.00, 294.2, 670.0)"> </text><text xml:space="preserve" font-family="GillSans" font-size="36.0" fill="#FDA602" transform="matrix(1.00, 0.00, -0.00, -1.00, 304.2, 670.0)">C</text><text xml:space="preserve" font-family="GillSans" font-size="36.0" fill="#605F5F" transform="matrix(1.00, 0.00, -0.00, -1.00, 329.7, 670.0)">o</text><text xml:space="preserve" font-family="GillSans" font-size="36.0" fill="#605F5F" transform="matrix(1.00, 0.00, -0.00, -1.00, 349.5, 670.0)">u</text><text xml:space="preserve" font-family="GillSans" font-size="36.0" fill="#605F5F" transform="matrix(1.00, 0.00, -0.00, -1.00, 367.5, 670.0)">n</text><text xml:space="preserve" font-family="GillSans" font-size="36.0" fill="#605F5F" transform="matrix(1.00, 0.00, -0.00, -1.00, 385.5, 670.0)">t</text><text xml:space="preserve" font-family="GillSans" font-size="36.0" fill="#605F5F" transform="matrix(1.00, 0.00, -0.00, -1.00, 397.5, 670.0)">s</text><text xml:space="preserve" font-family="GillSans" font-size="36.0" fill="#605F5F" transform="matrix(1.00, 0.00, -0.00, -1.00, 411.3, 670.0)"> </text><text xml:space="preserve" font-family="GillSans" font-size="36.0" fill="#605F5F" transform="matrix(1.00, 0.00, -0.00, -1.00, 415.9, 670.0)">V</text><text xml:space="preserve" font-family="GillSans" font-size="36.0" fill="#605F5F" transform="matrix(1.00, 0.00, -0.00, -1.00, 437.7, 670.0)">3</text><text xml:space="preserve" font-family="GillSans" font-size="36.0" fill="#605F5F" transform="matrix(1.00, 0.00, -0.00, -1.00, 455.7, 670.0)">.</text><text xml:space="preserve" font-family="GillSans" font-size="36.0" fill="#605F5F" transform="matrix(1.00, 0.00, -0.00, -1.00, 463.6, 670.0)">0</text></g></g><text xml:space="preserve" font-family="GillSans-Light" font-size="52.5" fill="#605F5F" transform="matrix(1.00, 0.00, -0.00, -1.00, 132.0, 588.0)">T</text><text xml:space="preserve" font-family="GillSans-Light" font-size="52.5" fill="#605F5F" transform="matrix(1.00, 0.00, -0.00, -1.00, 162.1, 588.0)">H</text><text xml:space="preserve" font-family="GillSans-Light" font-size="52.5" fill="#605F5F" transform="matrix(1.00, 0.00, -0.00, -1.00, 199.9, 588.0)">E</text><text xml:space="preserve" font-family="GillSans-Light" font-size="52.5" fill="#605F5F" transform="matrix(1.00, 0.00, -0.00, -1.00, 225.6, 588.0)"> </text><text xml:space="preserve" font-family="GillSans-Light" font-size="52.5" fill="#605F5F" transform="matrix(1.00, 0.00, -0.00, -1.00, 232.8, 588.0)">T</text><text xml:space="preserve" font-family="GillSans-Light" font-size="52.5" fill="#605F5F" transform="matrix(1.00, 0.00, -0.00, -1.00, 262.9, 588.0)">H</text><text xml:space="preserve" font-family="GillSans-Light" font-size="52.5" fill="#605F5F" transform="matrix(1.00, 0.00, -0.00, -1.00, 300.7, 588.0)">R</text><text xml:space="preserve" font-family="GillSans-Light" font-size="52.5" fill="#605F5F" transform="matrix(1.00, 0.00, -0.00, -1.00, 330.8, 588.0)">E</text><text xml:space="preserve" font-family="GillSans-Light" font-size="52.5" fill="#605F5F" transform="matrix(1.00, 0.00, -0.00, -1.00, 356.5, 588.0)">E</text><text xml:space="preserve" font-family="GillSans-Light" font-size="52.5" fill="#605F5F" transform="matrix(1.00, 0.00, -0.00, -1.00, 382.2, 588.0)"> </text><text xml:space="preserve" font-family="GillSans-Light" font-size="52.5" fill="#605F5F" transform="matrix(1.00, 0.00, -0.00, -1.00, 396.8, 588.0)">P</text><text xml:space="preserve" font-family="GillSans-Light" font-size="52.5" fill="#605F5F" transform="matrix(1.00, 0.00, -0.00, -1.00, 418.8, 588.0)">A</text><text xml:space="preserve" font-family="GillSans-Light" font-size="52.5" fill="#605F5F" transform="matrix(1.00, 0.00, -0.00, -1.00, 453.8, 588.0)">R</text><text xml:space="preserve" font-family="GillSans-Light" font-size="52.5" fill="#605F5F" transform="matrix(1.00, 0.00, -0.00, -1.00, 482.4, 588.0)">T</text><text xml:space="preserve" font-family="GillSans-Light" font-size="52.5" fill="#605F5F" transform="matrix(1.00, 0.00, -0.00, -1.00, 512.5, 588.0)">S</text><text xml:space="preserve" font-family="GillSans-Light" font-size="52.5" fill="#605F5F" transform="matrix(1.00, 0.00, -0.00, -1.00, 537.1, 588.0)">…</text><text xml:space="preserve" font-family="GillSans-Light" font-size="52.5" fill="#605F5F" transform="matrix(1.00, 0.00, -0.00, -1.00, 589.6, 588.0)">.</text><text xml:space="preserve" font-family="GillSans-Light" font-size="52.5" fill="#605F5F" transform="matrix(1.00, 0.00, -0.00, -1.00, 598.8, 588.0)">.</text><g><clipPath id="clip-1426"><path d="M 92.6 401.8 L 209.9 401.8 L 209.9 495.7 L 92.6 495.7 Z M 92.6 401.8 "></path></clipPath><g clip-path="url(#clip-1426)"><image xlink:href="../../FB2EA9D6-1858-4390-9B6F-10DB64DEF135/assets/488FF586B0961CD3631AB702435CE673.png" width="118.00" height="94.00" transform="matrix(0.99, 0.00, -0.00, -1.00, 93.0, 496.0)"></image></g></g><g><clipPath id="clip-1427"><path d="M 56.0 322.9 L 555.3 322.9 L 555.3 548.1 L 56.0 548.1 Z M 56.0 322.9 "></path></clipPath><g clip-path="url(#clip-1427)"><path d="M 57.9 421.0 C 57.9 423.9 57.8 436.6 57.9 436.7 C 57.9 432.0 57.9 421.9 57.9 421.0 C 57.9 421.0 57.9 421.0 57.9 421.0 Z M 57.9 395.5 C 57.8 400.1 57.8 410.2 57.9 413.4 C 57.9 408.0 57.9 397.2 57.9 395.5 C 57.9 395.5 57.9 395.5 57.9 395.5 Z M 58.0 434.6 C 58.0 441.4 58.0 453.9 58.0 457.0 C 58.0 450.2 58.0 437.7 58.0 434.6 C 58.0 434.6 58.0 434.6 58.0 434.6 Z M 306.1 324.2 C 303.1 324.2 290.4 324.2 290.4 324.2 C 295.0 324.2 305.2 324.2 306.1 324.2 C 306.1 324.2 306.1 324.2 306.1 324.2 Z M 235.2 324.3 C 230.6 324.3 220.5 324.3 217.3 324.3 C 222.6 324.3 233.5 324.3 235.2 324.3 C 235.2 324.3 235.2 324.3 235.2 324.3 Z M 194.0 324.3 C 184.4 324.3 174.2 324.3 176.1 324.3 C 179.2 324.3 193.0 324.3 194.0 324.3 C 194.0 324.3 194.0 324.3 194.0 324.3 Z M 59.6 427.3 C 59.6 417.1 59.6 409.8 59.6 402.9 C 59.6 368.5 59.5 420.5 59.6 427.3 C 59.6 427.3 59.6 427.3 59.6 427.3 Z M 121.6 324.4 C 128.5 324.4 134.0 324.4 137.3 324.4 C 130.9 324.4 122.0 324.4 121.6 324.4 C 121.6 324.4 121.6 324.4 121.6 324.4 Z M 62.1 324.5 C 61.8 324.5 60.1 324.4 57.5 324.4 C 57.5 334.9 57.5 360.7 57.6 376.4 C 57.6 363.5 57.6 335.5 57.5 324.5 C 60.7 324.5 62.4 324.5 62.1 324.5 C 62.1 324.5 62.1 324.5 62.1 324.5 Z M 59.6 345.1 C 59.6 339.6 59.6 333.2 59.6 326.5 C 80.3 326.5 104.1 326.5 116.5 326.5 C 131.1 326.5 96.7 326.5 59.5 326.5 C 59.5 331.2 59.5 335.9 59.5 340.6 C 59.5 382.7 59.6 348.1 59.6 365.2 C 59.7 382.2 59.7 348.9 59.7 331.9 C 59.6 328.5 59.6 326.9 59.6 326.6 C 59.8 326.6 59.7 326.6 59.6 326.6 C 59.6 327.8 59.6 343.7 59.6 345.1 C 59.6 345.1 59.6 345.1 59.6 345.1 Z M 59.8 346.3 C 59.7 354.5 59.8 361.6 59.8 366.3 C 59.8 357.9 59.8 349.8 59.8 346.3 C 59.8 346.3 59.8 346.3 59.8 346.3 Z M 63.5 545.4 C 66.3 545.8 86.2 546.1 108.1 546.3 C 113.5 546.4 119.0 546.4 124.6 546.5 C 164.6 546.7 204.9 546.8 245.2 546.8 C 253.2 546.8 261.2 546.8 269.4 546.8 C 294.1 546.9 318.9 546.9 343.9 546.9 C 352.2 546.9 360.4 546.9 369.0 546.9 C 398.9 546.9 427.5 546.9 457.0 546.9 C 471.7 546.9 486.7 546.9 502.1 547.0 C 509.7 547.0 542.5 547.0 554.2 546.9 C 554.2 546.9 554.2 546.9 554.2 546.9 C 554.2 546.9 554.2 546.9 554.2 546.9 C 554.2 549.1 554.2 548.8 554.2 547.0 C 554.2 539.3 554.2 504.2 554.2 506.2 C 554.2 500.1 554.2 493.8 554.2 487.5 C 554.1 481.1 554.1 489.1 554.1 497.1 C 554.1 490.0 554.1 482.9 554.1 475.7 C 554.1 468.1 554.1 460.5 554.1 452.7 C 554.1 427.3 554.1 399.9 554.1 376.3 C 554.1 362.8 554.1 344.5 554.1 324.2 C 477.4 324.2 372.4 324.2 397.6 324.2 C 433.5 324.2 415.0 324.3 405.4 324.3 C 399.8 324.3 392.2 324.3 383.7 324.3 C 384.0 324.3 384.6 324.3 385.9 324.2 C 369.9 324.2 347.4 324.2 325.3 324.2 C 329.4 324.2 334.7 324.2 336.6 324.3 C 325.4 324.3 334.3 324.3 327.0 324.3 C 306.6 324.3 296.8 324.3 320.4 324.3 C 298.5 324.4 284.5 324.4 262.9 324.5 C 254.7 324.5 259.2 324.5 261.6 324.5 C 247.3 324.4 214.4 324.5 211.3 324.4 C 208.2 324.4 300.4 324.4 284.0 324.4 C 277.4 324.4 263.5 324.4 258.3 324.4 C 269.9 324.4 284.3 324.4 291.7 324.4 C 283.6 324.3 272.2 324.3 266.0 324.3 C 273.8 324.3 279.2 324.3 281.5 324.3 C 270.1 324.3 261.5 324.3 247.9 324.3 C 241.9 324.3 253.0 324.3 240.2 324.3 C 237.9 324.4 248.7 324.4 247.9 324.4 C 237.5 324.4 216.9 324.4 211.8 324.4 C 206.8 324.4 224.3 324.4 224.7 324.4 C 184.6 324.4 139.0 324.4 124.9 324.4 C 110.7 324.4 124.1 324.4 130.1 324.5 C 113.6 324.5 101.1 324.5 81.6 324.5 C 69.0 324.5 74.0 324.5 78.8 324.5 C 75.4 324.5 72.5 324.5 70.6 324.5 C 69.2 324.5 65.6 324.5 63.2 324.5 C 70.9 324.5 85.2 324.5 91.5 324.5 C 83.9 324.6 69.5 324.6 57.6 324.6 C 57.6 330.7 57.6 336.2 57.7 339.6 C 57.7 334.7 57.7 329.7 57.7 324.6 C 69.1 324.6 81.0 324.6 93.3 324.6 C 81.4 324.6 69.4 324.6 57.7 324.6 C 57.7 347.1 57.6 368.8 57.7 387.2 C 57.7 382.2 57.7 380.0 57.7 375.9 C 57.7 386.6 57.7 402.3 57.7 411.8 C 57.7 417.0 57.8 427.4 57.8 437.8 C 57.8 419.6 57.8 407.5 57.8 394.8 C 57.8 395.0 57.8 396.2 57.8 398.4 C 57.8 370.0 57.7 353.7 57.7 333.4 C 57.7 331.9 57.7 330.3 57.7 328.7 C 57.8 322.2 57.7 345.2 57.8 347.6 C 57.8 340.0 57.8 332.3 57.8 324.7 C 80.2 324.7 101.2 324.7 112.2 324.7 C 92.8 324.7 74.7 324.7 57.8 324.7 C 57.8 338.7 57.8 351.8 57.8 364.0 C 57.9 358.3 57.9 338.6 57.9 324.8 C 60.6 324.8 63.1 324.8 65.2 324.8 C 62.7 324.8 60.2 324.8 57.9 324.8 C 57.9 376.2 57.9 381.8 57.9 386.3 C 57.9 381.9 57.9 377.4 57.9 372.8 C 57.9 373.9 58.0 375.1 58.0 376.2 C 58.0 401.8 58.0 431.9 58.0 430.4 C 58.0 429.2 58.0 405.8 58.0 381.1 C 58.0 383.7 58.0 386.3 58.0 389.0 C 58.1 417.9 58.1 450.6 58.1 479.5 C 58.1 474.8 58.1 477.2 58.2 483.2 C 58.2 474.2 58.2 461.3 58.2 451.6 C 58.2 454.9 58.2 460.9 58.2 462.8 C 58.2 458.0 58.2 450.3 58.3 447.9 C 58.3 461.5 58.3 476.2 58.3 490.7 C 58.3 493.6 58.3 484.4 58.3 485.2 C 58.3 498.8 58.3 518.0 58.4 528.0 C 58.4 516.5 58.4 494.0 58.4 487.0 C 58.4 491.5 58.4 496.1 58.4 500.8 C 58.4 510.1 58.4 514.6 58.4 504.1 C 58.4 498.5 58.5 498.6 58.5 500.0 C 58.5 506.4 58.5 528.6 58.5 528.0 C 58.5 522.4 58.5 500.2 58.6 494.6 C 58.6 498.8 58.6 510.1 58.6 511.3 C 58.6 486.7 58.6 487.6 58.6 481.4 C 58.6 484.1 58.6 491.1 58.6 490.9 C 58.6 475.7 58.6 460.6 58.6 445.0 C 58.6 445.0 58.6 445.0 58.6 445.0 C 58.6 445.0 58.6 445.0 58.6 445.0 C 58.6 445.0 58.6 445.0 58.6 445.0 C 58.6 446.4 58.6 445.9 58.7 444.5 C 58.7 451.1 58.7 458.0 58.7 470.4 C 58.7 467.1 58.7 455.7 58.7 445.3 C 58.7 445.3 58.7 445.4 58.7 445.5 C 58.7 462.5 58.7 488.4 58.8 505.7 C 58.8 497.8 58.8 468.6 58.8 448.7 C 58.8 449.4 58.8 450.0 58.8 450.7 C 58.8 425.7 58.8 396.4 58.8 368.4 C 58.9 381.9 58.8 397.7 58.8 415.1 C 58.8 423.2 58.9 430.6 58.9 438.3 C 58.9 460.5 58.9 526.3 58.9 533.9 C 58.9 542.1 58.9 475.4 58.9 475.0 C 59.0 474.7 59.0 505.7 59.0 491.1 C 59.0 483.5 59.0 466.8 59.0 454.7 C 59.0 454.3 59.0 453.9 59.0 453.4 C 59.1 464.0 59.1 476.5 59.0 477.0 C 59.0 482.2 59.0 493.1 59.0 494.8 C 59.0 493.0 59.0 490.3 59.0 490.3 C 59.0 492.9 59.0 496.6 59.0 497.0 C 59.1 484.2 59.1 466.7 59.1 452.8 C 59.1 451.6 59.1 450.5 59.1 449.3 C 59.1 449.5 59.1 460.3 59.1 469.6 C 59.1 479.4 59.2 459.1 59.2 442.9 C 59.2 440.4 59.2 437.8 59.2 435.2 C 59.2 440.8 59.2 447.3 59.2 454.9 C 59.2 463.8 59.3 463.6 59.3 472.5 C 59.3 456.1 59.3 436.3 59.3 420.4 C 59.3 414.6 59.3 408.8 59.4 402.9 C 59.4 416.1 59.4 428.3 59.4 435.6 C 59.4 441.4 59.4 447.5 59.4 449.7 C 59.5 444.2 59.5 458.4 59.5 456.3 C 59.5 448.5 59.5 433.0 59.4 427.4 C 59.4 415.2 59.4 401.9 59.4 390.1 C 59.4 388.6 59.4 387.1 59.5 385.5 C 59.5 395.6 59.5 405.1 59.5 415.8 C 59.5 411.0 59.5 381.5 59.5 360.2 C 59.5 349.0 59.5 337.7 59.5 326.4 C 91.8 326.4 124.3 326.3 156.5 326.2 C 158.3 326.2 160.8 326.2 163.6 326.3 C 166.8 326.3 170.0 326.3 173.2 326.3 C 162.8 326.3 153.5 326.3 145.9 326.3 C 176.7 326.4 101.9 326.4 97.1 326.4 C 147.0 326.5 240.2 326.4 297.8 326.5 C 284.0 326.5 279.5 326.5 294.4 326.5 C 298.4 326.5 302.4 326.5 306.6 326.5 C 248.0 326.5 187.1 326.4 140.6 326.5 C 168.3 326.5 210.3 326.5 221.9 326.5 C 213.7 326.6 201.9 326.5 200.3 326.6 C 214.5 326.6 262.1 326.6 276.1 326.6 C 207.8 326.6 115.1 326.6 64.9 326.7 C 140.9 326.6 243.5 326.7 308.6 326.6 C 297.3 326.6 297.2 326.6 303.1 326.6 C 323.3 326.6 343.5 326.6 364.4 326.5 C 368.5 326.6 367.1 326.6 357.1 326.6 C 348.9 326.6 344.0 326.6 341.4 326.6 C 346.9 326.6 411.3 326.6 360.1 326.6 C 309.1 326.6 220.8 326.7 272.4 326.7 C 324.1 326.7 344.5 326.7 316.3 326.7 C 288.0 326.7 198.7 326.8 228.7 326.8 C 258.5 326.8 321.4 326.8 356.9 326.8 C 392.6 326.8 332.8 326.7 385.3 326.7 C 437.7 326.7 394.0 326.7 404.0 326.7 C 419.9 326.7 449.1 326.7 476.8 326.7 C 496.2 326.7 521.2 326.7 533.7 326.8 C 532.8 326.8 473.7 326.8 497.0 326.8 C 515.5 326.8 534.8 326.8 551.4 326.8 C 551.4 361.6 551.4 385.1 551.5 367.3 C 551.5 402.6 551.5 428.6 551.5 450.7 C 551.4 484.9 551.4 524.8 551.4 529.1 C 551.4 530.3 551.4 535.9 551.4 544.2 C 522.2 544.2 459.1 544.3 431.5 544.2 C 428.8 544.2 365.2 544.2 359.8 544.2 C 299.2 544.2 307.7 544.2 248.1 544.2 C 198.2 544.2 182.9 544.2 174.5 544.2 C 122.0 544.2 122.4 544.2 96.7 544.4 C 88.9 544.5 77.0 544.5 72.9 544.6 C 64.8 544.8 60.9 545.0 63.5 545.4 C 63.5 545.4 63.5 545.4 63.5 545.4 Z M 58.5 438.0 C 58.5 447.3 58.5 464.2 58.5 474.0 C 58.4 462.8 58.5 448.9 58.5 434.7 C 58.5 435.8 58.5 436.9 58.5 438.0 C 58.5 438.0 58.5 438.0 58.5 438.0 Z M 59.1 366.6 C 59.1 372.8 59.1 380.3 59.1 387.3 C 59.1 393.9 59.1 400.8 59.1 410.9 C 59.2 410.0 59.2 393.5 59.2 380.6 C 59.2 380.6 59.2 380.6 59.2 380.6 C 59.2 386.9 59.2 394.3 59.2 403.0 C 59.2 406.0 59.2 409.0 59.2 412.1 C 59.2 412.3 59.2 407.6 59.2 405.8 C 59.2 408.1 59.1 415.8 59.1 425.9 C 59.1 427.1 59.1 428.3 59.1 429.5 C 59.1 430.9 59.1 423.3 59.1 431.8 C 59.0 425.8 59.1 410.3 59.1 400.6 C 59.1 411.5 59.1 370.6 59.1 360.6 C 59.1 362.6 59.1 364.5 59.1 366.6 Z M 95.5 324.6 C 101.0 324.6 106.6 324.6 112.3 324.6 C 104.1 324.6 97.8 324.6 92.1 324.6 C 93.2 324.6 94.3 324.6 95.5 324.6 Z M 554.0 326.7 C 553.9 325.9 553.9 325.1 553.9 324.3 C 519.4 324.4 452.2 324.3 447.7 324.3 C 440.5 324.3 433.3 324.3 425.9 324.3 C 471.5 324.3 520.4 324.3 554.0 324.3 C 554.0 325.1 554.0 325.9 554.0 326.7 C 554.0 326.7 554.0 326.7 554.0 326.7 Z M 436.6 326.6 C 433.8 326.6 435.0 326.6 441.7 326.6 C 477.5 326.5 498.8 326.5 476.1 326.5 C 456.8 326.5 414.8 326.5 427.1 326.5 C 443.5 326.5 459.9 326.5 476.8 326.5 C 489.8 326.5 502.3 326.5 515.1 326.6 C 487.4 326.6 460.9 326.6 436.6 326.6 C 436.6 326.6 436.6 326.6 436.6 326.6 Z M 530.5 326.6 C 520.6 326.6 508.8 326.6 496.9 326.6 C 507.3 326.6 517.6 326.6 528.3 326.6 C 529.0 326.6 529.8 326.6 530.5 326.6 Z M 543.2 326.7 C 523.0 326.7 502.8 326.7 523.1 326.6 C 527.7 326.6 532.3 326.6 537.0 326.6 C 539.0 326.6 541.1 326.7 543.2 326.7 Z M 551.5 330.7 C 551.6 330.6 551.6 329.2 551.6 326.7 C 549.9 326.7 547.8 326.7 545.2 326.7 C 547.1 326.7 549.3 326.7 551.6 326.7 C 551.6 341.0 551.6 361.0 551.6 360.0 C 551.6 350.9 551.5 340.9 551.5 330.7 C 551.5 330.7 551.5 330.7 551.5 330.7 Z M 554.0 349.1 C 554.0 340.1 554.0 332.2 554.0 346.5 C 554.0 352.0 554.0 357.4 554.0 363.0 C 554.0 358.4 554.0 353.8 554.0 349.1 Z M 110.5 326.6 C 114.3 326.6 128.8 326.6 137.2 326.6 C 138.0 326.4 105.1 326.5 110.5 326.6 C 110.5 326.6 110.5 326.6 110.5 326.6 Z M 59.7 330.0 C 59.7 329.2 59.7 328.1 59.7 326.6 C 65.6 326.6 76.2 326.6 83.0 326.6 C 83.5 326.5 67.3 326.5 59.6 326.6 C 59.7 329.8 59.7 331.5 59.7 330.0 C 59.7 330.0 59.7 330.0 59.7 330.0 Z M 431.4 544.2 C 431.4 544.2 431.4 544.2 431.5 544.2 C 431.4 544.2 431.4 544.2 431.4 544.2 C 431.4 544.2 431.4 544.2 431.4 544.2 Z M 431.4 544.2 " fill="#66635F"></path></g></g><g><clipPath id="clip-1428"><path d="M 74.8 336.1 L 536.5 336.1 L 536.5 397.8 L 74.8 397.8 Z M 74.8 336.1 "></path></clipPath><g clip-path="url(#clip-1428)"><text xml:space="preserve" font-family="GillSans" font-size="36.0" fill="#605F5F" transform="matrix(1.00, 0.00, -0.00, -1.00, 86.0, 355.0)">w</text><text xml:space="preserve" font-family="GillSans" font-size="36.0" fill="#605F5F" transform="matrix(1.00, 0.00, -0.00, -1.00, 111.9, 355.0)">w</text><text xml:space="preserve" font-family="GillSans" font-size="36.0" fill="#605F5F" transform="matrix(1.00, 0.00, -0.00, -1.00, 137.8, 355.0)">w</text><text xml:space="preserve" font-family="GillSans" font-size="36.0" fill="#605F5F" transform="matrix(1.00, 0.00, -0.00, -1.00, 161.5, 355.0)">.</text><text xml:space="preserve" font-family="GillSans" font-size="36.0" fill="#605F5F" transform="matrix(1.00, 0.00, -0.00, -1.00, 169.4, 355.0)">c</text><text xml:space="preserve" font-family="GillSans" font-size="36.0" fill="#605F5F" transform="matrix(1.00, 0.00, -0.00, -1.00, 185.2, 355.0)">o</text><text xml:space="preserve" font-family="GillSans" font-size="36.0" fill="#605F5F" transform="matrix(1.00, 0.00, -0.00, -1.00, 205.1, 355.0)">m</text><text xml:space="preserve" font-family="GillSans" font-size="36.0" fill="#605F5F" transform="matrix(1.00, 0.00, -0.00, -1.00, 232.8, 355.0)">m</text><text xml:space="preserve" font-family="GillSans" font-size="36.0" fill="#605F5F" transform="matrix(1.00, 0.00, -0.00, -1.00, 260.2, 355.0)">u</text><text xml:space="preserve" font-family="GillSans" font-size="36.0" fill="#605F5F" transform="matrix(1.00, 0.00, -0.00, -1.00, 278.2, 355.0)">n</text><text xml:space="preserve" font-family="GillSans" font-size="36.0" fill="#605F5F" transform="matrix(1.00, 0.00, -0.00, -1.00, 296.2, 355.0)">i</text><text xml:space="preserve" font-family="GillSans" font-size="36.0" fill="#605F5F" transform="matrix(1.00, 0.00, -0.00, -1.00, 304.1, 355.0)">t</text><text xml:space="preserve" font-family="GillSans" font-size="36.0" fill="#605F5F" transform="matrix(1.00, 0.00, -0.00, -1.00, 316.1, 355.0)">y</text><text xml:space="preserve" font-family="GillSans" font-size="36.0" fill="#605F5F" transform="matrix(1.00, 0.00, -0.00, -1.00, 331.9, 355.0)">c</text><text xml:space="preserve" font-family="GillSans" font-size="36.0" fill="#605F5F" transform="matrix(1.00, 0.00, -0.00, -1.00, 347.6, 355.0)">o</text><text xml:space="preserve" font-family="GillSans" font-size="36.0" fill="#605F5F" transform="matrix(1.00, 0.00, -0.00, -1.00, 367.5, 355.0)">u</text><text xml:space="preserve" font-family="GillSans" font-size="36.0" fill="#605F5F" transform="matrix(1.00, 0.00, -0.00, -1.00, 385.5, 355.0)">n</text><text xml:space="preserve" font-family="GillSans" font-size="36.0" fill="#605F5F" transform="matrix(1.00, 0.00, -0.00, -1.00, 403.5, 355.0)">t</text><text xml:space="preserve" font-family="GillSans" font-size="36.0" fill="#605F5F" transform="matrix(1.00, 0.00, -0.00, -1.00, 415.5, 355.0)">s</text><text xml:space="preserve" font-family="GillSans" font-size="36.0" fill="#605F5F" transform="matrix(1.00, 0.00, -0.00, -1.00, 429.3, 355.0)">.</text><text xml:space="preserve" font-family="GillSans" font-size="36.0" fill="#605F5F" transform="matrix(1.00, 0.00, -0.00, -1.00, 437.2, 355.0)">m</text><text xml:space="preserve" font-family="GillSans" font-size="36.0" fill="#605F5F" transform="matrix(1.00, 0.00, -0.00, -1.00, 465.0, 355.0)">e</text><text xml:space="preserve" font-family="GillSans" font-size="36.0" fill="#605F5F" transform="matrix(1.00, 0.00, -0.00, -1.00, 483.0, 355.0)">.</text><text xml:space="preserve" font-family="GillSans" font-size="36.0" fill="#605F5F" transform="matrix(1.00, 0.00, -0.00, -1.00, 490.9, 355.0)">u</text><text xml:space="preserve" font-family="GillSans" font-size="36.0" fill="#605F5F" transform="matrix(1.00, 0.00, -0.00, -1.00, 508.9, 355.0)">k</text><path d="M 4.5 39.4 L 444.6 39.4 " fill="none" stroke="#605F5F" stroke-width="1.79" stroke-miterlimit="0.00" transform="matrix(1.00, 0.00, 0.00, -1.00, 81.1, 391.5)"></path></g></g><g><clipPath id="clip-1429"><path d="M 233.4 399.1 L 502.0 399.1 L 502.0 498.4 L 233.4 498.4 Z M 233.4 399.1 "></path></clipPath><g clip-path="url(#clip-1429)"><image xlink:href="../../FB2EA9D6-1858-4390-9B6F-10DB64DEF135/assets/6BA95B8926436AAE64176B621C3BB652.jpeg" width="269.00" height="99.00" transform="matrix(1.00, 0.00, -0.00, -1.00, 233.0, 498.0)"></image></g></g><g><clipPath id="clip-1430"><path d="M 603.2 322.8 L 901.6 322.8 L 901.6 548.2 L 603.2 548.2 Z M 603.2 322.8 "></path></clipPath><g clip-path="url(#clip-1430)"><path d="M 605.0 456.1 C 605.0 458.2 605.0 467.3 605.0 467.4 C 605.0 464.0 605.0 456.7 605.0 456.1 C 605.0 456.1 605.0 456.1 605.0 456.1 Z M 605.0 437.7 C 605.0 441.0 605.0 448.3 605.0 450.6 C 605.0 446.8 605.0 439.0 605.0 437.7 C 605.0 437.7 605.0 437.7 605.0 437.7 Z M 605.1 465.9 C 605.1 470.7 605.1 479.7 605.1 482.0 C 605.1 477.1 605.1 468.1 605.1 465.9 C 605.1 465.9 605.1 465.9 605.1 465.9 Z M 721.4 324.1 C 719.2 324.1 710.1 324.1 710.1 324.1 C 713.4 324.1 720.7 324.1 721.4 324.1 C 721.4 324.1 721.4 324.1 721.4 324.1 Z M 670.3 324.2 C 666.9 324.2 659.6 324.2 657.3 324.2 C 661.2 324.2 669.1 324.2 670.3 324.2 C 670.3 324.2 670.3 324.2 670.3 324.2 Z M 640.6 324.2 C 633.6 324.2 626.2 324.2 627.7 324.2 C 629.9 324.2 639.9 324.2 640.6 324.2 C 640.6 324.2 640.6 324.2 640.6 324.2 Z M 606.7 460.6 C 606.7 453.3 606.7 448.0 606.7 443.1 C 606.7 418.3 606.7 455.7 606.7 460.6 C 606.7 460.6 606.7 460.6 606.7 460.6 Z M 604.6 340.5 C 604.6 335.5 604.6 331.6 604.6 329.2 C 604.6 333.8 604.6 340.2 604.6 340.5 C 604.6 340.5 604.6 340.5 604.6 340.5 Z M 604.7 383.4 C 604.6 384.5 604.7 409.9 604.7 424.1 C 604.7 412.1 604.7 382.3 604.7 383.4 C 604.7 383.4 604.7 383.4 604.7 383.4 Z M 606.7 401.5 C 606.7 385.2 606.7 359.1 606.7 347.2 C 606.7 335.4 606.7 368.2 606.7 398.3 C 606.7 428.5 606.8 403.6 606.8 416.0 C 606.8 428.2 606.8 404.2 606.8 392.0 C 606.8 379.8 606.8 400.1 606.7 401.5 C 606.7 401.5 606.7 401.5 606.7 401.5 Z M 606.9 402.4 C 606.9 408.3 606.9 413.4 606.9 416.8 C 606.9 410.7 606.9 404.9 606.9 402.4 C 606.9 402.4 606.9 402.4 606.9 402.4 Z M 609.2 545.5 C 611.3 545.9 625.6 546.2 641.3 546.4 C 645.3 546.5 649.2 546.6 653.2 546.6 C 682.1 546.8 711.1 546.9 740.2 546.9 C 745.9 546.9 751.7 546.9 757.6 546.9 C 775.4 547.0 793.3 547.0 811.2 547.0 C 817.2 547.0 823.2 547.0 829.3 547.0 C 850.9 547.0 871.5 547.0 892.7 547.0 C 895.3 547.0 897.8 547.0 900.4 547.0 C 900.4 538.8 900.4 530.5 900.4 522.1 C 900.5 516.5 900.5 492.7 900.4 484.2 C 900.5 492.4 900.5 453.2 900.5 454.9 C 900.4 450.6 900.4 446.0 900.4 441.5 C 900.4 436.9 900.4 442.7 900.4 448.4 C 900.4 443.3 900.4 438.2 900.4 433.0 C 900.4 427.6 900.4 422.1 900.4 416.5 C 900.4 398.2 900.4 378.5 900.3 361.5 C 900.3 351.9 900.3 338.7 900.3 324.1 C 845.0 324.1 769.3 324.1 787.4 324.1 C 813.3 324.1 800.0 324.2 793.1 324.2 C 789.0 324.2 783.5 324.2 777.4 324.2 C 777.6 324.2 778.1 324.1 779.0 324.1 C 767.4 324.1 751.2 324.1 735.3 324.1 C 738.2 324.1 742.0 324.1 743.4 324.1 C 735.3 324.1 741.7 324.2 736.5 324.2 C 721.8 324.2 714.7 324.2 731.8 324.2 C 716.0 324.3 705.9 324.3 690.3 324.4 C 684.4 324.4 687.6 324.4 689.4 324.4 C 679.0 324.3 655.3 324.3 653.1 324.3 C 650.8 324.3 717.4 324.3 705.5 324.3 C 700.7 324.3 690.7 324.3 686.9 324.3 C 695.3 324.3 705.7 324.3 711.1 324.2 C 705.2 324.2 697.0 324.2 692.5 324.2 C 698.1 324.2 702.0 324.2 703.6 324.2 C 695.4 324.2 689.2 324.2 679.4 324.2 C 675.1 324.2 683.1 324.2 673.9 324.2 C 672.2 324.3 680.0 324.2 679.5 324.3 C 672.0 324.3 657.1 324.3 653.4 324.3 C 649.8 324.3 662.5 324.3 662.7 324.3 C 642.2 324.3 619.6 324.3 604.6 324.3 C 604.6 330.4 604.7 335.2 604.7 338.1 C 604.7 348.4 604.7 338.8 604.7 334.5 C 604.7 346.4 604.7 355.3 604.7 369.4 C 604.7 378.5 604.7 374.9 604.7 371.5 C 604.7 373.9 604.7 376.0 604.7 377.4 C 604.7 378.4 604.7 381.0 604.7 382.7 C 604.8 377.2 604.7 366.9 604.8 362.4 C 604.8 370.7 604.8 390.4 604.8 397.6 C 604.8 386.2 604.8 373.9 604.8 361.1 C 604.8 386.1 604.8 411.7 604.8 431.8 C 604.8 428.2 604.9 426.6 604.9 423.7 C 604.8 431.3 604.8 442.6 604.9 449.5 C 604.9 453.3 604.9 460.7 604.9 468.2 C 604.9 455.1 604.9 446.4 604.9 437.2 C 604.9 437.4 604.9 438.3 604.9 439.8 C 605.0 419.4 604.9 407.7 604.9 393.1 C 604.9 392.0 604.9 390.9 604.9 389.7 C 604.9 385.0 604.9 401.6 604.9 403.3 C 604.9 381.8 604.9 358.3 604.9 347.7 C 605.0 373.3 604.9 395.8 605.0 415.1 C 605.0 410.2 605.0 390.8 605.0 381.6 C 605.1 423.5 605.1 427.8 605.1 431.2 C 605.1 427.9 605.1 424.7 605.1 421.4 C 605.1 422.2 605.1 423.1 605.1 423.9 C 605.1 442.3 605.1 463.9 605.1 462.8 C 605.1 462.0 605.1 445.2 605.1 427.4 C 605.2 429.3 605.2 431.1 605.2 433.1 C 605.2 453.8 605.3 477.4 605.2 498.2 C 605.3 494.8 605.3 496.5 605.3 500.8 C 605.3 494.3 605.3 485.0 605.3 478.1 C 605.4 480.5 605.3 484.8 605.4 486.2 C 605.4 482.7 605.4 477.2 605.4 475.4 C 605.4 485.3 605.4 495.8 605.4 506.2 C 605.5 508.3 605.4 501.7 605.5 502.3 C 605.5 512.1 605.5 525.9 605.5 533.0 C 605.5 524.8 605.5 508.6 605.5 503.6 C 605.5 506.8 605.5 510.1 605.5 513.5 C 605.6 520.2 605.6 523.4 605.6 515.9 C 605.6 511.8 605.6 511.9 605.6 512.9 C 605.6 517.5 605.6 533.5 605.7 533.0 C 605.7 529.0 605.7 513.0 605.7 509.0 C 605.7 512.0 605.7 520.2 605.8 521.0 C 605.7 503.3 605.8 504.0 605.7 499.6 C 605.7 501.5 605.7 506.5 605.7 506.3 C 605.7 495.4 605.7 484.6 605.7 473.3 C 605.7 473.3 605.7 473.3 605.7 473.3 C 605.7 473.3 605.7 473.3 605.7 473.3 C 605.7 473.3 605.7 473.3 605.7 473.3 C 605.7 474.3 605.8 474.0 605.8 473.0 C 605.8 477.8 605.8 482.7 605.8 491.6 C 605.9 489.2 605.9 481.1 605.8 473.5 C 605.8 473.6 605.9 473.7 605.9 473.7 C 605.9 485.9 605.9 504.5 605.9 517.0 C 605.9 511.3 605.9 490.3 605.9 476.0 C 605.9 476.5 605.9 477.0 605.9 477.4 C 605.9 459.5 606.0 438.4 606.0 418.2 C 606.0 428.0 606.0 439.3 606.0 451.9 C 606.0 457.7 606.0 463.0 606.0 468.6 C 606.0 484.5 606.0 531.9 606.0 537.3 C 606.1 543.2 606.1 495.2 606.1 495.0 C 606.1 494.7 606.1 517.0 606.1 506.5 C 606.1 501.0 606.1 489.0 606.1 480.3 C 606.1 480.0 606.2 479.7 606.2 479.4 C 606.2 487.0 606.2 496.0 606.1 496.4 C 606.1 500.1 606.1 508.0 606.2 509.2 C 606.2 507.9 606.2 506.0 606.2 506.0 C 606.2 507.8 606.2 510.5 606.2 510.7 C 606.2 501.6 606.2 489.0 606.2 479.0 C 606.2 478.1 606.2 477.3 606.2 476.4 C 606.3 476.6 606.3 484.4 606.3 491.1 C 606.3 498.1 606.3 483.5 606.3 471.9 C 606.3 470.0 606.3 468.2 606.3 466.3 C 606.3 470.3 606.3 475.0 606.3 480.5 C 606.4 486.9 606.4 486.7 606.4 493.1 C 606.4 481.3 606.4 467.1 606.4 455.6 C 606.5 451.5 606.5 447.3 606.5 443.1 C 606.5 452.6 606.6 461.4 606.6 466.6 C 606.6 470.8 606.6 475.2 606.6 476.7 C 606.6 472.8 606.6 483.0 606.6 481.5 C 606.6 475.9 606.6 464.8 606.6 460.7 C 606.6 452.0 606.6 442.4 606.6 433.9 C 606.6 432.8 606.6 431.7 606.6 430.6 C 606.6 437.8 606.6 444.7 606.6 452.3 C 606.7 448.9 606.7 427.7 606.6 412.3 C 606.7 383.8 606.5 354.8 606.5 326.1 C 609.1 326.1 611.8 326.1 614.5 326.1 C 615.8 326.1 617.6 326.1 619.6 326.1 C 621.9 326.2 624.2 326.2 626.5 326.2 C 619.0 326.2 612.4 326.2 606.9 326.2 C 615.2 326.2 612.9 326.2 606.6 326.2 C 606.6 336.9 606.6 358.8 606.6 361.0 C 606.6 351.3 606.6 339.4 606.6 326.3 C 642.0 326.3 685.8 326.3 715.9 326.3 C 706.0 326.3 702.8 326.4 713.5 326.4 C 716.4 326.4 719.2 326.4 722.2 326.4 C 681.7 326.4 639.6 326.3 606.7 326.4 C 606.7 327.6 606.7 328.8 606.7 330.0 C 606.7 328.8 606.7 327.6 606.7 326.4 C 626.5 326.4 653.7 326.4 661.5 326.4 C 655.7 326.4 647.2 326.4 646.0 326.5 C 656.2 326.5 690.4 326.4 700.4 326.5 C 672.0 326.5 637.7 326.5 606.8 326.5 C 606.8 348.9 606.8 369.4 606.9 384.6 C 606.9 366.7 606.9 346.8 606.9 326.5 C 648.6 326.5 692.3 326.5 723.7 326.5 C 715.6 326.5 715.5 326.5 719.8 326.5 C 734.3 326.5 748.7 326.4 763.7 326.4 C 766.7 326.4 765.7 326.4 758.5 326.5 C 752.5 326.5 749.1 326.5 747.2 326.5 C 751.2 326.5 797.3 326.5 760.6 326.5 C 724.1 326.5 660.7 326.5 697.8 326.6 C 734.8 326.6 749.5 326.6 729.3 326.6 C 709.0 326.6 645.0 326.7 666.5 326.7 C 687.8 326.7 732.9 326.7 758.4 326.7 C 783.9 326.7 741.1 326.6 778.7 326.6 C 816.2 326.6 784.9 326.6 792.1 326.6 C 803.5 326.6 824.4 326.6 844.2 326.6 C 858.1 326.6 876.0 326.6 885.0 326.7 C 884.4 326.7 842.0 326.7 858.7 326.7 C 872.0 326.7 885.8 326.7 897.7 326.7 C 897.7 351.7 897.7 368.6 897.8 355.8 C 897.8 381.2 897.8 399.9 897.8 415.7 C 897.7 440.4 897.7 469.0 897.7 472.2 C 897.7 475.0 897.8 514.5 897.7 544.3 C 888.1 544.3 879.5 544.3 873.4 544.3 C 871.4 544.3 825.8 544.3 821.9 544.4 C 778.4 544.3 784.5 544.3 741.7 544.3 C 705.9 544.3 695.0 544.3 688.9 544.3 C 651.2 544.4 651.5 544.3 633.1 544.5 C 627.5 544.6 618.9 544.6 616.0 544.7 C 610.1 544.9 607.4 545.1 609.2 545.5 C 609.2 545.5 609.2 545.5 609.2 545.5 Z M 605.6 468.3 C 605.6 475.0 605.6 487.2 605.6 494.2 C 605.6 486.1 605.6 476.1 605.6 465.9 C 605.6 466.7 605.6 467.5 605.6 468.3 C 605.6 468.3 605.6 468.3 605.6 468.3 Z M 606.3 417.0 C 606.3 421.5 606.2 426.8 606.3 431.9 C 606.3 436.6 606.2 441.6 606.3 448.8 C 606.3 448.2 606.3 436.3 606.3 427.0 C 606.3 427.1 606.3 427.1 606.3 427.1 C 606.4 431.6 606.4 436.9 606.4 443.2 C 606.4 445.3 606.4 447.5 606.4 449.7 C 606.3 449.8 606.3 446.5 606.3 445.2 C 606.3 446.8 606.3 452.4 606.3 459.6 C 606.3 460.5 606.3 461.3 606.3 462.2 C 606.2 463.2 606.2 457.7 606.2 463.9 C 606.2 459.6 606.2 448.4 606.2 441.4 C 606.3 449.3 606.2 419.9 606.3 412.7 C 606.3 414.1 606.3 415.5 606.3 417.0 Z M 604.8 359.6 C 604.8 355.6 604.8 351.6 604.8 347.5 C 604.8 353.4 604.8 357.9 604.8 362.1 C 604.8 361.3 604.8 360.4 604.8 359.6 Z M 900.2 325.9 C 900.2 325.4 900.2 324.8 900.2 324.2 C 875.3 324.3 826.8 324.2 823.5 324.2 C 818.4 324.2 813.2 324.2 807.8 324.2 C 840.8 324.2 876.0 324.2 900.2 324.2 C 900.2 324.8 900.2 325.4 900.2 325.9 C 900.2 325.9 900.2 325.9 900.2 325.9 Z M 815.5 326.5 C 813.4 326.5 814.3 326.5 819.1 326.4 C 844.8 326.4 860.0 326.4 843.8 326.4 C 830.0 326.4 799.8 326.4 808.7 326.4 C 820.4 326.4 832.2 326.4 844.3 326.4 C 853.6 326.4 862.6 326.4 871.7 326.4 C 851.9 326.5 832.8 326.5 815.5 326.5 C 815.5 326.5 815.5 326.5 815.5 326.5 Z M 882.8 326.5 C 875.7 326.5 867.2 326.5 858.7 326.5 C 866.1 326.5 873.5 326.5 881.2 326.5 C 881.7 326.5 882.2 326.5 882.8 326.5 Z M 891.8 326.6 C 877.4 326.6 862.9 326.5 877.5 326.5 C 880.7 326.5 884.0 326.5 887.4 326.5 C 888.9 326.5 890.3 326.5 891.8 326.6 Z M 897.8 329.5 C 897.8 329.4 897.8 328.4 897.8 326.6 C 896.7 326.6 895.2 326.6 893.3 326.5 C 894.6 326.5 896.2 326.5 897.8 326.5 C 897.8 336.8 897.9 351.3 897.8 350.5 C 897.8 344.0 897.8 336.8 897.8 329.5 C 897.8 329.5 897.8 329.5 897.8 329.5 Z M 900.3 342.0 C 900.3 335.5 900.3 329.9 900.3 340.1 C 900.3 344.1 900.3 348.0 900.3 352.0 C 900.3 348.7 900.3 345.4 900.3 342.0 Z M 606.8 351.6 C 606.8 348.9 606.8 338.5 606.8 332.5 C 606.7 331.7 606.7 355.4 606.8 351.6 C 606.8 351.6 606.8 351.6 606.8 351.6 Z M 606.8 390.6 C 606.8 388.0 606.8 377.6 606.8 371.5 C 606.7 370.7 606.8 394.4 606.8 390.6 C 606.8 390.6 606.8 390.6 606.8 390.6 Z M 873.3 544.3 C 873.3 544.3 873.3 544.3 873.4 544.3 C 873.3 544.3 873.3 544.3 873.3 544.3 C 873.3 544.3 873.3 544.3 873.3 544.3 Z M 873.3 544.3 " fill="#66635F"></path></g></g><g><clipPath id="clip-1431"><path d="M 632.8 350.4 L 914.3 350.4 L 914.3 520.6 L 632.8 520.6 Z M 632.8 350.4 "></path></clipPath><g clip-path="url(#clip-1431)"><image xlink:href="../../43659472-15AD-487A-A1FB-370951761121/assets/645271D54BB770236CF5899E0E8C6B72.png" width="282.00" height="170.00" transform="matrix(1.00, 0.00, -0.00, -1.01, 633.0, 521.0)"></image></g></g><g><clipPath id="clip-1432"><path d="M 100.6 86.0 L 291.3 86.0 L 291.3 236.0 L 100.6 236.0 Z M 100.6 86.0 "></path></clipPath><g clip-path="url(#clip-1432)"><image xlink:href="../../F53358FB-BC1A-4DB3-BA91-A57C95EBA95D/assets/88FD1B5C7DB5922C2698318841AA8CD9.png" width="191.00" height="150.00" transform="matrix(0.99, 0.00, -0.00, -1.00, 101.0, 236.0)"></image></g></g><g><clipPath id="clip-1433"><path d="M 46.7 48.3 L 345.2 48.3 L 345.2 273.7 L 46.7 273.7 Z M 46.7 48.3 "></path></clipPath><g clip-path="url(#clip-1433)"><path d="M 48.6 181.6 C 48.6 183.7 48.6 192.8 48.6 192.9 C 48.6 189.5 48.6 182.3 48.6 181.6 C 48.6 181.6 48.6 181.6 48.6 181.6 Z M 48.6 163.3 C 48.6 166.6 48.6 173.9 48.6 176.2 C 48.6 172.3 48.6 164.5 48.6 163.3 C 48.6 163.3 48.6 163.3 48.6 163.3 Z M 48.7 191.4 C 48.7 196.3 48.7 205.3 48.7 207.5 C 48.7 202.6 48.7 193.6 48.7 191.4 C 48.7 191.4 48.7 191.4 48.7 191.4 Z M 165.0 49.6 C 162.8 49.6 153.7 49.6 153.7 49.6 C 157.0 49.6 164.3 49.7 165.0 49.6 C 165.0 49.6 165.0 49.6 165.0 49.6 Z M 113.9 49.7 C 110.5 49.7 103.2 49.7 100.9 49.7 C 104.8 49.7 112.7 49.8 113.9 49.7 C 113.9 49.7 113.9 49.7 113.9 49.7 Z M 84.2 49.7 C 77.2 49.7 69.8 49.7 71.3 49.7 C 73.4 49.7 83.5 49.7 84.2 49.7 C 84.2 49.7 84.2 49.7 84.2 49.7 Z M 50.3 186.1 C 50.3 178.8 50.3 173.5 50.3 168.6 C 50.3 143.9 50.3 181.3 50.3 186.1 C 50.3 186.1 50.3 186.1 50.3 186.1 Z M 48.2 66.0 C 48.2 61.1 48.2 57.1 48.2 54.7 C 48.2 59.3 48.2 65.7 48.2 66.0 C 48.2 66.0 48.2 66.0 48.2 66.0 Z M 48.3 108.9 C 48.2 110.0 48.3 135.5 48.3 149.6 C 48.3 137.6 48.3 107.8 48.3 108.9 C 48.3 108.9 48.3 108.9 48.3 108.9 Z M 50.3 127.1 C 50.3 110.7 50.3 84.6 50.3 72.7 C 50.3 60.9 50.3 93.7 50.3 123.8 C 50.3 154.1 50.3 129.2 50.4 141.5 C 50.4 153.7 50.4 129.8 50.4 117.5 C 50.4 105.4 50.4 125.6 50.3 127.1 C 50.3 127.1 50.3 127.1 50.3 127.1 Z M 50.5 127.9 C 50.5 133.8 50.5 138.9 50.5 142.3 C 50.5 136.2 50.5 130.4 50.5 127.9 C 50.5 127.9 50.5 127.9 50.5 127.9 Z M 52.8 271.0 C 54.8 271.4 69.2 271.7 84.9 272.0 C 88.9 272.0 92.8 272.1 96.8 272.1 C 125.7 272.3 154.7 272.4 183.8 272.4 C 189.5 272.5 195.3 272.5 201.2 272.5 C 219.0 272.5 236.9 272.5 254.8 272.5 C 260.8 272.5 266.8 272.5 272.9 272.5 C 294.5 272.6 315.1 272.5 336.3 272.5 C 338.8 272.5 341.4 272.5 344.0 272.5 C 344.0 264.3 344.0 256.1 344.0 247.6 C 344.1 242.1 344.1 218.2 344.0 209.7 C 344.1 217.9 344.1 178.7 344.1 180.5 C 344.0 176.1 344.0 171.5 344.0 167.0 C 344.0 162.4 344.0 168.2 344.0 173.9 C 344.0 168.8 344.0 163.7 344.0 158.5 C 344.0 153.1 344.0 147.6 344.0 142.0 C 344.0 123.7 344.0 104.0 343.9 87.1 C 343.9 77.4 343.9 64.2 343.9 49.6 C 288.6 49.6 212.9 49.6 231.0 49.6 C 256.9 49.7 243.6 49.7 236.6 49.7 C 232.6 49.7 227.1 49.7 221.0 49.7 C 221.2 49.7 221.7 49.7 222.6 49.7 C 211.0 49.7 194.8 49.6 178.8 49.6 C 181.8 49.7 185.6 49.7 187.0 49.7 C 178.9 49.7 185.3 49.7 180.1 49.7 C 165.4 49.7 158.3 49.8 175.3 49.8 C 159.5 49.8 149.5 49.9 133.9 49.9 C 128.0 49.9 131.2 49.9 133.0 49.9 C 122.6 49.9 98.9 49.9 96.7 49.8 C 94.4 49.8 160.9 49.8 149.1 49.8 C 144.3 49.8 134.3 49.8 130.5 49.8 C 138.9 49.8 149.3 49.8 154.6 49.8 C 148.8 49.8 140.6 49.8 136.1 49.8 C 141.7 49.8 145.6 49.7 147.2 49.7 C 139.0 49.7 132.8 49.7 123.0 49.7 C 118.7 49.7 126.7 49.8 117.5 49.8 C 115.8 49.8 123.6 49.8 123.0 49.8 C 115.6 49.8 100.7 49.8 97.0 49.8 C 93.4 49.8 106.1 49.8 106.3 49.8 C 85.8 49.8 63.2 49.8 48.2 49.8 C 48.2 55.9 48.2 60.7 48.2 63.7 C 48.3 73.9 48.3 64.3 48.3 60.0 C 48.3 71.9 48.3 80.8 48.3 94.9 C 48.3 104.0 48.3 100.4 48.3 97.0 C 48.3 99.4 48.3 101.5 48.3 102.9 C 48.3 103.9 48.3 106.5 48.3 108.2 C 48.3 102.7 48.3 92.4 48.3 87.9 C 48.4 96.2 48.3 115.9 48.4 123.1 C 48.4 111.7 48.4 99.5 48.4 86.7 C 48.4 111.6 48.3 137.2 48.4 157.3 C 48.4 153.7 48.4 152.2 48.5 149.2 C 48.4 156.9 48.4 168.2 48.5 175.0 C 48.5 178.8 48.5 186.2 48.5 193.7 C 48.5 180.6 48.5 171.9 48.5 162.8 C 48.5 163.0 48.5 163.8 48.5 165.4 C 48.6 145.0 48.5 133.2 48.4 118.6 C 48.4 117.5 48.5 116.4 48.5 115.2 C 48.5 110.6 48.5 127.1 48.5 128.8 C 48.5 107.3 48.5 83.8 48.5 73.2 C 48.5 98.8 48.5 121.4 48.6 140.6 C 48.6 135.7 48.6 116.3 48.6 107.2 C 48.6 149.0 48.6 153.3 48.7 156.7 C 48.7 153.5 48.7 150.3 48.7 146.9 C 48.7 147.8 48.7 148.6 48.7 149.4 C 48.7 167.8 48.7 189.5 48.7 188.4 C 48.7 187.5 48.7 170.7 48.7 153.0 C 48.7 154.8 48.8 156.7 48.8 158.6 C 48.8 179.4 48.9 202.9 48.8 223.7 C 48.9 220.3 48.9 222.0 48.9 226.4 C 48.9 219.9 48.9 210.6 48.9 203.6 C 48.9 206.0 48.9 210.3 49.0 211.7 C 49.0 208.2 49.0 202.7 49.0 200.9 C 49.0 210.8 49.0 221.3 49.0 231.7 C 49.1 233.8 49.0 227.2 49.1 227.8 C 49.1 237.6 49.0 251.4 49.1 258.5 C 49.1 250.3 49.1 234.1 49.1 229.1 C 49.1 232.4 49.1 235.6 49.1 239.0 C 49.1 245.7 49.2 248.9 49.2 241.4 C 49.2 237.4 49.2 237.4 49.2 238.5 C 49.2 243.0 49.2 259.0 49.3 258.6 C 49.3 254.5 49.3 238.6 49.3 234.5 C 49.3 237.6 49.3 245.7 49.3 246.6 C 49.3 228.8 49.4 229.5 49.3 225.1 C 49.3 227.0 49.3 232.1 49.3 231.9 C 49.3 221.0 49.3 210.1 49.3 198.9 C 49.3 198.9 49.3 198.9 49.3 198.9 C 49.3 198.9 49.3 198.9 49.3 198.9 C 49.3 198.9 49.3 198.9 49.3 198.9 C 49.3 199.9 49.4 199.5 49.4 198.5 C 49.4 203.3 49.4 208.2 49.4 217.1 C 49.5 214.8 49.4 206.6 49.4 199.1 C 49.4 199.1 49.4 199.2 49.5 199.3 C 49.4 211.5 49.5 230.1 49.5 242.5 C 49.5 236.9 49.5 215.9 49.5 201.6 C 49.5 202.0 49.5 202.5 49.5 203.0 C 49.5 185.0 49.6 163.9 49.5 143.8 C 49.6 153.5 49.6 164.9 49.6 177.4 C 49.6 183.2 49.6 188.5 49.6 194.1 C 49.6 210.0 49.6 257.4 49.6 262.8 C 49.7 268.7 49.7 220.8 49.7 220.5 C 49.7 220.2 49.7 242.6 49.7 232.0 C 49.7 226.5 49.7 214.5 49.7 205.8 C 49.7 205.5 49.7 205.3 49.8 205.0 C 49.8 212.6 49.8 221.5 49.7 221.9 C 49.7 225.6 49.7 233.5 49.7 234.7 C 49.8 233.4 49.7 231.5 49.8 231.5 C 49.8 233.3 49.8 236.0 49.8 236.3 C 49.8 227.1 49.8 214.5 49.8 204.5 C 49.8 203.7 49.8 202.8 49.8 202.0 C 49.8 202.1 49.9 209.9 49.9 216.6 C 49.9 223.6 49.9 209.0 49.9 197.4 C 49.9 195.6 49.9 193.7 49.9 191.8 C 49.9 195.9 49.9 200.5 49.9 206.0 C 50.0 212.4 50.0 212.2 50.0 218.6 C 50.0 206.9 50.0 192.6 50.0 181.2 C 50.0 177.0 50.1 172.9 50.1 168.6 C 50.1 178.1 50.1 186.9 50.2 192.1 C 50.2 196.3 50.2 200.7 50.2 202.2 C 50.2 198.3 50.2 208.6 50.2 207.0 C 50.2 201.4 50.2 190.3 50.2 186.3 C 50.2 177.5 50.2 167.9 50.2 159.4 C 50.2 158.3 50.2 157.2 50.2 156.1 C 50.2 163.3 50.2 170.2 50.2 177.9 C 50.3 174.4 50.3 153.2 50.2 137.9 C 50.3 109.3 50.1 80.3 50.1 51.7 C 52.7 51.7 55.4 51.7 58.1 51.7 C 59.4 51.7 61.2 51.7 63.2 51.7 C 65.5 51.7 67.7 51.7 70.1 51.7 C 62.6 51.7 56.0 51.7 50.5 51.7 C 58.7 51.7 56.5 51.8 50.2 51.8 C 50.2 62.4 50.2 84.3 50.2 86.5 C 50.2 76.9 50.2 64.9 50.2 51.8 C 85.6 51.9 129.4 51.8 159.5 51.9 C 149.6 51.9 146.4 51.9 157.1 51.9 C 159.9 51.9 162.8 51.9 165.8 51.9 C 125.3 51.9 83.2 51.9 50.3 51.9 C 50.3 53.1 50.3 54.3 50.3 55.5 C 50.3 54.3 50.3 53.2 50.3 51.9 C 70.1 51.9 97.2 51.9 105.1 52.0 C 99.3 52.0 90.8 52.0 89.6 52.0 C 99.8 52.0 134.0 52.0 144.0 52.0 C 115.6 52.0 81.2 52.0 50.4 52.0 C 50.4 74.4 50.4 94.9 50.5 110.1 C 50.5 92.2 50.5 72.4 50.5 52.1 C 92.2 52.1 135.9 52.1 167.3 52.0 C 159.2 52.0 159.1 52.0 163.4 52.0 C 177.8 52.0 192.3 52.0 207.2 52.0 C 210.3 52.0 209.2 52.0 202.1 52.0 C 196.1 52.0 192.7 52.0 190.8 52.0 C 194.8 52.0 240.9 52.0 204.2 52.0 C 167.7 52.1 104.3 52.1 141.4 52.1 C 178.4 52.1 193.0 52.1 172.9 52.1 C 152.6 52.2 88.6 52.2 110.1 52.2 C 131.4 52.2 176.5 52.3 202.0 52.2 C 227.5 52.2 184.7 52.1 222.2 52.1 C 259.8 52.1 228.5 52.1 235.7 52.1 C 247.1 52.1 268.0 52.1 287.8 52.1 C 301.7 52.2 319.6 52.2 328.6 52.2 C 327.9 52.2 285.6 52.2 302.3 52.2 C 315.6 52.2 329.4 52.2 341.3 52.2 C 341.3 77.2 341.3 94.2 341.3 81.4 C 341.3 106.7 341.3 125.4 341.4 141.3 C 341.3 165.9 341.3 194.6 341.3 197.7 C 341.3 200.6 341.3 240.0 341.3 269.9 C 331.7 269.9 323.1 269.8 316.9 269.8 C 315.0 269.8 269.4 269.8 265.5 269.9 C 222.0 269.8 228.1 269.8 185.3 269.8 C 149.5 269.8 138.6 269.9 132.5 269.9 C 94.8 269.9 95.1 269.8 76.7 270.0 C 71.1 270.1 62.5 270.1 59.6 270.2 C 53.7 270.4 51.0 270.7 52.8 271.0 C 52.8 271.0 52.8 271.0 52.8 271.0 Z M 49.2 193.9 C 49.2 200.6 49.2 212.7 49.2 219.7 C 49.2 211.7 49.2 201.7 49.2 191.5 C 49.2 192.3 49.2 193.1 49.2 193.9 C 49.2 193.9 49.2 193.9 49.2 193.9 Z M 49.9 142.5 C 49.9 147.0 49.8 152.4 49.8 157.4 C 49.8 162.2 49.8 167.1 49.9 174.3 C 49.9 173.7 49.9 161.8 49.9 152.6 C 49.9 152.6 49.9 152.6 49.9 152.6 C 49.9 157.1 50.0 162.4 50.0 168.7 C 50.0 170.8 50.0 173.0 50.0 175.2 C 49.9 175.4 49.9 172.0 49.9 170.7 C 49.9 172.3 49.9 177.9 49.9 185.1 C 49.9 186.0 49.9 186.9 49.8 187.8 C 49.8 188.8 49.8 183.3 49.8 189.4 C 49.8 185.1 49.8 173.9 49.8 167.0 C 49.9 174.8 49.8 145.4 49.8 138.2 C 49.9 139.6 49.9 141.0 49.9 142.5 Z M 48.4 85.1 C 48.4 81.1 48.4 77.1 48.4 73.0 C 48.4 78.9 48.4 83.5 48.4 87.6 C 48.4 86.8 48.4 86.0 48.4 85.1 Z M 343.8 51.5 C 343.8 50.9 343.8 50.3 343.8 49.7 C 318.9 49.8 270.4 49.7 267.1 49.8 C 261.9 49.7 256.8 49.7 251.4 49.7 C 284.4 49.7 319.6 49.7 343.8 49.7 C 343.8 50.3 343.8 50.9 343.8 51.5 C 343.8 51.5 343.8 51.5 343.8 51.5 Z M 259.0 52.0 C 257.0 52.0 257.9 52.0 262.7 52.0 C 288.4 51.9 303.6 51.9 287.4 51.9 C 273.6 51.9 243.4 51.9 252.3 51.9 C 264.0 51.9 275.8 51.9 287.9 51.9 C 297.2 51.9 306.2 51.9 315.3 52.0 C 295.5 52.0 276.4 52.0 259.0 52.0 C 259.0 52.0 259.0 52.0 259.0 52.0 Z M 326.4 52.0 C 319.3 52.0 310.8 52.0 302.3 52.0 C 309.7 52.0 317.1 52.0 324.7 52.0 C 325.3 52.0 325.8 52.0 326.4 52.0 Z M 335.4 52.1 C 321.0 52.1 306.5 52.1 321.1 52.1 C 324.3 52.1 327.6 52.1 331.0 52.1 C 332.5 52.1 333.9 52.1 335.4 52.1 Z M 341.4 55.0 C 341.4 54.9 341.4 53.9 341.4 52.1 C 340.3 52.1 338.8 52.1 336.9 52.1 C 338.2 52.1 339.8 52.1 341.4 52.1 C 341.4 62.3 341.4 76.8 341.4 76.0 C 341.4 69.5 341.4 62.4 341.4 55.0 C 341.4 55.0 341.4 55.0 341.4 55.0 Z M 343.9 67.5 C 343.9 61.0 343.9 55.4 343.9 65.7 C 343.9 69.6 343.9 73.5 343.9 77.5 C 343.9 74.2 343.9 70.9 343.9 67.5 Z M 50.4 77.2 C 50.4 74.4 50.4 64.0 50.4 58.0 C 50.3 57.2 50.3 81.0 50.4 77.2 C 50.4 77.2 50.4 77.2 50.4 77.2 Z M 50.4 116.2 C 50.4 113.5 50.4 103.1 50.4 97.0 C 50.3 96.3 50.4 120.0 50.4 116.2 C 50.4 116.2 50.4 116.2 50.4 116.2 Z M 316.9 269.8 C 316.9 269.8 316.9 269.8 316.9 269.8 C 316.9 269.8 316.9 269.8 316.9 269.8 C 316.9 269.8 316.9 269.8 316.9 269.8 Z M 316.9 269.8 " fill="#66635F"></path></g></g><text xml:space="preserve" font-family="GillSans" font-size="70.0" fill="#FF40FF" transform="matrix(1.00, 0.00, -0.00, -1.00, 414.0, 186.0)">A</text><text xml:space="preserve" font-family="GillSans" font-size="70.0" fill="#FF40FF" transform="matrix(1.00, 0.00, -0.00, -1.00, 460.7, 186.0)">n</text><text xml:space="preserve" font-family="GillSans" font-size="70.0" fill="#FF40FF" transform="matrix(1.00, 0.00, -0.00, -1.00, 494.3, 186.0)">y</text><text xml:space="preserve" font-family="GillSans" font-size="70.0" fill="#FF40FF" transform="matrix(1.00, 0.00, -0.00, -1.00, 524.9, 186.0)"> </text><text xml:space="preserve" font-family="GillSans" font-size="70.0" fill="#FF40FF" transform="matrix(1.00, 0.00, -0.00, -1.00, 544.4, 186.0)">Q</text><text xml:space="preserve" font-family="GillSans" font-size="70.0" fill="#FF40FF" transform="matrix(1.00, 0.00, -0.00, -1.00, 602.0, 186.0)">u</text><text xml:space="preserve" font-family="GillSans" font-size="70.0" fill="#FF40FF" transform="matrix(1.00, 0.00, -0.00, -1.00, 637.0, 186.0)">e</text><text xml:space="preserve" font-family="GillSans" font-size="70.0" fill="#FF40FF" transform="matrix(1.00, 0.00, -0.00, -1.00, 670.6, 186.0)">s</text><text xml:space="preserve" font-family="GillSans" font-size="70.0" fill="#FF40FF" transform="matrix(1.00, 0.00, -0.00, -1.00, 697.5, 186.0)">t</text><text xml:space="preserve" font-family="GillSans" font-size="70.0" fill="#FF40FF" transform="matrix(1.00, 0.00, -0.00, -1.00, 720.8, 186.0)">i</text><text xml:space="preserve" font-family="GillSans" font-size="70.0" fill="#FF40FF" transform="matrix(1.00, 0.00, -0.00, -1.00, 736.1, 186.0)">o</text><text xml:space="preserve" font-family="GillSans" font-size="70.0" fill="#FF40FF" transform="matrix(1.00, 0.00, -0.00, -1.00, 774.8, 186.0)">n</text><text xml:space="preserve" font-family="GillSans" font-size="70.0" fill="#FF40FF" transform="matrix(1.00, 0.00, -0.00, -1.00, 809.8, 186.0)">s</text><text xml:space="preserve" font-family="GillSans" font-size="70.0" fill="#FF40FF" transform="matrix(1.00, 0.00, -0.00, -1.00, 836.7, 186.0)">?</text></g></svg>