<?xml version="1.0" encoding="UTF-8" standalone="no"?><svg xmlns="http://www.w3.org/2000/svg" xmlns:xlink="http://www.w3.org/1999/xlink" clip-rule="evenodd" stroke-miterlimit="4.00" viewBox="0 0 447 68"><desc>SVG generated by Keynote</desc><defs></defs><g transform="matrix(1.00, 0.00, -0.00, -1.00, 0.0, 68.0)"><text xml:space="preserve" font-family="GillSans" font-size="70.0" fill="#FF40FF" transform="matrix(1.00, 0.00, -0.00, -1.00, 2.0, 18.0)">A</text><text xml:space="preserve" font-family="GillSans" font-size="70.0" fill="#FF40FF" transform="matrix(1.00, 0.00, -0.00, -1.00, 48.7, 18.0)">n</text><text xml:space="preserve" font-family="GillSans" font-size="70.0" fill="#FF40FF" transform="matrix(1.00, 0.00, -0.00, -1.00, 82.3, 18.0)">y</text><text xml:space="preserve" font-family="GillSans" font-size="70.0" fill="#FF40FF" transform="matrix(1.00, 0.00, -0.00, -1.00, 112.9, 18.0)"> </text><text xml:space="preserve" font-family="GillSans" font-size="70.0" fill="#FF40FF" transform="matrix(1.00, 0.00, -0.00, -1.00, 132.4, 18.0)">Q</text><text xml:space="preserve" font-family="GillSans" font-size="70.0" fill="#FF40FF" transform="matrix(1.00, 0.00, -0.00, -1.00, 190.0, 18.0)">u</text><text xml:space="preserve" font-family="GillSans" font-size="70.0" fill="#FF40FF" transform="matrix(1.00, 0.00, -0.00, -1.00, 225.0, 18.0)">e</text><text xml:space="preserve" font-family="GillSans" font-size="70.0" fill="#FF40FF" transform="matrix(1.00, 0.00, -0.00, -1.00, 258.6, 18.0)">s</text><text xml:space="preserve" font-family="GillSans" font-size="70.0" fill="#FF40FF" transform="matrix(1.00, 0.00, -0.00, -1.00, 285.5, 18.0)">t</text><text xml:space="preserve" font-family="GillSans" font-size="70.0" fill="#FF40FF" transform="matrix(1.00, 0.00, -0.00, -1.00, 308.8, 18.0)">i</text><text xml:space="preserve" font-family="GillSans" font-size="70.0" fill="#FF40FF" transform="matrix(1.00, 0.00, -0.00, -1.00, 324.1, 18.0)">o</text><text xml:space="preserve" font-family="GillSans" font-size="70.0" fill="#FF40FF" transform="matrix(1.00, 0.00, -0.00, -1.00, 362.8, 18.0)">n</text><text xml:space="preserve" font-family="GillSans" font-size="70.0" fill="#FF40FF" transform="matrix(1.00, 0.00, -0.00, -1.00, 397.8, 18.0)">s</text><text xml:space="preserve" font-family="GillSans" font-size="70.0" fill="#FF40FF" transform="matrix(1.00, 0.00, -0.00, -1.00, 424.7, 18.0)">?</text></g></svg>