<?xml version="1.0" encoding="UTF-8" standalone="no"?><svg xmlns="http://www.w3.org/2000/svg" xmlns:xlink="http://www.w3.org/1999/xlink" clip-rule="evenodd" stroke-miterlimit="4.00" viewBox="0 0 1024 768"><desc>SVG generated by Keynote</desc><defs></defs><g transform="matrix(1.00, 0.00, -0.00, -1.00, 0.0, 768.0)"><g><clipPath id="clip-2203"><path d="M 0.0 768.0 L 1024.0 768.0 L 1024.0 0.0 L 0.0 0.0 Z M 0.0 768.0 "></path></clipPath><g clip-path="url(#clip-2203)"><image xlink:href="../../41F9CECD-E746-4B6A-B57C-11EF94883B77/assets/A48D6513BC58F3BBF0655FD09F4A8718.jpeg" width="768.00" height="768.00" transform="matrix(1.33, 0.00, -0.00, -1.33, 0.0, 768.0)"></image></g></g><g opacity="0.30"><g><clipPath id="clip-2204"><path d="M 38.0 36.0 L 986.0 36.0 L 986.0 45.0 L 38.0 45.0 Z M 38.0 36.0 "></path></clipPath><g clip-path="url(#clip-2204)"><path d="M 0.0 0.0 L 944.0 0.0 " fill="none" stroke="#434343" stroke-width="6.00" transform="matrix(1.00, 0.00, 0.00, -1.00, 40.0, 40.0)"></path></g></g></g><g opacity="0.30"><g><clipPath id="clip-2205"><path d="M 38.0 726.0 L 986.0 726.0 L 986.0 730.0 L 38.0 730.0 Z M 38.0 726.0 "></path></clipPath><g clip-path="url(#clip-2205)"><path d="M 0.0 0.0 L 944.0 0.0 " fill="none" stroke="#434343" stroke-width="1.00" transform="matrix(1.00, 0.00, 0.00, -1.00, 40.0, 728.0)"></path></g></g></g><g><clipPath id="clip-2206"><path d="M 36.7 624.2 L 91.9 624.2 L 91.9 723.5 L 36.7 723.5 Z M 36.7 624.2 "></path></clipPath><g clip-path="url(#clip-2206)"><image xlink:href="../../41F9CECD-E746-4B6A-B57C-11EF94883B77/assets/8412EA7883B927C520D3E7200E74D714.png" width="55.00" height="100.00" transform="matrix(1.00, 0.00, -0.00, -1.00, 37.0, 724.0)"></image></g></g><g><clipPath id="clip-2207"><path d="M 111.4 651.0 L 492.6 651.0 L 492.6 712.7 L 111.4 712.7 Z M 111.4 651.0 "></path></clipPath><g clip-path="url(#clip-2207)"><text xml:space="preserve" font-family="GillSans" font-size="36.0" fill="#0B75FE" transform="matrix(1.00, 0.00, -0.00, -1.00, 122.0, 670.0)">C</text><text xml:space="preserve" font-family="GillSans" font-size="36.0" fill="#605F5F" transform="matrix(1.00, 0.00, -0.00, -1.00, 147.5, 670.0)">o</text><text xml:space="preserve" font-family="GillSans" font-size="36.0" fill="#605F5F" transform="matrix(1.00, 0.00, -0.00, -1.00, 167.3, 670.0)">m</text><text xml:space="preserve" font-family="GillSans" font-size="36.0" fill="#605F5F" transform="matrix(1.00, 0.00, -0.00, -1.00, 195.1, 670.0)">m</text><text xml:space="preserve" font-family="GillSans" font-size="36.0" fill="#605F5F" transform="matrix(1.00, 0.00, -0.00, -1.00, 222.5, 670.0)">u</text><text xml:space="preserve" font-family="GillSans" font-size="36.0" fill="#605F5F" transform="matrix(1.00, 0.00, -0.00, -1.00, 240.5, 670.0)">n</text><text xml:space="preserve" font-family="GillSans" font-size="36.0" fill="#605F5F" transform="matrix(1.00, 0.00, -0.00, -1.00, 258.5, 670.0)">i</text><text xml:space="preserve" font-family="GillSans" font-size="36.0" fill="#605F5F" transform="matrix(1.00, 0.00, -0.00, -1.00, 266.4, 670.0)">t</text><text xml:space="preserve" font-family="GillSans" font-size="36.0" fill="#605F5F" transform="matrix(1.00, 0.00, -0.00, -1.00, 278.4, 670.0)">y</text><text xml:space="preserve" font-family="GillSans" font-size="36.0" fill="#605F5F" transform="matrix(1.00, 0.00, -0.00, -1.00, 294.2, 670.0)"> </text><text xml:space="preserve" font-family="GillSans" font-size="36.0" fill="#FDA602" transform="matrix(1.00, 0.00, -0.00, -1.00, 304.2, 670.0)">C</text><text xml:space="preserve" font-family="GillSans" font-size="36.0" fill="#605F5F" transform="matrix(1.00, 0.00, -0.00, -1.00, 329.7, 670.0)">o</text><text xml:space="preserve" font-family="GillSans" font-size="36.0" fill="#605F5F" transform="matrix(1.00, 0.00, -0.00, -1.00, 349.5, 670.0)">u</text><text xml:space="preserve" font-family="GillSans" font-size="36.0" fill="#605F5F" transform="matrix(1.00, 0.00, -0.00, -1.00, 367.5, 670.0)">n</text><text xml:space="preserve" font-family="GillSans" font-size="36.0" fill="#605F5F" transform="matrix(1.00, 0.00, -0.00, -1.00, 385.5, 670.0)">t</text><text xml:space="preserve" font-family="GillSans" font-size="36.0" fill="#605F5F" transform="matrix(1.00, 0.00, -0.00, -1.00, 397.5, 670.0)">s</text><text xml:space="preserve" font-family="GillSans" font-size="36.0" fill="#605F5F" transform="matrix(1.00, 0.00, -0.00, -1.00, 411.3, 670.0)"> </text><text xml:space="preserve" font-family="GillSans" font-size="36.0" fill="#605F5F" transform="matrix(1.00, 0.00, -0.00, -1.00, 415.9, 670.0)">V</text><text xml:space="preserve" font-family="GillSans" font-size="36.0" fill="#605F5F" transform="matrix(1.00, 0.00, -0.00, -1.00, 437.7, 670.0)">3</text><text xml:space="preserve" font-family="GillSans" font-size="36.0" fill="#605F5F" transform="matrix(1.00, 0.00, -0.00, -1.00, 455.7, 670.0)">.</text><text xml:space="preserve" font-family="GillSans" font-size="36.0" fill="#605F5F" transform="matrix(1.00, 0.00, -0.00, -1.00, 463.6, 670.0)">0</text></g></g><g><clipPath id="clip-2208"><path d="M 109.0 492.0 L 938.0 492.0 L 938.0 200.0 L 109.0 200.0 Z M 108.9 491.6 "></path></clipPath><g clip-path="url(#clip-2208)"><image xlink:href="D24921E854413579420C111D6E16A3FC.png" width="806.00" height="281.00" transform="matrix(1.02, 0.00, -0.00, -1.02, 112.0, 489.0)"></image></g></g><image xlink:href="B1F552C545A9F36E92829F5FE9039165.png" width="849.00" height="317.00" transform="matrix(1.00, 0.00, -0.00, 1.00, 98.9, 181.4)"></image><text xml:space="preserve" font-family="GillSans-Light" font-size="64.0" fill="#605F5F" transform="matrix(1.00, 0.00, -0.00, -1.00, 44.0, 518.0)">A</text><text xml:space="preserve" font-family="GillSans-Light" font-size="64.0" fill="#605F5F" transform="matrix(1.00, 0.00, -0.00, -1.00, 86.7, 518.0)">L</text><text xml:space="preserve" font-family="GillSans-Light" font-size="64.0" fill="#605F5F" transform="matrix(1.00, 0.00, -0.00, -1.00, 116.7, 518.0)">L</text><text xml:space="preserve" font-family="GillSans-Light" font-size="64.0" fill="#605F5F" transform="matrix(1.00, 0.00, -0.00, -1.00, 146.8, 518.0)"> </text><text xml:space="preserve" font-family="GillSans-Light" font-size="64.0" fill="#605F5F" transform="matrix(1.00, 0.00, -0.00, -1.00, 164.5, 518.0)">O</text><text xml:space="preserve" font-family="GillSans-Light" font-size="64.0" fill="#605F5F" transform="matrix(1.00, 0.00, -0.00, -1.00, 217.2, 518.0)">N</text><text xml:space="preserve" font-family="GillSans-Light" font-size="64.0" fill="#605F5F" transform="matrix(1.00, 0.00, -0.00, -1.00, 266.6, 518.0)">L</text><text xml:space="preserve" font-family="GillSans-Light" font-size="64.0" fill="#605F5F" transform="matrix(1.00, 0.00, -0.00, -1.00, 296.6, 518.0)">I</text><text xml:space="preserve" font-family="GillSans-Light" font-size="64.0" fill="#605F5F" transform="matrix(1.00, 0.00, -0.00, -1.00, 309.9, 518.0)">N</text><text xml:space="preserve" font-family="GillSans-Light" font-size="64.0" fill="#605F5F" transform="matrix(1.00, 0.00, -0.00, -1.00, 359.3, 518.0)">E</text><g><clipPath id="clip-2209"><path d="M 635.1 278.3 L 799.9 278.3 L 799.9 315.8 L 635.1 315.8 Z M 635.1 278.3 "></path></clipPath><g clip-path="url(#clip-2209)"><path d="M 777.2 306.5 C 776.9 306.7 776.5 306.3 775.5 306.3 C 774.6 306.3 773.4 306.6 773.7 306.8 C 774.0 307.1 774.4 307.2 773.9 307.7 C 773.5 308.2 773.0 309.0 773.8 309.1 C 774.5 309.3 777.3 309.4 778.0 308.8 C 778.7 308.3 779.0 308.1 779.5 307.7 C 780.0 307.3 779.8 308.2 779.8 308.2 C 779.8 308.2 781.1 308.0 782.0 307.8 C 782.9 307.6 783.9 307.3 784.0 307.2 C 784.0 307.0 784.3 306.7 784.3 306.7 C 784.3 306.7 784.8 306.9 785.4 306.8 C 786.1 306.7 785.8 306.5 785.6 306.4 C 785.5 306.2 784.6 305.9 784.9 305.9 C 785.1 305.8 786.1 306.3 786.6 306.2 C 787.0 306.2 787.8 305.8 787.8 305.8 C 787.8 305.8 787.6 305.4 787.6 305.3 C 787.7 305.2 788.5 304.8 788.5 304.9 C 788.6 305.1 788.8 305.6 789.2 305.4 C 790.4 305.0 789.9 304.3 790.0 304.2 C 790.1 304.1 790.3 304.8 790.6 304.7 C 790.9 304.7 792.9 303.6 792.9 303.4 C 792.9 303.2 793.9 303.4 793.9 302.9 C 793.9 302.4 793.9 302.2 793.9 302.1 C 793.9 302.0 793.8 301.2 794.0 301.4 C 794.3 301.5 794.2 302.5 794.5 302.6 C 794.8 302.6 795.7 301.9 795.7 301.7 C 795.7 301.3 795.4 300.8 795.5 300.7 C 795.6 300.6 796.5 300.8 796.5 300.6 C 796.4 300.5 795.9 300.0 795.8 299.9 C 795.7 299.8 794.9 298.9 794.7 298.8 C 794.5 298.8 793.9 298.8 794.2 299.0 C 794.5 299.2 794.9 299.4 794.9 299.7 C 794.9 299.9 794.8 300.0 794.7 299.9 C 794.6 299.8 794.5 299.7 794.1 299.7 C 793.8 299.7 793.7 299.4 793.5 299.6 C 793.3 299.8 793.1 300.0 793.3 300.2 C 793.5 300.4 793.4 300.9 793.2 301.1 C 793.0 301.2 793.0 300.4 792.2 300.7 C 791.4 300.9 790.8 301.1 790.7 301.4 C 790.6 301.7 790.8 302.4 790.3 302.3 C 789.7 302.3 789.9 302.0 789.2 302.3 C 788.6 302.5 788.6 303.2 788.1 303.4 C 787.7 303.6 787.6 303.6 787.6 303.6 C 787.6 303.6 787.5 302.7 786.5 303.1 C 785.4 303.4 785.1 303.4 785.5 303.9 C 785.9 304.4 785.1 304.7 784.9 304.4 C 784.8 304.0 784.0 304.0 783.5 304.1 C 783.1 304.1 783.3 305.2 783.1 305.2 C 782.9 305.3 782.4 305.4 782.5 305.0 C 782.6 304.7 782.1 304.8 781.6 304.7 C 781.2 304.7 780.0 305.2 780.0 305.3 C 780.1 305.5 780.9 306.0 779.9 305.9 C 779.0 305.8 778.6 305.3 777.7 305.6 C 776.8 305.8 777.8 306.2 777.2 306.5 C 777.2 306.5 777.2 306.5 777.2 306.5 Z M 794.5 298.5 C 794.3 298.9 796.5 300.4 797.1 300.5 C 797.7 300.6 797.7 300.0 798.0 299.7 C 798.3 299.3 797.5 299.0 797.4 298.7 C 797.3 298.4 797.7 298.7 798.1 298.7 C 798.5 298.7 798.4 297.9 798.5 297.5 C 798.6 297.1 797.7 296.7 797.6 296.4 C 797.5 296.2 797.2 296.7 797.1 296.3 C 797.1 295.8 797.6 295.8 798.0 296.4 C 798.3 297.0 798.4 296.1 798.4 295.7 C 798.4 295.3 797.8 294.8 797.6 294.5 C 797.5 294.2 797.1 294.9 796.9 294.5 C 796.7 294.2 797.4 294.0 797.2 293.5 C 797.0 293.1 796.5 293.5 796.2 293.5 C 796.0 293.4 796.3 293.2 796.2 293.0 C 796.1 292.8 795.9 292.4 795.5 292.2 C 795.0 292.0 795.0 292.3 794.7 292.2 C 794.5 292.1 794.2 291.8 794.2 291.8 C 794.3 291.6 794.4 291.4 794.5 291.2 C 794.5 291.2 793.6 290.6 793.4 290.4 C 793.1 290.2 792.3 290.1 792.4 290.3 C 792.5 290.6 791.7 290.6 791.6 290.5 C 791.5 290.3 791.1 289.7 790.7 289.4 C 790.4 289.1 789.8 290.7 789.7 290.9 C 789.6 291.2 789.1 291.9 789.3 292.2 C 789.6 292.4 790.0 292.2 789.8 292.4 C 789.7 292.6 790.6 292.8 790.9 292.9 C 791.1 293.0 791.7 292.6 791.7 292.6 C 791.7 292.6 792.1 292.2 792.5 292.4 C 792.8 292.6 792.3 293.6 792.3 293.6 C 792.3 293.6 792.6 294.0 792.9 294.2 C 793.3 294.4 794.1 293.9 794.3 293.8 C 794.5 293.7 794.0 294.3 794.1 294.6 C 794.2 294.8 794.2 295.2 794.3 295.2 C 794.4 295.2 794.9 295.0 794.9 295.0 C 794.9 295.0 795.4 295.1 795.5 295.1 C 795.5 295.2 794.8 295.6 794.8 295.6 C 794.8 295.6 794.9 296.2 794.9 296.3 C 794.9 296.4 795.2 296.4 795.2 296.5 C 795.3 296.5 796.3 296.4 796.2 296.5 C 796.1 296.7 795.6 296.6 795.5 296.7 C 795.4 296.8 795.2 296.9 795.2 297.0 C 795.2 297.0 795.6 297.1 795.6 297.1 C 795.7 297.2 796.4 297.4 796.4 297.6 C 796.3 297.8 795.9 297.8 795.8 297.8 C 795.6 297.8 795.0 297.6 795.0 297.7 C 794.9 297.8 795.4 297.9 795.3 298.0 C 795.2 298.1 795.7 298.3 795.5 298.4 C 795.4 298.5 794.7 298.0 794.7 298.2 C 794.8 298.2 794.8 298.1 794.5 298.5 C 794.5 298.5 794.5 298.5 794.5 298.5 Z M 788.6 291.7 C 788.9 292.3 789.5 292.0 789.6 291.7 C 789.7 291.3 789.9 290.3 790.2 290.2 C 790.4 290.0 791.3 289.6 790.5 289.1 C 789.7 288.6 789.4 288.8 789.3 289.0 C 789.2 289.2 788.6 290.1 788.4 289.9 C 788.2 289.7 788.1 289.3 788.0 289.2 C 788.0 289.0 788.0 288.0 787.4 287.9 C 786.9 287.9 786.3 288.0 786.3 288.0 C 786.1 287.9 785.8 287.9 785.5 287.8 C 785.5 287.8 785.0 287.0 784.3 286.9 C 783.7 286.9 782.9 286.7 782.5 286.5 C 782.0 286.3 781.5 286.2 781.3 286.4 C 781.2 286.6 780.3 287.3 780.3 287.3 C 780.3 287.3 779.4 287.3 779.1 287.1 C 778.8 286.9 778.8 286.4 779.0 286.2 C 779.1 286.1 779.1 285.6 778.6 285.4 C 778.0 285.2 775.6 284.2 775.2 284.4 C 774.7 284.5 774.8 284.9 774.4 285.0 C 774.1 285.0 773.1 284.8 773.1 284.6 C 773.1 284.4 773.2 283.9 773.0 283.9 C 772.7 283.9 772.2 283.6 772.2 283.8 C 772.2 283.9 772.0 284.0 771.9 284.3 C 771.9 284.6 771.3 284.7 771.2 284.8 C 771.1 284.9 770.7 284.9 770.7 284.9 C 770.5 284.7 770.4 284.5 770.2 284.4 C 770.2 284.4 770.6 283.9 770.8 283.9 C 771.0 283.8 770.8 283.4 770.6 283.3 C 770.5 283.3 769.5 283.2 769.5 283.2 C 769.4 283.6 769.3 283.9 769.2 284.3 C 769.0 284.4 768.7 284.4 768.5 284.4 C 768.5 284.4 768.8 283.1 768.3 283.0 C 767.9 283.0 767.3 282.9 767.3 282.9 C 767.3 282.9 766.7 283.3 766.6 283.3 C 766.4 283.4 766.2 284.5 766.2 284.5 C 766.2 285.0 766.1 285.5 766.1 285.9 C 766.1 285.9 766.6 286.5 766.9 286.3 C 767.3 286.2 767.1 285.7 767.2 285.4 C 767.3 285.2 767.8 285.1 767.8 285.1 C 768.0 285.4 768.1 285.7 768.3 286.0 C 768.3 286.0 768.4 286.2 768.6 286.5 C 768.8 286.7 769.5 287.0 769.7 286.9 C 769.9 286.9 770.1 286.6 770.4 286.4 C 770.7 286.2 770.7 285.8 771.0 286.2 C 771.2 286.6 771.3 286.9 771.5 287.0 C 771.6 287.0 772.3 286.7 772.3 286.7 C 772.5 286.6 772.7 286.5 772.9 286.5 C 772.9 286.5 773.4 286.3 773.5 286.6 C 773.5 286.9 775.5 287.0 775.5 287.0 C 775.5 287.0 775.1 287.7 775.5 288.0 C 776.0 288.2 776.7 288.6 777.4 288.6 C 778.2 288.6 778.9 288.0 778.9 288.0 C 779.1 288.2 779.2 288.5 779.4 288.7 C 780.0 289.0 780.6 289.2 781.2 289.4 C 781.2 289.4 782.6 289.7 782.6 289.6 C 782.7 289.5 782.7 288.7 782.8 288.6 C 782.9 288.4 783.7 288.4 783.7 288.7 C 783.7 288.9 784.1 289.7 784.1 289.7 C 784.1 289.7 784.5 290.3 784.8 290.4 C 785.2 290.6 785.8 290.5 786.0 290.5 C 786.1 290.4 786.8 290.1 786.8 290.1 C 786.9 290.3 787.0 290.6 787.0 290.8 C 787.0 290.8 788.0 290.9 788.6 291.7 C 788.6 291.7 788.6 291.7 788.6 291.7 Z M 765.6 286.3 C 766.6 286.4 766.4 283.7 766.1 283.1 C 765.8 282.5 765.1 282.7 764.5 282.5 C 763.9 282.4 764.0 283.2 763.5 283.4 C 763.1 283.6 763.3 283.1 763.2 282.7 C 763.1 282.3 762.1 282.5 761.5 282.3 C 760.9 282.2 760.1 283.0 759.6 283.0 C 759.1 283.0 760.0 283.5 759.1 283.4 C 758.2 283.2 758.8 282.8 759.8 282.6 C 760.8 282.5 759.5 282.1 758.9 281.9 C 758.4 281.7 757.4 282.0 756.9 281.9 C 756.5 281.8 757.0 282.6 756.3 282.5 C 755.7 282.4 756.1 281.7 755.4 281.6 C 754.8 281.4 754.8 282.0 754.4 282.1 C 754.1 282.3 754.2 281.9 753.9 281.8 C 753.6 281.7 753.2 281.5 752.5 281.6 C 751.9 281.6 752.0 281.9 751.7 281.9 C 751.4 281.9 750.9 281.8 750.9 281.8 C 750.9 281.6 750.9 281.4 750.9 281.2 C 750.9 281.2 749.7 281.0 749.3 280.9 C 749.0 280.8 748.2 281.1 748.4 281.2 C 748.6 281.4 747.7 281.8 747.6 281.7 C 747.4 281.5 746.8 281.2 746.4 281.0 C 746.0 280.8 746.0 282.5 746.0 282.8 C 746.0 283.0 745.7 283.9 746.0 284.0 C 746.4 284.2 746.7 283.8 746.6 284.1 C 746.5 284.3 747.6 284.2 747.9 284.2 C 748.2 284.2 748.6 283.6 748.6 283.6 C 748.6 283.6 748.9 283.1 749.4 283.1 C 749.9 283.2 749.9 284.3 749.9 284.3 C 749.9 284.3 750.5 284.5 751.1 284.5 C 751.7 284.5 752.4 283.7 752.5 283.5 C 752.6 283.3 752.5 284.2 752.9 284.3 C 753.3 284.4 753.9 284.7 754.1 284.7 C 754.2 284.7 754.6 284.2 754.6 284.2 C 754.6 284.2 755.3 283.9 755.5 283.9 C 755.7 284.0 755.3 284.7 755.3 284.7 C 755.3 284.7 756.8 285.1 757.1 285.2 C 757.4 285.3 757.9 285.2 758.1 285.1 C 758.4 285.1 758.8 284.2 759.1 284.3 C 759.4 284.4 758.7 284.9 759.0 285.0 C 759.4 285.2 759.9 285.4 760.1 285.5 C 760.3 285.5 760.5 285.2 760.8 285.1 C 761.1 285.1 761.5 284.5 762.0 284.5 C 762.4 284.6 762.6 285.0 762.7 285.2 C 762.8 285.3 762.9 285.9 763.2 286.0 C 763.5 286.1 763.3 285.6 763.7 285.6 C 764.0 285.7 764.0 285.2 764.3 285.3 C 764.7 285.5 764.3 286.2 764.7 286.2 C 764.9 286.2 764.7 286.2 765.6 286.3 C 765.6 286.3 765.6 286.3 765.6 286.3 Z M 745.1 283.9 C 745.6 284.3 746.1 283.9 746.1 283.5 C 746.0 283.1 745.9 282.1 746.1 281.9 C 746.3 281.6 747.0 281.0 746.1 280.8 C 745.2 280.5 745.0 280.8 745.0 281.0 C 745.0 281.3 744.7 282.3 744.5 282.2 C 744.2 282.1 744.0 281.8 744.0 281.6 C 743.9 281.5 743.6 280.5 743.2 280.6 C 742.7 280.7 742.3 281.0 742.3 281.0 C 742.1 281.0 741.8 281.0 741.6 281.0 C 741.6 281.0 741.0 280.3 740.5 280.4 C 740.0 280.5 739.5 280.5 739.1 280.4 C 738.7 280.4 738.4 280.4 738.3 280.7 C 738.2 280.9 737.7 281.7 737.7 281.7 C 737.7 281.7 737.1 281.9 736.9 281.8 C 736.6 281.6 736.6 281.1 736.7 281.0 C 736.7 280.8 736.7 280.3 736.3 280.2 C 736.0 280.1 734.4 279.6 734.1 279.8 C 733.8 280.1 733.9 280.5 733.7 280.5 C 733.5 280.6 732.4 280.6 732.3 280.4 C 732.2 280.2 732.3 279.7 732.0 279.7 C 731.7 279.7 731.1 279.6 731.1 279.7 C 731.1 279.8 730.9 280.0 730.8 280.3 C 730.8 280.5 730.2 280.7 730.0 280.9 C 729.9 281.0 729.4 281.0 729.4 281.0 C 729.2 280.9 729.0 280.7 728.8 280.6 C 728.8 280.6 729.2 280.1 729.4 280.0 C 729.5 279.9 729.2 279.6 729.0 279.5 C 728.9 279.5 727.7 279.5 727.7 279.5 C 727.6 279.9 727.6 280.3 727.6 280.7 C 727.3 280.7 727.0 280.8 726.7 280.9 C 726.7 280.9 726.8 279.5 726.3 279.5 C 725.7 279.5 725.0 279.5 725.0 279.5 C 725.0 279.5 724.4 280.0 724.2 280.0 C 724.1 280.1 724.0 281.3 724.0 281.3 C 724.0 281.7 724.1 282.2 724.1 282.7 C 724.1 282.7 724.8 283.2 725.2 283.0 C 725.6 282.8 725.3 282.3 725.3 282.0 C 725.4 281.8 726.0 281.6 726.0 281.6 C 726.2 281.9 726.5 282.1 726.7 282.4 C 726.7 282.4 727.0 282.6 727.2 282.9 C 727.4 283.1 728.3 283.3 728.6 283.2 C 728.8 283.1 729.1 282.8 729.4 282.6 C 729.7 282.3 729.7 281.9 730.0 282.3 C 730.4 282.6 730.6 283.0 730.8 283.0 C 731.0 283.0 731.8 282.6 731.8 282.6 C 732.0 282.5 732.2 282.4 732.5 282.3 C 732.5 282.3 733.1 282.0 733.2 282.3 C 733.2 282.6 734.5 282.3 734.5 282.3 C 734.5 282.3 734.3 283.2 734.6 283.3 C 734.9 283.5 735.4 283.7 735.9 283.6 C 736.4 283.4 736.8 282.7 736.8 282.7 C 737.0 282.9 737.1 283.1 737.3 283.3 C 737.7 283.4 738.2 283.5 738.6 283.6 C 738.6 283.6 739.7 283.6 739.7 283.4 C 739.7 283.3 739.6 282.6 739.7 282.4 C 739.8 282.2 740.3 282.0 740.4 282.3 C 740.4 282.5 740.9 283.2 740.9 283.2 C 740.9 283.2 741.3 283.6 741.6 283.7 C 741.9 283.8 742.4 283.6 742.5 283.4 C 742.6 283.3 743.1 282.8 743.1 282.8 C 743.3 283.0 743.4 283.3 743.5 283.5 C 743.5 283.5 744.3 283.2 745.1 283.9 C 745.1 283.9 745.1 283.9 745.1 283.9 Z M 723.6 283.1 C 724.8 283.1 724.1 280.4 723.6 279.9 C 723.2 279.3 722.4 279.6 721.7 279.5 C 720.9 279.4 721.2 280.3 720.7 280.5 C 720.3 280.7 720.5 280.2 720.3 279.8 C 720.1 279.4 718.9 279.8 718.2 279.7 C 717.5 279.7 716.8 280.6 716.2 280.6 C 715.7 280.7 716.7 281.1 715.7 281.0 C 714.7 281.0 715.2 280.5 716.4 280.2 C 717.5 280.0 715.9 279.7 715.3 279.6 C 714.6 279.5 713.6 279.9 713.1 279.9 C 712.6 279.8 713.2 280.5 712.5 280.5 C 711.8 280.5 712.1 279.8 711.4 279.7 C 710.6 279.6 710.7 280.3 710.4 280.4 C 710.0 280.6 710.1 280.2 709.8 280.1 C 709.4 280.1 708.9 279.9 708.2 280.1 C 707.6 280.2 707.8 280.4 707.4 280.5 C 707.1 280.5 706.6 280.5 706.6 280.5 C 706.5 280.3 706.5 280.1 706.4 279.9 C 706.4 279.9 705.2 279.9 704.8 279.8 C 704.4 279.8 703.6 280.1 703.8 280.2 C 704.1 280.4 703.2 280.8 703.0 280.8 C 702.9 280.7 702.2 280.3 701.8 280.2 C 701.3 280.1 701.5 281.8 701.5 282.0 C 701.5 282.3 701.3 283.2 701.7 283.3 C 702.1 283.4 702.4 283.0 702.3 283.3 C 702.3 283.5 703.4 283.2 703.7 283.2 C 704.0 283.2 704.3 282.6 704.3 282.6 C 704.3 282.6 704.6 282.0 705.1 282.0 C 705.6 282.0 705.8 283.1 705.8 283.1 C 705.8 283.1 706.5 283.2 707.1 283.2 C 707.7 283.1 708.4 282.2 708.5 282.0 C 708.6 281.8 708.6 282.6 709.0 282.7 C 709.5 282.8 710.1 283.1 710.3 283.0 C 710.5 283.0 710.8 282.4 710.8 282.4 C 710.8 282.4 711.6 282.1 711.8 282.1 C 712.0 282.1 711.7 282.9 711.7 282.9 C 711.7 282.9 713.4 283.1 713.7 283.1 C 714.1 283.2 714.6 283.0 714.9 282.9 C 715.1 282.9 715.5 281.9 715.8 282.0 C 716.2 282.1 715.5 282.6 715.8 282.7 C 716.2 282.8 716.9 283.0 717.1 283.0 C 717.3 283.0 717.5 282.6 717.9 282.6 C 718.2 282.5 718.6 281.8 719.1 281.8 C 719.6 281.8 719.8 282.3 720.0 282.4 C 720.2 282.5 720.3 283.1 720.7 283.1 C 721.1 283.2 720.8 282.7 721.2 282.7 C 721.6 282.7 721.6 282.2 722.0 282.3 C 722.3 282.4 722.1 283.2 722.5 283.1 C 722.7 283.1 722.5 283.1 723.6 283.1 C 723.6 283.1 723.6 283.1 723.6 283.1 Z M 699.3 282.6 C 699.5 282.5 699.8 283.0 700.4 283.2 C 701.0 283.3 701.7 283.3 701.6 283.0 C 701.4 282.7 701.2 282.5 701.5 282.0 C 701.8 281.6 702.1 280.9 701.7 280.7 C 701.3 280.4 699.5 279.8 699.0 280.2 C 698.5 280.6 698.3 280.7 697.9 281.0 C 697.6 281.3 697.8 280.4 697.8 280.4 C 697.8 280.4 696.9 280.4 696.2 280.4 C 695.5 280.4 694.8 280.4 694.7 280.5 C 694.6 280.7 694.4 281.0 694.4 281.0 C 694.4 281.0 694.0 280.6 693.5 280.6 C 693.0 280.5 693.2 280.7 693.3 280.9 C 693.4 281.1 694.0 281.6 693.8 281.6 C 693.6 281.6 692.9 280.8 692.5 280.8 C 692.2 280.7 691.4 280.8 691.4 280.8 C 691.4 280.8 691.5 281.3 691.5 281.4 C 691.4 281.5 690.6 281.6 690.6 281.4 C 690.5 281.3 690.6 280.8 690.2 280.8 C 689.0 280.8 689.2 281.7 689.1 281.7 C 689.0 281.7 689.0 281.1 688.7 281.0 C 688.4 280.9 686.1 281.2 686.0 281.4 C 685.9 281.5 685.0 281.0 684.7 281.4 C 684.4 281.9 684.3 282.0 684.3 282.1 C 684.2 282.3 683.9 283.0 683.6 282.7 C 683.4 282.5 684.2 281.6 683.9 281.5 C 683.6 281.3 682.2 281.4 682.0 281.6 C 681.7 281.9 681.6 282.6 681.5 282.6 C 681.3 282.6 680.4 281.9 680.3 282.0 C 680.3 282.1 680.2 282.9 680.3 283.0 C 680.3 283.1 680.1 284.4 680.3 284.5 C 680.5 284.7 681.4 285.1 681.2 284.7 C 681.1 284.4 680.9 283.9 681.1 283.8 C 681.4 283.6 681.6 283.5 681.7 283.7 C 681.7 283.8 681.6 284.0 682.1 284.1 C 682.6 284.3 682.4 284.6 682.9 284.6 C 683.3 284.5 683.7 284.4 683.7 284.1 C 683.6 283.8 684.1 283.4 684.4 283.4 C 684.7 283.4 684.2 284.0 685.3 284.2 C 686.4 284.3 687.1 284.3 687.4 284.1 C 687.7 283.8 687.7 283.1 688.2 283.4 C 688.7 283.6 688.5 283.9 689.2 283.8 C 689.8 283.7 690.1 283.1 690.5 283.1 C 691.0 283.0 691.1 283.0 691.1 283.0 C 691.1 283.0 690.9 283.9 691.9 283.8 C 692.9 283.8 693.2 283.9 692.9 283.3 C 692.7 282.7 693.4 282.6 693.5 283.0 C 693.5 283.4 694.2 283.6 694.5 283.7 C 694.9 283.7 694.9 282.7 695.1 282.6 C 695.2 282.6 695.6 282.6 695.5 283.0 C 695.3 283.3 695.7 283.3 696.0 283.4 C 696.4 283.6 697.3 283.4 697.3 283.2 C 697.3 283.1 696.8 282.4 697.4 282.7 C 698.1 283.0 698.3 283.5 698.9 283.5 C 699.5 283.4 698.9 282.8 699.3 282.6 C 699.3 282.6 699.3 282.6 699.3 282.6 Z M 679.5 284.8 C 680.1 285.1 680.4 284.6 680.3 284.3 C 680.3 283.9 680.0 283.0 680.1 282.7 C 680.3 282.4 680.8 281.6 679.9 281.6 C 679.0 281.5 678.9 281.8 678.9 282.0 C 678.9 282.3 678.9 283.3 678.6 283.2 C 678.4 283.2 678.1 282.9 678.1 282.8 C 678.0 282.7 677.5 281.7 677.1 281.9 C 676.7 282.1 676.4 282.4 676.4 282.4 C 676.2 282.5 676.0 282.5 675.8 282.6 C 675.8 282.6 675.2 282.0 674.7 282.2 C 674.3 282.4 673.8 282.5 673.5 282.5 C 673.1 282.5 672.8 282.6 672.8 282.8 C 672.8 283.1 672.4 284.0 672.4 284.0 C 672.4 284.0 672.0 284.3 671.7 284.2 C 671.5 284.0 671.4 283.6 671.4 283.4 C 671.4 283.2 671.3 282.8 671.0 282.7 C 670.6 282.7 669.2 282.4 669.0 282.7 C 668.8 283.0 668.9 283.4 668.8 283.5 C 668.7 283.6 667.7 283.8 667.6 283.6 C 667.5 283.4 667.5 282.9 667.2 283.0 C 667.0 283.0 666.4 283.0 666.5 283.1 C 666.5 283.3 666.3 283.4 666.4 283.7 C 666.4 284.0 665.9 284.3 665.8 284.5 C 665.8 284.6 665.4 284.7 665.4 284.7 C 665.2 284.6 665.0 284.5 664.8 284.4 C 664.8 284.4 665.0 283.8 665.1 283.7 C 665.3 283.6 665.0 283.3 664.8 283.3 C 664.6 283.3 663.7 283.5 663.7 283.5 C 663.7 283.9 663.8 284.3 663.8 284.7 C 663.6 284.8 663.4 284.9 663.2 285.0 C 663.2 285.0 663.0 283.7 662.6 283.8 C 662.1 283.8 661.6 284.0 661.6 284.0 C 661.6 284.0 661.2 284.5 661.1 284.6 C 661.0 284.7 661.1 285.9 661.1 285.9 C 661.2 286.3 661.4 286.8 661.6 287.2 C 661.6 287.2 662.2 287.6 662.4 287.3 C 662.7 287.1 662.4 286.6 662.4 286.4 C 662.4 286.2 662.8 285.9 662.8 285.9 C 663.0 286.1 663.3 286.3 663.5 286.5 C 663.5 286.5 663.7 286.7 664.0 286.9 C 664.2 287.1 664.9 287.1 665.1 287.0 C 665.3 286.8 665.5 286.5 665.7 286.2 C 665.9 285.9 665.8 285.5 666.1 285.8 C 666.5 286.1 666.7 286.4 666.8 286.4 C 667.0 286.4 667.6 285.8 667.6 285.8 C 667.8 285.7 667.9 285.5 668.1 285.4 C 668.1 285.4 668.6 285.1 668.7 285.3 C 668.8 285.6 669.8 285.1 669.8 285.1 C 669.8 285.1 669.8 286.0 670.1 286.1 C 670.4 286.2 670.8 286.3 671.2 286.1 C 671.6 285.9 671.9 285.1 671.9 285.1 C 672.0 285.2 672.2 285.4 672.4 285.6 C 672.8 285.6 673.2 285.6 673.6 285.6 C 673.6 285.6 674.5 285.5 674.5 285.3 C 674.5 285.2 674.3 284.5 674.3 284.3 C 674.3 284.1 674.8 283.8 674.9 284.1 C 675.0 284.3 675.5 284.9 675.5 284.9 C 675.5 284.9 675.9 285.2 676.2 285.2 C 676.5 285.3 676.9 285.0 677.0 284.8 C 677.1 284.7 677.5 284.1 677.5 284.1 C 677.7 284.3 677.8 284.5 678.0 284.7 C 678.0 284.7 678.7 284.3 679.5 284.8 C 679.5 284.8 679.5 284.8 679.5 284.8 Z M 660.9 287.8 C 662.6 287.4 661.0 285.0 660.2 284.6 C 659.4 284.2 658.3 284.8 657.1 285.0 C 656.0 285.1 656.6 285.9 656.0 286.3 C 655.4 286.6 655.5 286.1 655.2 285.7 C 654.8 285.4 653.3 286.2 652.4 286.4 C 651.5 286.6 650.9 287.7 650.2 288.0 C 649.6 288.2 650.9 288.2 649.7 288.5 C 648.6 288.9 649.0 288.2 650.2 287.5 C 651.5 286.9 649.5 287.2 648.8 287.4 C 648.1 287.5 647.0 288.3 646.5 288.4 C 646.0 288.6 646.9 289.0 646.1 289.2 C 645.4 289.5 645.5 288.7 644.8 288.9 C 644.1 289.1 644.4 289.7 644.1 289.9 C 643.9 290.2 643.8 289.8 643.5 289.9 C 643.2 290.0 642.7 290.0 642.2 290.4 C 641.8 290.9 642.0 291.0 641.8 291.1 C 641.6 291.3 641.3 291.5 641.3 291.5 C 641.1 291.4 641.0 291.2 640.8 291.0 C 640.8 291.0 640.0 291.5 639.7 291.6 C 639.4 291.8 639.2 292.4 639.4 292.4 C 639.6 292.4 639.4 293.1 639.3 293.1 C 639.1 293.2 638.6 293.2 638.3 293.3 C 638.0 293.4 639.3 294.5 639.5 294.6 C 639.7 294.8 640.3 295.5 640.5 295.4 C 640.7 295.4 640.5 295.1 640.7 295.2 C 640.9 295.4 641.1 294.9 641.2 294.8 C 641.3 294.7 641.1 294.0 641.1 294.0 C 641.1 294.0 640.9 293.5 641.2 293.3 C 641.4 293.1 642.1 293.9 642.1 293.9 C 642.1 293.9 642.6 293.9 642.9 293.6 C 643.3 293.3 643.3 292.3 643.3 292.1 C 643.3 291.9 643.7 292.6 644.0 292.5 C 644.4 292.5 645.0 292.4 645.1 292.3 C 645.3 292.2 645.3 291.6 645.3 291.6 C 645.3 291.6 645.9 291.0 646.0 290.9 C 646.2 290.9 646.2 291.7 646.2 291.7 C 646.2 291.7 647.9 291.3 648.3 291.2 C 648.6 291.2 649.1 290.8 649.4 290.6 C 649.6 290.5 649.7 289.4 650.2 289.4 C 650.6 289.3 649.9 290.1 650.4 290.1 C 650.8 290.0 651.7 290.0 651.9 289.9 C 652.1 289.8 652.3 289.4 652.7 289.3 C 653.1 289.1 653.4 288.3 654.1 288.1 C 654.7 287.9 655.2 288.3 655.5 288.3 C 655.8 288.3 656.1 288.9 656.6 288.8 C 657.2 288.7 656.7 288.3 657.2 288.2 C 657.7 288.1 657.6 287.6 658.2 287.6 C 658.8 287.6 658.6 288.4 659.2 288.2 C 659.5 288.1 659.2 288.2 660.9 287.8 C 660.9 287.8 660.9 287.8 660.9 287.8 Z M 640.2 295.7 C 640.6 295.7 640.4 295.3 640.1 295.1 C 639.8 294.9 639.0 294.3 638.9 294.0 C 638.7 293.8 638.5 293.0 638.0 293.4 C 637.5 293.7 637.6 294.0 637.8 294.2 C 638.0 294.3 638.8 295.0 638.6 295.0 C 638.5 295.1 638.2 295.0 638.1 295.0 C 637.9 295.0 636.9 294.7 637.0 295.0 C 637.0 295.3 637.2 295.7 637.2 295.7 C 637.1 295.8 637.1 295.9 637.1 296.1 C 637.1 296.1 636.4 296.3 636.5 296.6 C 636.6 297.0 636.6 297.3 636.6 297.5 C 636.6 297.8 636.7 298.0 637.0 298.0 C 637.2 298.0 638.1 298.0 638.1 298.0 C 638.1 298.0 638.4 298.2 638.3 298.3 C 638.2 298.5 637.8 298.7 637.6 298.7 C 637.4 298.8 637.0 299.0 637.0 299.2 C 637.0 299.5 637.3 300.7 637.6 300.6 C 637.9 300.6 638.2 300.3 638.3 300.4 C 638.5 300.4 639.0 300.9 638.8 301.1 C 638.7 301.3 638.3 301.6 638.5 301.7 C 638.7 301.9 639.0 302.3 639.1 302.2 C 639.2 302.1 639.4 302.0 639.6 301.8 C 639.8 301.6 640.3 301.7 640.4 301.7 C 640.6 301.6 640.9 301.8 640.9 301.8 C 640.9 302.0 641.0 302.2 641.0 302.4 C 641.0 302.4 640.5 302.7 640.3 302.7 C 640.1 302.7 640.2 303.1 640.3 303.2 C 640.4 303.3 641.3 303.8 641.3 303.8 C 641.5 303.5 641.7 303.1 641.9 302.8 C 642.2 302.9 642.4 302.9 642.7 303.0 C 642.7 303.0 641.9 304.1 642.4 304.3 C 642.8 304.6 643.4 304.9 643.4 304.9 C 643.4 304.9 644.2 304.6 644.3 304.7 C 644.5 304.7 645.0 303.6 645.0 303.6 C 645.2 303.2 645.3 302.7 645.5 302.3 C 645.5 302.3 645.1 301.6 644.7 301.6 C 644.4 301.7 644.4 302.2 644.2 302.4 C 644.1 302.6 643.5 302.6 643.5 302.6 C 643.5 302.3 643.4 301.9 643.3 301.6 C 643.3 301.6 643.3 301.3 643.2 301.0 C 643.2 300.7 642.7 300.3 642.5 300.3 C 642.3 300.2 642.0 300.4 641.7 300.5 C 641.4 300.6 641.2 300.9 641.2 300.5 C 641.2 300.1 641.3 299.8 641.3 299.7 C 641.2 299.6 640.5 299.7 640.5 299.7 C 640.4 299.7 640.2 299.7 640.0 299.7 C 640.0 299.7 639.7 299.6 639.8 299.4 C 640.0 299.1 639.4 298.9 639.4 298.9 C 639.4 298.9 640.1 298.5 640.1 298.3 C 640.2 298.1 640.3 297.9 640.1 297.8 C 639.9 297.8 639.1 298.0 639.1 298.0 C 639.3 297.8 639.5 297.7 639.7 297.6 C 639.7 297.5 639.7 297.4 639.8 297.3 C 639.8 297.3 639.7 297.1 639.6 297.1 C 639.4 297.1 638.7 297.1 638.5 297.1 C 638.4 297.1 638.1 296.8 638.4 296.8 C 638.6 296.8 639.3 296.8 639.3 296.8 C 639.3 296.8 639.7 296.7 639.7 296.7 C 639.8 296.6 639.6 296.4 639.5 296.3 C 639.4 296.2 639.0 295.9 639.0 295.9 C 639.2 295.9 639.4 296.0 639.6 296.0 C 639.6 296.0 639.5 295.6 640.2 295.7 C 640.2 295.7 640.2 295.7 640.2 295.7 Z M 646.0 302.1 C 645.1 301.7 644.6 304.4 644.8 305.1 C 645.0 305.7 645.9 305.7 646.6 306.1 C 647.4 306.5 647.4 305.6 648.0 305.5 C 648.5 305.5 648.2 305.9 648.2 306.4 C 648.3 306.8 649.7 306.9 650.6 307.2 C 651.4 307.5 652.6 306.9 653.3 307.1 C 654.1 307.2 652.8 306.4 654.1 306.8 C 655.4 307.2 654.6 307.5 653.0 307.4 C 651.5 307.2 653.5 308.0 654.3 308.4 C 655.2 308.7 656.8 308.7 657.5 308.9 C 658.3 309.1 657.5 308.2 658.6 308.5 C 659.7 308.7 658.9 309.3 660.1 309.6 C 661.2 310.0 661.2 309.3 661.5 309.2 C 661.8 309.1 661.7 309.5 661.9 309.6 C 662.1 309.7 662.5 309.9 663.1 309.9 C 663.6 309.9 663.5 309.6 663.8 309.6 C 664.0 309.6 664.5 309.7 664.5 309.7 C 664.5 309.9 664.5 310.2 664.5 310.4 C 664.5 310.4 665.5 310.6 665.8 310.7 C 666.1 310.8 666.8 310.6 666.6 310.5 C 666.5 310.3 667.2 310.0 667.4 310.1 C 667.5 310.2 668.0 310.6 668.3 310.8 C 668.7 311.0 668.8 309.3 668.9 309.1 C 668.9 308.9 669.3 308.0 669.0 307.8 C 668.7 307.7 668.4 308.0 668.5 307.7 C 668.5 307.5 667.6 307.6 667.3 307.6 C 667.1 307.5 666.7 308.1 666.7 308.1 C 666.7 308.1 666.3 308.6 665.9 308.5 C 665.5 308.4 665.6 307.4 665.6 307.4 C 665.6 307.4 665.1 307.1 664.6 307.0 C 664.1 307.0 663.4 307.8 663.3 307.9 C 663.1 308.1 663.3 307.3 663.0 307.2 C 662.7 307.0 662.2 306.6 662.1 306.7 C 661.9 306.7 661.6 307.2 661.6 307.2 C 661.6 307.2 660.3 307.3 660.0 307.2 C 659.7 307.1 660.4 306.5 660.4 306.5 C 660.4 306.5 657.9 305.7 657.4 305.5 C 656.9 305.3 656.1 305.4 655.7 305.3 C 655.4 305.3 654.6 306.1 654.2 305.9 C 653.7 305.7 654.8 305.4 654.4 305.2 C 653.9 305.0 653.1 304.5 652.9 304.5 C 652.6 304.4 652.2 304.6 651.8 304.6 C 651.5 304.5 650.7 305.1 650.2 304.9 C 649.6 304.7 649.5 304.2 649.3 304.0 C 649.1 303.9 649.2 303.2 648.8 303.1 C 648.4 302.9 648.5 303.4 648.2 303.3 C 647.8 303.1 647.6 303.6 647.3 303.4 C 647.0 303.1 647.5 302.5 647.1 302.4 C 646.9 302.4 647.0 302.4 646.0 302.1 C 646.0 302.1 646.0 302.1 646.0 302.1 Z M 669.7 308.0 C 669.3 307.6 668.9 308.0 668.9 308.4 C 668.9 308.7 668.9 309.7 668.7 310.0 C 668.5 310.2 667.8 310.8 668.6 311.1 C 669.4 311.4 669.6 311.1 669.6 310.9 C 669.7 310.6 670.0 309.7 670.2 309.8 C 670.4 309.9 670.5 310.2 670.6 310.4 C 670.6 310.5 670.8 311.5 671.2 311.4 C 671.6 311.3 672.0 311.1 672.0 311.1 C 672.2 311.1 672.4 311.1 672.6 311.2 C 672.6 311.2 673.1 311.8 673.6 311.8 C 674.0 311.7 674.5 311.7 674.8 311.8 C 675.2 311.9 675.5 311.9 675.6 311.6 C 675.7 311.4 676.2 310.6 676.2 310.6 C 676.2 310.6 676.8 310.5 677.0 310.6 C 677.2 310.8 677.2 311.3 677.1 311.4 C 677.0 311.6 677.0 312.1 677.4 312.2 C 677.7 312.3 679.1 313.0 679.4 312.7 C 679.7 312.5 679.6 312.1 679.8 312.0 C 680.0 312.0 681.0 312.0 681.1 312.2 C 681.1 312.5 681.0 313.0 681.3 313.0 C 681.6 313.0 682.2 313.1 682.2 313.0 C 682.2 312.9 682.4 312.8 682.5 312.5 C 682.5 312.2 683.1 312.0 683.2 311.9 C 683.4 311.8 683.8 311.8 683.8 311.8 C 684.0 311.9 684.2 312.1 684.4 312.3 C 684.4 312.3 684.0 312.8 683.8 312.8 C 683.6 312.9 683.9 313.3 684.1 313.3 C 684.2 313.4 685.4 313.4 685.4 313.4 C 685.4 313.0 685.5 312.6 685.5 312.3 C 685.8 312.2 686.1 312.1 686.4 312.1 C 686.4 312.1 686.1 313.4 686.7 313.5 C 687.2 313.5 687.9 313.6 687.9 313.6 C 687.9 313.6 688.5 313.1 688.6 313.1 C 688.8 313.0 688.9 311.8 688.9 311.8 C 688.9 311.4 688.9 310.9 688.9 310.4 C 688.9 310.4 688.3 309.9 687.9 310.1 C 687.6 310.2 687.8 310.8 687.7 311.0 C 687.7 311.2 687.1 311.4 687.1 311.4 C 686.9 311.1 686.7 310.8 686.4 310.6 C 686.4 310.6 686.2 310.3 686.0 310.1 C 685.8 309.8 685.0 309.6 684.8 309.7 C 684.5 309.7 684.2 310.0 683.9 310.3 C 683.6 310.5 683.6 310.9 683.3 310.5 C 683.0 310.2 682.9 309.8 682.7 309.8 C 682.5 309.7 681.7 310.1 681.7 310.1 C 681.5 310.2 681.3 310.3 681.0 310.4 C 681.0 310.4 680.5 310.6 680.4 310.3 C 680.4 310.0 679.2 310.2 679.2 310.2 C 679.2 310.2 679.4 309.4 679.1 309.2 C 678.9 309.0 678.4 308.8 678.0 308.9 C 677.5 309.0 677.1 309.7 677.1 309.7 C 677.0 309.5 676.9 309.3 676.7 309.1 C 676.3 309.0 675.9 308.8 675.5 308.7 C 675.5 308.7 674.6 308.7 674.6 308.8 C 674.5 308.9 674.6 309.6 674.5 309.8 C 674.4 310.0 673.9 310.2 673.8 309.9 C 673.8 309.7 673.5 309.0 673.5 309.0 C 673.5 309.0 673.1 308.5 672.9 308.4 C 672.6 308.4 672.2 308.5 672.0 308.6 C 671.9 308.8 671.4 309.2 671.4 309.2 C 671.3 309.0 671.2 308.8 671.1 308.5 C 671.1 308.5 670.4 308.7 669.7 308.0 C 669.7 308.0 669.7 308.0 669.7 308.0 Z M 689.4 310.1 C 688.3 310.0 688.8 312.7 689.2 313.3 C 689.6 313.9 690.3 313.6 691.0 313.7 C 691.8 313.9 691.6 313.0 692.0 312.8 C 692.4 312.6 692.3 313.1 692.4 313.5 C 692.6 313.9 693.7 313.6 694.4 313.7 C 695.1 313.8 695.8 313.0 696.4 312.9 C 696.9 312.9 695.9 312.4 696.9 312.5 C 697.9 312.6 697.3 313.1 696.2 313.3 C 695.1 313.5 696.6 313.9 697.2 314.0 C 697.9 314.1 698.9 313.8 699.4 313.8 C 699.9 313.9 699.3 313.2 700.0 313.3 C 700.7 313.3 700.3 314.0 701.1 314.1 C 701.8 314.2 701.7 313.6 702.1 313.5 C 702.5 313.3 702.4 313.7 702.7 313.8 C 703.0 313.8 703.5 314.1 704.2 313.9 C 704.9 313.8 704.7 313.6 705.0 313.6 C 705.3 313.5 705.9 313.6 705.9 313.6 C 705.9 313.8 705.9 314.0 706.0 314.2 C 706.0 314.2 707.2 314.3 707.6 314.4 C 708.0 314.4 708.8 314.2 708.6 314.0 C 708.4 313.9 709.2 313.4 709.4 313.5 C 709.6 313.6 710.2 314.0 710.7 314.1 C 711.1 314.3 711.0 312.6 711.0 312.3 C 711.0 312.1 711.3 311.2 710.9 311.1 C 710.5 311.0 710.2 311.3 710.3 311.1 C 710.3 310.8 709.2 311.0 708.9 311.0 C 708.6 311.0 708.2 311.7 708.2 311.7 C 708.2 311.7 707.9 312.2 707.4 312.2 C 706.9 312.2 706.7 311.1 706.7 311.1 C 706.7 311.1 706.1 310.9 705.5 310.9 C 704.9 310.9 704.2 311.8 704.1 312.0 C 703.9 312.2 704.0 311.3 703.5 311.2 C 703.1 311.1 702.5 310.8 702.3 310.9 C 702.1 310.9 701.8 311.5 701.8 311.5 C 701.8 311.5 701.0 311.8 700.8 311.7 C 700.6 311.7 701.0 311.0 701.0 311.0 C 701.0 311.0 699.3 310.7 699.0 310.6 C 698.6 310.5 698.1 310.7 697.8 310.7 C 697.6 310.8 697.2 311.7 696.8 311.6 C 696.5 311.5 697.2 311.0 696.9 310.9 C 696.5 310.8 695.8 310.5 695.7 310.5 C 695.5 310.5 695.2 310.8 694.9 310.9 C 694.6 310.9 694.1 311.6 693.7 311.6 C 693.2 311.5 693.0 311.1 692.8 311.0 C 692.6 310.9 692.5 310.2 692.2 310.2 C 691.8 310.1 692.0 310.6 691.7 310.6 C 691.3 310.5 691.3 311.0 690.9 310.9 C 690.6 310.8 690.9 310.0 690.5 310.1 C 690.3 310.1 690.5 310.1 689.4 310.1 C 689.4 310.1 689.4 310.1 689.4 310.1 Z M 713.3 311.9 C 713.1 312.0 712.9 311.5 712.3 311.3 C 711.6 311.1 710.9 311.1 711.0 311.4 C 711.2 311.7 711.4 311.9 711.0 312.3 C 710.7 312.7 710.3 313.4 710.8 313.7 C 711.2 314.0 712.9 314.7 713.5 314.3 C 714.0 314.0 714.2 313.8 714.6 313.6 C 715.0 313.3 714.7 314.1 714.7 314.1 C 714.7 314.1 715.7 314.2 716.3 314.3 C 717.0 314.4 717.8 314.4 717.9 314.3 C 718.0 314.1 718.3 313.8 718.3 313.8 C 718.3 313.8 718.6 314.2 719.1 314.3 C 719.6 314.3 719.5 314.1 719.4 314.0 C 719.3 313.8 718.7 313.2 718.9 313.2 C 719.1 313.2 719.8 314.0 720.2 314.1 C 720.5 314.2 721.3 314.1 721.3 314.1 C 721.3 314.1 721.2 313.7 721.3 313.6 C 721.4 313.5 722.2 313.4 722.2 313.6 C 722.3 313.7 722.2 314.2 722.6 314.2 C 723.9 314.3 723.7 313.4 723.8 313.4 C 723.9 313.4 723.9 314.0 724.2 314.1 C 724.5 314.2 727.0 314.1 727.1 313.9 C 727.2 313.8 728.0 314.4 728.4 313.9 C 728.7 313.5 728.8 313.4 728.9 313.2 C 729.0 313.1 729.4 312.4 729.7 312.7 C 729.9 313.0 729.0 313.8 729.2 314.0 C 729.5 314.2 731.1 314.1 731.3 313.9 C 731.7 313.6 731.8 313.0 732.0 313.0 C 732.2 313.0 733.1 313.8 733.1 313.6 C 733.2 313.5 733.3 312.8 733.3 312.6 C 733.3 312.5 733.5 311.2 733.3 311.1 C 733.1 310.9 732.2 310.5 732.4 310.9 C 732.5 311.2 732.7 311.6 732.4 311.8 C 732.1 312.0 731.9 312.0 731.8 311.9 C 731.7 311.8 731.9 311.6 731.4 311.4 C 730.8 311.2 731.1 310.9 730.6 310.9 C 730.1 310.9 729.6 311.0 729.7 311.3 C 729.8 311.6 729.2 312.0 728.9 312.0 C 728.5 312.0 729.1 311.4 728.0 311.1 C 726.8 310.9 726.1 310.9 725.8 311.1 C 725.5 311.4 725.4 312.1 724.9 311.8 C 724.3 311.5 724.6 311.3 723.9 311.3 C 723.1 311.3 722.9 311.9 722.4 312.0 C 721.9 312.0 721.8 312.0 721.8 312.0 C 721.8 312.0 722.0 311.1 721.0 311.1 C 719.9 311.1 719.7 311.0 719.9 311.6 C 720.1 312.2 719.3 312.2 719.3 311.8 C 719.3 311.4 718.6 311.2 718.3 311.1 C 717.9 311.1 717.8 312.1 717.7 312.1 C 717.5 312.1 717.1 312.1 717.3 311.8 C 717.4 311.4 717.0 311.4 716.7 311.3 C 716.4 311.1 715.4 311.2 715.4 311.4 C 715.4 311.6 715.9 312.2 715.2 311.9 C 714.6 311.6 714.4 311.1 713.8 311.1 C 713.2 311.1 713.7 311.7 713.3 311.9 C 713.3 311.9 713.3 311.9 713.3 311.9 Z M 734.2 310.9 C 733.7 310.5 733.2 311.0 733.3 311.4 C 733.4 311.7 733.6 312.7 733.4 313.0 C 733.2 313.3 732.6 314.0 733.6 314.1 C 734.5 314.2 734.7 313.9 734.7 313.7 C 734.7 313.4 734.8 312.4 735.1 312.5 C 735.3 312.6 735.6 312.8 735.7 313.0 C 735.7 313.1 736.1 314.1 736.6 313.9 C 737.0 313.7 737.4 313.4 737.4 313.4 C 737.6 313.4 737.9 313.4 738.1 313.4 C 738.1 313.4 738.8 313.9 739.2 313.8 C 739.7 313.6 740.3 313.6 740.7 313.6 C 741.0 313.6 741.4 313.5 741.4 313.3 C 741.5 313.0 741.9 312.2 741.9 312.2 C 741.9 312.2 742.4 311.9 742.7 312.0 C 743.0 312.1 743.0 312.6 743.0 312.8 C 743.0 313.0 743.0 313.4 743.4 313.5 C 743.8 313.6 745.4 313.9 745.6 313.6 C 745.8 313.3 745.8 313.0 745.9 312.9 C 746.1 312.8 747.1 312.6 747.2 312.9 C 747.3 313.1 747.3 313.6 747.6 313.5 C 747.9 313.4 748.5 313.5 748.5 313.4 C 748.5 313.3 748.7 313.1 748.7 312.8 C 748.7 312.5 749.3 312.3 749.4 312.1 C 749.5 312.0 749.9 311.9 749.9 311.9 C 750.1 312.0 750.4 312.2 750.6 312.3 C 750.6 312.3 750.3 312.8 750.1 312.9 C 749.9 313.0 750.2 313.3 750.4 313.4 C 750.6 313.4 751.7 313.2 751.7 313.2 C 751.7 312.8 751.7 312.4 751.7 312.1 C 751.9 311.9 752.2 311.8 752.5 311.7 C 752.5 311.7 752.5 313.1 753.0 313.0 C 753.5 313.0 754.2 312.9 754.2 312.9 C 754.2 312.9 754.7 312.4 754.8 312.3 C 754.9 312.2 754.9 311.0 754.9 311.0 C 754.8 310.6 754.7 310.1 754.6 309.7 C 754.6 309.7 753.9 309.3 753.6 309.5 C 753.3 309.7 753.6 310.2 753.6 310.4 C 753.5 310.7 753.0 310.9 753.0 310.9 C 752.8 310.7 752.5 310.5 752.2 310.2 C 752.2 310.2 752.0 310.0 751.8 309.8 C 751.5 309.6 750.7 309.5 750.4 309.7 C 750.2 309.8 750.0 310.1 749.7 310.4 C 749.5 310.6 749.6 311.0 749.2 310.7 C 748.8 310.5 748.6 310.1 748.4 310.1 C 748.2 310.1 747.5 310.6 747.5 310.6 C 747.3 310.8 747.1 310.9 746.9 311.0 C 746.9 311.0 746.3 311.3 746.2 311.0 C 746.1 310.8 745.0 311.2 745.0 311.2 C 745.0 311.2 745.0 310.3 744.7 310.2 C 744.4 310.1 743.9 309.9 743.4 310.1 C 743.0 310.3 742.6 311.1 742.6 311.1 C 742.5 310.9 742.3 310.7 742.1 310.5 C 741.7 310.5 741.2 310.5 740.8 310.4 C 740.8 310.4 739.7 310.5 739.7 310.7 C 739.7 310.8 739.9 311.5 739.9 311.7 C 739.8 311.9 739.3 312.1 739.2 311.9 C 739.1 311.7 738.6 311.1 738.6 311.1 C 738.6 311.1 738.1 310.7 737.8 310.6 C 737.5 310.6 737.0 310.9 736.9 311.0 C 736.8 311.2 736.3 311.7 736.3 311.7 C 736.2 311.5 736.1 311.3 735.9 311.1 C 735.9 311.1 735.1 311.4 734.2 310.9 C 734.2 310.9 734.2 310.9 734.2 310.9 Z M 755.0 309.2 C 754.0 309.4 754.9 311.9 755.4 312.4 C 755.8 312.9 756.5 312.5 757.2 312.5 C 757.9 312.5 757.5 311.7 757.9 311.4 C 758.3 311.2 758.2 311.7 758.4 312.1 C 758.6 312.4 759.6 312.0 760.2 311.9 C 760.8 311.9 761.3 310.9 761.8 310.8 C 762.3 310.7 761.3 310.4 762.2 310.3 C 763.1 310.3 762.7 310.8 761.8 311.2 C 760.8 311.6 762.2 311.7 762.8 311.7 C 763.3 311.7 764.2 311.2 764.6 311.2 C 765.1 311.2 764.4 310.6 765.0 310.5 C 765.7 310.5 765.5 311.2 766.1 311.2 C 766.7 311.2 766.5 310.6 766.8 310.4 C 767.1 310.2 767.1 310.6 767.4 310.6 C 767.6 310.6 768.1 310.7 768.6 310.5 C 769.2 310.2 769.0 310.1 769.2 310.0 C 769.5 309.9 769.9 309.8 769.9 309.8 C 770.0 310.0 770.1 310.2 770.1 310.5 C 770.1 310.5 771.2 310.3 771.5 310.3 C 771.8 310.3 772.4 309.9 772.2 309.8 C 772.0 309.7 772.6 309.1 772.7 309.2 C 772.9 309.3 773.5 309.5 773.8 309.6 C 774.2 309.7 773.8 308.0 773.7 307.8 C 773.7 307.5 773.7 306.6 773.4 306.5 C 773.1 306.5 772.9 306.9 772.9 306.6 C 772.9 306.4 772.1 306.8 771.8 306.8 C 771.6 306.9 771.4 307.6 771.4 307.6 C 771.4 307.6 771.3 308.1 770.9 308.2 C 770.5 308.3 770.1 307.2 770.1 307.2 C 770.1 307.2 769.6 307.1 769.1 307.3 C 768.6 307.4 768.2 308.4 768.2 308.6 C 768.1 308.8 768.0 308.0 767.6 307.9 C 767.2 307.9 766.7 307.7 766.5 307.8 C 766.4 307.9 766.2 308.4 766.2 308.4 C 766.2 308.4 765.6 308.9 765.4 308.9 C 765.3 308.9 765.4 308.1 765.4 308.1 C 765.4 308.1 764.0 308.1 763.7 308.1 C 763.3 308.0 762.9 308.3 762.7 308.4 C 762.5 308.5 762.3 309.5 762.0 309.4 C 761.6 309.4 762.2 308.8 761.9 308.7 C 761.6 308.7 760.9 308.6 760.8 308.6 C 760.6 308.6 760.4 309.0 760.2 309.0 C 759.9 309.1 759.6 309.9 759.2 310.0 C 758.7 310.0 758.5 309.6 758.3 309.5 C 758.1 309.4 757.9 308.8 757.6 308.8 C 757.2 308.9 757.5 309.3 757.2 309.3 C 756.9 309.3 756.9 309.8 756.6 309.8 C 756.2 309.7 756.3 308.9 756.0 309.0 C 755.8 309.1 756.0 309.0 755.0 309.2 C 755.0 309.2 755.0 309.2 755.0 309.2 Z M 755.0 309.2 " fill="#B7282A"></path></g></g><g><clipPath id="clip-2210"><path d="M 635.1 247.3 L 875.8 247.3 L 875.8 284.8 L 635.1 284.8 Z M 635.1 247.3 "></path></clipPath><g clip-path="url(#clip-2210)"><path d="M 842.4 275.7 C 842.0 275.9 841.6 275.4 840.6 275.4 C 839.5 275.4 838.2 275.5 838.5 275.8 C 838.8 276.1 839.2 276.3 838.7 276.7 C 838.2 277.2 837.7 278.0 838.4 278.1 C 839.2 278.3 842.2 278.6 843.0 278.1 C 843.8 277.6 844.1 277.4 844.7 277.1 C 845.3 276.7 845.0 277.6 845.0 277.6 C 845.0 277.6 846.4 277.5 847.5 277.3 C 848.5 277.2 849.6 277.0 849.7 276.9 C 849.8 276.8 850.1 276.4 850.1 276.4 C 850.1 276.4 850.7 276.7 851.4 276.6 C 852.1 276.6 851.8 276.4 851.7 276.2 C 851.6 276.1 850.6 275.7 850.9 275.7 C 851.2 275.6 852.3 276.2 852.8 276.2 C 853.2 276.2 854.3 275.9 854.3 275.9 C 854.3 275.9 854.1 275.5 854.2 275.4 C 854.2 275.3 855.2 275.0 855.3 275.1 C 855.4 275.3 855.4 275.8 855.9 275.7 C 857.5 275.4 857.0 274.6 857.1 274.6 C 857.3 274.5 857.4 275.2 857.8 275.2 C 858.1 275.2 860.8 274.4 860.9 274.3 C 861.0 274.1 862.0 274.4 862.2 273.9 C 862.5 273.4 862.5 273.2 862.6 273.1 C 862.6 273.0 862.8 272.2 863.1 272.4 C 863.4 272.6 862.7 273.6 863.1 273.7 C 863.4 273.8 864.8 273.4 865.0 273.2 C 865.2 272.8 865.1 272.1 865.2 272.1 C 865.4 272.0 866.4 272.5 866.4 272.4 C 866.4 272.3 866.3 271.6 866.2 271.4 C 866.2 271.3 865.9 270.0 865.7 270.0 C 865.5 269.9 864.7 269.7 864.9 270.0 C 865.1 270.3 865.4 270.6 865.2 270.9 C 865.0 271.1 864.9 271.2 864.8 271.1 C 864.7 271.0 864.8 270.8 864.3 270.7 C 863.8 270.6 863.9 270.3 863.5 270.4 C 863.1 270.6 862.7 270.8 862.8 271.1 C 862.9 271.3 862.6 271.8 862.2 271.9 C 861.9 272.0 862.3 271.2 861.1 271.3 C 860.0 271.4 859.2 271.5 858.9 271.9 C 858.6 272.2 858.7 272.9 858.0 272.7 C 857.3 272.6 857.6 272.3 856.8 272.5 C 856.0 272.7 855.8 273.4 855.2 273.5 C 854.6 273.7 854.4 273.7 854.4 273.7 C 854.4 273.7 854.6 272.8 853.3 273.0 C 851.9 273.3 851.6 273.2 852.0 273.8 C 852.4 274.3 851.3 274.6 851.2 274.2 C 851.1 273.8 850.2 273.7 849.7 273.7 C 849.2 273.8 849.2 274.8 849.0 274.9 C 848.8 274.9 848.2 275.0 848.4 274.6 C 848.5 274.3 847.9 274.3 847.4 274.3 C 846.9 274.2 845.5 274.5 845.6 274.7 C 845.6 274.9 846.4 275.4 845.4 275.3 C 844.3 275.1 844.0 274.6 843.0 274.8 C 842.0 275.0 843.0 275.5 842.4 275.7 C 842.4 275.7 842.4 275.7 842.4 275.7 Z M 865.9 269.5 C 865.1 269.9 866.6 272.2 867.1 272.5 C 867.6 272.9 868.1 272.3 868.6 272.2 C 869.2 272.1 868.7 271.4 868.8 271.0 C 869.0 270.7 869.1 271.2 869.4 271.5 C 869.7 271.8 870.3 271.1 870.7 270.9 C 871.1 270.7 871.0 269.7 871.2 269.5 C 871.4 269.3 870.7 269.3 871.1 269.0 C 871.6 268.8 871.7 269.3 871.3 269.9 C 871.0 270.5 871.9 270.2 872.2 270.0 C 872.5 269.9 872.7 269.2 872.9 269.0 C 873.1 268.9 872.4 268.6 872.7 268.4 C 872.9 268.2 873.3 268.7 873.6 268.5 C 873.9 268.2 873.4 267.9 873.3 267.7 C 873.3 267.5 873.6 267.7 873.7 267.6 C 873.8 267.4 874.1 267.3 874.0 266.9 C 874.0 266.5 873.7 266.6 873.7 266.5 C 873.7 266.3 873.7 266.1 873.7 266.1 C 873.9 266.1 874.1 266.0 874.4 266.0 C 874.4 266.0 874.4 265.4 874.4 265.1 C 874.4 264.9 873.9 264.6 873.8 264.8 C 873.7 264.9 873.2 264.8 873.2 264.6 C 873.3 264.5 873.5 264.1 873.5 263.8 C 873.5 263.6 872.1 264.6 871.9 264.8 C 871.7 264.9 870.9 265.4 870.9 265.5 C 870.9 265.7 871.2 265.5 870.9 265.6 C 870.7 265.8 871.0 265.8 871.0 265.8 C 871.1 265.9 871.7 265.7 871.7 265.7 C 871.7 265.7 872.2 265.6 872.2 265.7 C 872.3 265.8 871.2 266.0 871.2 266.0 C 871.2 266.0 871.0 266.0 871.1 266.1 C 871.1 266.1 871.9 266.4 872.1 266.5 C 872.3 266.6 871.5 266.3 871.4 266.4 C 871.3 266.4 871.0 266.4 871.0 266.4 C 871.1 266.5 871.5 266.8 871.5 266.8 C 871.5 266.8 871.7 267.2 871.6 267.2 C 871.6 267.3 871.0 266.7 871.0 266.7 C 871.0 266.7 870.6 266.9 870.4 266.9 C 870.3 267.0 870.3 267.2 870.3 267.3 C 870.2 267.4 870.7 268.3 870.5 268.3 C 870.3 268.3 870.3 267.7 870.1 267.7 C 869.9 267.8 869.6 267.8 869.5 267.8 C 869.4 267.9 869.5 268.2 869.4 268.3 C 869.3 268.5 869.4 269.2 869.2 269.4 C 868.9 269.5 868.6 269.2 868.4 269.2 C 868.3 269.1 867.9 268.6 867.7 268.7 C 867.5 268.7 867.8 269.1 867.6 269.2 C 867.4 269.3 867.6 269.7 867.3 269.7 C 867.0 269.8 866.8 269.0 866.6 269.2 C 866.5 269.3 866.6 269.2 865.9 269.5 C 865.9 269.5 865.9 269.5 865.9 269.5 Z M 870.8 265.3 C 870.6 265.6 871.0 265.4 871.3 265.2 C 871.6 265.0 872.4 264.4 872.6 264.3 C 872.9 264.2 873.7 264.1 873.5 263.6 C 873.3 263.1 873.0 263.2 872.9 263.4 C 872.7 263.5 871.9 264.1 871.9 264.0 C 871.9 263.9 872.0 263.6 872.1 263.5 C 872.1 263.3 872.7 262.5 872.4 262.4 C 872.1 262.4 871.7 262.4 871.7 262.4 C 871.6 262.4 871.5 262.3 871.4 262.2 C 871.4 262.2 871.4 261.5 871.1 261.5 C 870.7 261.4 870.4 261.3 870.2 261.1 C 870.0 260.9 869.8 260.9 869.6 261.1 C 869.5 261.3 868.8 261.8 868.8 261.8 C 868.8 261.8 868.4 261.9 868.3 261.7 C 868.2 261.5 868.3 261.0 868.4 260.9 C 868.6 260.7 868.7 260.3 868.5 260.1 C 868.3 259.9 867.2 259.0 866.9 259.2 C 866.6 259.3 866.5 259.7 866.4 259.7 C 866.2 259.8 865.3 259.5 865.3 259.2 C 865.3 259.0 865.5 258.5 865.2 258.5 C 864.9 258.4 864.4 258.1 864.4 258.3 C 864.3 258.4 864.1 258.5 864.0 258.7 C 863.9 259.0 863.2 259.0 863.1 259.1 C 862.9 259.2 862.4 259.1 862.4 259.1 C 862.3 258.9 862.1 258.7 861.9 258.5 C 861.9 258.5 862.4 258.1 862.7 258.1 C 862.9 258.0 862.7 257.6 862.5 257.5 C 862.3 257.4 861.0 257.2 861.0 257.2 C 860.9 257.5 860.8 257.9 860.7 258.3 C 860.4 258.3 860.0 258.3 859.7 258.3 C 859.7 258.3 860.2 257.0 859.5 256.8 C 858.9 256.7 858.1 256.5 858.1 256.5 C 858.1 256.5 857.3 256.8 857.1 256.8 C 856.9 256.8 856.6 258.0 856.6 258.0 C 856.5 258.4 856.5 258.9 856.4 259.4 C 856.4 259.4 857.1 260.0 857.6 259.9 C 858.0 259.9 857.8 259.3 857.9 259.1 C 858.1 258.9 858.7 258.8 858.7 258.8 C 859.0 259.1 859.2 259.4 859.4 259.8 C 859.4 259.8 859.6 260.1 859.8 260.3 C 860.0 260.6 860.8 261.0 861.1 261.0 C 861.4 261.0 861.7 260.7 862.0 260.6 C 862.4 260.5 862.5 260.0 862.7 260.5 C 863.0 260.9 863.0 261.3 863.2 261.3 C 863.3 261.4 864.2 261.2 864.2 261.2 C 864.4 261.1 864.6 261.1 864.9 261.1 C 864.9 261.1 865.4 261.0 865.4 261.3 C 865.4 261.6 866.4 261.6 866.4 261.6 C 866.4 261.6 866.0 262.4 866.2 262.6 C 866.3 262.8 866.6 263.1 867.0 263.1 C 867.3 263.1 867.9 262.5 867.9 262.5 C 867.9 262.8 867.9 263.0 867.9 263.2 C 868.1 263.4 868.3 263.6 868.6 263.8 C 868.6 263.8 869.1 264.0 869.1 263.9 C 869.2 263.8 869.5 263.1 869.6 263.0 C 869.8 262.8 870.2 262.8 870.1 263.0 C 870.0 263.2 869.8 263.9 869.8 263.9 C 869.8 263.9 869.8 264.4 869.8 264.5 C 869.9 264.6 870.2 264.6 870.4 264.5 C 870.5 264.4 871.0 264.1 871.0 264.1 C 870.9 264.3 870.8 264.5 870.7 264.7 C 870.7 264.7 871.1 264.8 870.8 265.3 C 870.8 265.3 870.8 265.3 870.8 265.3 Z M 855.8 259.7 C 857.1 259.9 856.8 257.1 856.4 256.5 C 856.0 255.8 855.0 256.0 854.1 255.7 C 853.1 255.4 853.3 256.3 852.6 256.4 C 852.0 256.5 852.3 256.0 852.1 255.6 C 852.0 255.2 850.3 255.2 849.3 255.0 C 848.3 254.8 847.1 255.5 846.3 255.4 C 845.4 255.3 846.9 256.0 845.4 255.7 C 843.9 255.4 844.7 255.0 846.5 255.0 C 848.3 255.0 845.9 254.4 845.0 254.2 C 844.0 253.9 842.2 254.0 841.4 253.9 C 840.6 253.7 841.5 254.5 840.3 254.3 C 839.1 254.1 839.2 253.5 838.6 253.3 C 838.1 253.1 838.0 253.8 837.7 253.9 C 837.4 254.0 837.5 253.6 837.3 253.5 C 837.1 253.4 836.7 253.2 836.1 253.3 C 835.6 253.3 835.7 253.6 835.4 253.6 C 835.2 253.6 834.7 253.5 834.7 253.5 C 834.7 253.3 834.7 253.1 834.7 252.8 C 834.7 252.8 833.7 252.7 833.4 252.6 C 833.1 252.5 832.4 252.7 832.6 252.9 C 832.7 253.0 832.0 253.4 831.8 253.3 C 831.7 253.2 831.2 252.8 830.9 252.6 C 830.6 252.4 830.5 254.1 830.4 254.4 C 830.4 254.6 830.1 255.5 830.4 255.6 C 830.7 255.8 831.0 255.4 830.9 255.7 C 830.8 255.9 831.8 255.8 832.0 255.8 C 832.3 255.9 832.6 255.2 832.6 255.2 C 832.6 255.2 833.0 254.7 833.4 254.8 C 833.8 254.8 833.8 255.9 833.8 255.9 C 833.8 255.9 834.3 256.2 834.8 256.2 C 835.3 256.2 835.9 255.4 836.0 255.2 C 836.1 255.0 836.0 255.9 836.4 256.0 C 836.7 256.1 837.2 256.5 837.3 256.4 C 837.5 256.4 837.8 255.9 837.8 255.9 C 837.8 255.9 838.6 255.7 838.9 255.7 C 839.2 255.7 838.6 256.5 838.6 256.5 C 838.6 256.5 841.4 257.1 841.9 257.2 C 842.5 257.4 843.4 257.3 843.8 257.3 C 844.2 257.3 844.9 256.4 845.5 256.6 C 846.0 256.8 844.8 257.1 845.3 257.3 C 845.9 257.5 846.9 257.9 847.1 257.9 C 847.4 258.0 847.8 257.7 848.3 257.7 C 848.8 257.8 849.5 257.1 850.2 257.3 C 850.9 257.4 851.1 257.9 851.4 258.0 C 851.6 258.2 851.7 258.8 852.2 259.0 C 852.7 259.1 852.4 258.6 852.9 258.7 C 853.3 258.8 853.4 258.3 853.9 258.5 C 854.3 258.7 853.9 259.4 854.4 259.4 C 854.7 259.4 854.5 259.4 855.8 259.7 C 855.8 259.7 855.8 259.7 855.8 259.7 Z M 829.6 255.5 C 830.0 255.9 830.5 255.5 830.5 255.1 C 830.5 254.7 830.4 253.7 830.6 253.5 C 830.8 253.2 831.4 252.6 830.6 252.4 C 829.9 252.1 829.7 252.4 829.6 252.6 C 829.6 252.8 829.3 253.8 829.1 253.7 C 828.9 253.6 828.8 253.3 828.7 253.2 C 828.7 253.0 828.5 252.0 828.1 252.1 C 827.7 252.2 827.3 252.5 827.3 252.5 C 827.1 252.5 826.9 252.5 826.7 252.4 C 826.7 252.4 826.2 251.8 825.8 251.9 C 825.3 252.0 824.9 251.9 824.5 251.9 C 824.2 251.8 823.9 251.8 823.8 252.1 C 823.7 252.3 823.2 253.1 823.2 253.1 C 823.2 253.1 822.7 253.3 822.5 253.1 C 822.3 252.9 822.3 252.5 822.3 252.3 C 822.4 252.1 822.4 251.7 822.1 251.5 C 821.8 251.4 820.4 250.8 820.1 251.1 C 819.9 251.3 819.9 251.7 819.7 251.8 C 819.5 251.9 818.6 251.8 818.5 251.6 C 818.5 251.3 818.6 250.8 818.3 250.9 C 818.0 250.9 817.4 250.7 817.4 250.8 C 817.4 251.0 817.2 251.1 817.2 251.4 C 817.1 251.7 816.5 251.8 816.4 252.0 C 816.3 252.1 815.8 252.1 815.8 252.1 C 815.7 251.9 815.5 251.8 815.3 251.6 C 815.3 251.6 815.7 251.1 815.9 251.0 C 816.1 251.0 815.8 250.6 815.6 250.6 C 815.5 250.5 814.4 250.5 814.4 250.5 C 814.3 250.9 814.3 251.3 814.2 251.6 C 814.0 251.7 813.7 251.8 813.4 251.8 C 813.4 251.8 813.6 250.5 813.1 250.4 C 812.6 250.4 812.0 250.4 812.0 250.4 C 812.0 250.4 811.4 250.8 811.2 250.9 C 811.1 250.9 811.0 252.1 811.0 252.1 C 811.0 252.6 811.0 253.0 811.0 253.5 C 811.0 253.5 811.6 254.0 811.9 253.8 C 812.3 253.7 812.0 253.2 812.1 252.9 C 812.2 252.7 812.7 252.5 812.7 252.5 C 812.9 252.8 813.1 253.1 813.4 253.4 C 813.4 253.4 813.6 253.6 813.8 253.8 C 814.0 254.1 814.8 254.3 815.0 254.2 C 815.2 254.1 815.5 253.8 815.8 253.6 C 816.1 253.4 816.1 253.0 816.4 253.4 C 816.7 253.7 816.8 254.1 817.0 254.1 C 817.2 254.1 817.9 253.7 817.9 253.7 C 818.1 253.6 818.3 253.5 818.6 253.4 C 818.6 253.4 819.1 253.3 819.2 253.5 C 819.2 253.8 820.3 253.6 820.3 253.6 C 820.3 253.6 820.2 254.4 820.4 254.6 C 820.7 254.7 821.1 255.0 821.6 254.9 C 822.0 254.8 822.4 254.0 822.4 254.0 C 822.5 254.2 822.6 254.5 822.8 254.7 C 823.2 254.8 823.6 254.9 824.0 255.0 C 824.0 255.0 824.9 255.0 824.9 254.9 C 824.9 254.7 824.9 254.0 824.9 253.8 C 825.0 253.7 825.5 253.5 825.5 253.7 C 825.6 254.0 825.9 254.6 825.9 254.6 C 825.9 254.6 826.3 255.1 826.5 255.2 C 826.8 255.2 827.2 255.1 827.4 254.9 C 827.5 254.8 828.0 254.3 828.0 254.3 C 828.0 254.6 828.1 254.8 828.2 255.0 C 828.2 255.0 829.0 254.8 829.6 255.5 C 829.6 255.5 829.6 255.5 829.6 255.5 Z M 810.5 253.9 C 811.5 253.9 811.1 251.2 810.7 250.7 C 810.3 250.1 809.6 250.4 808.9 250.2 C 808.2 250.1 808.4 250.9 808.0 251.2 C 807.6 251.4 807.8 250.8 807.6 250.4 C 807.5 250.0 806.4 250.3 805.7 250.2 C 805.1 250.2 804.3 251.0 803.8 251.0 C 803.3 251.0 804.2 251.5 803.3 251.4 C 802.4 251.3 802.9 250.8 804.0 250.6 C 805.1 250.4 803.6 250.1 803.0 250.0 C 802.4 249.8 801.4 250.2 800.9 250.1 C 800.4 250.0 801.0 250.7 800.3 250.7 C 799.6 250.6 800.0 249.9 799.3 249.8 C 798.6 249.7 798.7 250.3 798.3 250.4 C 797.9 250.6 798.0 250.2 797.7 250.1 C 797.4 250.0 797.0 249.8 796.3 249.9 C 795.6 250.1 795.8 250.3 795.5 250.3 C 795.2 250.3 794.7 250.3 794.7 250.3 C 794.6 250.1 794.6 249.8 794.6 249.6 C 794.6 249.6 793.4 249.5 793.0 249.4 C 792.6 249.4 791.8 249.6 792.0 249.8 C 792.2 249.9 791.4 250.3 791.2 250.2 C 791.0 250.1 790.4 249.8 790.0 249.6 C 789.6 249.4 789.6 251.2 789.6 251.4 C 789.6 251.6 789.3 252.6 789.7 252.7 C 790.1 252.8 790.4 252.5 790.3 252.7 C 790.2 252.9 791.3 252.7 791.6 252.8 C 791.9 252.8 792.3 252.1 792.3 252.1 C 792.3 252.1 792.7 251.6 793.1 251.7 C 793.6 251.7 793.8 252.8 793.8 252.8 C 793.8 252.8 794.3 253.0 794.9 253.0 C 795.5 252.9 796.2 252.1 796.4 251.9 C 796.5 251.7 796.4 252.5 796.9 252.6 C 797.3 252.8 797.9 253.1 798.1 253.0 C 798.2 253.0 798.6 252.5 798.6 252.5 C 798.6 252.5 799.4 252.2 799.5 252.2 C 799.7 252.2 799.4 253.0 799.4 253.0 C 799.4 253.0 801.0 253.3 801.3 253.4 C 801.6 253.4 802.1 253.3 802.4 253.2 C 802.6 253.2 803.0 252.2 803.4 252.3 C 803.7 252.5 803.0 252.9 803.3 253.1 C 803.7 253.2 804.3 253.4 804.5 253.4 C 804.6 253.4 804.9 253.1 805.2 253.1 C 805.5 253.1 805.9 252.3 806.4 252.4 C 806.9 252.4 807.1 252.9 807.2 253.0 C 807.4 253.1 807.5 253.7 807.8 253.8 C 808.2 253.8 808.0 253.4 808.3 253.4 C 808.7 253.4 808.7 252.9 809.0 253.0 C 809.4 253.2 809.1 253.9 809.5 253.9 C 809.7 253.8 809.5 253.9 810.5 253.9 C 810.5 253.9 810.5 253.9 810.5 253.9 Z M 787.4 251.8 C 787.6 251.7 787.8 252.2 788.4 252.4 C 789.0 252.6 789.7 252.7 789.6 252.3 C 789.5 252.0 789.3 251.8 789.6 251.4 C 789.9 251.0 790.3 250.3 789.9 250.1 C 789.5 249.8 787.8 249.0 787.3 249.3 C 786.7 249.7 786.6 249.8 786.1 250.1 C 785.7 250.3 786.0 249.5 786.0 249.5 C 786.0 249.5 785.1 249.4 784.5 249.3 C 783.8 249.2 783.0 249.2 782.9 249.3 C 782.8 249.4 782.6 249.7 782.6 249.7 C 782.6 249.7 782.2 249.3 781.7 249.2 C 781.2 249.1 781.4 249.4 781.5 249.5 C 781.5 249.7 782.1 250.3 781.9 250.3 C 781.7 250.3 781.1 249.4 780.7 249.4 C 780.4 249.3 779.6 249.3 779.6 249.3 C 779.6 249.3 779.6 249.7 779.5 249.9 C 779.5 250.0 778.7 250.0 778.6 249.8 C 778.6 249.7 778.7 249.2 778.3 249.1 C 777.0 249.0 777.2 249.9 777.1 249.9 C 777.0 250.0 777.0 249.3 776.7 249.2 C 776.4 249.1 774.0 249.1 773.8 249.3 C 773.7 249.4 772.9 248.8 772.5 249.2 C 772.1 249.6 772.0 249.8 772.0 249.9 C 771.9 250.0 771.4 250.6 771.2 250.4 C 771.0 250.1 771.9 249.4 771.7 249.1 C 771.4 248.9 769.8 248.9 769.6 249.1 C 769.2 249.3 769.1 250.0 768.9 250.0 C 768.6 250.0 767.8 249.1 767.7 249.3 C 767.6 249.4 767.5 250.1 767.5 250.2 C 767.5 250.4 767.2 251.6 767.4 251.8 C 767.6 251.9 768.5 252.4 768.4 252.1 C 768.2 251.7 768.0 251.3 768.4 251.1 C 768.7 251.0 768.9 250.9 768.9 251.1 C 769.0 251.2 768.8 251.4 769.4 251.6 C 769.9 251.8 769.6 252.1 770.1 252.1 C 770.6 252.1 771.1 252.0 771.1 251.8 C 771.0 251.5 771.6 251.1 771.9 251.1 C 772.3 251.2 771.7 251.7 772.8 252.0 C 773.9 252.3 774.7 252.3 775.0 252.1 C 775.3 251.9 775.4 251.2 776.0 251.5 C 776.5 251.8 776.2 252.0 776.9 252.0 C 777.6 252.0 778.0 251.4 778.4 251.4 C 778.9 251.4 779.0 251.4 779.0 251.4 C 779.0 251.4 778.7 252.3 779.8 252.3 C 780.8 252.4 781.1 252.5 780.9 251.9 C 780.7 251.3 781.4 251.3 781.5 251.7 C 781.5 252.1 782.1 252.3 782.5 252.4 C 782.8 252.5 782.9 251.5 783.1 251.4 C 783.2 251.4 783.7 251.5 783.5 251.8 C 783.3 252.1 783.7 252.2 784.0 252.3 C 784.4 252.5 785.3 252.4 785.3 252.2 C 785.3 252.1 784.9 251.4 785.5 251.7 C 786.1 252.1 786.3 252.6 786.9 252.6 C 787.5 252.6 787.0 252.0 787.4 251.8 C 787.4 251.8 787.4 251.8 787.4 251.8 Z M 766.5 252.0 C 767.0 252.3 767.5 251.9 767.4 251.5 C 767.4 251.2 767.2 250.2 767.4 249.9 C 767.6 249.6 768.2 248.9 767.3 248.8 C 766.3 248.6 766.1 248.9 766.1 249.1 C 766.1 249.4 765.9 250.4 765.7 250.3 C 765.4 250.2 765.2 249.9 765.1 249.8 C 765.0 249.6 764.7 248.7 764.2 248.8 C 763.8 248.9 763.3 249.2 763.3 249.2 C 763.1 249.2 762.9 249.2 762.6 249.2 C 762.6 249.2 762.0 248.6 761.5 248.8 C 761.0 248.9 760.4 248.9 760.0 248.9 C 759.6 248.8 759.2 248.9 759.2 249.1 C 759.1 249.4 758.6 250.2 758.6 250.2 C 758.6 250.2 758.0 250.4 757.8 250.3 C 757.5 250.1 757.4 249.7 757.5 249.5 C 757.6 249.3 757.5 248.8 757.1 248.8 C 756.7 248.7 755.1 248.2 754.8 248.5 C 754.6 248.8 754.6 249.1 754.4 249.2 C 754.2 249.3 753.1 249.4 753.0 249.1 C 753.0 248.9 753.0 248.4 752.7 248.4 C 752.4 248.5 751.7 248.3 751.7 248.5 C 751.7 248.6 751.5 248.8 751.5 249.0 C 751.5 249.3 750.9 249.6 750.7 249.7 C 750.6 249.8 750.1 249.9 750.1 249.9 C 749.9 249.7 749.7 249.6 749.4 249.4 C 749.4 249.4 749.8 248.9 750.0 248.8 C 750.2 248.7 749.9 248.4 749.7 248.4 C 749.5 248.3 748.3 248.4 748.3 248.4 C 748.3 248.8 748.2 249.2 748.2 249.6 C 747.9 249.6 747.6 249.7 747.3 249.8 C 747.3 249.8 747.5 248.5 746.9 248.5 C 746.3 248.5 745.6 248.5 745.6 248.5 C 745.6 248.5 745.0 249.0 744.9 249.0 C 744.7 249.1 744.7 250.3 744.7 250.3 C 744.7 250.8 744.8 251.2 744.8 251.7 C 744.8 251.7 745.5 252.1 745.9 252.0 C 746.3 251.8 746.0 251.3 746.0 251.0 C 746.1 250.8 746.6 250.6 746.6 250.6 C 746.9 250.8 747.2 251.1 747.4 251.3 C 747.4 251.3 747.7 251.6 747.9 251.8 C 748.2 252.0 749.1 252.2 749.3 252.1 C 749.6 252.0 749.8 251.6 750.2 251.4 C 750.5 251.2 750.4 250.8 750.8 251.1 C 751.2 251.4 751.4 251.8 751.6 251.8 C 751.8 251.8 752.6 251.3 752.6 251.3 C 752.8 251.2 753.0 251.1 753.3 251.0 C 753.3 251.0 753.9 250.7 754.0 251.0 C 754.1 251.3 755.3 251.0 755.3 251.0 C 755.3 251.0 755.2 251.8 755.5 251.9 C 755.8 252.1 756.4 252.3 756.9 252.1 C 757.4 252.0 757.8 251.2 757.8 251.2 C 757.9 251.4 758.1 251.6 758.2 251.8 C 758.7 251.9 759.2 251.9 759.7 252.0 C 759.7 252.0 760.8 252.0 760.8 251.8 C 760.8 251.7 760.6 251.0 760.7 250.8 C 760.8 250.6 761.3 250.4 761.4 250.6 C 761.5 250.9 762.0 251.5 762.0 251.5 C 762.0 251.5 762.4 251.9 762.7 252.0 C 763.1 252.0 763.6 251.8 763.7 251.7 C 763.8 251.5 764.3 251.0 764.3 251.0 C 764.5 251.2 764.6 251.5 764.7 251.7 C 764.7 251.7 765.6 251.4 766.5 252.0 C 766.5 252.0 766.5 252.0 766.5 252.0 Z M 744.3 252.1 C 745.5 252.0 744.7 249.4 744.2 248.9 C 743.8 248.3 743.0 248.7 742.3 248.6 C 741.5 248.5 741.8 249.4 741.4 249.6 C 740.9 249.9 741.1 249.3 740.9 248.9 C 740.7 248.5 739.5 248.9 738.8 248.9 C 738.1 248.9 737.4 249.8 736.9 249.8 C 736.3 249.9 737.4 250.3 736.4 250.2 C 735.4 250.2 735.9 249.7 737.0 249.4 C 738.1 249.1 736.5 248.9 735.9 248.8 C 735.3 248.8 734.2 249.2 733.7 249.1 C 733.2 249.1 733.9 249.8 733.1 249.8 C 732.4 249.8 732.8 249.1 732.0 249.0 C 731.3 248.9 731.4 249.5 731.0 249.7 C 730.7 249.8 730.7 249.5 730.4 249.4 C 730.1 249.4 729.6 249.2 728.9 249.4 C 728.3 249.5 728.4 249.7 728.1 249.8 C 727.8 249.8 727.3 249.9 727.3 249.9 C 727.2 249.6 727.2 249.4 727.1 249.2 C 727.1 249.2 725.9 249.2 725.5 249.1 C 725.2 249.1 724.3 249.4 724.6 249.6 C 724.8 249.7 724.0 250.2 723.8 250.1 C 723.6 250.0 723.0 249.7 722.5 249.5 C 722.1 249.4 722.3 251.1 722.3 251.4 C 722.3 251.6 722.1 252.5 722.5 252.6 C 722.8 252.7 723.1 252.3 723.1 252.6 C 723.0 252.8 724.1 252.6 724.4 252.6 C 724.7 252.5 725.1 251.9 725.1 251.9 C 725.1 251.9 725.4 251.3 725.9 251.3 C 726.3 251.3 726.6 252.4 726.6 252.4 C 726.6 252.4 727.2 252.5 727.8 252.5 C 728.4 252.4 729.1 251.5 729.2 251.3 C 729.3 251.1 729.3 251.9 729.7 252.0 C 730.2 252.1 730.8 252.3 731.0 252.3 C 731.2 252.2 731.5 251.7 731.5 251.7 C 731.5 251.7 732.3 251.3 732.5 251.3 C 732.6 251.3 732.3 252.1 732.3 252.1 C 732.3 252.1 734.0 252.3 734.4 252.4 C 734.7 252.4 735.3 252.2 735.5 252.1 C 735.8 252.1 736.1 251.1 736.5 251.2 C 736.9 251.3 736.1 251.8 736.5 251.9 C 736.9 252.0 737.6 252.2 737.8 252.2 C 738.0 252.2 738.2 251.8 738.5 251.8 C 738.8 251.7 739.3 251.0 739.8 251.0 C 740.3 250.9 740.5 251.4 740.7 251.5 C 740.9 251.6 741.0 252.2 741.4 252.2 C 741.8 252.2 741.5 251.8 741.9 251.8 C 742.3 251.8 742.3 251.3 742.6 251.4 C 743.0 251.5 742.8 252.3 743.2 252.2 C 743.4 252.1 743.2 252.2 744.3 252.1 C 744.3 252.1 744.3 252.1 744.3 252.1 Z M 721.6 252.6 C 722.1 252.9 722.5 252.4 722.5 252.1 C 722.4 251.7 722.2 250.7 722.3 250.5 C 722.5 250.2 723.1 249.5 722.2 249.3 C 721.2 249.2 721.1 249.5 721.1 249.8 C 721.1 250.0 720.9 251.0 720.7 250.9 C 720.4 250.9 720.2 250.6 720.1 250.5 C 720.0 250.3 719.6 249.4 719.2 249.5 C 718.8 249.7 718.4 250.0 718.4 250.0 C 718.1 250.0 717.9 250.0 717.7 250.0 C 717.7 250.0 717.0 249.5 716.6 249.6 C 716.1 249.8 715.5 249.8 715.2 249.8 C 714.8 249.8 714.4 249.9 714.4 250.1 C 714.3 250.3 713.9 251.2 713.9 251.2 C 713.9 251.2 713.4 251.5 713.1 251.3 C 712.9 251.2 712.8 250.7 712.8 250.6 C 712.9 250.4 712.8 249.9 712.4 249.8 C 712.1 249.8 710.5 249.4 710.2 249.7 C 710.0 250.0 710.1 250.3 709.9 250.4 C 709.8 250.5 708.7 250.7 708.6 250.4 C 708.5 250.2 708.6 249.7 708.3 249.8 C 708.0 249.8 707.4 249.7 707.4 249.8 C 707.4 250.0 707.2 250.1 707.2 250.4 C 707.2 250.7 706.6 251.0 706.5 251.1 C 706.4 251.3 705.9 251.3 705.9 251.3 C 705.7 251.2 705.5 251.0 705.3 250.9 C 705.3 250.9 705.6 250.4 705.8 250.3 C 706.0 250.2 705.6 249.9 705.5 249.8 C 705.3 249.8 704.2 250.0 704.2 250.0 C 704.2 250.3 704.2 250.7 704.2 251.1 C 703.9 251.2 703.6 251.3 703.4 251.4 C 703.4 251.4 703.4 250.0 702.9 250.1 C 702.3 250.1 701.7 250.2 701.7 250.2 C 701.7 250.2 701.2 250.7 701.1 250.8 C 700.9 250.8 700.9 252.0 700.9 252.0 C 701.0 252.5 701.1 252.9 701.2 253.4 C 701.2 253.4 701.8 253.8 702.2 253.6 C 702.5 253.4 702.2 252.9 702.2 252.7 C 702.3 252.4 702.8 252.2 702.8 252.2 C 703.0 252.4 703.3 252.7 703.6 252.9 C 703.6 252.9 703.8 253.1 704.0 253.3 C 704.3 253.6 705.1 253.6 705.3 253.5 C 705.6 253.4 705.8 253.1 706.1 252.8 C 706.3 252.6 706.3 252.2 706.6 252.5 C 707.0 252.8 707.2 253.1 707.4 253.1 C 707.6 253.1 708.3 252.6 708.3 252.6 C 708.5 252.5 708.7 252.4 708.9 252.3 C 708.9 252.3 709.5 252.0 709.6 252.3 C 709.7 252.5 710.9 252.1 710.9 252.1 C 710.9 252.1 710.8 253.0 711.1 253.1 C 711.4 253.2 711.9 253.4 712.4 253.2 C 712.8 253.1 713.2 252.3 713.2 252.3 C 713.3 252.5 713.5 252.6 713.7 252.8 C 714.1 252.9 714.6 252.9 715.0 253.0 C 715.0 253.0 716.0 252.9 716.0 252.7 C 716.0 252.6 715.9 251.9 715.9 251.7 C 716.0 251.5 716.5 251.3 716.6 251.5 C 716.7 251.7 717.2 252.3 717.2 252.3 C 717.2 252.3 717.6 252.7 717.9 252.8 C 718.2 252.8 718.7 252.5 718.8 252.4 C 719.0 252.3 719.4 251.7 719.4 251.7 C 719.6 251.9 719.7 252.1 719.8 252.4 C 719.8 252.4 720.7 252.0 721.6 252.6 C 721.6 252.6 721.6 252.6 721.6 252.6 Z M 700.8 253.9 C 701.8 253.7 700.9 251.1 700.5 250.6 C 700.0 250.1 699.4 250.5 698.7 250.5 C 698.0 250.4 698.3 251.2 697.9 251.5 C 697.5 251.8 697.6 251.2 697.4 250.9 C 697.2 250.5 696.2 250.9 695.6 250.9 C 695.0 250.9 694.4 251.9 693.9 252.0 C 693.4 252.0 694.4 252.4 693.5 252.4 C 692.6 252.4 693.0 251.9 694.0 251.5 C 695.0 251.2 693.5 251.1 693.0 251.0 C 692.4 251.0 691.5 251.4 691.1 251.4 C 690.6 251.4 691.2 252.1 690.6 252.1 C 689.9 252.1 690.2 251.4 689.6 251.4 C 688.9 251.3 689.0 252.0 688.7 252.1 C 688.4 252.3 688.5 251.9 688.2 251.9 C 687.9 251.9 687.5 251.7 686.9 251.9 C 686.3 252.1 686.5 252.3 686.2 252.4 C 686.0 252.4 685.5 252.5 685.5 252.5 C 685.4 252.3 685.4 252.0 685.3 251.8 C 685.3 251.8 684.2 251.9 683.9 251.9 C 683.6 251.8 682.9 252.2 683.1 252.3 C 683.3 252.5 682.7 253.0 682.5 252.9 C 682.3 252.8 681.8 252.5 681.4 252.4 C 681.0 252.3 681.3 254.0 681.3 254.3 C 681.3 254.5 681.2 255.4 681.6 255.5 C 681.9 255.6 682.1 255.2 682.1 255.5 C 682.1 255.7 683.0 255.4 683.2 255.3 C 683.5 255.3 683.7 254.6 683.7 254.6 C 683.7 254.6 683.9 254.1 684.4 254.0 C 684.8 254.0 685.0 255.0 685.0 255.0 C 685.0 255.0 685.6 255.2 686.1 255.1 C 686.6 255.0 687.1 254.0 687.2 253.8 C 687.3 253.6 687.4 254.5 687.8 254.5 C 688.1 254.6 688.7 254.8 688.9 254.7 C 689.0 254.7 689.3 254.1 689.3 254.1 C 689.3 254.1 689.9 253.7 690.1 253.7 C 690.3 253.7 690.0 254.5 690.0 254.5 C 690.0 254.5 691.6 254.6 691.9 254.6 C 692.2 254.7 692.6 254.4 692.9 254.3 C 693.1 254.3 693.3 253.2 693.7 253.3 C 694.0 253.4 693.4 254.0 693.7 254.0 C 694.1 254.1 694.7 254.3 694.9 254.2 C 695.0 254.2 695.2 253.9 695.5 253.8 C 695.8 253.7 696.1 253.0 696.5 252.9 C 697.0 252.9 697.3 253.3 697.4 253.4 C 697.6 253.5 697.8 254.1 698.1 254.1 C 698.5 254.1 698.2 253.7 698.5 253.7 C 698.9 253.6 698.8 253.2 699.2 253.2 C 699.5 253.3 699.4 254.1 699.8 254.0 C 699.9 253.9 699.7 254.0 700.8 253.9 C 700.8 253.9 700.8 253.9 700.8 253.9 Z M 680.8 255.5 C 681.3 255.8 681.6 255.3 681.5 255.0 C 681.4 254.6 681.2 253.7 681.3 253.4 C 681.4 253.1 681.9 252.3 681.1 252.3 C 680.3 252.2 680.1 252.5 680.2 252.7 C 680.2 253.0 680.1 254.0 679.9 253.9 C 679.7 253.9 679.5 253.6 679.4 253.5 C 679.3 253.3 678.9 252.4 678.6 252.6 C 678.2 252.8 677.9 253.1 677.9 253.1 C 677.7 253.1 677.5 253.2 677.3 253.2 C 677.3 253.2 676.8 252.7 676.4 252.8 C 676.0 253.0 675.5 253.1 675.2 253.1 C 674.9 253.1 674.6 253.2 674.6 253.4 C 674.6 253.7 674.3 254.6 674.3 254.6 C 674.3 254.6 673.9 254.8 673.7 254.7 C 673.4 254.6 673.3 254.2 673.4 254.0 C 673.4 253.8 673.3 253.3 673.0 253.3 C 672.7 253.2 670.3 253.1 669.9 253.4 C 669.6 253.7 669.7 254.1 669.4 254.2 C 669.1 254.4 667.4 254.7 667.2 254.5 C 667.0 254.3 667.0 253.7 666.5 253.9 C 666.0 254.0 665.0 254.0 665.1 254.1 C 665.1 254.3 664.8 254.5 664.8 254.8 C 664.8 255.0 663.9 255.4 663.7 255.6 C 663.6 255.8 662.8 255.9 662.8 255.9 C 662.5 255.8 662.2 255.7 661.8 255.6 C 661.8 255.6 662.3 255.0 662.6 254.9 C 662.8 254.8 662.3 254.5 662.0 254.5 C 661.7 254.5 660.0 254.9 660.0 254.9 C 660.1 255.3 660.1 255.7 660.2 256.1 C 659.8 256.2 659.4 256.4 659.0 256.5 C 659.0 256.5 658.9 255.2 658.1 255.3 C 657.4 255.5 656.5 255.7 656.5 255.7 C 656.5 255.7 655.8 256.3 655.7 256.4 C 655.5 256.5 655.7 257.7 655.7 257.7 C 655.8 258.1 656.0 258.6 656.1 259.0 C 656.1 259.0 657.1 259.3 657.5 259.0 C 657.9 258.7 657.4 258.3 657.5 258.1 C 657.5 257.8 658.2 257.4 658.2 257.4 C 658.6 257.6 659.0 257.8 659.4 258.0 C 659.4 258.0 659.7 258.2 660.1 258.3 C 660.5 258.5 661.8 258.4 662.1 258.3 C 662.4 258.1 662.8 257.7 663.2 257.4 C 663.6 257.1 663.4 256.7 664.0 256.9 C 664.7 257.2 665.0 257.5 665.3 257.4 C 665.6 257.4 666.8 256.7 666.8 256.7 C 667.1 256.6 667.5 256.4 667.8 256.2 C 667.8 256.2 668.8 255.9 669.0 256.1 C 669.1 256.4 671.1 255.8 671.1 255.8 C 671.1 255.8 671.0 256.6 671.6 256.7 C 672.1 256.8 672.8 256.8 673.2 256.7 C 673.6 256.5 673.8 255.6 673.8 255.6 C 673.9 255.8 674.1 256.0 674.2 256.2 C 674.6 256.2 675.0 256.2 675.4 256.2 C 675.4 256.2 676.2 256.1 676.2 256.0 C 676.2 255.8 676.0 255.1 676.0 254.9 C 676.0 254.8 676.5 254.5 676.5 254.7 C 676.6 254.9 677.1 255.5 677.1 255.5 C 677.1 255.5 677.5 255.9 677.8 255.9 C 678.0 255.9 678.4 255.6 678.5 255.5 C 678.6 255.3 678.9 254.8 678.9 254.8 C 679.1 255.0 679.2 255.2 679.3 255.4 C 679.3 255.4 680.0 255.0 680.8 255.5 C 680.8 255.5 680.8 255.5 680.8 255.5 Z M 655.6 259.5 C 657.0 259.2 655.5 256.8 654.9 256.4 C 654.2 256.0 653.4 256.5 652.5 256.6 C 651.6 256.7 652.1 257.5 651.7 257.8 C 651.3 258.2 651.3 257.6 651.0 257.3 C 650.7 257.0 649.6 257.6 648.9 257.8 C 648.2 258.0 647.7 259.0 647.2 259.2 C 646.7 259.4 647.8 259.5 646.9 259.8 C 646.0 260.0 646.3 259.4 647.2 258.8 C 648.2 258.2 646.7 258.5 646.1 258.5 C 645.5 258.6 644.7 259.3 644.3 259.4 C 643.9 259.5 644.6 260.0 644.1 260.2 C 643.5 260.4 643.5 259.6 643.0 259.7 C 642.4 259.9 642.7 260.4 642.5 260.7 C 642.3 260.9 642.2 260.5 642.0 260.6 C 641.8 260.6 641.4 260.6 641.0 261.0 C 640.7 261.3 640.9 261.4 640.7 261.6 C 640.6 261.7 640.3 261.9 640.3 261.9 C 640.2 261.7 640.0 261.5 639.9 261.4 C 639.9 261.4 639.2 261.7 639.0 261.8 C 638.8 261.9 638.6 262.4 638.8 262.5 C 639.0 262.5 638.9 263.1 638.8 263.1 C 638.7 263.1 638.2 263.1 637.9 263.2 C 637.7 263.2 639.0 264.3 639.2 264.5 C 639.4 264.6 640.0 265.3 640.2 265.3 C 640.3 265.3 640.1 265.0 640.3 265.2 C 640.4 265.3 640.5 264.9 640.6 264.9 C 640.7 264.8 640.4 264.2 640.4 264.2 C 640.4 264.2 640.2 263.7 640.4 263.5 C 640.6 263.4 641.3 264.2 641.3 264.2 C 641.3 264.2 641.6 264.2 641.9 264.0 C 642.1 263.8 642.1 262.9 642.0 262.7 C 642.0 262.4 642.4 263.2 642.7 263.1 C 643.0 263.1 643.4 263.2 643.5 263.1 C 643.6 263.0 643.6 262.4 643.6 262.4 C 643.6 262.4 644.0 261.9 644.1 261.8 C 644.3 261.8 644.4 262.6 644.4 262.6 C 644.4 262.6 645.6 262.3 645.9 262.3 C 646.2 262.2 646.6 261.9 646.8 261.8 C 646.9 261.7 646.9 260.6 647.3 260.6 C 647.6 260.6 647.2 261.3 647.5 261.3 C 647.9 261.3 648.5 261.3 648.7 261.2 C 648.9 261.2 649.0 260.8 649.3 260.7 C 649.6 260.5 649.8 259.7 650.3 259.6 C 650.8 259.4 651.2 259.8 651.4 259.8 C 651.6 259.9 651.9 260.5 652.3 260.4 C 652.8 260.3 652.4 259.9 652.8 259.8 C 653.2 259.7 653.1 259.3 653.5 259.3 C 654.0 259.3 653.9 260.1 654.3 259.9 C 654.5 259.8 654.3 259.9 655.6 259.5 C 655.6 259.5 655.6 259.5 655.6 259.5 Z M 639.2 265.3 C 639.1 265.2 639.6 265.4 639.8 265.4 C 640.0 265.4 640.1 265.3 639.9 265.1 C 639.6 264.9 639.4 264.8 639.2 264.5 C 639.0 264.1 638.6 263.5 638.2 263.5 C 637.9 263.5 636.8 263.8 637.0 264.2 C 637.2 264.6 637.3 264.8 637.5 265.0 C 637.6 265.2 636.9 264.9 636.9 264.9 C 636.9 264.9 636.7 265.3 636.6 265.6 C 636.5 266.0 636.5 266.4 636.6 266.4 C 636.8 266.4 637.1 266.5 637.1 266.5 C 637.1 266.5 636.7 266.8 636.7 267.0 C 636.7 267.3 636.9 267.1 637.1 267.1 C 637.2 267.0 637.7 266.6 637.7 266.7 C 637.7 266.8 637.0 267.3 637.0 267.5 C 637.0 267.6 637.3 268.0 637.3 268.0 C 637.3 268.0 637.6 267.7 637.7 267.7 C 637.8 267.7 638.1 267.9 638.0 268.0 C 637.8 268.1 637.4 268.4 637.5 268.6 C 637.8 269.1 638.5 268.4 638.5 268.5 C 638.6 268.5 638.1 269.0 638.1 269.1 C 638.1 269.3 639.3 270.1 639.4 270.0 C 639.6 269.9 639.6 270.7 640.1 270.5 C 640.5 270.2 640.6 270.2 640.7 270.1 C 640.8 270.0 641.3 269.6 641.3 269.9 C 641.3 270.2 640.4 270.5 640.5 270.8 C 640.5 271.1 641.5 271.6 641.7 271.5 C 642.1 271.3 642.4 270.8 642.6 270.9 C 642.7 270.9 642.9 272.0 643.1 271.9 C 643.2 271.8 643.5 271.1 643.6 271.0 C 643.6 270.9 644.3 269.8 644.2 269.6 C 644.2 269.4 643.8 268.7 643.7 269.1 C 643.6 269.4 643.6 269.9 643.3 270.0 C 643.1 270.0 642.9 270.0 642.9 269.8 C 643.0 269.7 643.1 269.6 642.9 269.2 C 642.7 268.9 643.0 268.7 642.7 268.6 C 642.4 268.5 642.2 268.4 642.1 268.7 C 641.9 268.9 641.5 269.1 641.3 269.0 C 641.2 268.9 641.7 268.5 641.4 268.0 C 641.0 267.5 640.9 267.3 640.6 267.4 C 640.4 267.5 639.9 268.0 640.0 267.7 C 640.0 267.3 640.2 267.2 640.1 267.1 C 639.9 266.9 639.4 267.2 639.3 267.1 C 639.2 267.0 639.2 267.0 639.2 267.0 C 639.2 267.0 639.9 266.6 639.9 266.4 C 639.8 266.2 639.9 266.2 639.3 266.4 C 638.8 266.7 638.7 266.5 639.1 266.4 C 639.5 266.3 639.7 266.2 639.7 266.1 C 639.8 266.1 638.8 266.2 638.7 266.2 C 638.7 266.1 638.8 266.0 639.1 266.1 C 639.4 266.1 639.5 266.0 639.6 266.0 C 639.7 266.0 639.7 265.9 639.5 265.9 C 639.3 265.8 638.6 265.7 639.0 265.7 C 639.4 265.7 639.8 265.9 639.8 265.8 C 639.9 265.7 639.3 265.5 639.2 265.3 C 639.2 265.3 639.2 265.3 639.2 265.3 Z M 644.9 269.7 C 644.7 269.2 644.2 269.5 644.1 269.8 C 644.0 270.2 643.8 271.1 643.5 271.3 C 643.3 271.5 642.5 272.0 643.2 272.4 C 643.8 272.8 644.1 272.6 644.2 272.4 C 644.3 272.2 644.8 271.3 644.9 271.5 C 645.1 271.6 645.2 271.9 645.2 272.1 C 645.2 272.2 645.2 273.3 645.6 273.3 C 646.0 273.3 646.5 273.1 646.5 273.1 C 646.7 273.2 646.9 273.2 647.2 273.3 C 647.2 273.3 647.6 274.0 648.1 274.1 C 648.6 274.1 649.2 274.2 649.6 274.4 C 649.9 274.5 650.4 274.6 650.5 274.3 C 650.6 274.1 651.4 273.5 651.4 273.5 C 651.4 273.5 652.0 273.4 652.3 273.6 C 652.5 273.8 652.5 274.3 652.4 274.4 C 652.3 274.6 652.2 275.1 652.6 275.3 C 653.1 275.5 654.9 276.4 655.3 276.2 C 655.7 276.0 655.7 275.6 655.9 275.5 C 656.2 275.5 657.6 275.7 657.7 276.0 C 657.7 276.2 657.6 276.7 658.0 276.8 C 658.4 276.8 659.3 277.1 659.3 277.0 C 659.3 276.8 659.6 276.7 659.7 276.5 C 659.8 276.2 660.7 276.1 660.9 276.0 C 661.1 275.9 661.8 276.0 661.8 276.0 C 662.1 276.2 662.4 276.4 662.7 276.6 C 662.7 276.6 662.0 277.0 661.7 277.1 C 661.5 277.1 661.8 277.5 662.1 277.6 C 662.4 277.7 664.2 277.9 664.2 277.9 C 664.3 277.5 664.4 277.2 664.5 276.8 C 664.9 276.8 665.4 276.8 665.9 276.8 C 665.9 276.8 665.5 278.1 666.4 278.2 C 667.3 278.4 668.4 278.5 668.4 278.5 C 668.4 278.5 669.4 278.2 669.7 278.2 C 669.9 278.1 670.2 277.0 670.2 277.0 C 670.2 276.5 670.2 276.0 670.2 275.6 C 670.2 275.6 669.1 274.9 668.5 275.0 C 667.9 275.1 668.3 275.7 668.2 275.9 C 668.0 276.1 667.1 276.2 667.1 276.2 C 666.7 275.9 666.3 275.6 666.0 275.3 C 666.0 275.3 665.7 275.0 665.3 274.7 C 665.0 274.4 663.7 274.0 663.3 274.1 C 662.9 274.1 662.5 274.3 662.0 274.5 C 661.5 274.6 661.5 275.1 661.1 274.7 C 660.6 274.2 660.4 273.8 660.1 273.8 C 659.9 273.7 658.7 274.0 658.7 274.0 C 658.4 274.0 658.1 274.1 657.7 274.1 C 657.7 274.1 656.9 274.2 656.9 273.9 C 656.8 273.6 655.2 273.6 655.2 273.6 C 655.2 273.6 655.5 272.8 655.2 272.6 C 654.9 272.4 654.3 272.0 653.7 272.1 C 653.1 272.0 652.5 272.7 652.5 272.7 C 652.4 272.5 652.3 272.2 652.1 272.0 C 651.6 271.8 651.2 271.6 650.7 271.4 C 650.7 271.4 649.6 271.2 649.6 271.3 C 649.6 271.5 649.5 272.2 649.4 272.3 C 649.3 272.5 648.7 272.5 648.7 272.3 C 648.7 272.1 648.4 271.3 648.4 271.3 C 648.4 271.3 648.1 270.8 647.9 270.7 C 647.6 270.5 647.1 270.6 646.9 270.7 C 646.8 270.8 646.2 271.1 646.2 271.1 C 646.2 270.9 646.1 270.7 646.1 270.4 C 646.1 270.4 645.3 270.5 644.9 269.7 C 644.9 269.7 644.9 269.7 644.9 269.7 Z M 671.0 275.3 C 669.1 275.0 670.0 277.8 670.7 278.5 C 671.3 279.1 672.4 278.9 673.0 279.1 C 673.6 279.3 673.5 278.4 673.9 278.2 C 674.2 278.0 674.0 278.5 674.1 278.9 C 674.2 279.3 675.2 279.1 675.7 279.2 C 676.3 279.3 677.0 278.5 677.4 278.5 C 677.9 278.5 677.1 278.0 677.9 278.2 C 678.7 278.3 678.2 278.7 677.3 278.9 C 676.3 279.1 677.6 279.4 678.1 279.6 C 678.6 279.8 679.5 279.5 679.9 279.6 C 680.3 279.7 679.9 278.9 680.5 279.0 C 681.0 279.1 680.7 279.7 681.3 279.9 C 681.9 280.1 681.9 279.4 682.2 279.3 C 682.5 279.2 682.4 279.6 682.7 279.7 C 682.9 279.8 683.3 280.0 683.9 279.9 C 684.5 279.8 684.4 279.6 684.6 279.6 C 684.9 279.6 685.4 279.6 685.4 279.6 C 685.4 279.8 685.4 280.1 685.4 280.3 C 685.4 280.3 686.5 280.5 686.8 280.5 C 687.1 280.6 687.9 280.4 687.7 280.2 C 687.5 280.1 688.3 279.7 688.4 279.8 C 688.6 279.9 689.1 280.3 689.5 280.5 C 689.8 280.7 689.9 279.0 689.9 278.7 C 689.9 278.5 690.2 277.6 689.9 277.4 C 689.6 277.3 689.3 277.6 689.4 277.4 C 689.5 277.1 688.5 277.3 688.2 277.3 C 687.9 277.3 687.5 277.9 687.5 277.9 C 687.5 277.9 687.2 278.4 686.8 278.3 C 686.4 278.3 686.3 277.2 686.3 277.2 C 686.3 277.2 685.8 277.0 685.3 276.9 C 684.7 276.9 684.1 277.8 684.0 277.9 C 683.8 278.1 683.9 277.3 683.6 277.2 C 683.2 277.0 682.7 276.7 682.5 276.8 C 682.4 276.8 682.1 277.3 682.1 277.3 C 682.1 277.3 681.4 277.6 681.2 277.5 C 681.1 277.5 681.4 276.8 681.4 276.8 C 681.4 276.8 680.0 276.4 679.8 276.3 C 679.5 276.2 679.0 276.4 678.8 276.4 C 678.6 276.4 678.2 277.4 677.9 277.2 C 677.6 277.1 678.3 276.6 678.0 276.5 C 677.7 276.4 677.2 276.1 677.0 276.1 C 676.9 276.1 676.6 276.4 676.4 276.4 C 676.1 276.4 675.7 277.1 675.3 277.1 C 674.9 277.0 674.8 276.5 674.6 276.4 C 674.5 276.3 674.5 275.7 674.2 275.6 C 673.9 275.5 674.0 276.0 673.7 276.0 C 673.5 275.9 673.4 276.4 673.1 276.3 C 672.8 276.1 673.1 275.4 672.8 275.4 C 672.6 275.5 672.9 275.5 671.0 275.3 C 671.0 275.3 671.0 275.3 671.0 275.3 Z M 690.7 277.6 C 690.3 277.2 689.8 277.6 689.9 278.0 C 689.9 278.4 690.0 279.3 689.8 279.6 C 689.6 279.9 689.0 280.5 689.8 280.7 C 690.6 280.9 690.8 280.7 690.8 280.4 C 690.8 280.2 691.1 279.2 691.3 279.3 C 691.5 279.4 691.7 279.7 691.8 279.9 C 691.8 280.0 692.0 281.0 692.5 280.9 C 692.9 280.8 693.3 280.6 693.3 280.6 C 693.5 280.6 693.7 280.6 693.9 280.6 C 693.9 280.6 694.4 281.2 694.9 281.1 C 695.3 281.0 695.9 281.1 696.2 281.1 C 696.5 281.2 696.9 281.1 697.0 280.9 C 697.0 280.7 697.6 279.9 697.6 279.9 C 697.6 279.9 698.1 279.7 698.3 279.8 C 698.5 280.0 698.6 280.5 698.5 280.7 C 698.4 280.8 698.4 281.3 698.8 281.4 C 699.1 281.5 700.6 282.1 700.8 281.8 C 701.1 281.6 701.1 281.2 701.2 281.1 C 701.4 281.0 702.4 281.1 702.5 281.3 C 702.6 281.5 702.5 282.0 702.8 282.0 C 703.1 282.0 703.6 282.2 703.7 282.0 C 703.7 281.9 703.9 281.8 703.9 281.5 C 703.9 281.2 704.5 281.0 704.7 280.9 C 704.8 280.8 705.3 280.7 705.3 280.7 C 705.5 280.9 705.6 281.1 705.8 281.2 C 705.8 281.2 705.4 281.7 705.3 281.8 C 705.1 281.9 705.4 282.2 705.5 282.3 C 705.7 282.3 706.8 282.3 706.8 282.3 C 706.9 281.9 706.9 281.6 707.0 281.2 C 707.2 281.1 707.5 281.1 707.8 281.0 C 707.8 281.0 707.6 282.3 708.2 282.4 C 708.7 282.4 709.4 282.4 709.4 282.4 C 709.4 282.4 709.9 282.0 710.1 281.9 C 710.2 281.9 710.4 280.7 710.4 280.7 C 710.3 280.2 710.3 279.8 710.3 279.3 C 710.3 279.3 709.7 278.8 709.3 278.9 C 708.9 279.1 709.2 279.6 709.1 279.9 C 709.1 280.1 708.5 280.3 708.5 280.3 C 708.3 280.0 708.1 279.7 707.8 279.5 C 707.8 279.5 707.6 279.2 707.4 279.0 C 707.2 278.7 706.4 278.5 706.1 278.6 C 705.9 278.7 705.6 279.0 705.3 279.2 C 705.0 279.4 705.0 279.8 704.7 279.5 C 704.4 279.2 704.2 278.8 704.0 278.8 C 703.9 278.8 703.1 279.2 703.1 279.2 C 702.9 279.3 702.6 279.3 702.4 279.4 C 702.4 279.4 701.8 279.6 701.8 279.4 C 701.7 279.1 700.6 279.3 700.6 279.3 C 700.6 279.3 700.7 278.5 700.4 278.3 C 700.2 278.2 699.7 278.0 699.2 278.1 C 698.8 278.2 698.4 278.9 698.4 278.9 C 698.3 278.7 698.1 278.5 698.0 278.3 C 697.6 278.2 697.2 278.1 696.7 278.0 C 696.7 278.0 695.8 278.0 695.7 278.1 C 695.7 278.3 695.8 279.0 695.7 279.1 C 695.7 279.3 695.1 279.5 695.1 279.3 C 695.0 279.0 694.7 278.4 694.7 278.4 C 694.7 278.4 694.3 277.9 694.0 277.8 C 693.7 277.8 693.3 278.0 693.1 278.1 C 693.0 278.2 692.5 278.7 692.5 278.7 C 692.4 278.5 692.3 278.2 692.2 278.0 C 692.2 278.0 691.4 278.3 690.7 277.6 C 690.7 277.6 690.7 277.6 690.7 277.6 Z M 712.6 279.8 C 712.4 279.9 712.2 279.4 711.6 279.2 C 711.1 279.0 710.3 278.9 710.5 279.3 C 710.6 279.6 710.8 279.8 710.4 280.2 C 710.1 280.6 709.7 281.3 710.1 281.5 C 710.5 281.8 712.1 282.6 712.7 282.3 C 713.2 281.9 713.4 281.8 713.8 281.6 C 714.2 281.4 713.9 282.1 713.9 282.1 C 713.9 282.1 714.8 282.3 715.4 282.4 C 716.1 282.4 716.8 282.5 716.9 282.4 C 717.0 282.3 717.3 282.0 717.3 282.0 C 717.3 282.0 717.6 282.4 718.1 282.5 C 718.6 282.6 718.4 282.3 718.3 282.2 C 718.3 282.0 717.7 281.4 717.9 281.4 C 718.1 281.4 718.7 282.3 719.1 282.4 C 719.4 282.4 720.2 282.4 720.2 282.4 C 720.2 282.4 720.2 282.0 720.2 281.9 C 720.3 281.8 721.1 281.8 721.1 281.9 C 721.1 282.1 721.1 282.6 721.4 282.6 C 722.7 282.7 722.5 281.8 722.6 281.8 C 722.8 281.8 722.7 282.5 723.0 282.6 C 723.3 282.7 725.7 282.7 725.8 282.5 C 726.0 282.4 726.8 283.0 727.1 282.6 C 727.5 282.2 727.6 282.1 727.7 282.0 C 727.8 281.9 728.2 281.2 728.5 281.5 C 728.7 281.7 727.7 282.5 728.0 282.7 C 728.3 282.9 729.8 283.0 730.0 282.8 C 730.4 282.5 730.5 281.9 730.7 281.9 C 731.0 281.9 731.8 282.8 731.9 282.6 C 732.0 282.5 732.1 281.8 732.1 281.6 C 732.1 281.5 732.4 280.3 732.2 280.1 C 732.1 279.9 731.2 279.4 731.3 279.8 C 731.4 280.2 731.6 280.6 731.2 280.8 C 730.9 280.9 730.7 280.9 730.7 280.8 C 730.6 280.7 730.8 280.5 730.3 280.3 C 729.7 280.0 730.0 279.7 729.5 279.7 C 729.0 279.7 728.6 279.8 728.6 280.1 C 728.6 280.4 728.1 280.7 727.7 280.7 C 727.4 280.7 728.0 280.1 726.9 279.8 C 725.8 279.5 725.0 279.4 724.7 279.7 C 724.4 279.9 724.3 280.6 723.8 280.3 C 723.3 279.9 723.6 279.8 722.8 279.7 C 722.1 279.7 721.8 280.3 721.4 280.3 C 720.9 280.3 720.8 280.3 720.8 280.3 C 720.8 280.3 721.0 279.5 720.0 279.4 C 719.0 279.3 718.8 279.2 719.0 279.8 C 719.2 280.4 718.4 280.4 718.4 280.0 C 718.4 279.6 717.8 279.3 717.4 279.3 C 717.1 279.2 716.9 280.2 716.8 280.3 C 716.6 280.3 716.2 280.2 716.4 279.9 C 716.6 279.6 716.2 279.5 715.9 279.3 C 715.6 279.2 714.6 279.2 714.6 279.4 C 714.6 279.6 715.1 280.3 714.4 279.9 C 713.8 279.6 713.7 279.0 713.1 279.0 C 712.5 279.0 713.0 279.7 712.6 279.8 C 712.6 279.8 712.6 279.8 712.6 279.8 Z M 733.1 279.9 C 732.6 279.6 732.1 280.0 732.2 280.4 C 732.2 280.7 732.4 281.7 732.2 282.0 C 732.0 282.3 731.3 282.9 732.3 283.1 C 733.2 283.3 733.4 283.0 733.4 282.8 C 733.4 282.5 733.6 281.5 733.9 281.6 C 734.1 281.7 734.4 282.0 734.4 282.1 C 734.5 282.3 734.8 283.3 735.3 283.1 C 735.8 283.0 736.2 282.7 736.2 282.7 C 736.4 282.7 736.7 282.7 736.9 282.7 C 736.9 282.7 737.5 283.3 738.0 283.2 C 738.5 283.1 739.1 283.1 739.5 283.1 C 739.9 283.2 740.3 283.1 740.3 282.9 C 740.4 282.6 740.9 281.8 740.9 281.8 C 740.9 281.8 741.5 281.6 741.7 281.7 C 742.0 281.9 742.1 282.3 742.0 282.5 C 741.9 282.7 742.0 283.2 742.4 283.3 C 742.7 283.4 744.4 283.8 744.7 283.6 C 744.9 283.3 744.9 282.9 745.0 282.8 C 745.2 282.7 746.3 282.7 746.4 282.9 C 746.5 283.2 746.4 283.7 746.8 283.6 C 747.1 283.6 747.7 283.7 747.7 283.6 C 747.7 283.5 747.9 283.3 748.0 283.0 C 748.0 282.8 748.6 282.5 748.8 282.4 C 748.9 282.3 749.4 282.2 749.4 282.2 C 749.6 282.4 749.8 282.5 750.0 282.7 C 750.0 282.7 749.6 283.2 749.5 283.3 C 749.3 283.4 749.6 283.7 749.8 283.8 C 750.0 283.8 751.2 283.7 751.2 283.7 C 751.2 283.3 751.2 283.0 751.2 282.6 C 751.5 282.5 751.8 282.4 752.1 282.3 C 752.1 282.3 752.0 283.7 752.6 283.7 C 753.2 283.7 753.9 283.7 753.9 283.7 C 753.9 283.7 754.5 283.2 754.6 283.1 C 754.8 283.1 754.8 281.9 754.8 281.9 C 754.8 281.4 754.7 281.0 754.7 280.5 C 754.7 280.5 754.0 280.0 753.6 280.2 C 753.2 280.4 753.6 280.9 753.5 281.1 C 753.4 281.4 752.9 281.6 752.9 281.6 C 752.6 281.3 752.3 281.1 752.1 280.8 C 752.1 280.8 751.8 280.6 751.6 280.3 C 751.3 280.1 750.4 280.0 750.2 280.1 C 749.9 280.2 749.7 280.5 749.3 280.7 C 749.0 280.9 749.1 281.3 748.7 281.0 C 748.3 280.7 748.1 280.3 747.9 280.3 C 747.8 280.3 746.9 280.8 746.9 280.8 C 746.7 280.9 746.5 281.0 746.2 281.1 C 746.2 281.1 745.6 281.3 745.5 281.0 C 745.4 280.8 744.2 281.1 744.2 281.1 C 744.2 281.1 744.3 280.2 744.0 280.1 C 743.7 280.0 743.2 279.8 742.7 279.9 C 742.2 280.0 741.8 280.8 741.8 280.8 C 741.6 280.6 741.5 280.4 741.3 280.2 C 740.8 280.1 740.4 280.0 739.9 280.0 C 739.9 280.0 738.8 280.0 738.8 280.1 C 738.8 280.3 738.9 281.0 738.8 281.2 C 738.8 281.4 738.2 281.6 738.1 281.3 C 738.1 281.1 737.6 280.4 737.6 280.4 C 737.6 280.4 737.2 280.0 736.8 280.0 C 736.5 279.9 736.0 280.1 735.9 280.3 C 735.8 280.4 735.2 280.9 735.2 280.9 C 735.1 280.7 735.0 280.5 734.8 280.2 C 734.8 280.2 734.0 280.6 733.1 279.9 C 733.1 279.9 733.1 279.9 733.1 279.9 Z M 757.2 280.9 C 756.9 281.0 756.7 280.5 756.1 280.3 C 755.5 280.2 754.7 280.1 754.9 280.5 C 755.0 280.8 755.2 281.0 754.9 281.4 C 754.6 281.8 754.2 282.5 754.6 282.7 C 755.1 283.0 756.8 283.7 757.4 283.4 C 757.9 283.0 758.1 282.8 758.5 282.6 C 758.9 282.3 758.6 283.1 758.6 283.1 C 758.6 283.1 759.6 283.2 760.3 283.3 C 761.0 283.3 761.8 283.4 761.8 283.2 C 761.9 283.1 762.2 282.8 762.2 282.8 C 762.2 282.8 762.5 283.2 763.1 283.2 C 763.6 283.3 763.4 283.1 763.3 282.9 C 763.2 282.7 762.6 282.2 762.8 282.2 C 763.0 282.2 763.7 283.0 764.1 283.1 C 764.4 283.2 765.3 283.1 765.3 283.1 C 765.3 283.1 765.2 282.6 765.2 282.5 C 765.3 282.4 766.1 282.4 766.2 282.5 C 766.2 282.7 766.1 283.2 766.5 283.2 C 767.8 283.3 767.6 282.4 767.7 282.4 C 767.8 282.3 767.8 283.0 768.1 283.1 C 768.4 283.2 770.9 283.1 771.0 282.9 C 771.1 282.7 772.0 283.3 772.3 282.9 C 772.7 282.5 772.8 282.3 772.9 282.2 C 772.9 282.1 773.4 281.4 773.6 281.7 C 773.9 282.0 772.9 282.7 773.2 282.9 C 773.5 283.2 775.0 283.2 775.3 282.9 C 775.6 282.6 775.7 282.0 776.0 282.0 C 776.2 282.0 777.1 282.8 777.1 282.7 C 777.2 282.5 777.3 281.8 777.3 281.7 C 777.3 281.6 777.5 280.3 777.4 280.1 C 777.2 280.0 776.2 279.5 776.4 279.9 C 776.5 280.2 776.7 280.7 776.4 280.8 C 776.1 281.0 775.9 281.0 775.8 280.9 C 775.7 280.8 775.9 280.6 775.4 280.4 C 774.8 280.2 775.1 279.9 774.6 279.9 C 774.1 279.9 773.6 280.0 773.7 280.3 C 773.7 280.6 773.2 281.0 772.9 281.0 C 772.5 281.0 773.1 280.3 771.9 280.1 C 770.8 279.9 770.1 279.9 769.7 280.1 C 769.4 280.3 769.4 281.1 768.8 280.8 C 768.3 280.4 768.6 280.2 767.8 280.3 C 767.1 280.3 766.8 280.9 766.3 280.9 C 765.9 281.0 765.7 280.9 765.7 280.9 C 765.7 280.9 766.0 280.1 764.9 280.1 C 763.8 280.0 763.6 280.0 763.8 280.6 C 764.1 281.2 763.3 281.2 763.2 280.8 C 763.2 280.4 762.5 280.1 762.2 280.1 C 761.8 280.1 761.7 281.1 761.6 281.1 C 761.4 281.1 761.0 281.1 761.2 280.7 C 761.3 280.4 760.9 280.4 760.6 280.2 C 760.2 280.1 759.3 280.2 759.3 280.4 C 759.3 280.6 759.8 281.2 759.1 280.9 C 758.5 280.6 758.3 280.1 757.6 280.1 C 757.0 280.1 757.6 280.7 757.2 280.9 C 757.2 280.9 757.2 280.9 757.2 280.9 Z M 778.2 279.9 C 777.7 279.6 777.2 280.0 777.3 280.4 C 777.4 280.8 777.6 281.7 777.4 282.0 C 777.2 282.3 776.6 283.0 777.6 283.1 C 778.5 283.2 778.7 283.0 778.7 282.7 C 778.7 282.5 778.8 281.5 779.1 281.6 C 779.3 281.6 779.6 281.9 779.7 282.0 C 779.7 282.2 780.1 283.2 780.6 283.0 C 781.0 282.8 781.4 282.6 781.4 282.6 C 781.7 282.5 781.9 282.5 782.1 282.5 C 782.1 282.5 782.8 283.1 783.3 282.9 C 783.8 282.8 784.3 282.7 784.7 282.8 C 785.1 282.8 785.5 282.7 785.5 282.5 C 785.6 282.2 786.0 281.4 786.0 281.4 C 786.0 281.4 786.6 281.1 786.8 281.3 C 787.1 281.4 787.2 281.9 787.1 282.0 C 787.1 282.2 787.1 282.7 787.5 282.8 C 787.9 282.8 789.5 283.2 789.8 283.0 C 790.0 282.7 789.9 282.3 790.1 282.2 C 790.3 282.1 791.3 282.0 791.4 282.2 C 791.5 282.5 791.5 283.0 791.8 282.9 C 792.1 282.9 792.7 283.0 792.7 282.8 C 792.7 282.7 792.9 282.5 792.9 282.3 C 792.9 282.0 793.5 281.7 793.6 281.6 C 793.8 281.4 794.2 281.4 794.2 281.4 C 794.4 281.5 794.7 281.7 794.9 281.8 C 794.9 281.8 794.5 282.3 794.4 282.4 C 794.2 282.5 794.5 282.8 794.7 282.9 C 794.9 282.9 796.0 282.8 796.0 282.8 C 796.0 282.4 796.0 282.0 796.0 281.6 C 796.3 281.5 796.6 281.4 796.9 281.3 C 796.9 281.3 796.8 282.7 797.4 282.7 C 797.9 282.6 798.6 282.6 798.6 282.6 C 798.6 282.6 799.1 282.1 799.2 282.0 C 799.4 281.9 799.4 280.7 799.4 280.7 C 799.3 280.3 799.3 279.8 799.2 279.4 C 799.2 279.4 798.5 278.9 798.1 279.1 C 797.8 279.3 798.1 279.8 798.1 280.1 C 798.0 280.3 797.5 280.6 797.5 280.6 C 797.2 280.3 797.0 280.1 796.7 279.8 C 796.7 279.8 796.5 279.6 796.2 279.4 C 796.0 279.1 795.1 279.1 794.9 279.2 C 794.6 279.3 794.4 279.6 794.1 279.8 C 793.8 280.1 793.9 280.5 793.5 280.2 C 793.1 279.9 792.9 279.5 792.8 279.5 C 792.6 279.5 791.8 280.0 791.8 280.0 C 791.6 280.2 791.4 280.3 791.1 280.4 C 791.1 280.4 790.6 280.7 790.5 280.4 C 790.4 280.1 789.2 280.5 789.2 280.5 C 789.2 280.5 789.3 279.6 788.9 279.5 C 788.6 279.4 788.1 279.2 787.6 279.4 C 787.1 279.5 786.8 280.3 786.8 280.3 C 786.6 280.1 786.5 279.9 786.3 279.7 C 785.8 279.7 785.4 279.7 784.9 279.6 C 784.9 279.6 783.9 279.7 783.9 279.8 C 783.9 280.0 784.0 280.7 784.0 280.9 C 783.9 281.0 783.3 281.3 783.3 281.1 C 783.2 280.8 782.7 280.2 782.7 280.2 C 782.7 280.2 782.2 279.8 781.9 279.8 C 781.6 279.7 781.1 280.0 781.0 280.1 C 780.9 280.3 780.4 280.8 780.4 280.8 C 780.2 280.6 780.1 280.4 780.0 280.1 C 780.0 280.1 779.1 280.5 778.2 279.9 C 778.2 279.9 778.2 279.9 778.2 279.9 Z M 801.5 279.6 C 801.3 279.7 801.1 279.2 800.5 279.1 C 799.9 279.0 799.2 279.0 799.3 279.3 C 799.5 279.6 799.7 279.8 799.4 280.2 C 799.1 280.6 798.8 281.4 799.2 281.6 C 799.7 281.9 801.3 282.5 801.8 282.1 C 802.3 281.7 802.5 281.5 802.9 281.3 C 803.2 281.0 803.0 281.8 803.0 281.8 C 803.0 281.8 803.9 281.9 804.5 281.9 C 805.2 281.9 805.9 281.9 806.0 281.7 C 806.0 281.6 806.3 281.3 806.3 281.3 C 806.3 281.3 806.6 281.6 807.1 281.7 C 807.6 281.7 807.4 281.5 807.3 281.3 C 807.2 281.2 806.6 280.7 806.8 280.7 C 807.0 280.7 807.7 281.4 808.0 281.5 C 808.4 281.5 809.1 281.4 809.1 281.4 C 809.1 281.4 809.0 281.0 809.1 280.9 C 809.1 280.7 809.9 280.6 809.9 280.8 C 810.0 281.0 809.9 281.4 810.3 281.4 C 811.5 281.4 811.2 280.6 811.3 280.5 C 811.4 280.5 811.5 281.2 811.8 281.3 C 812.0 281.4 814.2 281.1 814.3 280.9 C 814.4 280.7 815.2 281.3 815.5 280.9 C 815.8 280.4 815.9 280.3 816.0 280.2 C 816.0 280.0 816.4 279.3 816.6 279.6 C 816.8 279.8 816.0 280.7 816.3 280.8 C 816.6 281.0 817.9 281.0 818.2 280.7 C 818.5 280.4 818.5 279.8 818.7 279.8 C 818.9 279.7 819.7 280.5 819.8 280.4 C 819.8 280.2 819.9 279.5 819.8 279.4 C 819.8 279.3 820.0 278.0 819.8 277.8 C 819.6 277.7 818.8 277.3 818.9 277.6 C 819.0 278.0 819.3 278.4 819.0 278.6 C 818.7 278.8 818.6 278.8 818.5 278.7 C 818.4 278.6 818.6 278.4 818.1 278.2 C 817.6 278.0 817.8 277.7 817.4 277.8 C 816.9 277.8 816.5 277.9 816.6 278.2 C 816.6 278.5 816.2 278.9 815.9 278.9 C 815.5 278.9 816.0 278.3 815.0 278.1 C 813.9 277.9 813.3 277.9 813.0 278.2 C 812.7 278.4 812.7 279.2 812.2 278.9 C 811.7 278.6 812.0 278.4 811.3 278.5 C 810.6 278.5 810.4 279.1 810.0 279.2 C 809.5 279.2 809.4 279.2 809.4 279.2 C 809.4 279.2 809.6 278.4 808.6 278.4 C 807.6 278.4 807.4 278.4 807.7 278.9 C 807.9 279.5 807.2 279.6 807.1 279.2 C 807.1 278.8 806.5 278.6 806.1 278.6 C 805.8 278.6 805.8 279.6 805.6 279.6 C 805.5 279.6 805.1 279.6 805.2 279.3 C 805.4 278.9 805.0 278.9 804.7 278.8 C 804.3 278.7 803.4 278.8 803.5 279.0 C 803.5 279.2 804.0 279.8 803.3 279.5 C 802.7 279.2 802.5 278.7 801.9 278.8 C 801.3 278.9 801.9 279.4 801.5 279.6 C 801.5 279.6 801.5 279.6 801.5 279.6 Z M 820.1 277.5 C 819.1 277.6 820.0 280.2 820.4 280.7 C 820.9 281.2 821.5 280.8 822.2 280.8 C 822.8 280.9 822.5 280.0 822.9 279.8 C 823.2 279.5 823.2 280.0 823.4 280.4 C 823.6 280.8 824.5 280.3 825.1 280.3 C 825.7 280.3 826.2 279.4 826.7 279.3 C 827.2 279.2 826.2 278.8 827.1 278.8 C 827.9 278.8 827.6 279.3 826.6 279.7 C 825.7 280.0 827.1 280.1 827.6 280.2 C 828.1 280.2 829.0 279.7 829.4 279.7 C 829.8 279.7 829.2 279.1 829.8 279.1 C 830.4 279.0 830.2 279.7 830.8 279.8 C 831.4 279.8 831.3 279.2 831.6 279.0 C 831.9 278.8 831.8 279.2 832.1 279.2 C 832.4 279.3 832.8 279.4 833.3 279.2 C 833.9 279.0 833.7 278.8 834.0 278.7 C 834.2 278.7 834.6 278.6 834.6 278.6 C 834.7 278.8 834.8 279.0 834.8 279.3 C 834.8 279.3 835.8 279.2 836.1 279.2 C 836.4 279.2 837.1 278.8 836.9 278.7 C 836.7 278.6 837.3 278.1 837.4 278.1 C 837.6 278.2 838.1 278.5 838.5 278.6 C 838.8 278.7 838.5 277.0 838.5 276.8 C 838.5 276.5 838.5 275.6 838.2 275.5 C 837.9 275.5 837.7 275.8 837.7 275.6 C 837.8 275.3 836.9 275.7 836.7 275.7 C 836.4 275.8 836.2 276.4 836.2 276.4 C 836.2 276.4 836.0 277.0 835.7 277.0 C 835.3 277.1 835.0 276.0 835.0 276.0 C 835.0 276.0 834.5 275.9 834.0 276.0 C 833.5 276.1 833.0 277.1 833.0 277.3 C 832.9 277.5 832.8 276.7 832.4 276.6 C 832.1 276.5 831.5 276.4 831.4 276.4 C 831.2 276.5 831.0 277.1 831.0 277.1 C 831.0 277.1 830.4 277.5 830.3 277.5 C 830.1 277.5 830.3 276.7 830.3 276.7 C 830.3 276.7 828.9 276.6 828.6 276.6 C 828.3 276.5 827.8 276.8 827.6 276.9 C 827.4 276.9 827.2 278.0 826.9 277.9 C 826.6 277.8 827.1 277.2 826.8 277.2 C 826.5 277.1 825.9 277.0 825.7 277.0 C 825.6 277.0 825.4 277.4 825.1 277.4 C 824.9 277.5 824.6 278.3 824.2 278.3 C 823.7 278.4 823.5 277.9 823.3 277.9 C 823.1 277.8 823.0 277.2 822.6 277.2 C 822.3 277.2 822.6 277.6 822.2 277.6 C 821.9 277.6 822.0 278.1 821.6 278.1 C 821.3 278.0 821.4 277.2 821.1 277.3 C 820.9 277.4 821.1 277.3 820.1 277.5 C 820.1 277.5 820.1 277.5 820.1 277.5 Z M 820.1 277.5 " fill="#B7282A"></path></g></g></g></svg>