<?xml version="1.0" encoding="UTF-8" standalone="no"?><svg xmlns="http://www.w3.org/2000/svg" xmlns:xlink="http://www.w3.org/1999/xlink" clip-rule="evenodd" stroke-miterlimit="4.00" viewBox="0 0 1024 768"><desc>SVG generated by Keynote</desc><defs></defs><g transform="matrix(1.00, 0.00, -0.00, -1.00, 0.0, 768.0)"><g><clipPath id="clip-2086"><path d="M 0.0 768.0 L 1024.0 768.0 L 1024.0 0.0 L 0.0 0.0 Z M 0.0 768.0 "></path></clipPath><g clip-path="url(#clip-2086)"><image xlink:href="../../41F9CECD-E746-4B6A-B57C-11EF94883B77/assets/A48D6513BC58F3BBF0655FD09F4A8718.jpeg" width="768.00" height="768.00" transform="matrix(1.33, 0.00, -0.00, -1.33, 0.0, 768.0)"></image></g></g><g opacity="0.30"><g><clipPath id="clip-2087"><path d="M 38.0 36.0 L 986.0 36.0 L 986.0 45.0 L 38.0 45.0 Z M 38.0 36.0 "></path></clipPath><g clip-path="url(#clip-2087)"><path d="M 0.0 0.0 L 944.0 0.0 " fill="none" stroke="#434343" stroke-width="6.00" transform="matrix(1.00, 0.00, 0.00, -1.00, 40.0, 40.0)"></path></g></g></g><g opacity="0.30"><g><clipPath id="clip-2088"><path d="M 38.0 726.0 L 986.0 726.0 L 986.0 730.0 L 38.0 730.0 Z M 38.0 726.0 "></path></clipPath><g clip-path="url(#clip-2088)"><path d="M 0.0 0.0 L 944.0 0.0 " fill="none" stroke="#434343" stroke-width="1.00" transform="matrix(1.00, 0.00, 0.00, -1.00, 40.0, 728.0)"></path></g></g></g><g><clipPath id="clip-2089"><path d="M 36.7 624.2 L 91.9 624.2 L 91.9 723.5 L 36.7 723.5 Z M 36.7 624.2 "></path></clipPath><g clip-path="url(#clip-2089)"><image xlink:href="../../41F9CECD-E746-4B6A-B57C-11EF94883B77/assets/8412EA7883B927C520D3E7200E74D714.png" width="55.00" height="100.00" transform="matrix(1.00, 0.00, -0.00, -1.00, 37.0, 724.0)"></image></g></g><g><clipPath id="clip-2090"><path d="M 111.4 651.0 L 492.6 651.0 L 492.6 712.7 L 111.4 712.7 Z M 111.4 651.0 "></path></clipPath><g clip-path="url(#clip-2090)"><text xml:space="preserve" font-family="GillSans" font-size="36.0" fill="#0B75FE" transform="matrix(1.00, 0.00, -0.00, -1.00, 122.0, 670.0)">C</text><text xml:space="preserve" font-family="GillSans" font-size="36.0" fill="#605F5F" transform="matrix(1.00, 0.00, -0.00, -1.00, 147.5, 670.0)">o</text><text xml:space="preserve" font-family="GillSans" font-size="36.0" fill="#605F5F" transform="matrix(1.00, 0.00, -0.00, -1.00, 167.3, 670.0)">m</text><text xml:space="preserve" font-family="GillSans" font-size="36.0" fill="#605F5F" transform="matrix(1.00, 0.00, -0.00, -1.00, 195.1, 670.0)">m</text><text xml:space="preserve" font-family="GillSans" font-size="36.0" fill="#605F5F" transform="matrix(1.00, 0.00, -0.00, -1.00, 222.5, 670.0)">u</text><text xml:space="preserve" font-family="GillSans" font-size="36.0" fill="#605F5F" transform="matrix(1.00, 0.00, -0.00, -1.00, 240.5, 670.0)">n</text><text xml:space="preserve" font-family="GillSans" font-size="36.0" fill="#605F5F" transform="matrix(1.00, 0.00, -0.00, -1.00, 258.5, 670.0)">i</text><text xml:space="preserve" font-family="GillSans" font-size="36.0" fill="#605F5F" transform="matrix(1.00, 0.00, -0.00, -1.00, 266.4, 670.0)">t</text><text xml:space="preserve" font-family="GillSans" font-size="36.0" fill="#605F5F" transform="matrix(1.00, 0.00, -0.00, -1.00, 278.4, 670.0)">y</text><text xml:space="preserve" font-family="GillSans" font-size="36.0" fill="#605F5F" transform="matrix(1.00, 0.00, -0.00, -1.00, 294.2, 670.0)"> </text><text xml:space="preserve" font-family="GillSans" font-size="36.0" fill="#FDA602" transform="matrix(1.00, 0.00, -0.00, -1.00, 304.2, 670.0)">C</text><text xml:space="preserve" font-family="GillSans" font-size="36.0" fill="#605F5F" transform="matrix(1.00, 0.00, -0.00, -1.00, 329.7, 670.0)">o</text><text xml:space="preserve" font-family="GillSans" font-size="36.0" fill="#605F5F" transform="matrix(1.00, 0.00, -0.00, -1.00, 349.5, 670.0)">u</text><text xml:space="preserve" font-family="GillSans" font-size="36.0" fill="#605F5F" transform="matrix(1.00, 0.00, -0.00, -1.00, 367.5, 670.0)">n</text><text xml:space="preserve" font-family="GillSans" font-size="36.0" fill="#605F5F" transform="matrix(1.00, 0.00, -0.00, -1.00, 385.5, 670.0)">t</text><text xml:space="preserve" font-family="GillSans" font-size="36.0" fill="#605F5F" transform="matrix(1.00, 0.00, -0.00, -1.00, 397.5, 670.0)">s</text><text xml:space="preserve" font-family="GillSans" font-size="36.0" fill="#605F5F" transform="matrix(1.00, 0.00, -0.00, -1.00, 411.3, 670.0)"> </text><text xml:space="preserve" font-family="GillSans" font-size="36.0" fill="#605F5F" transform="matrix(1.00, 0.00, -0.00, -1.00, 415.9, 670.0)">V</text><text xml:space="preserve" font-family="GillSans" font-size="36.0" fill="#605F5F" transform="matrix(1.00, 0.00, -0.00, -1.00, 437.7, 670.0)">3</text><text xml:space="preserve" font-family="GillSans" font-size="36.0" fill="#605F5F" transform="matrix(1.00, 0.00, -0.00, -1.00, 455.7, 670.0)">.</text><text xml:space="preserve" font-family="GillSans" font-size="36.0" fill="#605F5F" transform="matrix(1.00, 0.00, -0.00, -1.00, 463.6, 670.0)">0</text></g></g><g><clipPath id="clip-2091"><path d="M 536.0 580.0 L 975.0 580.0 L 975.0 290.0 L 536.0 290.0 Z M 535.5 580.0 "></path></clipPath><g clip-path="url(#clip-2091)"><image xlink:href="../../5AE2B94E-7B59-4B73-BE0B-C5C5FD7D2C5C/assets/0F7F28A647223605989A5E7406954667.png" width="440.00" height="287.00" transform="matrix(1.00, 0.00, -0.00, -1.00, 536.0, 579.0)"></image></g></g><image xlink:href="../../5AE2B94E-7B59-4B73-BE0B-C5C5FD7D2C5C/assets/55FF971930B06FCA3408486D7A7BABCB.png" width="459.00" height="316.00" transform="matrix(1.00, 0.00, -0.00, 1.00, 525.5, 271.1)"></image><text xml:space="preserve" font-family="GillSans-Light" font-size="64.0" fill="#605F5F" transform="matrix(1.00, 0.00, -0.00, -1.00, 44.0, 518.0)">P</text><text xml:space="preserve" font-family="GillSans-Light" font-size="64.0" fill="#605F5F" transform="matrix(1.00, 0.00, -0.00, -1.00, 76.6, 518.0)">L</text><text xml:space="preserve" font-family="GillSans-Light" font-size="64.0" fill="#605F5F" transform="matrix(1.00, 0.00, -0.00, -1.00, 106.7, 518.0)">A</text><text xml:space="preserve" font-family="GillSans-Light" font-size="64.0" fill="#605F5F" transform="matrix(1.00, 0.00, -0.00, -1.00, 149.3, 518.0)">N</text><text xml:space="preserve" font-family="GillSans-Light" font-size="64.0" fill="#605F5F" transform="matrix(1.00, 0.00, -0.00, -1.00, 198.7, 518.0)">S</text><text xml:space="preserve" font-family="GillSans-Light" font-size="64.0" fill="#605F5F" transform="matrix(1.00, 0.00, -0.00, -1.00, 228.7, 518.0)">…</text><text xml:space="preserve" font-family="GillSans-Light" font-size="64.0" fill="#605F5F" transform="matrix(1.00, 0.00, -0.00, -1.00, 292.7, 518.0)">.</text><g><clipPath id="clip-2092"><path d="M 43.3 458.5 L 51.5 458.5 L 51.5 450.3 L 43.3 450.3 Z M 43.3 458.5 "></path></clipPath><g clip-path="url(#clip-2092)"><g><clipPath id="clip-2093"><path d="M 44.0 451.0 L 50.9 451.0 L 50.9 457.9 L 44.0 457.9 Z M 44.0 451.0 "></path></clipPath><g clip-path="url(#clip-2093)"><path d="M 50.9 451.0 L 44.0 451.0 L 44.0 457.9 L 50.9 457.9 Z M 50.9 451.0 " fill="#BDBDBD"></path></g></g></g></g><text xml:space="preserve" font-family="GillSans" font-size="19.9" fill="#605F5F" transform="matrix(1.00, 0.00, -0.00, -1.00, 63.0, 449.0)">C</text><text xml:space="preserve" font-family="GillSans" font-size="19.9" fill="#605F5F" transform="matrix(1.00, 0.00, -0.00, -1.00, 77.1, 449.0)">o</text><text xml:space="preserve" font-family="GillSans" font-size="19.9" fill="#605F5F" transform="matrix(1.00, 0.00, -0.00, -1.00, 88.1, 449.0)">d</text><text xml:space="preserve" font-family="GillSans" font-size="19.9" fill="#605F5F" transform="matrix(1.00, 0.00, -0.00, -1.00, 98.2, 449.0)">e</text><text xml:space="preserve" font-family="GillSans" font-size="19.9" fill="#605F5F" transform="matrix(1.00, 0.00, -0.00, -1.00, 107.8, 449.0)">p</text><text xml:space="preserve" font-family="GillSans" font-size="19.9" fill="#605F5F" transform="matrix(1.00, 0.00, -0.00, -1.00, 117.7, 449.0)">o</text><text xml:space="preserve" font-family="GillSans" font-size="19.9" fill="#605F5F" transform="matrix(1.00, 0.00, -0.00, -1.00, 128.7, 449.0)">i</text><text xml:space="preserve" font-family="GillSans" font-size="19.9" fill="#605F5F" transform="matrix(1.00, 0.00, -0.00, -1.00, 133.1, 449.0)">n</text><text xml:space="preserve" font-family="GillSans" font-size="19.9" fill="#605F5F" transform="matrix(1.00, 0.00, -0.00, -1.00, 143.1, 449.0)">t</text><text xml:space="preserve" font-family="GillSans" font-size="19.9" fill="#605F5F" transform="matrix(1.00, 0.00, -0.00, -1.00, 149.7, 449.0)"> </text><text xml:space="preserve" font-family="GillSans" font-size="19.9" fill="#605F5F" transform="matrix(1.00, 0.00, -0.00, -1.00, 155.2, 449.0)">(</text><text xml:space="preserve" font-family="GillSans" font-size="19.9" fill="#605F5F" transform="matrix(1.00, 0.00, -0.00, -1.00, 161.7, 449.0)">P</text><text xml:space="preserve" font-family="GillSans" font-size="19.9" fill="#605F5F" transform="matrix(1.00, 0.00, -0.00, -1.00, 171.3, 449.0)">o</text><text xml:space="preserve" font-family="GillSans" font-size="19.9" fill="#605F5F" transform="matrix(1.00, 0.00, -0.00, -1.00, 182.3, 449.0)">s</text><text xml:space="preserve" font-family="GillSans" font-size="19.9" fill="#605F5F" transform="matrix(1.00, 0.00, -0.00, -1.00, 190.0, 449.0)">t</text><text xml:space="preserve" font-family="GillSans" font-size="19.9" fill="#605F5F" transform="matrix(1.00, 0.00, -0.00, -1.00, 196.6, 449.0)">c</text><text xml:space="preserve" font-family="GillSans" font-size="19.9" fill="#605F5F" transform="matrix(1.00, 0.00, -0.00, -1.00, 205.3, 449.0)">o</text><text xml:space="preserve" font-family="GillSans" font-size="19.9" fill="#605F5F" transform="matrix(1.00, 0.00, -0.00, -1.00, 216.3, 449.0)">d</text><text xml:space="preserve" font-family="GillSans" font-size="19.9" fill="#605F5F" transform="matrix(1.00, 0.00, -0.00, -1.00, 226.5, 449.0)">e</text><text xml:space="preserve" font-family="GillSans" font-size="19.9" fill="#605F5F" transform="matrix(1.00, 0.00, -0.00, -1.00, 236.0, 449.0)">s</text><text xml:space="preserve" font-family="GillSans" font-size="19.9" fill="#605F5F" transform="matrix(1.00, 0.00, -0.00, -1.00, 243.7, 449.0)">)</text><text xml:space="preserve" font-family="GillSans" font-size="19.9" fill="#605F5F" transform="matrix(1.00, 0.00, -0.00, -1.00, 250.1, 449.0)"> </text><text xml:space="preserve" font-family="GillSans" font-size="19.9" fill="#605F5F" transform="matrix(1.00, 0.00, -0.00, -1.00, 255.6, 449.0)">u</text><text xml:space="preserve" font-family="GillSans" font-size="19.9" fill="#605F5F" transform="matrix(1.00, 0.00, -0.00, -1.00, 265.6, 449.0)">p</text><text xml:space="preserve" font-family="GillSans" font-size="19.9" fill="#605F5F" transform="matrix(1.00, 0.00, -0.00, -1.00, 275.6, 449.0)">d</text><text xml:space="preserve" font-family="GillSans" font-size="19.9" fill="#605F5F" transform="matrix(1.00, 0.00, -0.00, -1.00, 285.7, 449.0)">a</text><text xml:space="preserve" font-family="GillSans" font-size="19.9" fill="#605F5F" transform="matrix(1.00, 0.00, -0.00, -1.00, 294.2, 449.0)">t</text><text xml:space="preserve" font-family="GillSans" font-size="19.9" fill="#605F5F" transform="matrix(1.00, 0.00, -0.00, -1.00, 300.8, 449.0)">e</text><text xml:space="preserve" font-family="GillSans" font-size="19.9" fill="#605F5F" transform="matrix(1.00, 0.00, -0.00, -1.00, 310.4, 449.0)"> </text><text xml:space="preserve" font-family="GillSans" font-size="19.9" fill="#605F5F" transform="matrix(1.00, 0.00, -0.00, -1.00, 315.9, 449.0)">e</text><text xml:space="preserve" font-family="GillSans" font-size="19.9" fill="#605F5F" transform="matrix(1.00, 0.00, -0.00, -1.00, 325.2, 449.0)">v</text><text xml:space="preserve" font-family="GillSans" font-size="19.9" fill="#605F5F" transform="matrix(1.00, 0.00, -0.00, -1.00, 333.5, 449.0)">e</text><text xml:space="preserve" font-family="GillSans" font-size="19.9" fill="#605F5F" transform="matrix(1.00, 0.00, -0.00, -1.00, 343.0, 449.0)">r</text><text xml:space="preserve" font-family="GillSans" font-size="19.9" fill="#605F5F" transform="matrix(1.00, 0.00, -0.00, -1.00, 351.5, 449.0)">y</text><text xml:space="preserve" font-family="GillSans" font-size="19.9" fill="#605F5F" transform="matrix(1.00, 0.00, -0.00, -1.00, 360.2, 449.0)"> </text><text xml:space="preserve" font-family="GillSans" font-size="19.9" fill="#605F5F" transform="matrix(1.00, 0.00, -0.00, -1.00, 365.8, 449.0)">q</text><text xml:space="preserve" font-family="GillSans" font-size="19.9" fill="#605F5F" transform="matrix(1.00, 0.00, -0.00, -1.00, 375.7, 449.0)">u</text><text xml:space="preserve" font-family="GillSans" font-size="19.9" fill="#605F5F" transform="matrix(1.00, 0.00, -0.00, -1.00, 385.7, 449.0)">a</text><text xml:space="preserve" font-family="GillSans" font-size="19.9" fill="#605F5F" transform="matrix(1.00, 0.00, -0.00, -1.00, 394.2, 449.0)">r</text><text xml:space="preserve" font-family="GillSans" font-size="19.9" fill="#605F5F" transform="matrix(1.00, 0.00, -0.00, -1.00, 402.5, 449.0)">t</text><text xml:space="preserve" font-family="GillSans" font-size="19.9" fill="#605F5F" transform="matrix(1.00, 0.00, -0.00, -1.00, 409.1, 449.0)">e</text><text xml:space="preserve" font-family="GillSans" font-size="19.9" fill="#605F5F" transform="matrix(1.00, 0.00, -0.00, -1.00, 418.6, 449.0)">r</text><text xml:space="preserve" font-family="GillSans" font-size="19.9" fill="#605F5F" transform="matrix(1.00, 0.00, -0.00, -1.00, 426.5, 449.0)"> </text><g><clipPath id="clip-2094"><path d="M 43.3 430.9 L 51.5 430.9 L 51.5 422.7 L 43.3 422.7 Z M 43.3 430.9 "></path></clipPath><g clip-path="url(#clip-2094)"><g><clipPath id="clip-2095"><path d="M 44.0 423.4 L 50.9 423.4 L 50.9 430.3 L 44.0 430.3 Z M 44.0 423.4 "></path></clipPath><g clip-path="url(#clip-2095)"><path d="M 50.9 423.4 L 44.0 423.4 L 44.0 430.3 L 50.9 430.3 Z M 50.9 423.4 " fill="#BDBDBD"></path></g></g></g></g><text xml:space="preserve" font-family="GillSans" font-size="19.9" fill="#605F5F" transform="matrix(1.00, 0.00, -0.00, -1.00, 63.0, 421.0)">D</text><text xml:space="preserve" font-family="GillSans" font-size="19.9" fill="#605F5F" transform="matrix(1.00, 0.00, -0.00, -1.00, 77.9, 421.0)">a</text><text xml:space="preserve" font-family="GillSans" font-size="19.9" fill="#605F5F" transform="matrix(1.00, 0.00, -0.00, -1.00, 86.4, 421.0)">t</text><text xml:space="preserve" font-family="GillSans" font-size="19.9" fill="#605F5F" transform="matrix(1.00, 0.00, -0.00, -1.00, 93.1, 421.0)">a</text><text xml:space="preserve" font-family="GillSans" font-size="19.9" fill="#605F5F" transform="matrix(1.00, 0.00, -0.00, -1.00, 101.6, 421.0)"> </text><text xml:space="preserve" font-family="GillSans" font-size="19.9" fill="#605F5F" transform="matrix(1.00, 0.00, -0.00, -1.00, 107.1, 421.0)">D</text><text xml:space="preserve" font-family="GillSans" font-size="19.9" fill="#605F5F" transform="matrix(1.00, 0.00, -0.00, -1.00, 122.0, 421.0)">i</text><text xml:space="preserve" font-family="GillSans" font-size="19.9" fill="#605F5F" transform="matrix(1.00, 0.00, -0.00, -1.00, 126.4, 421.0)">c</text><text xml:space="preserve" font-family="GillSans" font-size="19.9" fill="#605F5F" transform="matrix(1.00, 0.00, -0.00, -1.00, 135.1, 421.0)">t</text><text xml:space="preserve" font-family="GillSans" font-size="19.9" fill="#605F5F" transform="matrix(1.00, 0.00, -0.00, -1.00, 141.8, 421.0)">i</text><text xml:space="preserve" font-family="GillSans" font-size="19.9" fill="#605F5F" transform="matrix(1.00, 0.00, -0.00, -1.00, 146.1, 421.0)">o</text><text xml:space="preserve" font-family="GillSans" font-size="19.9" fill="#605F5F" transform="matrix(1.00, 0.00, -0.00, -1.00, 157.1, 421.0)">n</text><text xml:space="preserve" font-family="GillSans" font-size="19.9" fill="#605F5F" transform="matrix(1.00, 0.00, -0.00, -1.00, 167.1, 421.0)">a</text><text xml:space="preserve" font-family="GillSans" font-size="19.9" fill="#605F5F" transform="matrix(1.00, 0.00, -0.00, -1.00, 175.6, 421.0)">r</text><text xml:space="preserve" font-family="GillSans" font-size="19.9" fill="#605F5F" transform="matrix(1.00, 0.00, -0.00, -1.00, 184.1, 421.0)">y</text><text xml:space="preserve" font-family="GillSans" font-size="19.9" fill="#605F5F" transform="matrix(1.00, 0.00, -0.00, -1.00, 192.8, 421.0)"> </text><text xml:space="preserve" font-family="GillSans" font-size="19.9" fill="#605F5F" transform="matrix(1.00, 0.00, -0.00, -1.00, 198.3, 421.0)">t</text><text xml:space="preserve" font-family="GillSans" font-size="19.9" fill="#605F5F" transform="matrix(1.00, 0.00, -0.00, -1.00, 205.0, 421.0)">h</text><text xml:space="preserve" font-family="GillSans" font-size="19.9" fill="#605F5F" transform="matrix(1.00, 0.00, -0.00, -1.00, 214.9, 421.0)">i</text><text xml:space="preserve" font-family="GillSans" font-size="19.9" fill="#605F5F" transform="matrix(1.00, 0.00, -0.00, -1.00, 219.3, 421.0)">n</text><text xml:space="preserve" font-family="GillSans" font-size="19.9" fill="#605F5F" transform="matrix(1.00, 0.00, -0.00, -1.00, 229.2, 421.0)">g</text><text xml:space="preserve" font-family="GillSans" font-size="19.9" fill="#605F5F" transform="matrix(1.00, 0.00, -0.00, -1.00, 237.7, 421.0)">i</text><text xml:space="preserve" font-family="GillSans" font-size="19.9" fill="#605F5F" transform="matrix(1.00, 0.00, -0.00, -1.00, 242.1, 421.0)">e</text><text xml:space="preserve" font-family="GillSans" font-size="19.9" fill="#605F5F" transform="matrix(1.00, 0.00, -0.00, -1.00, 251.7, 421.0)">s</text><text xml:space="preserve" font-family="GillSans" font-size="19.9" fill="#605F5F" transform="matrix(1.00, 0.00, -0.00, -1.00, 259.3, 421.0)"> </text><text xml:space="preserve" font-family="GillSans" font-size="19.9" fill="#605F5F" transform="matrix(1.00, 0.00, -0.00, -1.00, 264.8, 421.0)">f</text><text xml:space="preserve" font-family="GillSans" font-size="19.9" fill="#605F5F" transform="matrix(1.00, 0.00, -0.00, -1.00, 269.6, 421.0)">o</text><text xml:space="preserve" font-family="GillSans" font-size="19.9" fill="#605F5F" transform="matrix(1.00, 0.00, -0.00, -1.00, 280.6, 421.0)">r</text><text xml:space="preserve" font-family="GillSans" font-size="19.9" fill="#605F5F" transform="matrix(1.00, 0.00, -0.00, -1.00, 288.5, 421.0)"> </text><text xml:space="preserve" font-family="GillSans" font-size="19.9" fill="#605F5F" transform="matrix(1.00, 0.00, -0.00, -1.00, 294.0, 421.0)">C</text><text xml:space="preserve" font-family="GillSans" font-size="19.9" fill="#605F5F" transform="matrix(1.00, 0.00, -0.00, -1.00, 308.1, 421.0)">a</text><text xml:space="preserve" font-family="GillSans" font-size="19.9" fill="#605F5F" transform="matrix(1.00, 0.00, -0.00, -1.00, 316.6, 421.0)">s</text><text xml:space="preserve" font-family="GillSans" font-size="19.9" fill="#605F5F" transform="matrix(1.00, 0.00, -0.00, -1.00, 324.3, 421.0)">e</text><text xml:space="preserve" font-family="GillSans" font-size="19.9" fill="#605F5F" transform="matrix(1.00, 0.00, -0.00, -1.00, 333.5, 421.0)">w</text><text xml:space="preserve" font-family="GillSans" font-size="19.9" fill="#605F5F" transform="matrix(1.00, 0.00, -0.00, -1.00, 347.5, 421.0)">o</text><text xml:space="preserve" font-family="GillSans" font-size="19.9" fill="#605F5F" transform="matrix(1.00, 0.00, -0.00, -1.00, 358.5, 421.0)">r</text><text xml:space="preserve" font-family="GillSans" font-size="19.9" fill="#605F5F" transform="matrix(1.00, 0.00, -0.00, -1.00, 366.3, 421.0)">k</text><text xml:space="preserve" font-family="GillSans" font-size="19.9" fill="#605F5F" transform="matrix(1.00, 0.00, -0.00, -1.00, 375.9, 421.0)">i</text><text xml:space="preserve" font-family="GillSans" font-size="19.9" fill="#605F5F" transform="matrix(1.00, 0.00, -0.00, -1.00, 380.3, 421.0)">n</text><text xml:space="preserve" font-family="GillSans" font-size="19.9" fill="#605F5F" transform="matrix(1.00, 0.00, -0.00, -1.00, 390.2, 421.0)">g</text><text xml:space="preserve" font-family="GillSans" font-size="19.9" fill="#605F5F" transform="matrix(1.00, 0.00, -0.00, -1.00, 398.7, 421.0)"> </text><text xml:space="preserve" font-family="GillSans" font-size="19.9" fill="#605F5F" transform="matrix(1.00, 0.00, -0.00, -1.00, 404.2, 421.0)">a</text><text xml:space="preserve" font-family="GillSans" font-size="19.9" fill="#605F5F" transform="matrix(1.00, 0.00, -0.00, -1.00, 412.7, 421.0)">n</text><text xml:space="preserve" font-family="GillSans" font-size="19.9" fill="#605F5F" transform="matrix(1.00, 0.00, -0.00, -1.00, 422.7, 421.0)">d</text><text xml:space="preserve" font-family="GillSans" font-size="19.9" fill="#605F5F" transform="matrix(1.00, 0.00, -0.00, -1.00, 432.9, 421.0)"> </text><text xml:space="preserve" font-family="GillSans" font-size="19.9" fill="#605F5F" transform="matrix(1.00, 0.00, -0.00, -1.00, 438.4, 421.0)">N</text><text xml:space="preserve" font-family="GillSans" font-size="19.9" fill="#605F5F" transform="matrix(1.00, 0.00, -0.00, -1.00, 453.9, 421.0)">e</text><text xml:space="preserve" font-family="GillSans" font-size="19.9" fill="#605F5F" transform="matrix(1.00, 0.00, -0.00, -1.00, 463.5, 421.0)">e</text><text xml:space="preserve" font-family="GillSans" font-size="19.9" fill="#605F5F" transform="matrix(1.00, 0.00, -0.00, -1.00, 473.0, 421.0)">d</text><text xml:space="preserve" font-family="GillSans" font-size="19.9" fill="#605F5F" transform="matrix(1.00, 0.00, -0.00, -1.00, 483.2, 421.0)">s</text><g><clipPath id="clip-2096"><path d="M 43.3 403.3 L 51.5 403.3 L 51.5 395.1 L 43.3 395.1 Z M 43.3 403.3 "></path></clipPath><g clip-path="url(#clip-2096)"><g><clipPath id="clip-2097"><path d="M 44.0 395.8 L 50.9 395.8 L 50.9 402.7 L 44.0 402.7 Z M 44.0 395.8 "></path></clipPath><g clip-path="url(#clip-2097)"><path d="M 50.9 395.8 L 44.0 395.8 L 44.0 402.7 L 50.9 402.7 Z M 50.9 395.8 " fill="#BDBDBD"></path></g></g></g></g><text xml:space="preserve" font-family="GillSans" font-size="19.9" fill="#605F5F" transform="matrix(1.00, 0.00, -0.00, -1.00, 63.0, 393.0)">M</text><text xml:space="preserve" font-family="GillSans" font-size="19.9" fill="#605F5F" transform="matrix(1.00, 0.00, -0.00, -1.00, 78.5, 393.0)">o</text><text xml:space="preserve" font-family="GillSans" font-size="19.9" fill="#605F5F" transform="matrix(1.00, 0.00, -0.00, -1.00, 89.3, 393.0)">v</text><text xml:space="preserve" font-family="GillSans" font-size="19.9" fill="#605F5F" transform="matrix(1.00, 0.00, -0.00, -1.00, 97.7, 393.0)">e</text><text xml:space="preserve" font-family="GillSans" font-size="19.9" fill="#605F5F" transform="matrix(1.00, 0.00, -0.00, -1.00, 107.2, 393.0)"> </text><text xml:space="preserve" font-family="GillSans" font-size="19.9" fill="#605F5F" transform="matrix(1.00, 0.00, -0.00, -1.00, 112.7, 393.0)">C</text><text xml:space="preserve" font-family="GillSans" font-size="19.9" fill="#605F5F" transform="matrix(1.00, 0.00, -0.00, -1.00, 126.8, 393.0)">o</text><text xml:space="preserve" font-family="GillSans" font-size="19.9" fill="#605F5F" transform="matrix(1.00, 0.00, -0.00, -1.00, 137.8, 393.0)">m</text><text xml:space="preserve" font-family="GillSans" font-size="19.9" fill="#605F5F" transform="matrix(1.00, 0.00, -0.00, -1.00, 153.2, 393.0)">m</text><text xml:space="preserve" font-family="GillSans" font-size="19.9" fill="#605F5F" transform="matrix(1.00, 0.00, -0.00, -1.00, 168.4, 393.0)">u</text><text xml:space="preserve" font-family="GillSans" font-size="19.9" fill="#605F5F" transform="matrix(1.00, 0.00, -0.00, -1.00, 178.3, 393.0)">n</text><text xml:space="preserve" font-family="GillSans" font-size="19.9" fill="#605F5F" transform="matrix(1.00, 0.00, -0.00, -1.00, 188.3, 393.0)">i</text><text xml:space="preserve" font-family="GillSans" font-size="19.9" fill="#605F5F" transform="matrix(1.00, 0.00, -0.00, -1.00, 192.6, 393.0)">t</text><text xml:space="preserve" font-family="GillSans" font-size="19.9" fill="#605F5F" transform="matrix(1.00, 0.00, -0.00, -1.00, 199.3, 393.0)">y</text><text xml:space="preserve" font-family="GillSans" font-size="19.9" fill="#605F5F" transform="matrix(1.00, 0.00, -0.00, -1.00, 208.0, 393.0)"> </text><text xml:space="preserve" font-family="GillSans" font-size="19.9" fill="#605F5F" transform="matrix(1.00, 0.00, -0.00, -1.00, 213.5, 393.0)">C</text><text xml:space="preserve" font-family="GillSans" font-size="19.9" fill="#605F5F" transform="matrix(1.00, 0.00, -0.00, -1.00, 227.6, 393.0)">o</text><text xml:space="preserve" font-family="GillSans" font-size="19.9" fill="#605F5F" transform="matrix(1.00, 0.00, -0.00, -1.00, 238.6, 393.0)">u</text><text xml:space="preserve" font-family="GillSans" font-size="19.9" fill="#605F5F" transform="matrix(1.00, 0.00, -0.00, -1.00, 248.6, 393.0)">n</text><text xml:space="preserve" font-family="GillSans" font-size="19.9" fill="#605F5F" transform="matrix(1.00, 0.00, -0.00, -1.00, 258.5, 393.0)">t</text><text xml:space="preserve" font-family="GillSans" font-size="19.9" fill="#605F5F" transform="matrix(1.00, 0.00, -0.00, -1.00, 265.2, 393.0)">s</text><text xml:space="preserve" font-family="GillSans" font-size="19.9" fill="#605F5F" transform="matrix(1.00, 0.00, -0.00, -1.00, 272.8, 393.0)"> </text><text xml:space="preserve" font-family="GillSans" font-size="19.9" fill="#605F5F" transform="matrix(1.00, 0.00, -0.00, -1.00, 278.4, 393.0)">o</text><text xml:space="preserve" font-family="GillSans" font-size="19.9" fill="#605F5F" transform="matrix(1.00, 0.00, -0.00, -1.00, 289.4, 393.0)">f</text><text xml:space="preserve" font-family="GillSans" font-size="19.9" fill="#605F5F" transform="matrix(1.00, 0.00, -0.00, -1.00, 294.3, 393.0)">f</text><text xml:space="preserve" font-family="GillSans" font-size="19.9" fill="#605F5F" transform="matrix(1.00, 0.00, -0.00, -1.00, 299.3, 393.0)"> </text><text xml:space="preserve" font-family="GillSans" font-size="19.9" fill="#605F5F" transform="matrix(1.00, 0.00, -0.00, -1.00, 304.8, 393.0)">B</text><text xml:space="preserve" font-family="GillSans" font-size="19.9" fill="#605F5F" transform="matrix(1.00, 0.00, -0.00, -1.00, 316.1, 393.0)">H</text><text xml:space="preserve" font-family="GillSans" font-size="19.9" fill="#605F5F" transform="matrix(1.00, 0.00, -0.00, -1.00, 330.6, 393.0)">L</text><text xml:space="preserve" font-family="GillSans" font-size="19.9" fill="#605F5F" transform="matrix(1.00, 0.00, -0.00, -1.00, 340.3, 393.0)">C</text><text xml:space="preserve" font-family="GillSans" font-size="19.9" fill="#605F5F" transform="matrix(1.00, 0.00, -0.00, -1.00, 354.5, 393.0)"> </text><text xml:space="preserve" font-family="GillSans" font-size="19.9" fill="#605F5F" transform="matrix(1.00, 0.00, -0.00, -1.00, 360.0, 393.0)">h</text><text xml:space="preserve" font-family="GillSans" font-size="19.9" fill="#605F5F" transform="matrix(1.00, 0.00, -0.00, -1.00, 369.9, 393.0)">a</text><text xml:space="preserve" font-family="GillSans" font-size="19.9" fill="#605F5F" transform="matrix(1.00, 0.00, -0.00, -1.00, 378.4, 393.0)">r</text><text xml:space="preserve" font-family="GillSans" font-size="19.9" fill="#605F5F" transform="matrix(1.00, 0.00, -0.00, -1.00, 386.0, 393.0)">d</text><text xml:space="preserve" font-family="GillSans" font-size="19.9" fill="#605F5F" transform="matrix(1.00, 0.00, -0.00, -1.00, 396.2, 393.0)">w</text><text xml:space="preserve" font-family="GillSans" font-size="19.9" fill="#605F5F" transform="matrix(1.00, 0.00, -0.00, -1.00, 410.5, 393.0)">a</text><text xml:space="preserve" font-family="GillSans" font-size="19.9" fill="#605F5F" transform="matrix(1.00, 0.00, -0.00, -1.00, 419.0, 393.0)">r</text><text xml:space="preserve" font-family="GillSans" font-size="19.9" fill="#605F5F" transform="matrix(1.00, 0.00, -0.00, -1.00, 426.5, 393.0)">e</text><g><clipPath id="clip-2098"><path d="M 43.3 375.7 L 51.5 375.7 L 51.5 367.5 L 43.3 367.5 Z M 43.3 375.7 "></path></clipPath><g clip-path="url(#clip-2098)"><g><clipPath id="clip-2099"><path d="M 44.0 368.2 L 50.9 368.2 L 50.9 375.1 L 44.0 375.1 Z M 44.0 368.2 "></path></clipPath><g clip-path="url(#clip-2099)"><path d="M 50.9 368.2 L 44.0 368.2 L 44.0 375.1 L 50.9 375.1 Z M 50.9 368.2 " fill="#BDBDBD"></path></g></g></g></g><text xml:space="preserve" font-family="GillSans" font-size="19.9" fill="#605F5F" transform="matrix(1.00, 0.00, -0.00, -1.00, 63.0, 366.0)">D</text><text xml:space="preserve" font-family="GillSans" font-size="19.9" fill="#605F5F" transform="matrix(1.00, 0.00, -0.00, -1.00, 77.9, 366.0)">o</text><text xml:space="preserve" font-family="GillSans" font-size="19.9" fill="#605F5F" transform="matrix(1.00, 0.00, -0.00, -1.00, 88.9, 366.0)">c</text><text xml:space="preserve" font-family="GillSans" font-size="19.9" fill="#605F5F" transform="matrix(1.00, 0.00, -0.00, -1.00, 97.7, 366.0)">u</text><text xml:space="preserve" font-family="GillSans" font-size="19.9" fill="#605F5F" transform="matrix(1.00, 0.00, -0.00, -1.00, 107.6, 366.0)">m</text><text xml:space="preserve" font-family="GillSans" font-size="19.9" fill="#605F5F" transform="matrix(1.00, 0.00, -0.00, -1.00, 123.0, 366.0)">e</text><text xml:space="preserve" font-family="GillSans" font-size="19.9" fill="#605F5F" transform="matrix(1.00, 0.00, -0.00, -1.00, 132.5, 366.0)">n</text><text xml:space="preserve" font-family="GillSans" font-size="19.9" fill="#605F5F" transform="matrix(1.00, 0.00, -0.00, -1.00, 142.5, 366.0)">t</text><text xml:space="preserve" font-family="GillSans" font-size="19.9" fill="#605F5F" transform="matrix(1.00, 0.00, -0.00, -1.00, 149.1, 366.0)"> </text><text xml:space="preserve" font-family="GillSans" font-size="19.9" fill="#605F5F" transform="matrix(1.00, 0.00, -0.00, -1.00, 154.6, 366.0)">s</text><text xml:space="preserve" font-family="GillSans" font-size="19.9" fill="#605F5F" transform="matrix(1.00, 0.00, -0.00, -1.00, 162.3, 366.0)">u</text><text xml:space="preserve" font-family="GillSans" font-size="19.9" fill="#605F5F" transform="matrix(1.00, 0.00, -0.00, -1.00, 172.3, 366.0)">p</text><text xml:space="preserve" font-family="GillSans" font-size="19.9" fill="#605F5F" transform="matrix(1.00, 0.00, -0.00, -1.00, 182.2, 366.0)">p</text><text xml:space="preserve" font-family="GillSans" font-size="19.9" fill="#605F5F" transform="matrix(1.00, 0.00, -0.00, -1.00, 192.2, 366.0)">o</text><text xml:space="preserve" font-family="GillSans" font-size="19.9" fill="#605F5F" transform="matrix(1.00, 0.00, -0.00, -1.00, 203.2, 366.0)">r</text><text xml:space="preserve" font-family="GillSans" font-size="19.9" fill="#605F5F" transform="matrix(1.00, 0.00, -0.00, -1.00, 211.4, 366.0)">t</text><text xml:space="preserve" font-family="GillSans" font-size="19.9" fill="#605F5F" transform="matrix(1.00, 0.00, -0.00, -1.00, 218.1, 366.0)"> </text><text xml:space="preserve" font-family="GillSans" font-size="19.9" fill="#605F5F" transform="matrix(1.00, 0.00, -0.00, -1.00, 223.6, 366.0)">f</text><text xml:space="preserve" font-family="GillSans" font-size="19.9" fill="#605F5F" transform="matrix(1.00, 0.00, -0.00, -1.00, 228.4, 366.0)">o</text><text xml:space="preserve" font-family="GillSans" font-size="19.9" fill="#605F5F" transform="matrix(1.00, 0.00, -0.00, -1.00, 239.4, 366.0)">r</text><text xml:space="preserve" font-family="GillSans" font-size="19.9" fill="#605F5F" transform="matrix(1.00, 0.00, -0.00, -1.00, 247.3, 366.0)"> </text><text xml:space="preserve" font-family="GillSans" font-size="19.9" fill="#605F5F" transform="matrix(1.00, 0.00, -0.00, -1.00, 252.8, 366.0)">N</text><text xml:space="preserve" font-family="GillSans" font-size="19.9" fill="#605F5F" transform="matrix(1.00, 0.00, -0.00, -1.00, 268.4, 366.0)">e</text><text xml:space="preserve" font-family="GillSans" font-size="19.9" fill="#605F5F" transform="matrix(1.00, 0.00, -0.00, -1.00, 277.9, 366.0)">e</text><text xml:space="preserve" font-family="GillSans" font-size="19.9" fill="#605F5F" transform="matrix(1.00, 0.00, -0.00, -1.00, 287.4, 366.0)">d</text><text xml:space="preserve" font-family="GillSans" font-size="19.9" fill="#605F5F" transform="matrix(1.00, 0.00, -0.00, -1.00, 297.6, 366.0)">s</text><text xml:space="preserve" font-family="GillSans" font-size="19.9" fill="#605F5F" transform="matrix(1.00, 0.00, -0.00, -1.00, 305.2, 366.0)"> </text><text xml:space="preserve" font-family="GillSans" font-size="19.9" fill="#605F5F" transform="matrix(1.00, 0.00, -0.00, -1.00, 310.8, 366.0)">a</text><text xml:space="preserve" font-family="GillSans" font-size="19.9" fill="#605F5F" transform="matrix(1.00, 0.00, -0.00, -1.00, 319.3, 366.0)">n</text><text xml:space="preserve" font-family="GillSans" font-size="19.9" fill="#605F5F" transform="matrix(1.00, 0.00, -0.00, -1.00, 329.2, 366.0)">d</text><text xml:space="preserve" font-family="GillSans" font-size="19.9" fill="#605F5F" transform="matrix(1.00, 0.00, -0.00, -1.00, 339.4, 366.0)"> </text><text xml:space="preserve" font-family="GillSans" font-size="19.9" fill="#605F5F" transform="matrix(1.00, 0.00, -0.00, -1.00, 344.9, 366.0)">C</text><text xml:space="preserve" font-family="GillSans" font-size="19.9" fill="#605F5F" transform="matrix(1.00, 0.00, -0.00, -1.00, 359.0, 366.0)">a</text><text xml:space="preserve" font-family="GillSans" font-size="19.9" fill="#605F5F" transform="matrix(1.00, 0.00, -0.00, -1.00, 367.5, 366.0)">s</text><text xml:space="preserve" font-family="GillSans" font-size="19.9" fill="#605F5F" transform="matrix(1.00, 0.00, -0.00, -1.00, 375.2, 366.0)">e</text><text xml:space="preserve" font-family="GillSans" font-size="19.9" fill="#605F5F" transform="matrix(1.00, 0.00, -0.00, -1.00, 384.4, 366.0)">w</text><text xml:space="preserve" font-family="GillSans" font-size="19.9" fill="#605F5F" transform="matrix(1.00, 0.00, -0.00, -1.00, 398.4, 366.0)">o</text><text xml:space="preserve" font-family="GillSans" font-size="19.9" fill="#605F5F" transform="matrix(1.00, 0.00, -0.00, -1.00, 409.3, 366.0)">r</text><text xml:space="preserve" font-family="GillSans" font-size="19.9" fill="#605F5F" transform="matrix(1.00, 0.00, -0.00, -1.00, 417.2, 366.0)">k</text><text xml:space="preserve" font-family="GillSans" font-size="19.9" fill="#605F5F" transform="matrix(1.00, 0.00, -0.00, -1.00, 426.8, 366.0)">i</text><text xml:space="preserve" font-family="GillSans" font-size="19.9" fill="#605F5F" transform="matrix(1.00, 0.00, -0.00, -1.00, 431.1, 366.0)">n</text><text xml:space="preserve" font-family="GillSans" font-size="19.9" fill="#605F5F" transform="matrix(1.00, 0.00, -0.00, -1.00, 441.1, 366.0)">g</text><text xml:space="preserve" font-family="GillSans" font-size="19.9" fill="#605F5F" transform="matrix(1.00, 0.00, -0.00, -1.00, 449.6, 366.0)">?</text><g><clipPath id="clip-2100"><path d="M 43.3 348.1 L 51.5 348.1 L 51.5 339.9 L 43.3 339.9 Z M 43.3 348.1 "></path></clipPath><g clip-path="url(#clip-2100)"><g><clipPath id="clip-2101"><path d="M 44.0 340.6 L 50.9 340.6 L 50.9 347.5 L 44.0 347.5 Z M 44.0 340.6 "></path></clipPath><g clip-path="url(#clip-2101)"><path d="M 50.9 340.6 L 44.0 340.6 L 44.0 347.5 L 50.9 347.5 Z M 50.9 340.6 " fill="#BDBDBD"></path></g></g></g></g><text xml:space="preserve" font-family="GillSans" font-size="19.9" fill="#605F5F" transform="matrix(1.00, 0.00, -0.00, -1.00, 63.0, 338.0)">K</text><text xml:space="preserve" font-family="GillSans" font-size="19.9" fill="#605F5F" transform="matrix(1.00, 0.00, -0.00, -1.00, 74.9, 338.0)">e</text><text xml:space="preserve" font-family="GillSans" font-size="19.9" fill="#605F5F" transform="matrix(1.00, 0.00, -0.00, -1.00, 84.4, 338.0)">e</text><text xml:space="preserve" font-family="GillSans" font-size="19.9" fill="#605F5F" transform="matrix(1.00, 0.00, -0.00, -1.00, 93.9, 338.0)">p</text><text xml:space="preserve" font-family="GillSans" font-size="19.9" fill="#605F5F" transform="matrix(1.00, 0.00, -0.00, -1.00, 103.9, 338.0)"> </text><text xml:space="preserve" font-family="GillSans" font-size="19.9" fill="#605F5F" transform="matrix(1.00, 0.00, -0.00, -1.00, 109.4, 338.0)">o</text><text xml:space="preserve" font-family="GillSans" font-size="19.9" fill="#605F5F" transform="matrix(1.00, 0.00, -0.00, -1.00, 120.4, 338.0)">n</text><text xml:space="preserve" font-family="GillSans" font-size="19.9" fill="#605F5F" transform="matrix(1.00, 0.00, -0.00, -1.00, 130.4, 338.0)"> </text><text xml:space="preserve" font-family="GillSans" font-size="19.9" fill="#605F5F" transform="matrix(1.00, 0.00, -0.00, -1.00, 135.9, 338.0)">s</text><text xml:space="preserve" font-family="GillSans" font-size="19.9" fill="#605F5F" transform="matrix(1.00, 0.00, -0.00, -1.00, 143.6, 338.0)">q</text><text xml:space="preserve" font-family="GillSans" font-size="19.9" fill="#605F5F" transform="matrix(1.00, 0.00, -0.00, -1.00, 153.5, 338.0)">u</text><text xml:space="preserve" font-family="GillSans" font-size="19.9" fill="#605F5F" transform="matrix(1.00, 0.00, -0.00, -1.00, 163.5, 338.0)">a</text><text xml:space="preserve" font-family="GillSans" font-size="19.9" fill="#605F5F" transform="matrix(1.00, 0.00, -0.00, -1.00, 172.0, 338.0)">s</text><text xml:space="preserve" font-family="GillSans" font-size="19.9" fill="#605F5F" transform="matrix(1.00, 0.00, -0.00, -1.00, 179.7, 338.0)">h</text><text xml:space="preserve" font-family="GillSans" font-size="19.9" fill="#605F5F" transform="matrix(1.00, 0.00, -0.00, -1.00, 189.6, 338.0)">i</text><text xml:space="preserve" font-family="GillSans" font-size="19.9" fill="#605F5F" transform="matrix(1.00, 0.00, -0.00, -1.00, 194.0, 338.0)">n</text><text xml:space="preserve" font-family="GillSans" font-size="19.9" fill="#605F5F" transform="matrix(1.00, 0.00, -0.00, -1.00, 203.9, 338.0)">g</text><text xml:space="preserve" font-family="GillSans" font-size="19.9" fill="#605F5F" transform="matrix(1.00, 0.00, -0.00, -1.00, 212.4, 338.0)"> </text><text xml:space="preserve" font-family="GillSans" font-size="19.9" fill="#605F5F" transform="matrix(1.00, 0.00, -0.00, -1.00, 216.0, 338.0)">‘</text><text xml:space="preserve" font-family="GillSans" font-size="19.9" fill="#605F5F" transform="matrix(1.00, 0.00, -0.00, -1.00, 220.3, 338.0)">b</text><text xml:space="preserve" font-family="GillSans" font-size="19.9" fill="#605F5F" transform="matrix(1.00, 0.00, -0.00, -1.00, 230.3, 338.0)">u</text><text xml:space="preserve" font-family="GillSans" font-size="19.9" fill="#605F5F" transform="matrix(1.00, 0.00, -0.00, -1.00, 240.3, 338.0)">g</text><text xml:space="preserve" font-family="GillSans" font-size="19.9" fill="#605F5F" transform="matrix(1.00, 0.00, -0.00, -1.00, 248.8, 338.0)">s</text><text xml:space="preserve" font-family="GillSans" font-size="19.9" fill="#605F5F" transform="matrix(1.00, 0.00, -0.00, -1.00, 256.4, 338.0)">’</text></g></svg>