<?xml version="1.0" encoding="UTF-8" standalone="no"?><svg xmlns="http://www.w3.org/2000/svg" xmlns:xlink="http://www.w3.org/1999/xlink" clip-rule="evenodd" stroke-miterlimit="4.00" viewBox="0 0 1024 768"><desc>SVG generated by Keynote</desc><defs></defs><g transform="matrix(1.00, 0.00, -0.00, -1.00, 0.0, 768.0)"><g><clipPath id="clip-1528"><path d="M 0.0 768.0 L 1024.0 768.0 L 1024.0 0.0 L 0.0 0.0 Z M 0.0 768.0 "></path></clipPath><g clip-path="url(#clip-1528)"><image xlink:href="../../41F9CECD-E746-4B6A-B57C-11EF94883B77/assets/A48D6513BC58F3BBF0655FD09F4A8718.jpeg" width="768.00" height="768.00" transform="matrix(1.33, 0.00, -0.00, -1.33, 0.0, 768.0)"></image></g></g><g opacity="0.30"><g><clipPath id="clip-1529"><path d="M 39.0 563.0 L 985.0 563.0 L 985.0 567.0 L 39.0 567.0 Z M 39.0 563.0 "></path></clipPath><g clip-path="url(#clip-1529)"><path d="M 0.0 0.0 L 944.0 0.0 " fill="none" stroke="#434343" stroke-width="1.00" transform="matrix(1.00, 0.00, 0.00, -1.00, 40.0, 565.0)"></path></g></g></g><g opacity="0.30"><g><clipPath id="clip-1530"><path d="M 38.0 36.0 L 986.0 36.0 L 986.0 45.0 L 38.0 45.0 Z M 38.0 36.0 "></path></clipPath><g clip-path="url(#clip-1530)"><path d="M 0.0 0.0 L 944.0 0.0 " fill="none" stroke="#434343" stroke-width="6.00" transform="matrix(1.00, 0.00, 0.00, -1.00, 40.0, 40.0)"></path></g></g></g><g opacity="0.30"><g><clipPath id="clip-1531"><path d="M 38.0 726.0 L 986.0 726.0 L 986.0 730.0 L 38.0 730.0 Z M 38.0 726.0 "></path></clipPath><g clip-path="url(#clip-1531)"><path d="M 0.0 0.0 L 944.0 0.0 " fill="none" stroke="#434343" stroke-width="1.00" transform="matrix(1.00, 0.00, 0.00, -1.00, 40.0, 728.0)"></path></g></g></g><g><clipPath id="clip-1532"><path d="M 36.7 624.2 L 91.9 624.2 L 91.9 723.5 L 36.7 723.5 Z M 36.7 624.2 "></path></clipPath><g clip-path="url(#clip-1532)"><image xlink:href="../../41F9CECD-E746-4B6A-B57C-11EF94883B77/assets/8412EA7883B927C520D3E7200E74D714.png" width="55.00" height="100.00" transform="matrix(1.00, 0.00, -0.00, -1.00, 37.0, 724.0)"></image></g></g><g><clipPath id="clip-1533"><path d="M 111.4 651.0 L 492.6 651.0 L 492.6 712.7 L 111.4 712.7 Z M 111.4 651.0 "></path></clipPath><g clip-path="url(#clip-1533)"><text xml:space="preserve" font-family="GillSans" font-size="36.0" fill="#0B75FE" transform="matrix(1.00, 0.00, -0.00, -1.00, 122.0, 670.0)">C</text><text xml:space="preserve" font-family="GillSans" font-size="36.0" fill="#605F5F" transform="matrix(1.00, 0.00, -0.00, -1.00, 147.5, 670.0)">o</text><text xml:space="preserve" font-family="GillSans" font-size="36.0" fill="#605F5F" transform="matrix(1.00, 0.00, -0.00, -1.00, 167.3, 670.0)">m</text><text xml:space="preserve" font-family="GillSans" font-size="36.0" fill="#605F5F" transform="matrix(1.00, 0.00, -0.00, -1.00, 195.1, 670.0)">m</text><text xml:space="preserve" font-family="GillSans" font-size="36.0" fill="#605F5F" transform="matrix(1.00, 0.00, -0.00, -1.00, 222.5, 670.0)">u</text><text xml:space="preserve" font-family="GillSans" font-size="36.0" fill="#605F5F" transform="matrix(1.00, 0.00, -0.00, -1.00, 240.5, 670.0)">n</text><text xml:space="preserve" font-family="GillSans" font-size="36.0" fill="#605F5F" transform="matrix(1.00, 0.00, -0.00, -1.00, 258.5, 670.0)">i</text><text xml:space="preserve" font-family="GillSans" font-size="36.0" fill="#605F5F" transform="matrix(1.00, 0.00, -0.00, -1.00, 266.4, 670.0)">t</text><text xml:space="preserve" font-family="GillSans" font-size="36.0" fill="#605F5F" transform="matrix(1.00, 0.00, -0.00, -1.00, 278.4, 670.0)">y</text><text xml:space="preserve" font-family="GillSans" font-size="36.0" fill="#605F5F" transform="matrix(1.00, 0.00, -0.00, -1.00, 294.2, 670.0)"> </text><text xml:space="preserve" font-family="GillSans" font-size="36.0" fill="#FDA602" transform="matrix(1.00, 0.00, -0.00, -1.00, 304.2, 670.0)">C</text><text xml:space="preserve" font-family="GillSans" font-size="36.0" fill="#605F5F" transform="matrix(1.00, 0.00, -0.00, -1.00, 329.7, 670.0)">o</text><text xml:space="preserve" font-family="GillSans" font-size="36.0" fill="#605F5F" transform="matrix(1.00, 0.00, -0.00, -1.00, 349.5, 670.0)">u</text><text xml:space="preserve" font-family="GillSans" font-size="36.0" fill="#605F5F" transform="matrix(1.00, 0.00, -0.00, -1.00, 367.5, 670.0)">n</text><text xml:space="preserve" font-family="GillSans" font-size="36.0" fill="#605F5F" transform="matrix(1.00, 0.00, -0.00, -1.00, 385.5, 670.0)">t</text><text xml:space="preserve" font-family="GillSans" font-size="36.0" fill="#605F5F" transform="matrix(1.00, 0.00, -0.00, -1.00, 397.5, 670.0)">s</text><text xml:space="preserve" font-family="GillSans" font-size="36.0" fill="#605F5F" transform="matrix(1.00, 0.00, -0.00, -1.00, 411.3, 670.0)"> </text><text xml:space="preserve" font-family="GillSans" font-size="36.0" fill="#605F5F" transform="matrix(1.00, 0.00, -0.00, -1.00, 415.9, 670.0)">V</text><text xml:space="preserve" font-family="GillSans" font-size="36.0" fill="#605F5F" transform="matrix(1.00, 0.00, -0.00, -1.00, 437.7, 670.0)">3</text><text xml:space="preserve" font-family="GillSans" font-size="36.0" fill="#605F5F" transform="matrix(1.00, 0.00, -0.00, -1.00, 455.7, 670.0)">.</text><text xml:space="preserve" font-family="GillSans" font-size="36.0" fill="#605F5F" transform="matrix(1.00, 0.00, -0.00, -1.00, 463.6, 670.0)">0</text></g></g><text xml:space="preserve" font-family="GillSans-Light" font-size="58.2" fill="#605F5F" transform="matrix(1.00, 0.00, -0.00, -1.00, 132.0, 588.0)">N</text><text xml:space="preserve" font-family="GillSans-Light" font-size="58.2" fill="#605F5F" transform="matrix(1.00, 0.00, -0.00, -1.00, 176.9, 588.0)">A</text><text xml:space="preserve" font-family="GillSans-Light" font-size="58.2" fill="#605F5F" transform="matrix(1.00, 0.00, -0.00, -1.00, 212.8, 588.0)">V</text><text xml:space="preserve" font-family="GillSans-Light" font-size="58.2" fill="#605F5F" transform="matrix(1.00, 0.00, -0.00, -1.00, 247.5, 588.0)">I</text><text xml:space="preserve" font-family="GillSans-Light" font-size="58.2" fill="#605F5F" transform="matrix(1.00, 0.00, -0.00, -1.00, 259.6, 588.0)">G</text><text xml:space="preserve" font-family="GillSans-Light" font-size="58.2" fill="#605F5F" transform="matrix(1.00, 0.00, -0.00, -1.00, 301.5, 588.0)">A</text><text xml:space="preserve" font-family="GillSans-Light" font-size="58.2" fill="#605F5F" transform="matrix(1.00, 0.00, -0.00, -1.00, 334.5, 588.0)">T</text><text xml:space="preserve" font-family="GillSans-Light" font-size="58.2" fill="#605F5F" transform="matrix(1.00, 0.00, -0.00, -1.00, 367.9, 588.0)">I</text><text xml:space="preserve" font-family="GillSans-Light" font-size="58.2" fill="#605F5F" transform="matrix(1.00, 0.00, -0.00, -1.00, 380.0, 588.0)">O</text><text xml:space="preserve" font-family="GillSans-Light" font-size="58.2" fill="#605F5F" transform="matrix(1.00, 0.00, -0.00, -1.00, 428.0, 588.0)">N</text><text xml:space="preserve" font-family="GillSans-Light" font-size="58.2" fill="#605F5F" transform="matrix(1.00, 0.00, -0.00, -1.00, 472.9, 588.0)"> </text><text xml:space="preserve" font-family="GillSans-Light" font-size="58.2" fill="#605F5F" transform="matrix(1.00, 0.00, -0.00, -1.00, 483.2, 588.0)">W</text><text xml:space="preserve" font-family="GillSans-Light" font-size="58.2" fill="#605F5F" transform="matrix(1.00, 0.00, -0.00, -1.00, 540.9, 588.0)">O</text><text xml:space="preserve" font-family="GillSans-Light" font-size="58.2" fill="#605F5F" transform="matrix(1.00, 0.00, -0.00, -1.00, 588.9, 588.0)">R</text><text xml:space="preserve" font-family="GillSans-Light" font-size="58.2" fill="#605F5F" transform="matrix(1.00, 0.00, -0.00, -1.00, 622.2, 588.0)">K</text><text xml:space="preserve" font-family="GillSans-Light" font-size="58.2" fill="#605F5F" transform="matrix(1.00, 0.00, -0.00, -1.00, 653.1, 588.0)">S</text><text xml:space="preserve" font-family="GillSans-Light" font-size="58.2" fill="#605F5F" transform="matrix(1.00, 0.00, -0.00, -1.00, 680.5, 588.0)">H</text><text xml:space="preserve" font-family="GillSans-Light" font-size="58.2" fill="#605F5F" transform="matrix(1.00, 0.00, -0.00, -1.00, 722.4, 588.0)">O</text><text xml:space="preserve" font-family="GillSans-Light" font-size="58.2" fill="#605F5F" transform="matrix(1.00, 0.00, -0.00, -1.00, 770.3, 588.0)">P</text><g><clipPath id="clip-1534"><path d="M 42.8 510.3 L 56.8 510.3 L 56.8 496.3 L 42.8 496.3 Z M 42.8 510.3 "></path></clipPath><g clip-path="url(#clip-1534)"><g><clipPath id="clip-1535"><path d="M 44.0 497.5 L 55.6 497.5 L 55.6 509.1 L 44.0 509.1 Z M 44.0 497.5 "></path></clipPath><g clip-path="url(#clip-1535)"><path d="M 55.6 497.5 L 44.0 497.5 L 44.0 509.1 L 55.6 509.1 Z M 55.6 497.5 " fill="#BDBDBD"></path></g></g></g></g><text xml:space="preserve" font-family="GillSans" font-size="33.7" fill="#605F5F" transform="matrix(1.00, 0.00, -0.00, -1.00, 77.0, 493.0)">C</text><text xml:space="preserve" font-family="GillSans" font-size="33.7" fill="#605F5F" transform="matrix(1.00, 0.00, -0.00, -1.00, 100.8, 493.0)">r</text><text xml:space="preserve" font-family="GillSans" font-size="33.7" fill="#605F5F" transform="matrix(1.00, 0.00, -0.00, -1.00, 113.3, 493.0)">o</text><text xml:space="preserve" font-family="GillSans" font-size="33.7" fill="#605F5F" transform="matrix(1.00, 0.00, -0.00, -1.00, 131.6, 493.0)">w</text><text xml:space="preserve" font-family="GillSans" font-size="33.7" fill="#605F5F" transform="matrix(1.00, 0.00, -0.00, -1.00, 155.8, 493.0)">n</text><text xml:space="preserve" font-family="GillSans" font-size="33.7" fill="#605F5F" transform="matrix(1.00, 0.00, -0.00, -1.00, 172.6, 493.0)"> </text><text xml:space="preserve" font-family="GillSans" font-size="33.7" fill="#605F5F" transform="matrix(1.00, 0.00, -0.00, -1.00, 181.9, 493.0)">C</text><text xml:space="preserve" font-family="GillSans" font-size="33.7" fill="#605F5F" transform="matrix(1.00, 0.00, -0.00, -1.00, 205.8, 493.0)">o</text><text xml:space="preserve" font-family="GillSans" font-size="33.7" fill="#605F5F" transform="matrix(1.00, 0.00, -0.00, -1.00, 224.3, 493.0)">n</text><text xml:space="preserve" font-family="GillSans" font-size="33.7" fill="#605F5F" transform="matrix(1.00, 0.00, -0.00, -1.00, 241.2, 493.0)">s</text><text xml:space="preserve" font-family="GillSans" font-size="33.7" fill="#605F5F" transform="matrix(1.00, 0.00, -0.00, -1.00, 254.1, 493.0)">o</text><text xml:space="preserve" font-family="GillSans" font-size="33.7" fill="#605F5F" transform="matrix(1.00, 0.00, -0.00, -1.00, 272.7, 493.0)">r</text><text xml:space="preserve" font-family="GillSans" font-size="33.7" fill="#605F5F" transform="matrix(1.00, 0.00, -0.00, -1.00, 286.7, 493.0)">t</text><text xml:space="preserve" font-family="GillSans" font-size="33.7" fill="#605F5F" transform="matrix(1.00, 0.00, -0.00, -1.00, 297.9, 493.0)">i</text><text xml:space="preserve" font-family="GillSans" font-size="33.7" fill="#605F5F" transform="matrix(1.00, 0.00, -0.00, -1.00, 305.3, 493.0)">u</text><text xml:space="preserve" font-family="GillSans" font-size="33.7" fill="#605F5F" transform="matrix(1.00, 0.00, -0.00, -1.00, 322.1, 493.0)">m</text><g><clipPath id="clip-1536"><path d="M 75.8 429.7 L 89.8 429.7 L 89.8 415.8 L 75.8 415.8 Z M 75.8 429.7 "></path></clipPath><g clip-path="url(#clip-1536)"><g><clipPath id="clip-1537"><path d="M 77.0 416.9 L 88.6 416.9 L 88.6 428.5 L 77.0 428.5 Z M 77.0 416.9 "></path></clipPath><g clip-path="url(#clip-1537)"><path d="M 88.6 416.9 L 77.0 416.9 L 77.0 428.5 L 88.6 428.5 Z M 88.6 416.9 " fill="#BDBDBD"></path></g></g></g></g><text xml:space="preserve" font-family="GillSans" font-size="33.7" fill="#605F5F" transform="matrix(1.00, 0.00, -0.00, -1.00, 110.0, 412.0)">B</text><text xml:space="preserve" font-family="GillSans" font-size="33.7" fill="#605F5F" transform="matrix(1.00, 0.00, -0.00, -1.00, 129.0, 412.0)">H</text><text xml:space="preserve" font-family="GillSans" font-size="33.7" fill="#605F5F" transform="matrix(1.00, 0.00, -0.00, -1.00, 153.5, 412.0)">U</text><text xml:space="preserve" font-family="GillSans" font-size="33.7" fill="#605F5F" transform="matrix(1.00, 0.00, -0.00, -1.00, 177.3, 412.0)">B</text><text xml:space="preserve" font-family="GillSans" font-size="33.7" fill="#605F5F" transform="matrix(1.00, 0.00, -0.00, -1.00, 196.3, 412.0)">-</text><text xml:space="preserve" font-family="GillSans" font-size="33.7" fill="#605F5F" transform="matrix(1.00, 0.00, -0.00, -1.00, 207.2, 412.0)">W</text><text xml:space="preserve" font-family="GillSans" font-size="33.7" fill="#605F5F" transform="matrix(1.00, 0.00, -0.00, -1.00, 242.2, 412.0)">0</text><text xml:space="preserve" font-family="GillSans" font-size="33.7" fill="#605F5F" transform="matrix(1.00, 0.00, -0.00, -1.00, 259.1, 412.0)">1</text><text xml:space="preserve" font-family="GillSans" font-size="33.7" fill="#605F5F" transform="matrix(1.00, 0.00, -0.00, -1.00, 275.9, 412.0)">,</text><text xml:space="preserve" font-family="GillSans" font-size="33.7" fill="#605F5F" transform="matrix(1.00, 0.00, -0.00, -1.00, 279.9, 412.0)"> </text><text xml:space="preserve" font-family="GillSans" font-size="33.7" fill="#605F5F" transform="matrix(1.00, 0.00, -0.00, -1.00, 285.0, 412.0)">W</text><text xml:space="preserve" font-family="GillSans" font-size="33.7" fill="#605F5F" transform="matrix(1.00, 0.00, -0.00, -1.00, 320.1, 412.0)">0</text><text xml:space="preserve" font-family="GillSans" font-size="33.7" fill="#605F5F" transform="matrix(1.00, 0.00, -0.00, -1.00, 336.9, 412.0)">2</text><text xml:space="preserve" font-family="GillSans" font-size="33.7" fill="#605F5F" transform="matrix(1.00, 0.00, -0.00, -1.00, 353.8, 412.0)">,</text><text xml:space="preserve" font-family="GillSans" font-size="33.7" fill="#605F5F" transform="matrix(1.00, 0.00, -0.00, -1.00, 357.8, 412.0)"> </text><text xml:space="preserve" font-family="GillSans" font-size="33.7" fill="#605F5F" transform="matrix(1.00, 0.00, -0.00, -1.00, 362.9, 412.0)">W</text><text xml:space="preserve" font-family="GillSans" font-size="33.7" fill="#605F5F" transform="matrix(1.00, 0.00, -0.00, -1.00, 398.0, 412.0)">0</text><text xml:space="preserve" font-family="GillSans" font-size="33.7" fill="#605F5F" transform="matrix(1.00, 0.00, -0.00, -1.00, 414.8, 412.0)">3</text><text xml:space="preserve" font-family="GillSans" font-size="33.7" fill="#605F5F" transform="matrix(1.00, 0.00, -0.00, -1.00, 431.7, 412.0)">,</text><text xml:space="preserve" font-family="GillSans" font-size="33.7" fill="#605F5F" transform="matrix(1.00, 0.00, -0.00, -1.00, 435.7, 412.0)"> </text><text xml:space="preserve" font-family="GillSans" font-size="33.7" fill="#605F5F" transform="matrix(1.00, 0.00, -0.00, -1.00, 440.8, 412.0)">W</text><text xml:space="preserve" font-family="GillSans" font-size="33.7" fill="#605F5F" transform="matrix(1.00, 0.00, -0.00, -1.00, 475.9, 412.0)">0</text><text xml:space="preserve" font-family="GillSans" font-size="33.7" fill="#605F5F" transform="matrix(1.00, 0.00, -0.00, -1.00, 492.7, 412.0)">4</text><g><clipPath id="clip-1538"><path d="M 42.8 349.1 L 56.8 349.1 L 56.8 335.2 L 42.8 335.2 Z M 42.8 349.1 "></path></clipPath><g clip-path="url(#clip-1538)"><g><clipPath id="clip-1539"><path d="M 44.0 336.4 L 55.6 336.4 L 55.6 348.0 L 44.0 348.0 Z M 44.0 336.4 "></path></clipPath><g clip-path="url(#clip-1539)"><path d="M 55.6 336.4 L 44.0 336.4 L 44.0 348.0 L 55.6 348.0 Z M 55.6 336.4 " fill="#BDBDBD"></path></g></g></g></g><text xml:space="preserve" font-family="GillSans" font-size="33.7" fill="#605F5F" transform="matrix(1.00, 0.00, -0.00, -1.00, 77.0, 332.0)">S</text><text xml:space="preserve" font-family="GillSans" font-size="33.7" fill="#605F5F" transform="matrix(1.00, 0.00, -0.00, -1.00, 92.4, 332.0)">y</text><text xml:space="preserve" font-family="GillSans" font-size="33.7" fill="#605F5F" transform="matrix(1.00, 0.00, -0.00, -1.00, 107.2, 332.0)">d</text><text xml:space="preserve" font-family="GillSans" font-size="33.7" fill="#605F5F" transform="matrix(1.00, 0.00, -0.00, -1.00, 124.3, 332.0)">n</text><text xml:space="preserve" font-family="GillSans" font-size="33.7" fill="#605F5F" transform="matrix(1.00, 0.00, -0.00, -1.00, 141.1, 332.0)">i</text><text xml:space="preserve" font-family="GillSans" font-size="33.7" fill="#605F5F" transform="matrix(1.00, 0.00, -0.00, -1.00, 148.5, 332.0)"> </text><text xml:space="preserve" font-family="GillSans" font-size="33.7" fill="#605F5F" transform="matrix(1.00, 0.00, -0.00, -1.00, 157.9, 332.0)">C</text><text xml:space="preserve" font-family="GillSans" font-size="33.7" fill="#605F5F" transform="matrix(1.00, 0.00, -0.00, -1.00, 181.7, 332.0)">e</text><text xml:space="preserve" font-family="GillSans" font-size="33.7" fill="#605F5F" transform="matrix(1.00, 0.00, -0.00, -1.00, 197.8, 332.0)">n</text><text xml:space="preserve" font-family="GillSans" font-size="33.7" fill="#605F5F" transform="matrix(1.00, 0.00, -0.00, -1.00, 214.7, 332.0)">t</text><text xml:space="preserve" font-family="GillSans" font-size="33.7" fill="#605F5F" transform="matrix(1.00, 0.00, -0.00, -1.00, 225.9, 332.0)">r</text><text xml:space="preserve" font-family="GillSans" font-size="33.7" fill="#605F5F" transform="matrix(1.00, 0.00, -0.00, -1.00, 238.5, 332.0)">e</text><g><clipPath id="clip-1540"><path d="M 75.8 268.5 L 89.8 268.5 L 89.8 254.6 L 75.8 254.6 Z M 75.8 268.5 "></path></clipPath><g clip-path="url(#clip-1540)"><g><clipPath id="clip-1541"><path d="M 77.0 255.8 L 88.6 255.8 L 88.6 267.4 L 77.0 267.4 Z M 77.0 255.8 "></path></clipPath><g clip-path="url(#clip-1541)"><path d="M 88.6 255.8 L 77.0 255.8 L 77.0 267.4 L 88.6 267.4 Z M 88.6 255.8 " fill="#BDBDBD"></path></g></g></g></g><text xml:space="preserve" font-family="GillSans" font-size="33.7" fill="#605F5F" transform="matrix(1.00, 0.00, -0.00, -1.00, 110.0, 251.0)">B</text><text xml:space="preserve" font-family="GillSans" font-size="33.7" fill="#605F5F" transform="matrix(1.00, 0.00, -0.00, -1.00, 129.0, 251.0)">H</text><text xml:space="preserve" font-family="GillSans" font-size="33.7" fill="#605F5F" transform="matrix(1.00, 0.00, -0.00, -1.00, 153.5, 251.0)">U</text><text xml:space="preserve" font-family="GillSans" font-size="33.7" fill="#605F5F" transform="matrix(1.00, 0.00, -0.00, -1.00, 177.3, 251.0)">B</text><text xml:space="preserve" font-family="GillSans" font-size="33.7" fill="#605F5F" transform="matrix(1.00, 0.00, -0.00, -1.00, 196.3, 251.0)">-</text><text xml:space="preserve" font-family="GillSans" font-size="33.7" fill="#605F5F" transform="matrix(1.00, 0.00, -0.00, -1.00, 207.2, 251.0)">W</text><text xml:space="preserve" font-family="GillSans" font-size="33.7" fill="#605F5F" transform="matrix(1.00, 0.00, -0.00, -1.00, 242.2, 251.0)">0</text><text xml:space="preserve" font-family="GillSans" font-size="33.7" fill="#605F5F" transform="matrix(1.00, 0.00, -0.00, -1.00, 259.1, 251.0)">5</text><text xml:space="preserve" font-family="GillSans" font-size="33.7" fill="#605F5F" transform="matrix(1.00, 0.00, -0.00, -1.00, 275.9, 251.0)">,</text><text xml:space="preserve" font-family="GillSans" font-size="33.7" fill="#605F5F" transform="matrix(1.00, 0.00, -0.00, -1.00, 283.3, 251.0)">W</text><text xml:space="preserve" font-family="GillSans" font-size="33.7" fill="#605F5F" transform="matrix(1.00, 0.00, -0.00, -1.00, 318.4, 251.0)">0</text><text xml:space="preserve" font-family="GillSans" font-size="33.7" fill="#605F5F" transform="matrix(1.00, 0.00, -0.00, -1.00, 335.2, 251.0)">6</text><text xml:space="preserve" font-family="GillSans" font-size="33.7" fill="#605F5F" transform="matrix(1.00, 0.00, -0.00, -1.00, 352.0, 251.0)">,</text><text xml:space="preserve" font-family="GillSans" font-size="33.7" fill="#605F5F" transform="matrix(1.00, 0.00, -0.00, -1.00, 359.4, 251.0)">W</text><text xml:space="preserve" font-family="GillSans" font-size="33.7" fill="#605F5F" transform="matrix(1.00, 0.00, -0.00, -1.00, 394.5, 251.0)">0</text><text xml:space="preserve" font-family="GillSans" font-size="33.7" fill="#605F5F" transform="matrix(1.00, 0.00, -0.00, -1.00, 411.3, 251.0)">7</text><text xml:space="preserve" font-family="GillSans" font-size="33.7" fill="#605F5F" transform="matrix(1.00, 0.00, -0.00, -1.00, 428.1, 251.0)">,</text><text xml:space="preserve" font-family="GillSans" font-size="33.7" fill="#605F5F" transform="matrix(1.00, 0.00, -0.00, -1.00, 435.5, 251.0)">W</text><text xml:space="preserve" font-family="GillSans" font-size="33.7" fill="#605F5F" transform="matrix(1.00, 0.00, -0.00, -1.00, 470.6, 251.0)">0</text><text xml:space="preserve" font-family="GillSans" font-size="33.7" fill="#605F5F" transform="matrix(1.00, 0.00, -0.00, -1.00, 487.4, 251.0)">8</text><g><clipPath id="clip-1542"><path d="M 42.8 187.9 L 56.8 187.9 L 56.8 174.0 L 42.8 174.0 Z M 42.8 187.9 "></path></clipPath><g clip-path="url(#clip-1542)"><g><clipPath id="clip-1543"><path d="M 44.0 175.2 L 55.6 175.2 L 55.6 186.8 L 44.0 186.8 Z M 44.0 175.2 "></path></clipPath><g clip-path="url(#clip-1543)"><path d="M 55.6 175.2 L 44.0 175.2 L 44.0 186.8 L 55.6 186.8 Z M 55.6 175.2 " fill="#BDBDBD"></path></g></g></g></g><text xml:space="preserve" font-family="GillSans" font-size="33.7" fill="#605F5F" transform="matrix(1.00, 0.00, -0.00, -1.00, 77.0, 170.0)">B</text><text xml:space="preserve" font-family="GillSans" font-size="33.7" fill="#605F5F" transform="matrix(1.00, 0.00, -0.00, -1.00, 96.0, 170.0)">H</text><text xml:space="preserve" font-family="GillSans" font-size="33.7" fill="#605F5F" transform="matrix(1.00, 0.00, -0.00, -1.00, 120.5, 170.0)">L</text><text xml:space="preserve" font-family="GillSans" font-size="33.7" fill="#605F5F" transform="matrix(1.00, 0.00, -0.00, -1.00, 137.0, 170.0)">C</text><g><clipPath id="clip-1544"><path d="M 75.8 107.4 L 89.8 107.4 L 89.8 93.4 L 75.8 93.4 Z M 75.8 107.4 "></path></clipPath><g clip-path="url(#clip-1544)"><g><clipPath id="clip-1545"><path d="M 77.0 94.6 L 88.6 94.6 L 88.6 106.2 L 77.0 106.2 Z M 77.0 94.6 "></path></clipPath><g clip-path="url(#clip-1545)"><path d="M 88.6 94.6 L 77.0 94.6 L 77.0 106.2 L 88.6 106.2 Z M 88.6 94.6 " fill="#BDBDBD"></path></g></g></g></g><text xml:space="preserve" font-family="GillSans" font-size="33.7" fill="#605F5F" transform="matrix(1.00, 0.00, -0.00, -1.00, 110.0, 90.0)">A</text><text xml:space="preserve" font-family="GillSans" font-size="33.7" fill="#605F5F" transform="matrix(1.00, 0.00, -0.00, -1.00, 132.5, 90.0)">n</text><text xml:space="preserve" font-family="GillSans" font-size="33.7" fill="#605F5F" transform="matrix(1.00, 0.00, -0.00, -1.00, 148.6, 90.0)">y</text><text xml:space="preserve" font-family="GillSans" font-size="33.7" fill="#605F5F" transform="matrix(1.00, 0.00, -0.00, -1.00, 163.4, 90.0)"> </text><text xml:space="preserve" font-family="GillSans" font-size="33.7" fill="#605F5F" transform="matrix(1.00, 0.00, -0.00, -1.00, 172.7, 90.0)">m</text><text xml:space="preserve" font-family="GillSans" font-size="33.7" fill="#605F5F" transform="matrix(1.00, 0.00, -0.00, -1.00, 198.6, 90.0)">a</text><text xml:space="preserve" font-family="GillSans" font-size="33.7" fill="#605F5F" transform="matrix(1.00, 0.00, -0.00, -1.00, 213.0, 90.0)">c</text><text xml:space="preserve" font-family="GillSans" font-size="33.7" fill="#605F5F" transform="matrix(1.00, 0.00, -0.00, -1.00, 227.7, 90.0)">h</text><text xml:space="preserve" font-family="GillSans" font-size="33.7" fill="#605F5F" transform="matrix(1.00, 0.00, -0.00, -1.00, 244.6, 90.0)">i</text><text xml:space="preserve" font-family="GillSans" font-size="33.7" fill="#605F5F" transform="matrix(1.00, 0.00, -0.00, -1.00, 252.0, 90.0)">n</text><text xml:space="preserve" font-family="GillSans" font-size="33.7" fill="#605F5F" transform="matrix(1.00, 0.00, -0.00, -1.00, 268.8, 90.0)">e</text><text xml:space="preserve" font-family="GillSans" font-size="36.0" fill="#605F5F" transform="matrix(1.00, 0.00, -0.00, -1.00, 592.0, 470.0)">L</text><text xml:space="preserve" font-family="GillSans" font-size="36.0" fill="#605F5F" transform="matrix(1.00, 0.00, -0.00, -1.00, 609.7, 470.0)">o</text><text xml:space="preserve" font-family="GillSans" font-size="36.0" fill="#605F5F" transform="matrix(1.00, 0.00, -0.00, -1.00, 629.5, 470.0)">g</text><text xml:space="preserve" font-family="GillSans" font-size="36.0" fill="#605F5F" transform="matrix(1.00, 0.00, -0.00, -1.00, 644.9, 470.0)">i</text><text xml:space="preserve" font-family="GillSans" font-size="36.0" fill="#605F5F" transform="matrix(1.00, 0.00, -0.00, -1.00, 652.8, 470.0)">n</text><text xml:space="preserve" font-family="GillSans" font-size="36.0" fill="#605F5F" transform="matrix(1.00, 0.00, -0.00, -1.00, 670.8, 470.0)"> </text><text xml:space="preserve" font-family="GillSans" font-size="36.0" fill="#605F5F" transform="matrix(1.00, 0.00, -0.00, -1.00, 680.8, 470.0)">u</text><text xml:space="preserve" font-family="GillSans" font-size="36.0" fill="#605F5F" transform="matrix(1.00, 0.00, -0.00, -1.00, 698.8, 470.0)">s</text><text xml:space="preserve" font-family="GillSans" font-size="36.0" fill="#605F5F" transform="matrix(1.00, 0.00, -0.00, -1.00, 712.6, 470.0)">i</text><text xml:space="preserve" font-family="GillSans" font-size="36.0" fill="#605F5F" transform="matrix(1.00, 0.00, -0.00, -1.00, 720.5, 470.0)">n</text><text xml:space="preserve" font-family="GillSans" font-size="36.0" fill="#605F5F" transform="matrix(1.00, 0.00, -0.00, -1.00, 738.5, 470.0)">g</text><text xml:space="preserve" font-family="GillSans" font-size="36.0" fill="#605F5F" transform="matrix(1.00, 0.00, -0.00, -1.00, 753.9, 470.0)"> </text><text xml:space="preserve" font-family="GillSans" font-size="36.0" fill="#605F5F" transform="matrix(1.00, 0.00, -0.00, -1.00, 763.9, 470.0)">U</text><text xml:space="preserve" font-family="GillSans" font-size="36.0" fill="#605F5F" transform="matrix(1.00, 0.00, -0.00, -1.00, 789.3, 470.0)">s</text><text xml:space="preserve" font-family="GillSans" font-size="36.0" fill="#605F5F" transform="matrix(1.00, 0.00, -0.00, -1.00, 803.2, 470.0)">e</text><text xml:space="preserve" font-family="GillSans" font-size="36.0" fill="#605F5F" transform="matrix(1.00, 0.00, -0.00, -1.00, 820.4, 470.0)">r</text><text xml:space="preserve" font-family="GillSans" font-size="36.0" fill="#605F5F" transform="matrix(1.00, 0.00, -0.00, -1.00, 834.7, 470.0)">i</text><text xml:space="preserve" font-family="GillSans" font-size="36.0" fill="#605F5F" transform="matrix(1.00, 0.00, -0.00, -1.00, 842.6, 470.0)">d</text><text xml:space="preserve" font-family="GloucesterMT-ExtraCondensed" font-weight="bold" font-size="36.0" fill="#0432FF" transform="matrix(1.00, 0.00, -0.00, -1.00, 622.0, 427.0)">T</text><text xml:space="preserve" font-family="GloucesterMT-ExtraCondensed" font-weight="bold" font-size="36.0" fill="#0432FF" transform="matrix(1.00, 0.00, -0.00, -1.00, 633.6, 427.0)">r</text><text xml:space="preserve" font-family="GloucesterMT-ExtraCondensed" font-weight="bold" font-size="36.0" fill="#0432FF" transform="matrix(1.00, 0.00, -0.00, -1.00, 643.1, 427.0)">a</text><text xml:space="preserve" font-family="GloucesterMT-ExtraCondensed" font-weight="bold" font-size="36.0" fill="#0432FF" transform="matrix(1.00, 0.00, -0.00, -1.00, 654.5, 427.0)">i</text><text xml:space="preserve" font-family="GloucesterMT-ExtraCondensed" font-weight="bold" font-size="36.0" fill="#0432FF" transform="matrix(1.00, 0.00, -0.00, -1.00, 660.7, 427.0)">n</text><text xml:space="preserve" font-family="GloucesterMT-ExtraCondensed" font-weight="bold" font-size="36.0" fill="#0432FF" transform="matrix(1.00, 0.00, -0.00, -1.00, 673.0, 427.0)">0</text><text xml:space="preserve" font-family="GloucesterMT-ExtraCondensed" font-weight="bold" font-size="36.0" fill="#0432FF" transform="matrix(1.00, 0.00, -0.00, -1.00, 686.9, 427.0)">1</text><text xml:space="preserve" font-family="GloucesterMT-ExtraCondensed" font-weight="bold" font-size="36.0" fill="#0432FF" transform="matrix(1.00, 0.00, -0.00, -1.00, 700.8, 427.0)">@</text><text xml:space="preserve" font-family="GloucesterMT-ExtraCondensed" font-weight="bold" font-size="36.0" fill="#0432FF" transform="matrix(1.00, 0.00, -0.00, -1.00, 722.5, 427.0)">n</text><text xml:space="preserve" font-family="GloucesterMT-ExtraCondensed" font-weight="bold" font-size="36.0" fill="#0432FF" transform="matrix(1.00, 0.00, -0.00, -1.00, 734.8, 427.0)">s</text><text xml:space="preserve" font-family="GloucesterMT-ExtraCondensed" font-weight="bold" font-size="36.0" fill="#0432FF" transform="matrix(1.00, 0.00, -0.00, -1.00, 745.2, 427.0)">f</text><text xml:space="preserve" font-family="GloucesterMT-ExtraCondensed" font-weight="bold" font-size="36.0" fill="#0432FF" transform="matrix(1.00, 0.00, -0.00, -1.00, 752.2, 427.0)">w</text><text xml:space="preserve" font-family="GloucesterMT-ExtraCondensed" font-weight="bold" font-size="36.0" fill="#0432FF" transform="matrix(1.00, 0.00, -0.00, -1.00, 768.8, 427.0)">d</text><text xml:space="preserve" font-family="GloucesterMT-ExtraCondensed" font-weight="bold" font-size="36.0" fill="#0432FF" transform="matrix(1.00, 0.00, -0.00, -1.00, 781.1, 427.0)">.</text><text xml:space="preserve" font-family="GloucesterMT-ExtraCondensed" font-weight="bold" font-size="36.0" fill="#0432FF" transform="matrix(1.00, 0.00, -0.00, -1.00, 787.3, 427.0)">c</text><text xml:space="preserve" font-family="GloucesterMT-ExtraCondensed" font-weight="bold" font-size="36.0" fill="#0432FF" transform="matrix(1.00, 0.00, -0.00, -1.00, 798.3, 427.0)">o</text><text xml:space="preserve" font-family="GloucesterMT-ExtraCondensed" font-weight="bold" font-size="36.0" fill="#0432FF" transform="matrix(1.00, 0.00, -0.00, -1.00, 810.7, 427.0)">.</text><text xml:space="preserve" font-family="GloucesterMT-ExtraCondensed" font-weight="bold" font-size="36.0" fill="#0432FF" transform="matrix(1.00, 0.00, -0.00, -1.00, 816.8, 427.0)">u</text><text xml:space="preserve" font-family="GloucesterMT-ExtraCondensed" font-weight="bold" font-size="36.0" fill="#0432FF" transform="matrix(1.00, 0.00, -0.00, -1.00, 829.0, 427.0)">k</text><g><clipPath id="clip-1546"><path d="M 620.9 421.7 L 841.3 421.7 L 841.3 425.5 L 620.9 425.5 Z M 620.9 421.7 "></path></clipPath><g clip-path="url(#clip-1546)"><path d="M 34.3 82.8 L 253.7 82.8 " fill="none" stroke="#0432FF" stroke-width="1.79" stroke-miterlimit="0.00" transform="matrix(1.00, 0.00, 0.00, -1.00, 587.6, 506.3)"></path></g></g><text xml:space="preserve" font-family="GillSans" font-size="44.0" fill="#605F5F" transform="matrix(1.00, 0.00, -0.00, -1.00, 579.0, 258.0)">P</text><text xml:space="preserve" font-family="GillSans" font-size="44.0" fill="#605F5F" transform="matrix(1.00, 0.00, -0.00, -1.00, 601.4, 258.0)">a</text><text xml:space="preserve" font-family="GillSans" font-size="44.0" fill="#605F5F" transform="matrix(1.00, 0.00, -0.00, -1.00, 620.2, 258.0)">s</text><text xml:space="preserve" font-family="GillSans" font-size="44.0" fill="#605F5F" transform="matrix(1.00, 0.00, -0.00, -1.00, 637.1, 258.0)">s</text><text xml:space="preserve" font-family="GillSans" font-size="44.0" fill="#605F5F" transform="matrix(1.00, 0.00, -0.00, -1.00, 653.6, 258.0)">w</text><text xml:space="preserve" font-family="GillSans" font-size="44.0" fill="#605F5F" transform="matrix(1.00, 0.00, -0.00, -1.00, 684.3, 258.0)">o</text><text xml:space="preserve" font-family="GillSans" font-size="44.0" fill="#605F5F" transform="matrix(1.00, 0.00, -0.00, -1.00, 708.6, 258.0)">r</text><text xml:space="preserve" font-family="GillSans" font-size="44.0" fill="#605F5F" transform="matrix(1.00, 0.00, -0.00, -1.00, 725.4, 258.0)">d</text><text xml:space="preserve" font-family="GillSans" font-size="44.0" fill="#605F5F" transform="matrix(1.00, 0.00, -0.00, -1.00, 747.8, 258.0)"> </text><text xml:space="preserve" font-family="GillSans" font-size="44.0" fill="#605F5F" transform="matrix(1.00, 0.00, -0.00, -1.00, 760.0, 258.0)">:</text><text xml:space="preserve" font-family="GillSans" font-size="44.0" fill="#605F5F" transform="matrix(1.00, 0.00, -0.00, -1.00, 765.2, 258.0)"> </text><text xml:space="preserve" font-family="FranklinGothic-Medium" font-size="44.0" fill="#0432FF" transform="matrix(1.00, 0.00, -0.00, -1.00, 777.6, 258.0)">T</text><text xml:space="preserve" font-family="FranklinGothic-Medium" font-size="44.0" fill="#0432FF" transform="matrix(1.00, 0.00, -0.00, -1.00, 796.6, 258.0)">r</text><text xml:space="preserve" font-family="FranklinGothic-Medium" font-size="44.0" fill="#0432FF" transform="matrix(1.00, 0.00, -0.00, -1.00, 811.2, 258.0)">a</text><text xml:space="preserve" font-family="FranklinGothic-Medium" font-size="44.0" fill="#0432FF" transform="matrix(1.00, 0.00, -0.00, -1.00, 834.9, 258.0)">i</text><text xml:space="preserve" font-family="FranklinGothic-Medium" font-size="44.0" fill="#0432FF" transform="matrix(1.00, 0.00, -0.00, -1.00, 845.7, 258.0)">n</text><text xml:space="preserve" font-family="FranklinGothic-Medium" font-size="44.0" fill="#0432FF" transform="matrix(1.00, 0.00, -0.00, -1.00, 869.5, 258.0)">*</text><text xml:space="preserve" font-family="FranklinGothic-Medium" font-size="44.0" fill="#0432FF" transform="matrix(1.00, 0.00, -0.00, -1.00, 895.3, 258.0)">1</text><path d="M 0.0 0.0 L 35.6 0.0 L 36.6 0.0 " fill="none" stroke="#708BA5" stroke-width="2.00" transform="matrix(0.38, 0.93, 0.93, -0.38, 661.4, 378.9)"></path><path d="M 679.2 410.1 L 678.3 420.8 L 670.3 413.7 Z M 679.2 410.1 " fill="#708BA5"></path><text xml:space="preserve" font-family="GloucesterMT-ExtraCondensed" font-weight="bold" font-size="36.0" fill="#605F5F" transform="matrix(1.00, 0.00, -0.00, -1.00, 584.0, 357.0)">U</text><text xml:space="preserve" font-family="GloucesterMT-ExtraCondensed" font-weight="bold" font-size="36.0" fill="#605F5F" transform="matrix(1.00, 0.00, -0.00, -1.00, 599.0, 357.0)">s</text><text xml:space="preserve" font-family="GloucesterMT-ExtraCondensed" font-weight="bold" font-size="36.0" fill="#605F5F" transform="matrix(1.00, 0.00, -0.00, -1.00, 609.5, 357.0)">e</text><text xml:space="preserve" font-family="GloucesterMT-ExtraCondensed" font-weight="bold" font-size="36.0" fill="#605F5F" transform="matrix(1.00, 0.00, -0.00, -1.00, 620.8, 357.0)"> </text><text xml:space="preserve" font-family="GloucesterMT-ExtraCondensed" font-weight="bold" font-size="36.0" fill="#605F5F" transform="matrix(1.00, 0.00, -0.00, -1.00, 627.1, 357.0)">y</text><text xml:space="preserve" font-family="GloucesterMT-ExtraCondensed" font-weight="bold" font-size="36.0" fill="#605F5F" transform="matrix(1.00, 0.00, -0.00, -1.00, 637.9, 357.0)">o</text><text xml:space="preserve" font-family="GloucesterMT-ExtraCondensed" font-weight="bold" font-size="36.0" fill="#605F5F" transform="matrix(1.00, 0.00, -0.00, -1.00, 650.3, 357.0)">u</text><text xml:space="preserve" font-family="GloucesterMT-ExtraCondensed" font-weight="bold" font-size="36.0" fill="#605F5F" transform="matrix(1.00, 0.00, -0.00, -1.00, 662.5, 357.0)">r</text><text xml:space="preserve" font-family="GloucesterMT-ExtraCondensed" font-weight="bold" font-size="36.0" fill="#605F5F" transform="matrix(1.00, 0.00, -0.00, -1.00, 672.0, 357.0)"> </text><text xml:space="preserve" font-family="GloucesterMT-ExtraCondensed" font-weight="bold" font-size="36.0" fill="#605F5F" transform="matrix(1.00, 0.00, -0.00, -1.00, 678.3, 357.0)">m</text><text xml:space="preserve" font-family="GloucesterMT-ExtraCondensed" font-weight="bold" font-size="36.0" fill="#605F5F" transform="matrix(1.00, 0.00, -0.00, -1.00, 696.7, 357.0)">a</text><text xml:space="preserve" font-family="GloucesterMT-ExtraCondensed" font-weight="bold" font-size="36.0" fill="#605F5F" transform="matrix(1.00, 0.00, -0.00, -1.00, 708.1, 357.0)">c</text><text xml:space="preserve" font-family="GloucesterMT-ExtraCondensed" font-weight="bold" font-size="36.0" fill="#605F5F" transform="matrix(1.00, 0.00, -0.00, -1.00, 719.0, 357.0)">h</text><text xml:space="preserve" font-family="GloucesterMT-ExtraCondensed" font-weight="bold" font-size="36.0" fill="#605F5F" transform="matrix(1.00, 0.00, -0.00, -1.00, 731.3, 357.0)">i</text><text xml:space="preserve" font-family="GloucesterMT-ExtraCondensed" font-weight="bold" font-size="36.0" fill="#605F5F" transform="matrix(1.00, 0.00, -0.00, -1.00, 737.6, 357.0)">n</text><text xml:space="preserve" font-family="GloucesterMT-ExtraCondensed" font-weight="bold" font-size="36.0" fill="#605F5F" transform="matrix(1.00, 0.00, -0.00, -1.00, 749.9, 357.0)">e</text><text xml:space="preserve" font-family="GloucesterMT-ExtraCondensed" font-weight="bold" font-size="36.0" fill="#605F5F" transform="matrix(1.00, 0.00, -0.00, -1.00, 761.2, 357.0)"> </text><text xml:space="preserve" font-family="GloucesterMT-ExtraCondensed" font-weight="bold" font-size="36.0" fill="#605F5F" transform="matrix(1.00, 0.00, -0.00, -1.00, 767.5, 357.0)">n</text><text xml:space="preserve" font-family="GloucesterMT-ExtraCondensed" font-weight="bold" font-size="36.0" fill="#605F5F" transform="matrix(1.00, 0.00, -0.00, -1.00, 779.8, 357.0)">u</text><text xml:space="preserve" font-family="GloucesterMT-ExtraCondensed" font-weight="bold" font-size="36.0" fill="#605F5F" transform="matrix(1.00, 0.00, -0.00, -1.00, 792.0, 357.0)">m</text><text xml:space="preserve" font-family="GloucesterMT-ExtraCondensed" font-weight="bold" font-size="36.0" fill="#605F5F" transform="matrix(1.00, 0.00, -0.00, -1.00, 810.4, 357.0)">b</text><text xml:space="preserve" font-family="GloucesterMT-ExtraCondensed" font-weight="bold" font-size="36.0" fill="#605F5F" transform="matrix(1.00, 0.00, -0.00, -1.00, 822.6, 357.0)">e</text><text xml:space="preserve" font-family="GloucesterMT-ExtraCondensed" font-weight="bold" font-size="36.0" fill="#605F5F" transform="matrix(1.00, 0.00, -0.00, -1.00, 834.0, 357.0)">r</text><text xml:space="preserve" font-family="GloucesterMT-ExtraCondensed" font-weight="bold" font-size="36.0" fill="#605F5F" transform="matrix(1.00, 0.00, -0.00, -1.00, 843.5, 357.0)"> </text><text xml:space="preserve" font-family="GloucesterMT-ExtraCondensed" font-weight="bold" font-size="36.0" fill="#605F5F" transform="matrix(1.00, 0.00, -0.00, -1.00, 849.7, 357.0)">e</text><text xml:space="preserve" font-family="GloucesterMT-ExtraCondensed" font-weight="bold" font-size="36.0" fill="#605F5F" transform="matrix(1.00, 0.00, -0.00, -1.00, 861.1, 357.0)">.</text><text xml:space="preserve" font-family="GloucesterMT-ExtraCondensed" font-weight="bold" font-size="36.0" fill="#605F5F" transform="matrix(1.00, 0.00, -0.00, -1.00, 867.2, 357.0)">g</text><text xml:space="preserve" font-family="GloucesterMT-ExtraCondensed" font-weight="bold" font-size="36.0" fill="#605F5F" transform="matrix(1.00, 0.00, -0.00, -1.00, 879.1, 357.0)"> </text><text xml:space="preserve" font-family="GloucesterMT-ExtraCondensed" font-weight="bold" font-size="36.0" fill="#0432FF" transform="matrix(1.00, 0.00, -0.00, -1.00, 622.0, 315.0)">T</text><text xml:space="preserve" font-family="GloucesterMT-ExtraCondensed" font-weight="bold" font-size="36.0" fill="#0432FF" transform="matrix(1.00, 0.00, -0.00, -1.00, 633.6, 315.0)">r</text><text xml:space="preserve" font-family="GloucesterMT-ExtraCondensed" font-weight="bold" font-size="36.0" fill="#0432FF" transform="matrix(1.00, 0.00, -0.00, -1.00, 643.1, 315.0)">a</text><text xml:space="preserve" font-family="GloucesterMT-ExtraCondensed" font-weight="bold" font-size="36.0" fill="#0432FF" transform="matrix(1.00, 0.00, -0.00, -1.00, 654.5, 315.0)">i</text><text xml:space="preserve" font-family="GloucesterMT-ExtraCondensed" font-weight="bold" font-size="36.0" fill="#0432FF" transform="matrix(1.00, 0.00, -0.00, -1.00, 660.7, 315.0)">n</text><text xml:space="preserve" font-family="GloucesterMT-ExtraCondensed" font-weight="bold" font-size="36.0" fill="#0432FF" transform="matrix(1.00, 0.00, -0.00, -1.00, 673.0, 315.0)">0</text><text xml:space="preserve" font-family="GloucesterMT-ExtraCondensed" font-weight="bold" font-size="36.0" fill="#0432FF" transform="matrix(1.00, 0.00, -0.00, -1.00, 686.9, 315.0)">9</text><text xml:space="preserve" font-family="GloucesterMT-ExtraCondensed" font-weight="bold" font-size="36.0" fill="#0432FF" transform="matrix(1.00, 0.00, -0.00, -1.00, 700.8, 315.0)">@</text><text xml:space="preserve" font-family="GloucesterMT-ExtraCondensed" font-weight="bold" font-size="36.0" fill="#0432FF" transform="matrix(1.00, 0.00, -0.00, -1.00, 722.5, 315.0)">n</text><text xml:space="preserve" font-family="GloucesterMT-ExtraCondensed" font-weight="bold" font-size="36.0" fill="#0432FF" transform="matrix(1.00, 0.00, -0.00, -1.00, 734.8, 315.0)">s</text><text xml:space="preserve" font-family="GloucesterMT-ExtraCondensed" font-weight="bold" font-size="36.0" fill="#0432FF" transform="matrix(1.00, 0.00, -0.00, -1.00, 745.2, 315.0)">f</text><text xml:space="preserve" font-family="GloucesterMT-ExtraCondensed" font-weight="bold" font-size="36.0" fill="#0432FF" transform="matrix(1.00, 0.00, -0.00, -1.00, 752.2, 315.0)">w</text><text xml:space="preserve" font-family="GloucesterMT-ExtraCondensed" font-weight="bold" font-size="36.0" fill="#0432FF" transform="matrix(1.00, 0.00, -0.00, -1.00, 768.8, 315.0)">d</text><text xml:space="preserve" font-family="GloucesterMT-ExtraCondensed" font-weight="bold" font-size="36.0" fill="#0432FF" transform="matrix(1.00, 0.00, -0.00, -1.00, 781.1, 315.0)">.</text><text xml:space="preserve" font-family="GloucesterMT-ExtraCondensed" font-weight="bold" font-size="36.0" fill="#0432FF" transform="matrix(1.00, 0.00, -0.00, -1.00, 787.3, 315.0)">c</text><text xml:space="preserve" font-family="GloucesterMT-ExtraCondensed" font-weight="bold" font-size="36.0" fill="#0432FF" transform="matrix(1.00, 0.00, -0.00, -1.00, 798.3, 315.0)">o</text><text xml:space="preserve" font-family="GloucesterMT-ExtraCondensed" font-weight="bold" font-size="36.0" fill="#0432FF" transform="matrix(1.00, 0.00, -0.00, -1.00, 810.7, 315.0)">.</text><text xml:space="preserve" font-family="GloucesterMT-ExtraCondensed" font-weight="bold" font-size="36.0" fill="#0432FF" transform="matrix(1.00, 0.00, -0.00, -1.00, 816.8, 315.0)">u</text><text xml:space="preserve" font-family="GloucesterMT-ExtraCondensed" font-weight="bold" font-size="36.0" fill="#0432FF" transform="matrix(1.00, 0.00, -0.00, -1.00, 829.0, 315.0)">k</text><g><clipPath id="clip-1547"><path d="M 620.9 309.3 L 841.3 309.3 L 841.3 313.1 L 620.9 313.1 Z M 620.9 309.3 "></path></clipPath><g clip-path="url(#clip-1547)"><path d="M 45.4 83.8 L 264.8 83.8 " fill="none" stroke="#0432FF" stroke-width="1.79" stroke-miterlimit="0.00" transform="matrix(1.00, 0.00, 0.00, -1.00, 576.5, 395.0)"></path></g></g></g></svg>