<?xml version="1.0" encoding="UTF-8" standalone="no"?><svg xmlns="http://www.w3.org/2000/svg" xmlns:xlink="http://www.w3.org/1999/xlink" clip-rule="evenodd" stroke-miterlimit="4.00" viewBox="0 0 1024 768"><desc>SVG generated by Keynote</desc><defs></defs><g transform="matrix(1.00, 0.00, -0.00, -1.00, 0.0, 768.0)"><g><clipPath id="clip-2679"><path d="M 0.0 768.0 L 1024.0 768.0 L 1024.0 0.0 L 0.0 0.0 Z M 0.0 768.0 "></path></clipPath><g clip-path="url(#clip-2679)"><image xlink:href="../../41F9CECD-E746-4B6A-B57C-11EF94883B77/assets/A48D6513BC58F3BBF0655FD09F4A8718.jpeg" width="768.00" height="768.00" transform="matrix(1.33, 0.00, -0.00, -1.33, 0.0, 768.0)"></image></g></g><g opacity="0.30"><g><clipPath id="clip-2680"><path d="M 38.0 36.0 L 986.0 36.0 L 986.0 45.0 L 38.0 45.0 Z M 38.0 36.0 "></path></clipPath><g clip-path="url(#clip-2680)"><path d="M 0.0 0.0 L 944.0 0.0 " fill="none" stroke="#434343" stroke-width="6.00" transform="matrix(1.00, 0.00, 0.00, -1.00, 40.0, 40.0)"></path></g></g></g><g opacity="0.30"><g><clipPath id="clip-2681"><path d="M 38.0 726.0 L 986.0 726.0 L 986.0 730.0 L 38.0 730.0 Z M 38.0 726.0 "></path></clipPath><g clip-path="url(#clip-2681)"><path d="M 0.0 0.0 L 944.0 0.0 " fill="none" stroke="#434343" stroke-width="1.00" transform="matrix(1.00, 0.00, 0.00, -1.00, 40.0, 728.0)"></path></g></g></g><g><clipPath id="clip-2682"><path d="M 36.7 624.2 L 91.9 624.2 L 91.9 723.5 L 36.7 723.5 Z M 36.7 624.2 "></path></clipPath><g clip-path="url(#clip-2682)"><image xlink:href="../../41F9CECD-E746-4B6A-B57C-11EF94883B77/assets/8412EA7883B927C520D3E7200E74D714.png" width="55.00" height="100.00" transform="matrix(1.00, 0.00, -0.00, -1.00, 37.0, 724.0)"></image></g></g><g><clipPath id="clip-2683"><path d="M 111.4 651.0 L 492.6 651.0 L 492.6 712.7 L 111.4 712.7 Z M 111.4 651.0 "></path></clipPath><g clip-path="url(#clip-2683)"><text xml:space="preserve" font-family="GillSans" font-size="36.0" fill="#0B75FE" transform="matrix(1.00, 0.00, -0.00, -1.00, 122.0, 670.0)">C</text><text xml:space="preserve" font-family="GillSans" font-size="36.0" fill="#605F5F" transform="matrix(1.00, 0.00, -0.00, -1.00, 147.5, 670.0)">o</text><text xml:space="preserve" font-family="GillSans" font-size="36.0" fill="#605F5F" transform="matrix(1.00, 0.00, -0.00, -1.00, 167.3, 670.0)">m</text><text xml:space="preserve" font-family="GillSans" font-size="36.0" fill="#605F5F" transform="matrix(1.00, 0.00, -0.00, -1.00, 195.1, 670.0)">m</text><text xml:space="preserve" font-family="GillSans" font-size="36.0" fill="#605F5F" transform="matrix(1.00, 0.00, -0.00, -1.00, 222.5, 670.0)">u</text><text xml:space="preserve" font-family="GillSans" font-size="36.0" fill="#605F5F" transform="matrix(1.00, 0.00, -0.00, -1.00, 240.5, 670.0)">n</text><text xml:space="preserve" font-family="GillSans" font-size="36.0" fill="#605F5F" transform="matrix(1.00, 0.00, -0.00, -1.00, 258.5, 670.0)">i</text><text xml:space="preserve" font-family="GillSans" font-size="36.0" fill="#605F5F" transform="matrix(1.00, 0.00, -0.00, -1.00, 266.4, 670.0)">t</text><text xml:space="preserve" font-family="GillSans" font-size="36.0" fill="#605F5F" transform="matrix(1.00, 0.00, -0.00, -1.00, 278.4, 670.0)">y</text><text xml:space="preserve" font-family="GillSans" font-size="36.0" fill="#605F5F" transform="matrix(1.00, 0.00, -0.00, -1.00, 294.2, 670.0)"> </text><text xml:space="preserve" font-family="GillSans" font-size="36.0" fill="#FDA602" transform="matrix(1.00, 0.00, -0.00, -1.00, 304.2, 670.0)">C</text><text xml:space="preserve" font-family="GillSans" font-size="36.0" fill="#605F5F" transform="matrix(1.00, 0.00, -0.00, -1.00, 329.7, 670.0)">o</text><text xml:space="preserve" font-family="GillSans" font-size="36.0" fill="#605F5F" transform="matrix(1.00, 0.00, -0.00, -1.00, 349.5, 670.0)">u</text><text xml:space="preserve" font-family="GillSans" font-size="36.0" fill="#605F5F" transform="matrix(1.00, 0.00, -0.00, -1.00, 367.5, 670.0)">n</text><text xml:space="preserve" font-family="GillSans" font-size="36.0" fill="#605F5F" transform="matrix(1.00, 0.00, -0.00, -1.00, 385.5, 670.0)">t</text><text xml:space="preserve" font-family="GillSans" font-size="36.0" fill="#605F5F" transform="matrix(1.00, 0.00, -0.00, -1.00, 397.5, 670.0)">s</text><text xml:space="preserve" font-family="GillSans" font-size="36.0" fill="#605F5F" transform="matrix(1.00, 0.00, -0.00, -1.00, 411.3, 670.0)"> </text><text xml:space="preserve" font-family="GillSans" font-size="36.0" fill="#605F5F" transform="matrix(1.00, 0.00, -0.00, -1.00, 415.9, 670.0)">V</text><text xml:space="preserve" font-family="GillSans" font-size="36.0" fill="#605F5F" transform="matrix(1.00, 0.00, -0.00, -1.00, 437.7, 670.0)">3</text><text xml:space="preserve" font-family="GillSans" font-size="36.0" fill="#605F5F" transform="matrix(1.00, 0.00, -0.00, -1.00, 455.7, 670.0)">.</text><text xml:space="preserve" font-family="GillSans" font-size="36.0" fill="#605F5F" transform="matrix(1.00, 0.00, -0.00, -1.00, 463.6, 670.0)">0</text></g></g><g><clipPath id="clip-2684"><path d="M 627.0 674.0 L 916.0 674.0 L 916.0 126.0 L 627.0 126.0 Z M 627.4 674.1 "></path></clipPath><g clip-path="url(#clip-2684)"><image xlink:href="../../EF70ECB7-F010-4185-982F-F70DDCE105C3/assets/E95063ED95E19BDBCBC3FAF9C89D2B01.png" width="283.00" height="541.00" transform="matrix(1.01, 0.00, -0.00, -1.01, 628.0, 674.0)"></image></g></g><image xlink:href="../../EF70ECB7-F010-4185-982F-F70DDCE105C3/assets/561C52668B4806A3938ECA75F2ABB7A2.png" width="309.00" height="574.00" transform="matrix(1.00, 0.00, -0.00, 1.00, 617.4, 106.9)"></image><text xml:space="preserve" font-family="GillSans-Light" font-size="64.0" fill="#605F5F" transform="matrix(1.00, 0.00, -0.00, -1.00, 62.0, 518.0)">N</text><text xml:space="preserve" font-family="GillSans-Light" font-size="64.0" fill="#605F5F" transform="matrix(1.00, 0.00, -0.00, -1.00, 111.3, 518.0)">E</text><text xml:space="preserve" font-family="GillSans-Light" font-size="64.0" fill="#605F5F" transform="matrix(1.00, 0.00, -0.00, -1.00, 142.7, 518.0)">W</text><text xml:space="preserve" font-family="GillSans-Light" font-size="64.0" fill="#605F5F" transform="matrix(1.00, 0.00, -0.00, -1.00, 208.7, 518.0)">:</text><text xml:space="preserve" font-family="GillSans" font-size="24.0" fill="#605F5F" transform="matrix(1.00, 0.00, -0.00, -1.00, 44.0, 445.0)">C</text><text xml:space="preserve" font-family="GillSans" font-size="24.0" fill="#605F5F" transform="matrix(1.00, 0.00, -0.00, -1.00, 61.0, 445.0)">l</text><text xml:space="preserve" font-family="GillSans" font-size="24.0" fill="#605F5F" transform="matrix(1.00, 0.00, -0.00, -1.00, 66.3, 445.0)">i</text><text xml:space="preserve" font-family="GillSans" font-size="24.0" fill="#605F5F" transform="matrix(1.00, 0.00, -0.00, -1.00, 71.5, 445.0)">e</text><text xml:space="preserve" font-family="GillSans" font-size="24.0" fill="#605F5F" transform="matrix(1.00, 0.00, -0.00, -1.00, 83.0, 445.0)">n</text><text xml:space="preserve" font-family="GillSans" font-size="24.0" fill="#605F5F" transform="matrix(1.00, 0.00, -0.00, -1.00, 95.0, 445.0)">t</text><text xml:space="preserve" font-family="GillSans" font-size="24.0" fill="#605F5F" transform="matrix(1.00, 0.00, -0.00, -1.00, 103.0, 445.0)"> </text><text xml:space="preserve" font-family="GillSans" font-size="24.0" fill="#605F5F" transform="matrix(1.00, 0.00, -0.00, -1.00, 109.7, 445.0)">N</text><text xml:space="preserve" font-family="GillSans" font-size="24.0" fill="#605F5F" transform="matrix(1.00, 0.00, -0.00, -1.00, 128.4, 445.0)">e</text><text xml:space="preserve" font-family="GillSans" font-size="24.0" fill="#605F5F" transform="matrix(1.00, 0.00, -0.00, -1.00, 139.9, 445.0)">e</text><text xml:space="preserve" font-family="GillSans" font-size="24.0" fill="#605F5F" transform="matrix(1.00, 0.00, -0.00, -1.00, 151.4, 445.0)">d</text><text xml:space="preserve" font-family="GillSans" font-size="24.0" fill="#605F5F" transform="matrix(1.00, 0.00, -0.00, -1.00, 163.6, 445.0)">s</text><text xml:space="preserve" font-family="GillSans" font-size="24.0" fill="#605F5F" transform="matrix(1.00, 0.00, -0.00, -1.00, 172.9, 445.0)"> </text><text xml:space="preserve" font-family="GillSans" font-size="24.0" fill="#605F5F" transform="matrix(1.00, 0.00, -0.00, -1.00, 179.5, 445.0)">p</text><text xml:space="preserve" font-family="GillSans" font-size="24.0" fill="#605F5F" transform="matrix(1.00, 0.00, -0.00, -1.00, 191.5, 445.0)">r</text><text xml:space="preserve" font-family="GillSans" font-size="24.0" fill="#605F5F" transform="matrix(1.00, 0.00, -0.00, -1.00, 200.4, 445.0)">o</text><text xml:space="preserve" font-family="GillSans" font-size="24.0" fill="#605F5F" transform="matrix(1.00, 0.00, -0.00, -1.00, 213.7, 445.0)">c</text><text xml:space="preserve" font-family="GillSans" font-size="24.0" fill="#605F5F" transform="matrix(1.00, 0.00, -0.00, -1.00, 224.2, 445.0)">e</text><text xml:space="preserve" font-family="GillSans" font-size="24.0" fill="#605F5F" transform="matrix(1.00, 0.00, -0.00, -1.00, 235.7, 445.0)">s</text><text xml:space="preserve" font-family="GillSans" font-size="24.0" fill="#605F5F" transform="matrix(1.00, 0.00, -0.00, -1.00, 244.9, 445.0)">s</text></g></svg>