<?xml version="1.0" encoding="UTF-8" standalone="no"?><svg xmlns="http://www.w3.org/2000/svg" xmlns:xlink="http://www.w3.org/1999/xlink" clip-rule="evenodd" stroke-miterlimit="4.00" viewBox="0 0 1024 768"><desc>SVG generated by Keynote</desc><defs></defs><g transform="matrix(1.00, 0.00, -0.00, -1.00, 0.0, 768.0)"><g><clipPath id="clip-2691"><path d="M 0.0 768.0 L 1024.0 768.0 L 1024.0 0.0 L 0.0 0.0 Z M 0.0 768.0 "></path></clipPath><g clip-path="url(#clip-2691)"><image xlink:href="../../41F9CECD-E746-4B6A-B57C-11EF94883B77/assets/A48D6513BC58F3BBF0655FD09F4A8718.jpeg" width="768.00" height="768.00" transform="matrix(1.33, 0.00, -0.00, -1.33, 0.0, 768.0)"></image></g></g><g opacity="0.30"><g><clipPath id="clip-2692"><path d="M 38.0 36.0 L 986.0 36.0 L 986.0 45.0 L 38.0 45.0 Z M 38.0 36.0 "></path></clipPath><g clip-path="url(#clip-2692)"><path d="M 0.0 0.0 L 944.0 0.0 " fill="none" stroke="#434343" stroke-width="6.00" transform="matrix(1.00, 0.00, 0.00, -1.00, 40.0, 40.0)"></path></g></g></g><g opacity="0.30"><g><clipPath id="clip-2693"><path d="M 38.0 726.0 L 986.0 726.0 L 986.0 730.0 L 38.0 730.0 Z M 38.0 726.0 "></path></clipPath><g clip-path="url(#clip-2693)"><path d="M 0.0 0.0 L 944.0 0.0 " fill="none" stroke="#434343" stroke-width="1.00" transform="matrix(1.00, 0.00, 0.00, -1.00, 40.0, 728.0)"></path></g></g></g><g><clipPath id="clip-2694"><path d="M 36.7 624.2 L 91.9 624.2 L 91.9 723.5 L 36.7 723.5 Z M 36.7 624.2 "></path></clipPath><g clip-path="url(#clip-2694)"><image xlink:href="../../41F9CECD-E746-4B6A-B57C-11EF94883B77/assets/8412EA7883B927C520D3E7200E74D714.png" width="55.00" height="100.00" transform="matrix(1.00, 0.00, -0.00, -1.00, 37.0, 724.0)"></image></g></g><g><clipPath id="clip-2695"><path d="M 111.4 651.0 L 492.6 651.0 L 492.6 712.7 L 111.4 712.7 Z M 111.4 651.0 "></path></clipPath><g clip-path="url(#clip-2695)"><text xml:space="preserve" font-family="GillSans" font-size="36.0" fill="#0B75FE" transform="matrix(1.00, 0.00, -0.00, -1.00, 122.0, 670.0)">C</text><text xml:space="preserve" font-family="GillSans" font-size="36.0" fill="#605F5F" transform="matrix(1.00, 0.00, -0.00, -1.00, 147.5, 670.0)">o</text><text xml:space="preserve" font-family="GillSans" font-size="36.0" fill="#605F5F" transform="matrix(1.00, 0.00, -0.00, -1.00, 167.3, 670.0)">m</text><text xml:space="preserve" font-family="GillSans" font-size="36.0" fill="#605F5F" transform="matrix(1.00, 0.00, -0.00, -1.00, 195.1, 670.0)">m</text><text xml:space="preserve" font-family="GillSans" font-size="36.0" fill="#605F5F" transform="matrix(1.00, 0.00, -0.00, -1.00, 222.5, 670.0)">u</text><text xml:space="preserve" font-family="GillSans" font-size="36.0" fill="#605F5F" transform="matrix(1.00, 0.00, -0.00, -1.00, 240.5, 670.0)">n</text><text xml:space="preserve" font-family="GillSans" font-size="36.0" fill="#605F5F" transform="matrix(1.00, 0.00, -0.00, -1.00, 258.5, 670.0)">i</text><text xml:space="preserve" font-family="GillSans" font-size="36.0" fill="#605F5F" transform="matrix(1.00, 0.00, -0.00, -1.00, 266.4, 670.0)">t</text><text xml:space="preserve" font-family="GillSans" font-size="36.0" fill="#605F5F" transform="matrix(1.00, 0.00, -0.00, -1.00, 278.4, 670.0)">y</text><text xml:space="preserve" font-family="GillSans" font-size="36.0" fill="#605F5F" transform="matrix(1.00, 0.00, -0.00, -1.00, 294.2, 670.0)"> </text><text xml:space="preserve" font-family="GillSans" font-size="36.0" fill="#FDA602" transform="matrix(1.00, 0.00, -0.00, -1.00, 304.2, 670.0)">C</text><text xml:space="preserve" font-family="GillSans" font-size="36.0" fill="#605F5F" transform="matrix(1.00, 0.00, -0.00, -1.00, 329.7, 670.0)">o</text><text xml:space="preserve" font-family="GillSans" font-size="36.0" fill="#605F5F" transform="matrix(1.00, 0.00, -0.00, -1.00, 349.5, 670.0)">u</text><text xml:space="preserve" font-family="GillSans" font-size="36.0" fill="#605F5F" transform="matrix(1.00, 0.00, -0.00, -1.00, 367.5, 670.0)">n</text><text xml:space="preserve" font-family="GillSans" font-size="36.0" fill="#605F5F" transform="matrix(1.00, 0.00, -0.00, -1.00, 385.5, 670.0)">t</text><text xml:space="preserve" font-family="GillSans" font-size="36.0" fill="#605F5F" transform="matrix(1.00, 0.00, -0.00, -1.00, 397.5, 670.0)">s</text><text xml:space="preserve" font-family="GillSans" font-size="36.0" fill="#605F5F" transform="matrix(1.00, 0.00, -0.00, -1.00, 411.3, 670.0)"> </text><text xml:space="preserve" font-family="GillSans" font-size="36.0" fill="#605F5F" transform="matrix(1.00, 0.00, -0.00, -1.00, 415.9, 670.0)">V</text><text xml:space="preserve" font-family="GillSans" font-size="36.0" fill="#605F5F" transform="matrix(1.00, 0.00, -0.00, -1.00, 437.7, 670.0)">3</text><text xml:space="preserve" font-family="GillSans" font-size="36.0" fill="#605F5F" transform="matrix(1.00, 0.00, -0.00, -1.00, 455.7, 670.0)">.</text><text xml:space="preserve" font-family="GillSans" font-size="36.0" fill="#605F5F" transform="matrix(1.00, 0.00, -0.00, -1.00, 463.6, 670.0)">0</text></g></g><g><clipPath id="clip-2696"><path d="M 432.0 596.0 L 971.0 596.0 L 971.0 167.0 L 432.0 167.0 Z M 431.5 595.9 "></path></clipPath><g clip-path="url(#clip-2696)"><image xlink:href="../../79EDE66B-B719-4479-9624-467A476DBBD0/assets/CC0D5258A17CEE697DC7D5607212007D.png" width="536.00" height="428.00" transform="matrix(1.00, 0.00, -0.00, -1.00, 433.0, 596.0)"></image></g></g><image xlink:href="../../79EDE66B-B719-4479-9624-467A476DBBD0/assets/126EFDCF2CBC19ED7DC53C83CF96AC1D.png" width="559.00" height="455.00" transform="matrix(1.00, 0.00, -0.00, 1.00, 421.5, 148.2)"></image><text xml:space="preserve" font-family="GillSans-Light" font-size="64.0" fill="#605F5F" transform="matrix(1.00, 0.00, -0.00, -1.00, 62.0, 518.0)">N</text><text xml:space="preserve" font-family="GillSans-Light" font-size="64.0" fill="#605F5F" transform="matrix(1.00, 0.00, -0.00, -1.00, 111.3, 518.0)">E</text><text xml:space="preserve" font-family="GillSans-Light" font-size="64.0" fill="#605F5F" transform="matrix(1.00, 0.00, -0.00, -1.00, 142.7, 518.0)">W</text><text xml:space="preserve" font-family="GillSans-Light" font-size="64.0" fill="#605F5F" transform="matrix(1.00, 0.00, -0.00, -1.00, 208.7, 518.0)">:</text><text xml:space="preserve" font-family="GillSans" font-size="24.0" fill="#605F5F" transform="matrix(1.00, 0.00, -0.00, -1.00, 44.0, 445.0)">C</text><text xml:space="preserve" font-family="GillSans" font-size="24.0" fill="#605F5F" transform="matrix(1.00, 0.00, -0.00, -1.00, 61.0, 445.0)">l</text><text xml:space="preserve" font-family="GillSans" font-size="24.0" fill="#605F5F" transform="matrix(1.00, 0.00, -0.00, -1.00, 66.3, 445.0)">i</text><text xml:space="preserve" font-family="GillSans" font-size="24.0" fill="#605F5F" transform="matrix(1.00, 0.00, -0.00, -1.00, 71.5, 445.0)">e</text><text xml:space="preserve" font-family="GillSans" font-size="24.0" fill="#605F5F" transform="matrix(1.00, 0.00, -0.00, -1.00, 83.0, 445.0)">n</text><text xml:space="preserve" font-family="GillSans" font-size="24.0" fill="#605F5F" transform="matrix(1.00, 0.00, -0.00, -1.00, 95.0, 445.0)">t</text><text xml:space="preserve" font-family="GillSans" font-size="24.0" fill="#605F5F" transform="matrix(1.00, 0.00, -0.00, -1.00, 103.0, 445.0)"> </text><text xml:space="preserve" font-family="GillSans" font-size="24.0" fill="#605F5F" transform="matrix(1.00, 0.00, -0.00, -1.00, 109.7, 445.0)">C</text><text xml:space="preserve" font-family="GillSans" font-size="24.0" fill="#605F5F" transform="matrix(1.00, 0.00, -0.00, -1.00, 126.7, 445.0)">a</text><text xml:space="preserve" font-family="GillSans" font-size="24.0" fill="#605F5F" transform="matrix(1.00, 0.00, -0.00, -1.00, 136.9, 445.0)">s</text><text xml:space="preserve" font-family="GillSans" font-size="24.0" fill="#605F5F" transform="matrix(1.00, 0.00, -0.00, -1.00, 146.1, 445.0)">e</text><text xml:space="preserve" font-family="GillSans" font-size="24.0" fill="#605F5F" transform="matrix(1.00, 0.00, -0.00, -1.00, 157.3, 445.0)">w</text><text xml:space="preserve" font-family="GillSans" font-size="24.0" fill="#605F5F" transform="matrix(1.00, 0.00, -0.00, -1.00, 174.1, 445.0)">o</text><text xml:space="preserve" font-family="GillSans" font-size="24.0" fill="#605F5F" transform="matrix(1.00, 0.00, -0.00, -1.00, 187.3, 445.0)">r</text><text xml:space="preserve" font-family="GillSans" font-size="24.0" fill="#605F5F" transform="matrix(1.00, 0.00, -0.00, -1.00, 196.8, 445.0)">k</text><text xml:space="preserve" font-family="GillSans" font-size="24.0" fill="#605F5F" transform="matrix(1.00, 0.00, -0.00, -1.00, 208.3, 445.0)"> </text><text xml:space="preserve" font-family="GillSans" font-size="24.0" fill="#605F5F" transform="matrix(1.00, 0.00, -0.00, -1.00, 215.0, 445.0)">p</text><text xml:space="preserve" font-family="GillSans" font-size="24.0" fill="#605F5F" transform="matrix(1.00, 0.00, -0.00, -1.00, 227.0, 445.0)">r</text><text xml:space="preserve" font-family="GillSans" font-size="24.0" fill="#605F5F" transform="matrix(1.00, 0.00, -0.00, -1.00, 235.9, 445.0)">o</text><text xml:space="preserve" font-family="GillSans" font-size="24.0" fill="#605F5F" transform="matrix(1.00, 0.00, -0.00, -1.00, 249.1, 445.0)">c</text><text xml:space="preserve" font-family="GillSans" font-size="24.0" fill="#605F5F" transform="matrix(1.00, 0.00, -0.00, -1.00, 259.6, 445.0)">e</text><text xml:space="preserve" font-family="GillSans" font-size="24.0" fill="#605F5F" transform="matrix(1.00, 0.00, -0.00, -1.00, 271.1, 445.0)">s</text><text xml:space="preserve" font-family="GillSans" font-size="24.0" fill="#605F5F" transform="matrix(1.00, 0.00, -0.00, -1.00, 280.3, 445.0)">s</text></g></svg>