<?xml version="1.0" encoding="UTF-8" standalone="no"?><svg xmlns="http://www.w3.org/2000/svg" xmlns:xlink="http://www.w3.org/1999/xlink" clip-rule="evenodd" stroke-miterlimit="4.00" viewBox="0 0 1024 768"><desc>SVG generated by Keynote</desc><defs></defs><g transform="matrix(1.00, 0.00, -0.00, -1.00, 0.0, 768.0)"><g><clipPath id="clip-1720"><path d="M 0.0 768.0 L 1024.0 768.0 L 1024.0 0.0 L 0.0 0.0 Z M 0.0 768.0 "></path></clipPath><g clip-path="url(#clip-1720)"><image xlink:href="../../41F9CECD-E746-4B6A-B57C-11EF94883B77/assets/A48D6513BC58F3BBF0655FD09F4A8718.jpeg" width="768.00" height="768.00" transform="matrix(1.33, 0.00, -0.00, -1.33, 0.0, 768.0)"></image></g></g><g opacity="0.30"><g><clipPath id="clip-1721"><path d="M 38.0 36.0 L 986.0 36.0 L 986.0 45.0 L 38.0 45.0 Z M 38.0 36.0 "></path></clipPath><g clip-path="url(#clip-1721)"><path d="M 0.0 0.0 L 944.0 0.0 " fill="none" stroke="#434343" stroke-width="6.00" transform="matrix(1.00, 0.00, 0.00, -1.00, 40.0, 40.0)"></path></g></g></g><g opacity="0.30"><g><clipPath id="clip-1722"><path d="M 38.0 726.0 L 986.0 726.0 L 986.0 730.0 L 38.0 730.0 Z M 38.0 726.0 "></path></clipPath><g clip-path="url(#clip-1722)"><path d="M 0.0 0.0 L 944.0 0.0 " fill="none" stroke="#434343" stroke-width="1.00" transform="matrix(1.00, 0.00, 0.00, -1.00, 40.0, 728.0)"></path></g></g></g><g><clipPath id="clip-1723"><path d="M 36.7 624.2 L 91.9 624.2 L 91.9 723.5 L 36.7 723.5 Z M 36.7 624.2 "></path></clipPath><g clip-path="url(#clip-1723)"><image xlink:href="../../41F9CECD-E746-4B6A-B57C-11EF94883B77/assets/8412EA7883B927C520D3E7200E74D714.png" width="55.00" height="100.00" transform="matrix(1.00, 0.00, -0.00, -1.00, 37.0, 724.0)"></image></g></g><g><clipPath id="clip-1724"><path d="M 111.4 651.0 L 492.6 651.0 L 492.6 712.7 L 111.4 712.7 Z M 111.4 651.0 "></path></clipPath><g clip-path="url(#clip-1724)"><text xml:space="preserve" font-family="GillSans" font-size="36.0" fill="#0B75FE" transform="matrix(1.00, 0.00, -0.00, -1.00, 122.0, 670.0)">C</text><text xml:space="preserve" font-family="GillSans" font-size="36.0" fill="#605F5F" transform="matrix(1.00, 0.00, -0.00, -1.00, 147.5, 670.0)">o</text><text xml:space="preserve" font-family="GillSans" font-size="36.0" fill="#605F5F" transform="matrix(1.00, 0.00, -0.00, -1.00, 167.3, 670.0)">m</text><text xml:space="preserve" font-family="GillSans" font-size="36.0" fill="#605F5F" transform="matrix(1.00, 0.00, -0.00, -1.00, 195.1, 670.0)">m</text><text xml:space="preserve" font-family="GillSans" font-size="36.0" fill="#605F5F" transform="matrix(1.00, 0.00, -0.00, -1.00, 222.5, 670.0)">u</text><text xml:space="preserve" font-family="GillSans" font-size="36.0" fill="#605F5F" transform="matrix(1.00, 0.00, -0.00, -1.00, 240.5, 670.0)">n</text><text xml:space="preserve" font-family="GillSans" font-size="36.0" fill="#605F5F" transform="matrix(1.00, 0.00, -0.00, -1.00, 258.5, 670.0)">i</text><text xml:space="preserve" font-family="GillSans" font-size="36.0" fill="#605F5F" transform="matrix(1.00, 0.00, -0.00, -1.00, 266.4, 670.0)">t</text><text xml:space="preserve" font-family="GillSans" font-size="36.0" fill="#605F5F" transform="matrix(1.00, 0.00, -0.00, -1.00, 278.4, 670.0)">y</text><text xml:space="preserve" font-family="GillSans" font-size="36.0" fill="#605F5F" transform="matrix(1.00, 0.00, -0.00, -1.00, 294.2, 670.0)"> </text><text xml:space="preserve" font-family="GillSans" font-size="36.0" fill="#FDA602" transform="matrix(1.00, 0.00, -0.00, -1.00, 304.2, 670.0)">C</text><text xml:space="preserve" font-family="GillSans" font-size="36.0" fill="#605F5F" transform="matrix(1.00, 0.00, -0.00, -1.00, 329.7, 670.0)">o</text><text xml:space="preserve" font-family="GillSans" font-size="36.0" fill="#605F5F" transform="matrix(1.00, 0.00, -0.00, -1.00, 349.5, 670.0)">u</text><text xml:space="preserve" font-family="GillSans" font-size="36.0" fill="#605F5F" transform="matrix(1.00, 0.00, -0.00, -1.00, 367.5, 670.0)">n</text><text xml:space="preserve" font-family="GillSans" font-size="36.0" fill="#605F5F" transform="matrix(1.00, 0.00, -0.00, -1.00, 385.5, 670.0)">t</text><text xml:space="preserve" font-family="GillSans" font-size="36.0" fill="#605F5F" transform="matrix(1.00, 0.00, -0.00, -1.00, 397.5, 670.0)">s</text><text xml:space="preserve" font-family="GillSans" font-size="36.0" fill="#605F5F" transform="matrix(1.00, 0.00, -0.00, -1.00, 411.3, 670.0)"> </text><text xml:space="preserve" font-family="GillSans" font-size="36.0" fill="#605F5F" transform="matrix(1.00, 0.00, -0.00, -1.00, 415.9, 670.0)">V</text><text xml:space="preserve" font-family="GillSans" font-size="36.0" fill="#605F5F" transform="matrix(1.00, 0.00, -0.00, -1.00, 437.7, 670.0)">3</text><text xml:space="preserve" font-family="GillSans" font-size="36.0" fill="#605F5F" transform="matrix(1.00, 0.00, -0.00, -1.00, 455.7, 670.0)">.</text><text xml:space="preserve" font-family="GillSans" font-size="36.0" fill="#605F5F" transform="matrix(1.00, 0.00, -0.00, -1.00, 463.6, 670.0)">0</text></g></g><g><clipPath id="clip-1725"><path d="M 194.0 652.0 L 791.0 652.0 L 791.0 59.0 L 194.0 59.0 Z M 194.0 652.0 "></path></clipPath><g clip-path="url(#clip-1725)"><image xlink:href="76903119AA4A0B1F8113D4FDA9F7BEA7.png" width="593.00" height="593.00" transform="matrix(1.00, 0.00, -0.00, -1.00, 196.0, 652.0)"></image></g></g><image xlink:href="21D0AC4407D62C6AFE4F370CF87DEAB7.png" width="617.00" height="619.00" transform="matrix(1.00, 0.00, -0.00, 1.00, 184.0, 40.0)"></image></g></svg>