<?xml version="1.0" encoding="UTF-8" standalone="no"?><svg xmlns="http://www.w3.org/2000/svg" xmlns:xlink="http://www.w3.org/1999/xlink" clip-rule="evenodd" stroke-miterlimit="4.00" viewBox="0 0 333 92"><desc>SVG generated by Keynote</desc><defs></defs><g transform="matrix(1.00, 0.00, -0.00, -1.00, 0.0, 92.0)"><text xml:space="preserve" font-family="GillSans" font-size="29.0" fill="#605F5F" transform="matrix(1.00, 0.00, -0.00, -1.00, 1.0, 70.0)">T</text><text xml:space="preserve" font-family="GillSans" font-size="29.0" fill="#605F5F" transform="matrix(1.00, 0.00, -0.00, -1.00, 18.5, 70.0)">h</text><text xml:space="preserve" font-family="GillSans" font-size="29.0" fill="#605F5F" transform="matrix(1.00, 0.00, -0.00, -1.00, 33.0, 70.0)">i</text><text xml:space="preserve" font-family="GillSans" font-size="29.0" fill="#605F5F" transform="matrix(1.00, 0.00, -0.00, -1.00, 39.4, 70.0)">s</text><text xml:space="preserve" font-family="GillSans" font-size="29.0" fill="#605F5F" transform="matrix(1.00, 0.00, -0.00, -1.00, 50.5, 70.0)"> </text><text xml:space="preserve" font-family="GillSans" font-size="29.0" fill="#605F5F" transform="matrix(1.00, 0.00, -0.00, -1.00, 58.6, 70.0)">i</text><text xml:space="preserve" font-family="GillSans" font-size="29.0" fill="#605F5F" transform="matrix(1.00, 0.00, -0.00, -1.00, 64.9, 70.0)">n</text><text xml:space="preserve" font-family="GillSans" font-size="29.0" fill="#605F5F" transform="matrix(1.00, 0.00, -0.00, -1.00, 79.4, 70.0)">t</text><text xml:space="preserve" font-family="GillSans" font-size="29.0" fill="#605F5F" transform="matrix(1.00, 0.00, -0.00, -1.00, 89.1, 70.0)">r</text><text xml:space="preserve" font-family="GillSans" font-size="29.0" fill="#605F5F" transform="matrix(1.00, 0.00, -0.00, -1.00, 99.9, 70.0)">o</text><text xml:space="preserve" font-family="GillSans" font-size="29.0" fill="#605F5F" transform="matrix(1.00, 0.00, -0.00, -1.00, 115.9, 70.0)">d</text><text xml:space="preserve" font-family="GillSans" font-size="29.0" fill="#605F5F" transform="matrix(1.00, 0.00, -0.00, -1.00, 130.6, 70.0)">u</text><text xml:space="preserve" font-family="GillSans" font-size="29.0" fill="#605F5F" transform="matrix(1.00, 0.00, -0.00, -1.00, 145.1, 70.0)">c</text><text xml:space="preserve" font-family="GillSans" font-size="29.0" fill="#605F5F" transform="matrix(1.00, 0.00, -0.00, -1.00, 157.8, 70.0)">e</text><text xml:space="preserve" font-family="GillSans" font-size="29.0" fill="#605F5F" transform="matrix(1.00, 0.00, -0.00, -1.00, 171.7, 70.0)">s</text><text xml:space="preserve" font-family="GillSans" font-size="29.0" fill="#605F5F" transform="matrix(1.00, 0.00, -0.00, -1.00, 182.9, 70.0)"> </text><text xml:space="preserve" font-family="GillSans" font-size="29.0" fill="#605F5F" transform="matrix(1.00, 0.00, -0.00, -1.00, 190.9, 70.0)">t</text><text xml:space="preserve" font-family="GillSans" font-size="29.0" fill="#605F5F" transform="matrix(1.00, 0.00, -0.00, -1.00, 200.6, 70.0)">h</text><text xml:space="preserve" font-family="GillSans" font-size="29.0" fill="#605F5F" transform="matrix(1.00, 0.00, -0.00, -1.00, 215.1, 70.0)">e</text><text xml:space="preserve" font-family="GillSans" font-size="29.0" fill="#605F5F" transform="matrix(1.00, 0.00, -0.00, -1.00, 229.0, 70.0)"> </text><text xml:space="preserve" font-family="GillSans" font-size="29.0" fill="#605F5F" transform="matrix(1.00, 0.00, -0.00, -1.00, 237.0, 70.0)">i</text><text xml:space="preserve" font-family="GillSans" font-size="29.0" fill="#605F5F" transform="matrix(1.00, 0.00, -0.00, -1.00, 243.4, 70.0)">d</text><text xml:space="preserve" font-family="GillSans" font-size="29.0" fill="#605F5F" transform="matrix(1.00, 0.00, -0.00, -1.00, 258.2, 70.0)">e</text><text xml:space="preserve" font-family="GillSans" font-size="29.0" fill="#605F5F" transform="matrix(1.00, 0.00, -0.00, -1.00, 272.1, 70.0)">a</text><text xml:space="preserve" font-family="GillSans" font-size="29.0" fill="#605F5F" transform="matrix(1.00, 0.00, -0.00, -1.00, 284.4, 70.0)"> </text><text xml:space="preserve" font-family="GillSans" font-size="29.0" fill="#605F5F" transform="matrix(1.00, 0.00, -0.00, -1.00, 292.5, 70.0)">o</text><text xml:space="preserve" font-family="GillSans" font-size="29.0" fill="#605F5F" transform="matrix(1.00, 0.00, -0.00, -1.00, 308.5, 70.0)">f</text><text xml:space="preserve" font-family="GillSans" font-size="29.0" fill="#605F5F" transform="matrix(1.00, 0.00, -0.00, -1.00, 315.7, 70.0)"> </text><text xml:space="preserve" font-family="GillSans" font-size="29.0" fill="#605F5F" transform="matrix(1.00, 0.00, -0.00, -1.00, 323.8, 70.0)">:</text><g><clipPath id="clip-2745"><path d="M 0.2 51.2 L 12.2 51.2 L 12.2 39.2 L 0.2 39.2 Z M 0.2 51.2 "></path></clipPath><g clip-path="url(#clip-2745)"><g><clipPath id="clip-2746"><path d="M 1.2 40.2 L 11.2 40.2 L 11.2 50.2 L 1.2 50.2 Z M 1.2 40.2 "></path></clipPath><g clip-path="url(#clip-2746)"><path d="M 11.2 40.2 L 1.2 40.2 L 1.2 50.2 L 11.2 50.2 Z M 11.2 40.2 " fill="#BDBDBD"></path></g></g></g></g><text xml:space="preserve" font-family="GillSans" font-size="29.0" fill="#605F5F" transform="matrix(1.00, 0.00, -0.00, -1.00, 36.0, 36.0)">C</text><text xml:space="preserve" font-family="GillSans" font-size="29.0" fill="#605F5F" transform="matrix(1.00, 0.00, -0.00, -1.00, 56.5, 36.0)">l</text><text xml:space="preserve" font-family="GillSans" font-size="29.0" fill="#605F5F" transform="matrix(1.00, 0.00, -0.00, -1.00, 62.9, 36.0)">i</text><text xml:space="preserve" font-family="GillSans" font-size="29.0" fill="#605F5F" transform="matrix(1.00, 0.00, -0.00, -1.00, 69.3, 36.0)">e</text><text xml:space="preserve" font-family="GillSans" font-size="29.0" fill="#605F5F" transform="matrix(1.00, 0.00, -0.00, -1.00, 83.2, 36.0)">n</text><text xml:space="preserve" font-family="GillSans" font-size="29.0" fill="#605F5F" transform="matrix(1.00, 0.00, -0.00, -1.00, 97.7, 36.0)">t</text><text xml:space="preserve" font-family="GillSans" font-size="29.0" fill="#605F5F" transform="matrix(1.00, 0.00, -0.00, -1.00, 107.3, 36.0)"> </text><text xml:space="preserve" font-family="GillSans" font-size="29.0" fill="#605F5F" transform="matrix(1.00, 0.00, -0.00, -1.00, 115.4, 36.0)">I</text><text xml:space="preserve" font-family="GillSans" font-size="29.0" fill="#605F5F" transform="matrix(1.00, 0.00, -0.00, -1.00, 122.6, 36.0)">D</text><g><clipPath id="clip-2747"><path d="M 0.2 17.2 L 12.2 17.2 L 12.2 5.2 L 0.2 5.2 Z M 0.2 17.2 "></path></clipPath><g clip-path="url(#clip-2747)"><g><clipPath id="clip-2748"><path d="M 1.2 6.2 L 11.2 6.2 L 11.2 16.2 L 1.2 16.2 Z M 1.2 6.2 "></path></clipPath><g clip-path="url(#clip-2748)"><path d="M 11.2 6.2 L 1.2 6.2 L 1.2 16.2 L 11.2 16.2 Z M 11.2 6.2 " fill="#BDBDBD"></path></g></g></g></g><text xml:space="preserve" font-family="GillSans" font-size="29.0" fill="#605F5F" transform="matrix(1.00, 0.00, -0.00, -1.00, 36.0, 2.0)">P</text><text xml:space="preserve" font-family="GillSans" font-size="29.0" fill="#605F5F" transform="matrix(1.00, 0.00, -0.00, -1.00, 50.8, 2.0)">r</text><text xml:space="preserve" font-family="GillSans" font-size="29.0" fill="#605F5F" transform="matrix(1.00, 0.00, -0.00, -1.00, 61.7, 2.0)">e</text><text xml:space="preserve" font-family="GillSans" font-size="29.0" fill="#605F5F" transform="matrix(1.00, 0.00, -0.00, -1.00, 75.1, 2.0)">v</text><text xml:space="preserve" font-family="GillSans" font-size="29.0" fill="#605F5F" transform="matrix(1.00, 0.00, -0.00, -1.00, 87.8, 2.0)">i</text><text xml:space="preserve" font-family="GillSans" font-size="29.0" fill="#605F5F" transform="matrix(1.00, 0.00, -0.00, -1.00, 94.2, 2.0)">o</text><text xml:space="preserve" font-family="GillSans" font-size="29.0" fill="#605F5F" transform="matrix(1.00, 0.00, -0.00, -1.00, 110.2, 2.0)">u</text><text xml:space="preserve" font-family="GillSans" font-size="29.0" fill="#605F5F" transform="matrix(1.00, 0.00, -0.00, -1.00, 124.7, 2.0)">s</text><text xml:space="preserve" font-family="GillSans" font-size="29.0" fill="#605F5F" transform="matrix(1.00, 0.00, -0.00, -1.00, 135.8, 2.0)"> </text><text xml:space="preserve" font-family="GillSans" font-size="29.0" fill="#605F5F" transform="matrix(1.00, 0.00, -0.00, -1.00, 143.9, 2.0)">C</text><text xml:space="preserve" font-family="GillSans" font-size="29.0" fill="#605F5F" transform="matrix(1.00, 0.00, -0.00, -1.00, 164.4, 2.0)">l</text><text xml:space="preserve" font-family="GillSans" font-size="29.0" fill="#605F5F" transform="matrix(1.00, 0.00, -0.00, -1.00, 170.8, 2.0)">i</text><text xml:space="preserve" font-family="GillSans" font-size="29.0" fill="#605F5F" transform="matrix(1.00, 0.00, -0.00, -1.00, 177.2, 2.0)">e</text><text xml:space="preserve" font-family="GillSans" font-size="29.0" fill="#605F5F" transform="matrix(1.00, 0.00, -0.00, -1.00, 191.0, 2.0)">n</text><text xml:space="preserve" font-family="GillSans" font-size="29.0" fill="#605F5F" transform="matrix(1.00, 0.00, -0.00, -1.00, 205.5, 2.0)">t</text><text xml:space="preserve" font-family="GillSans" font-size="29.0" fill="#605F5F" transform="matrix(1.00, 0.00, -0.00, -1.00, 215.2, 2.0)"> </text><text xml:space="preserve" font-family="GillSans" font-size="29.0" fill="#605F5F" transform="matrix(1.00, 0.00, -0.00, -1.00, 223.3, 2.0)">I</text><text xml:space="preserve" font-family="GillSans" font-size="29.0" fill="#605F5F" transform="matrix(1.00, 0.00, -0.00, -1.00, 230.5, 2.0)">D</text></g></svg>