<?xml version="1.0" encoding="UTF-8" standalone="no"?><svg xmlns="http://www.w3.org/2000/svg" xmlns:xlink="http://www.w3.org/1999/xlink" clip-rule="evenodd" stroke-miterlimit="4.00" viewBox="0 0 1024 768"><desc>SVG generated by Keynote</desc><defs></defs><g transform="matrix(1.00, 0.00, -0.00, -1.00, 0.0, 768.0)"><g><clipPath id="clip-2415"><path d="M 0.0 768.0 L 1024.0 768.0 L 1024.0 0.0 L 0.0 0.0 Z M 0.0 768.0 "></path></clipPath><g clip-path="url(#clip-2415)"><image xlink:href="../../41F9CECD-E746-4B6A-B57C-11EF94883B77/assets/A48D6513BC58F3BBF0655FD09F4A8718.jpeg" width="768.00" height="768.00" transform="matrix(1.33, 0.00, -0.00, -1.33, 0.0, 768.0)"></image></g></g><g opacity="0.30"><g><clipPath id="clip-2416"><path d="M 38.0 36.0 L 986.0 36.0 L 986.0 45.0 L 38.0 45.0 Z M 38.0 36.0 "></path></clipPath><g clip-path="url(#clip-2416)"><path d="M 0.0 0.0 L 944.0 0.0 " fill="none" stroke="#434343" stroke-width="6.00" transform="matrix(1.00, 0.00, 0.00, -1.00, 40.0, 40.0)"></path></g></g></g><g opacity="0.30"><g><clipPath id="clip-2417"><path d="M 38.0 726.0 L 986.0 726.0 L 986.0 730.0 L 38.0 730.0 Z M 38.0 726.0 "></path></clipPath><g clip-path="url(#clip-2417)"><path d="M 0.0 0.0 L 944.0 0.0 " fill="none" stroke="#434343" stroke-width="1.00" transform="matrix(1.00, 0.00, 0.00, -1.00, 40.0, 728.0)"></path></g></g></g><g><clipPath id="clip-2418"><path d="M 36.7 624.2 L 91.9 624.2 L 91.9 723.5 L 36.7 723.5 Z M 36.7 624.2 "></path></clipPath><g clip-path="url(#clip-2418)"><image xlink:href="../../41F9CECD-E746-4B6A-B57C-11EF94883B77/assets/8412EA7883B927C520D3E7200E74D714.png" width="55.00" height="100.00" transform="matrix(1.00, 0.00, -0.00, -1.00, 37.0, 724.0)"></image></g></g><g><clipPath id="clip-2419"><path d="M 111.4 651.0 L 492.6 651.0 L 492.6 712.7 L 111.4 712.7 Z M 111.4 651.0 "></path></clipPath><g clip-path="url(#clip-2419)"><text xml:space="preserve" font-family="GillSans" font-size="36.0" fill="#0B75FE" transform="matrix(1.00, 0.00, -0.00, -1.00, 122.0, 670.0)">C</text><text xml:space="preserve" font-family="GillSans" font-size="36.0" fill="#605F5F" transform="matrix(1.00, 0.00, -0.00, -1.00, 147.5, 670.0)">o</text><text xml:space="preserve" font-family="GillSans" font-size="36.0" fill="#605F5F" transform="matrix(1.00, 0.00, -0.00, -1.00, 167.3, 670.0)">m</text><text xml:space="preserve" font-family="GillSans" font-size="36.0" fill="#605F5F" transform="matrix(1.00, 0.00, -0.00, -1.00, 195.1, 670.0)">m</text><text xml:space="preserve" font-family="GillSans" font-size="36.0" fill="#605F5F" transform="matrix(1.00, 0.00, -0.00, -1.00, 222.5, 670.0)">u</text><text xml:space="preserve" font-family="GillSans" font-size="36.0" fill="#605F5F" transform="matrix(1.00, 0.00, -0.00, -1.00, 240.5, 670.0)">n</text><text xml:space="preserve" font-family="GillSans" font-size="36.0" fill="#605F5F" transform="matrix(1.00, 0.00, -0.00, -1.00, 258.5, 670.0)">i</text><text xml:space="preserve" font-family="GillSans" font-size="36.0" fill="#605F5F" transform="matrix(1.00, 0.00, -0.00, -1.00, 266.4, 670.0)">t</text><text xml:space="preserve" font-family="GillSans" font-size="36.0" fill="#605F5F" transform="matrix(1.00, 0.00, -0.00, -1.00, 278.4, 670.0)">y</text><text xml:space="preserve" font-family="GillSans" font-size="36.0" fill="#605F5F" transform="matrix(1.00, 0.00, -0.00, -1.00, 294.2, 670.0)"> </text><text xml:space="preserve" font-family="GillSans" font-size="36.0" fill="#FDA602" transform="matrix(1.00, 0.00, -0.00, -1.00, 304.2, 670.0)">C</text><text xml:space="preserve" font-family="GillSans" font-size="36.0" fill="#605F5F" transform="matrix(1.00, 0.00, -0.00, -1.00, 329.7, 670.0)">o</text><text xml:space="preserve" font-family="GillSans" font-size="36.0" fill="#605F5F" transform="matrix(1.00, 0.00, -0.00, -1.00, 349.5, 670.0)">u</text><text xml:space="preserve" font-family="GillSans" font-size="36.0" fill="#605F5F" transform="matrix(1.00, 0.00, -0.00, -1.00, 367.5, 670.0)">n</text><text xml:space="preserve" font-family="GillSans" font-size="36.0" fill="#605F5F" transform="matrix(1.00, 0.00, -0.00, -1.00, 385.5, 670.0)">t</text><text xml:space="preserve" font-family="GillSans" font-size="36.0" fill="#605F5F" transform="matrix(1.00, 0.00, -0.00, -1.00, 397.5, 670.0)">s</text><text xml:space="preserve" font-family="GillSans" font-size="36.0" fill="#605F5F" transform="matrix(1.00, 0.00, -0.00, -1.00, 411.3, 670.0)"> </text><text xml:space="preserve" font-family="GillSans" font-size="36.0" fill="#605F5F" transform="matrix(1.00, 0.00, -0.00, -1.00, 415.9, 670.0)">V</text><text xml:space="preserve" font-family="GillSans" font-size="36.0" fill="#605F5F" transform="matrix(1.00, 0.00, -0.00, -1.00, 437.7, 670.0)">3</text><text xml:space="preserve" font-family="GillSans" font-size="36.0" fill="#605F5F" transform="matrix(1.00, 0.00, -0.00, -1.00, 455.7, 670.0)">.</text><text xml:space="preserve" font-family="GillSans" font-size="36.0" fill="#605F5F" transform="matrix(1.00, 0.00, -0.00, -1.00, 463.6, 670.0)">0</text></g></g><g><clipPath id="clip-2420"><path d="M 536.0 691.0 L 975.0 691.0 L 975.0 98.0 L 536.0 98.0 Z M 535.9 690.7 "></path></clipPath><g clip-path="url(#clip-2420)"><image xlink:href="96FA17DF4733AF18AC2D708306611A67.png" width="384.00" height="482.00" transform="matrix(1.23, 0.00, -0.00, -1.23, 519.0, 691.0)"></image></g></g><image xlink:href="2F7B7175CFD8834A297F56FF81B3A114.png" width="459.00" height="619.00" transform="matrix(1.00, 0.00, -0.00, 1.00, 525.9, 78.7)"></image><text xml:space="preserve" font-family="GillSans-Light" font-size="64.0" fill="#605F5F" transform="matrix(1.00, 0.00, -0.00, -1.00, 44.0, 550.0)">P</text><text xml:space="preserve" font-family="GillSans-Light" font-size="64.0" fill="#605F5F" transform="matrix(1.00, 0.00, -0.00, -1.00, 76.6, 550.0)">I</text><text xml:space="preserve" font-family="GillSans-Light" font-size="64.0" fill="#605F5F" transform="matrix(1.00, 0.00, -0.00, -1.00, 89.9, 550.0)">V</text><text xml:space="preserve" font-family="GillSans-Light" font-size="64.0" fill="#605F5F" transform="matrix(1.00, 0.00, -0.00, -1.00, 125.4, 550.0)">O</text><text xml:space="preserve" font-family="GillSans-Light" font-size="64.0" fill="#605F5F" transform="matrix(1.00, 0.00, -0.00, -1.00, 173.3, 550.0)">T</text><text xml:space="preserve" font-family="GillSans-Light" font-size="64.0" fill="#605F5F" transform="matrix(1.00, 0.00, -0.00, -1.00, 210.0, 550.0)"> </text><text xml:space="preserve" font-family="GillSans-Light" font-size="64.0" fill="#605F5F" transform="matrix(1.00, 0.00, -0.00, -1.00, 218.8, 550.0)">T</text><text xml:space="preserve" font-family="GillSans-Light" font-size="64.0" fill="#605F5F" transform="matrix(1.00, 0.00, -0.00, -1.00, 249.1, 550.0)">A</text><text xml:space="preserve" font-family="GillSans-Light" font-size="64.0" fill="#605F5F" transform="matrix(1.00, 0.00, -0.00, -1.00, 291.8, 550.0)">B</text><text xml:space="preserve" font-family="GillSans-Light" font-size="64.0" fill="#605F5F" transform="matrix(1.00, 0.00, -0.00, -1.00, 325.7, 550.0)">L</text><text xml:space="preserve" font-family="GillSans-Light" font-size="64.0" fill="#605F5F" transform="matrix(1.00, 0.00, -0.00, -1.00, 355.8, 550.0)">E</text><text xml:space="preserve" font-family="GillSans-Light" font-size="64.0" fill="#605F5F" transform="matrix(1.00, 0.00, -0.00, -1.00, 387.2, 550.0)">S</text><text xml:space="preserve" font-family="GillSans" font-size="23.3" fill="#605F5F" transform="matrix(1.00, 0.00, -0.00, -1.00, 44.0, 503.0)">I</text><text xml:space="preserve" font-family="GillSans" font-size="23.3" fill="#605F5F" transform="matrix(1.00, 0.00, -0.00, -1.00, 49.8, 503.0)">n</text><text xml:space="preserve" font-family="GillSans" font-size="23.3" fill="#605F5F" transform="matrix(1.00, 0.00, -0.00, -1.00, 61.5, 503.0)">d</text><text xml:space="preserve" font-family="GillSans" font-size="23.3" fill="#605F5F" transform="matrix(1.00, 0.00, -0.00, -1.00, 73.3, 503.0)">u</text><text xml:space="preserve" font-family="GillSans" font-size="23.3" fill="#605F5F" transform="matrix(1.00, 0.00, -0.00, -1.00, 85.0, 503.0)">s</text><text xml:space="preserve" font-family="GillSans" font-size="23.3" fill="#605F5F" transform="matrix(1.00, 0.00, -0.00, -1.00, 93.9, 503.0)">t</text><text xml:space="preserve" font-family="GillSans" font-size="23.3" fill="#605F5F" transform="matrix(1.00, 0.00, -0.00, -1.00, 101.7, 503.0)">r</text><text xml:space="preserve" font-family="GillSans" font-size="23.3" fill="#605F5F" transform="matrix(1.00, 0.00, -0.00, -1.00, 111.6, 503.0)">y</text><text xml:space="preserve" font-family="GillSans" font-size="23.3" fill="#605F5F" transform="matrix(1.00, 0.00, -0.00, -1.00, 121.8, 503.0)">-</text><text xml:space="preserve" font-family="GillSans" font-size="23.3" fill="#605F5F" transform="matrix(1.00, 0.00, -0.00, -1.00, 129.3, 503.0)">s</text><text xml:space="preserve" font-family="GillSans" font-size="23.3" fill="#605F5F" transform="matrix(1.00, 0.00, -0.00, -1.00, 138.3, 503.0)">t</text><text xml:space="preserve" font-family="GillSans" font-size="23.3" fill="#605F5F" transform="matrix(1.00, 0.00, -0.00, -1.00, 146.0, 503.0)">a</text><text xml:space="preserve" font-family="GillSans" font-size="23.3" fill="#605F5F" transform="matrix(1.00, 0.00, -0.00, -1.00, 155.9, 503.0)">n</text><text xml:space="preserve" font-family="GillSans" font-size="23.3" fill="#605F5F" transform="matrix(1.00, 0.00, -0.00, -1.00, 167.6, 503.0)">d</text><text xml:space="preserve" font-family="GillSans" font-size="23.3" fill="#605F5F" transform="matrix(1.00, 0.00, -0.00, -1.00, 179.4, 503.0)">a</text><text xml:space="preserve" font-family="GillSans" font-size="23.3" fill="#605F5F" transform="matrix(1.00, 0.00, -0.00, -1.00, 189.4, 503.0)">r</text><text xml:space="preserve" font-family="GillSans" font-size="23.3" fill="#605F5F" transform="matrix(1.00, 0.00, -0.00, -1.00, 198.2, 503.0)">d</text><text xml:space="preserve" font-family="GillSans" font-size="23.3" fill="#605F5F" transform="matrix(1.00, 0.00, -0.00, -1.00, 210.1, 503.0)"> </text><text xml:space="preserve" font-family="GillSans" font-size="23.3" fill="#605F5F" transform="matrix(1.00, 0.00, -0.00, -1.00, 216.6, 503.0)">s</text><text xml:space="preserve" font-family="GillSans" font-size="23.3" fill="#605F5F" transform="matrix(1.00, 0.00, -0.00, -1.00, 225.5, 503.0)">o</text><text xml:space="preserve" font-family="GillSans" font-size="23.3" fill="#605F5F" transform="matrix(1.00, 0.00, -0.00, -1.00, 238.4, 503.0)">f</text><text xml:space="preserve" font-family="GillSans" font-size="23.3" fill="#605F5F" transform="matrix(1.00, 0.00, -0.00, -1.00, 244.2, 503.0)">t</text><text xml:space="preserve" font-family="GillSans" font-size="23.3" fill="#605F5F" transform="matrix(1.00, 0.00, -0.00, -1.00, 251.9, 503.0)">w</text><text xml:space="preserve" font-family="GillSans" font-size="23.3" fill="#605F5F" transform="matrix(1.00, 0.00, -0.00, -1.00, 268.7, 503.0)">a</text><text xml:space="preserve" font-family="GillSans" font-size="23.3" fill="#605F5F" transform="matrix(1.00, 0.00, -0.00, -1.00, 278.6, 503.0)">r</text><text xml:space="preserve" font-family="GillSans" font-size="23.3" fill="#605F5F" transform="matrix(1.00, 0.00, -0.00, -1.00, 287.4, 503.0)">e</text><text xml:space="preserve" font-family="GillSans" font-size="23.3" fill="#605F5F" transform="matrix(1.00, 0.00, -0.00, -1.00, 298.5, 503.0)"> </text><text xml:space="preserve" font-family="GillSans" font-size="23.3" fill="#605F5F" transform="matrix(1.00, 0.00, -0.00, -1.00, 305.0, 503.0)">u</text><text xml:space="preserve" font-family="GillSans" font-size="23.3" fill="#605F5F" transform="matrix(1.00, 0.00, -0.00, -1.00, 316.6, 503.0)">s</text><text xml:space="preserve" font-family="GillSans" font-size="23.3" fill="#605F5F" transform="matrix(1.00, 0.00, -0.00, -1.00, 325.6, 503.0)">e</text><text xml:space="preserve" font-family="GillSans" font-size="23.3" fill="#605F5F" transform="matrix(1.00, 0.00, -0.00, -1.00, 336.7, 503.0)">d</text><text xml:space="preserve" font-family="GillSans" font-size="23.3" fill="#605F5F" transform="matrix(1.00, 0.00, -0.00, -1.00, 348.6, 503.0)"> </text><text xml:space="preserve" font-family="GillSans" font-size="23.3" fill="#605F5F" transform="matrix(1.00, 0.00, -0.00, -1.00, 355.0, 503.0)">b</text><text xml:space="preserve" font-family="GillSans" font-size="23.3" fill="#605F5F" transform="matrix(1.00, 0.00, -0.00, -1.00, 366.5, 503.0)">y</text><text xml:space="preserve" font-family="GillSans" font-size="23.3" fill="#605F5F" transform="matrix(1.00, 0.00, -0.00, -1.00, 376.7, 503.0)"> </text><text xml:space="preserve" font-family="GillSans" font-size="23.3" fill="#605F5F" transform="matrix(1.00, 0.00, -0.00, -1.00, 383.1, 503.0)">m</text><text xml:space="preserve" font-family="GillSans" font-size="23.3" fill="#605F5F" transform="matrix(1.00, 0.00, -0.00, -1.00, 401.1, 503.0)">i</text><text xml:space="preserve" font-family="GillSans" font-size="23.3" fill="#605F5F" transform="matrix(1.00, 0.00, -0.00, -1.00, 406.2, 503.0)">l</text><text xml:space="preserve" font-family="GillSans" font-size="23.3" fill="#605F5F" transform="matrix(1.00, 0.00, -0.00, -1.00, 411.3, 503.0)">l</text><text xml:space="preserve" font-family="GillSans" font-size="23.3" fill="#605F5F" transform="matrix(1.00, 0.00, -0.00, -1.00, 416.4, 503.0)">i</text><text xml:space="preserve" font-family="GillSans" font-size="23.3" fill="#605F5F" transform="matrix(1.00, 0.00, -0.00, -1.00, 421.5, 503.0)">o</text><text xml:space="preserve" font-family="GillSans" font-size="23.3" fill="#605F5F" transform="matrix(1.00, 0.00, -0.00, -1.00, 434.3, 503.0)">n</text><text xml:space="preserve" font-family="GillSans" font-size="23.3" fill="#605F5F" transform="matrix(1.00, 0.00, -0.00, -1.00, 446.0, 503.0)">s</text><text xml:space="preserve" font-family="GillSans" font-size="23.3" fill="#605F5F" transform="matrix(1.00, 0.00, -0.00, -1.00, 454.9, 503.0)"> </text><text xml:space="preserve" font-family="GillSans" font-size="23.3" fill="#605F5F" transform="matrix(1.00, 0.00, -0.00, -1.00, 461.4, 503.0)">o</text><text xml:space="preserve" font-family="GillSans" font-size="23.3" fill="#605F5F" transform="matrix(1.00, 0.00, -0.00, -1.00, 474.2, 503.0)">f</text><text xml:space="preserve" font-family="GillSans" font-size="23.3" fill="#605F5F" transform="matrix(1.00, 0.00, -0.00, -1.00, 480.1, 503.0)"> </text><text xml:space="preserve" font-family="GillSans" font-size="23.3" fill="#605F5F" transform="matrix(1.00, 0.00, -0.00, -1.00, 44.0, 472.0)">b</text><text xml:space="preserve" font-family="GillSans" font-size="23.3" fill="#605F5F" transform="matrix(1.00, 0.00, -0.00, -1.00, 55.6, 472.0)">u</text><text xml:space="preserve" font-family="GillSans" font-size="23.3" fill="#605F5F" transform="matrix(1.00, 0.00, -0.00, -1.00, 67.3, 472.0)">s</text><text xml:space="preserve" font-family="GillSans" font-size="23.3" fill="#605F5F" transform="matrix(1.00, 0.00, -0.00, -1.00, 76.2, 472.0)">i</text><text xml:space="preserve" font-family="GillSans" font-size="23.3" fill="#605F5F" transform="matrix(1.00, 0.00, -0.00, -1.00, 81.3, 472.0)">n</text><text xml:space="preserve" font-family="GillSans" font-size="23.3" fill="#605F5F" transform="matrix(1.00, 0.00, -0.00, -1.00, 93.0, 472.0)">e</text><text xml:space="preserve" font-family="GillSans" font-size="23.3" fill="#605F5F" transform="matrix(1.00, 0.00, -0.00, -1.00, 104.1, 472.0)">s</text><text xml:space="preserve" font-family="GillSans" font-size="23.3" fill="#605F5F" transform="matrix(1.00, 0.00, -0.00, -1.00, 113.1, 472.0)">s</text><text xml:space="preserve" font-family="GillSans" font-size="23.3" fill="#605F5F" transform="matrix(1.00, 0.00, -0.00, -1.00, 122.0, 472.0)"> </text><text xml:space="preserve" font-family="GillSans" font-size="23.3" fill="#605F5F" transform="matrix(1.00, 0.00, -0.00, -1.00, 128.5, 472.0)">U</text><text xml:space="preserve" font-family="GillSans" font-size="23.3" fill="#605F5F" transform="matrix(1.00, 0.00, -0.00, -1.00, 145.0, 472.0)">s</text><text xml:space="preserve" font-family="GillSans" font-size="23.3" fill="#605F5F" transform="matrix(1.00, 0.00, -0.00, -1.00, 153.9, 472.0)">e</text><text xml:space="preserve" font-family="GillSans" font-size="23.3" fill="#605F5F" transform="matrix(1.00, 0.00, -0.00, -1.00, 165.1, 472.0)">r</text><text xml:space="preserve" font-family="GillSans" font-size="23.3" fill="#605F5F" transform="matrix(1.00, 0.00, -0.00, -1.00, 174.3, 472.0)">s</text></g></svg>