<?xml version="1.0" encoding="UTF-8" standalone="no"?><svg xmlns="http://www.w3.org/2000/svg" xmlns:xlink="http://www.w3.org/1999/xlink" clip-rule="evenodd" stroke-miterlimit="4.00" viewBox="0 0 677 66"><desc>SVG generated by Keynote</desc><defs></defs><g transform="matrix(1.00, 0.00, -0.00, -1.00, 0.0, 66.0)"><g><clipPath id="clip-1161"><path d="M -1.2 58.5 L 12.9 58.5 L 12.9 44.5 L -1.2 44.5 Z M -1.2 58.5 "></path></clipPath><g clip-path="url(#clip-1161)"><g><clipPath id="clip-1162"><path d="M 0.0 45.7 L 11.7 45.7 L 11.7 57.4 L 0.0 57.4 Z M 0.0 45.7 "></path></clipPath><g clip-path="url(#clip-1162)"><path d="M 11.7 45.7 L -0.0 45.7 L -0.0 57.4 L 11.7 57.4 Z M 11.7 45.7 " fill="#BDBDBD"></path></g></g></g></g><text xml:space="preserve" font-family="GillSans" font-size="34.0" fill="#605F5F" transform="matrix(1.00, 0.00, -0.00, -1.00, 33.0, 41.0)">S</text><text xml:space="preserve" font-family="GillSans" font-size="34.0" fill="#605F5F" transform="matrix(1.00, 0.00, -0.00, -1.00, 48.6, 41.0)">o</text><text xml:space="preserve" font-family="GillSans" font-size="34.0" fill="#605F5F" transform="matrix(1.00, 0.00, -0.00, -1.00, 67.3, 41.0)"> </text><text xml:space="preserve" font-family="GillSans" font-size="34.0" fill="#605F5F" transform="matrix(1.00, 0.00, -0.00, -1.00, 76.8, 41.0)">r</text><text xml:space="preserve" font-family="GillSans" font-size="34.0" fill="#605F5F" transform="matrix(1.00, 0.00, -0.00, -1.00, 90.2, 41.0)">u</text><text xml:space="preserve" font-family="GillSans" font-size="34.0" fill="#605F5F" transform="matrix(1.00, 0.00, -0.00, -1.00, 107.2, 41.0)">n</text><text xml:space="preserve" font-family="GillSans" font-size="34.0" fill="#605F5F" transform="matrix(1.00, 0.00, -0.00, -1.00, 124.2, 41.0)">s</text><text xml:space="preserve" font-family="GillSans" font-size="34.0" fill="#605F5F" transform="matrix(1.00, 0.00, -0.00, -1.00, 137.3, 41.0)"> </text><text xml:space="preserve" font-family="GillSans" font-size="34.0" fill="#605F5F" transform="matrix(1.00, 0.00, -0.00, -1.00, 146.7, 41.0)">o</text><text xml:space="preserve" font-family="GillSans" font-size="34.0" fill="#605F5F" transform="matrix(1.00, 0.00, -0.00, -1.00, 165.5, 41.0)">n</text><text xml:space="preserve" font-family="GillSans" font-size="34.0" fill="#605F5F" transform="matrix(1.00, 0.00, -0.00, -1.00, 182.5, 41.0)"> </text><text xml:space="preserve" font-family="GillSans" font-size="34.0" fill="#605F5F" transform="matrix(1.00, 0.00, -0.00, -1.00, 187.7, 41.0)">W</text><text xml:space="preserve" font-family="GillSans" font-size="34.0" fill="#605F5F" transform="matrix(1.00, 0.00, -0.00, -1.00, 223.1, 41.0)">i</text><text xml:space="preserve" font-family="GillSans" font-size="34.0" fill="#605F5F" transform="matrix(1.00, 0.00, -0.00, -1.00, 230.6, 41.0)">n</text><text xml:space="preserve" font-family="GillSans" font-size="34.0" fill="#605F5F" transform="matrix(1.00, 0.00, -0.00, -1.00, 247.6, 41.0)">d</text><text xml:space="preserve" font-family="GillSans" font-size="34.0" fill="#605F5F" transform="matrix(1.00, 0.00, -0.00, -1.00, 264.9, 41.0)">o</text><text xml:space="preserve" font-family="GillSans" font-size="34.0" fill="#605F5F" transform="matrix(1.00, 0.00, -0.00, -1.00, 283.3, 41.0)">w</text><text xml:space="preserve" font-family="GillSans" font-size="34.0" fill="#605F5F" transform="matrix(1.00, 0.00, -0.00, -1.00, 307.8, 41.0)">s</text><text xml:space="preserve" font-family="GillSans" font-size="34.0" fill="#605F5F" transform="matrix(1.00, 0.00, -0.00, -1.00, 320.9, 41.0)">,</text><text xml:space="preserve" font-family="GillSans" font-size="34.0" fill="#605F5F" transform="matrix(1.00, 0.00, -0.00, -1.00, 324.9, 41.0)"> </text><text xml:space="preserve" font-family="GillSans" font-size="34.0" fill="#605F5F" transform="matrix(1.00, 0.00, -0.00, -1.00, 330.9, 41.0)">A</text><text xml:space="preserve" font-family="GillSans" font-size="34.0" fill="#605F5F" transform="matrix(1.00, 0.00, -0.00, -1.00, 353.6, 41.0)">p</text><text xml:space="preserve" font-family="GillSans" font-size="34.0" fill="#605F5F" transform="matrix(1.00, 0.00, -0.00, -1.00, 370.6, 41.0)">p</text><text xml:space="preserve" font-family="GillSans" font-size="34.0" fill="#605F5F" transform="matrix(1.00, 0.00, -0.00, -1.00, 387.6, 41.0)">l</text><text xml:space="preserve" font-family="GillSans" font-size="34.0" fill="#605F5F" transform="matrix(1.00, 0.00, -0.00, -1.00, 395.1, 41.0)">e</text><text xml:space="preserve" font-family="GillSans" font-size="34.0" fill="#605F5F" transform="matrix(1.00, 0.00, -0.00, -1.00, 411.4, 41.0)"> </text><text xml:space="preserve" font-family="GillSans" font-size="34.0" fill="#605F5F" transform="matrix(1.00, 0.00, -0.00, -1.00, 420.8, 41.0)">M</text><text xml:space="preserve" font-family="GillSans" font-size="34.0" fill="#605F5F" transform="matrix(1.00, 0.00, -0.00, -1.00, 447.4, 41.0)">a</text><text xml:space="preserve" font-family="GillSans" font-size="34.0" fill="#605F5F" transform="matrix(1.00, 0.00, -0.00, -1.00, 461.9, 41.0)">c</text><text xml:space="preserve" font-family="GillSans" font-size="34.0" fill="#605F5F" transform="matrix(1.00, 0.00, -0.00, -1.00, 476.7, 41.0)">s</text><text xml:space="preserve" font-family="GillSans" font-size="34.0" fill="#605F5F" transform="matrix(1.00, 0.00, -0.00, -1.00, 489.8, 41.0)">,</text><text xml:space="preserve" font-family="GillSans" font-size="34.0" fill="#605F5F" transform="matrix(1.00, 0.00, -0.00, -1.00, 493.9, 41.0)"> </text><text xml:space="preserve" font-family="GillSans" font-size="34.0" fill="#605F5F" transform="matrix(1.00, 0.00, -0.00, -1.00, 503.3, 41.0)">L</text><text xml:space="preserve" font-family="GillSans" font-size="34.0" fill="#605F5F" transform="matrix(1.00, 0.00, -0.00, -1.00, 520.0, 41.0)">i</text><text xml:space="preserve" font-family="GillSans" font-size="34.0" fill="#605F5F" transform="matrix(1.00, 0.00, -0.00, -1.00, 527.5, 41.0)">n</text><text xml:space="preserve" font-family="GillSans" font-size="34.0" fill="#605F5F" transform="matrix(1.00, 0.00, -0.00, -1.00, 544.1, 41.0)">u</text><text xml:space="preserve" font-family="GillSans" font-size="34.0" fill="#605F5F" transform="matrix(1.00, 0.00, -0.00, -1.00, 561.1, 41.0)">x</text><text xml:space="preserve" font-family="GillSans" font-size="34.0" fill="#605F5F" transform="matrix(1.00, 0.00, -0.00, -1.00, 578.1, 41.0)"> </text><text xml:space="preserve" font-family="GillSans" font-size="34.0" fill="#605F5F" transform="matrix(1.00, 0.00, -0.00, -1.00, 587.6, 41.0)">a</text><text xml:space="preserve" font-family="GillSans" font-size="34.0" fill="#605F5F" transform="matrix(1.00, 0.00, -0.00, -1.00, 602.1, 41.0)">n</text><text xml:space="preserve" font-family="GillSans" font-size="34.0" fill="#605F5F" transform="matrix(1.00, 0.00, -0.00, -1.00, 619.1, 41.0)">d</text><text xml:space="preserve" font-family="GillSans" font-size="34.0" fill="#605F5F" transform="matrix(1.00, 0.00, -0.00, -1.00, 636.4, 41.0)"> </text><text xml:space="preserve" font-family="GillSans" font-size="34.0" fill="#605F5F" transform="matrix(1.00, 0.00, -0.00, -1.00, 645.8, 41.0)">a</text><text xml:space="preserve" font-family="GillSans" font-size="34.0" fill="#605F5F" transform="matrix(1.00, 0.00, -0.00, -1.00, 660.3, 41.0)">l</text><text xml:space="preserve" font-family="GillSans" font-size="34.0" fill="#605F5F" transform="matrix(1.00, 0.00, -0.00, -1.00, 667.8, 41.0)">l</text><text xml:space="preserve" font-family="GillSans" font-size="34.0" fill="#605F5F" transform="matrix(1.00, 0.00, -0.00, -1.00, 675.3, 41.0)"> </text><text xml:space="preserve" font-family="GillSans" font-size="34.0" fill="#605F5F" transform="matrix(1.00, 0.00, -0.00, -1.00, 33.0, 2.0)">o</text><text xml:space="preserve" font-family="GillSans" font-size="34.0" fill="#605F5F" transform="matrix(1.00, 0.00, -0.00, -1.00, 51.8, 2.0)">t</text><text xml:space="preserve" font-family="GillSans" font-size="34.0" fill="#605F5F" transform="matrix(1.00, 0.00, -0.00, -1.00, 63.1, 2.0)">h</text><text xml:space="preserve" font-family="GillSans" font-size="34.0" fill="#605F5F" transform="matrix(1.00, 0.00, -0.00, -1.00, 80.1, 2.0)">e</text><text xml:space="preserve" font-family="GillSans" font-size="34.0" fill="#605F5F" transform="matrix(1.00, 0.00, -0.00, -1.00, 96.4, 2.0)">r</text><text xml:space="preserve" font-family="GillSans" font-size="34.0" fill="#605F5F" transform="matrix(1.00, 0.00, -0.00, -1.00, 109.8, 2.0)"> </text><text xml:space="preserve" font-family="GillSans" font-size="34.0" fill="#605F5F" transform="matrix(1.00, 0.00, -0.00, -1.00, 119.3, 2.0)">s</text><text xml:space="preserve" font-family="GillSans" font-size="34.0" fill="#605F5F" transform="matrix(1.00, 0.00, -0.00, -1.00, 132.3, 2.0)">t</text><text xml:space="preserve" font-family="GillSans" font-size="34.0" fill="#605F5F" transform="matrix(1.00, 0.00, -0.00, -1.00, 143.7, 2.0)">u</text><text xml:space="preserve" font-family="GillSans" font-size="34.0" fill="#605F5F" transform="matrix(1.00, 0.00, -0.00, -1.00, 160.7, 2.0)">f</text><text xml:space="preserve" font-family="GillSans" font-size="34.0" fill="#605F5F" transform="matrix(1.00, 0.00, -0.00, -1.00, 169.2, 2.0)">f</text><text xml:space="preserve" font-family="GillSans" font-size="34.0" fill="#605F5F" transform="matrix(1.00, 0.00, -0.00, -1.00, 177.7, 2.0)">…</text></g></svg>