<?xml version="1.0" encoding="UTF-8" standalone="no"?><svg xmlns="http://www.w3.org/2000/svg" xmlns:xlink="http://www.w3.org/1999/xlink" clip-rule="evenodd" stroke-miterlimit="4.00" viewBox="0 0 476 35"><desc>SVG generated by Keynote</desc><defs></defs><g transform="matrix(1.00, 0.00, -0.00, -1.00, 0.0, 35.0)"><g><clipPath id="clip-2254"><path d="M -1.2 26.5 L 12.9 26.5 L 12.9 12.5 L -1.2 12.5 Z M -1.2 26.5 "></path></clipPath><g clip-path="url(#clip-2254)"><g><clipPath id="clip-2255"><path d="M 0.0 13.7 L 11.7 13.7 L 11.7 25.4 L 0.0 25.4 Z M 0.0 13.7 "></path></clipPath><g clip-path="url(#clip-2255)"><path d="M 11.7 13.7 L -0.0 13.7 L -0.0 25.4 L 11.7 25.4 Z M 11.7 13.7 " fill="#BDBDBD"></path></g></g></g></g><text xml:space="preserve" font-family="GillSans" font-size="34.0" fill="#605F5F" transform="matrix(1.00, 0.00, -0.00, -1.00, 33.0, 9.0)">A</text><text xml:space="preserve" font-family="GillSans" font-size="34.0" fill="#605F5F" transform="matrix(1.00, 0.00, -0.00, -1.00, 54.8, 9.0)">v</text><text xml:space="preserve" font-family="GillSans" font-size="34.0" fill="#605F5F" transform="matrix(1.00, 0.00, -0.00, -1.00, 69.7, 9.0)">a</text><text xml:space="preserve" font-family="GillSans" font-size="34.0" fill="#605F5F" transform="matrix(1.00, 0.00, -0.00, -1.00, 84.2, 9.0)">i</text><text xml:space="preserve" font-family="GillSans" font-size="34.0" fill="#605F5F" transform="matrix(1.00, 0.00, -0.00, -1.00, 91.7, 9.0)">l</text><text xml:space="preserve" font-family="GillSans" font-size="34.0" fill="#605F5F" transform="matrix(1.00, 0.00, -0.00, -1.00, 99.1, 9.0)">a</text><text xml:space="preserve" font-family="GillSans" font-size="34.0" fill="#605F5F" transform="matrix(1.00, 0.00, -0.00, -1.00, 113.7, 9.0)">b</text><text xml:space="preserve" font-family="GillSans" font-size="34.0" fill="#605F5F" transform="matrix(1.00, 0.00, -0.00, -1.00, 130.7, 9.0)">l</text><text xml:space="preserve" font-family="GillSans" font-size="34.0" fill="#605F5F" transform="matrix(1.00, 0.00, -0.00, -1.00, 138.1, 9.0)">e</text><text xml:space="preserve" font-family="GillSans" font-size="34.0" fill="#605F5F" transform="matrix(1.00, 0.00, -0.00, -1.00, 154.4, 9.0)"> </text><text xml:space="preserve" font-family="GillSans" font-size="34.0" fill="#605F5F" transform="matrix(1.00, 0.00, -0.00, -1.00, 163.8, 9.0)">e</text><text xml:space="preserve" font-family="GillSans" font-size="34.0" fill="#605F5F" transform="matrix(1.00, 0.00, -0.00, -1.00, 180.1, 9.0)">f</text><text xml:space="preserve" font-family="GillSans" font-size="34.0" fill="#605F5F" transform="matrix(1.00, 0.00, -0.00, -1.00, 188.6, 9.0)">f</text><text xml:space="preserve" font-family="GillSans" font-size="34.0" fill="#605F5F" transform="matrix(1.00, 0.00, -0.00, -1.00, 196.8, 9.0)">e</text><text xml:space="preserve" font-family="GillSans" font-size="34.0" fill="#605F5F" transform="matrix(1.00, 0.00, -0.00, -1.00, 213.1, 9.0)">c</text><text xml:space="preserve" font-family="GillSans" font-size="34.0" fill="#605F5F" transform="matrix(1.00, 0.00, -0.00, -1.00, 228.0, 9.0)">t</text><text xml:space="preserve" font-family="GillSans" font-size="34.0" fill="#605F5F" transform="matrix(1.00, 0.00, -0.00, -1.00, 239.3, 9.0)">i</text><text xml:space="preserve" font-family="GillSans" font-size="34.0" fill="#605F5F" transform="matrix(1.00, 0.00, -0.00, -1.00, 246.8, 9.0)">v</text><text xml:space="preserve" font-family="GillSans" font-size="34.0" fill="#605F5F" transform="matrix(1.00, 0.00, -0.00, -1.00, 261.0, 9.0)">e</text><text xml:space="preserve" font-family="GillSans" font-size="34.0" fill="#605F5F" transform="matrix(1.00, 0.00, -0.00, -1.00, 277.2, 9.0)">l</text><text xml:space="preserve" font-family="GillSans" font-size="34.0" fill="#605F5F" transform="matrix(1.00, 0.00, -0.00, -1.00, 284.4, 9.0)">y</text><text xml:space="preserve" font-family="GillSans" font-size="34.0" fill="#605F5F" transform="matrix(1.00, 0.00, -0.00, -1.00, 299.3, 9.0)"> </text><text xml:space="preserve" font-family="GillSans" font-size="34.0" fill="#605F5F" transform="matrix(1.00, 0.00, -0.00, -1.00, 308.7, 9.0)">7</text><text xml:space="preserve" font-family="GillSans" font-size="34.0" fill="#605F5F" transform="matrix(1.00, 0.00, -0.00, -1.00, 325.7, 9.0)"> </text><text xml:space="preserve" font-family="GillSans" font-size="34.0" fill="#605F5F" transform="matrix(1.00, 0.00, -0.00, -1.00, 335.2, 9.0)">*</text><text xml:space="preserve" font-family="GillSans" font-size="34.0" fill="#605F5F" transform="matrix(1.00, 0.00, -0.00, -1.00, 349.3, 9.0)"> </text><text xml:space="preserve" font-family="GillSans" font-size="34.0" fill="#605F5F" transform="matrix(1.00, 0.00, -0.00, -1.00, 358.8, 9.0)">2</text><text xml:space="preserve" font-family="GillSans" font-size="34.0" fill="#605F5F" transform="matrix(1.00, 0.00, -0.00, -1.00, 375.8, 9.0)">4</text><text xml:space="preserve" font-family="GillSans" font-size="34.0" fill="#605F5F" transform="matrix(1.00, 0.00, -0.00, -1.00, 392.8, 9.0)"> </text><text xml:space="preserve" font-family="GillSans" font-size="34.0" fill="#605F5F" transform="matrix(1.00, 0.00, -0.00, -1.00, 402.2, 9.0)">*</text><text xml:space="preserve" font-family="GillSans" font-size="34.0" fill="#605F5F" transform="matrix(1.00, 0.00, -0.00, -1.00, 416.4, 9.0)"> </text><text xml:space="preserve" font-family="GillSans" font-size="34.0" fill="#605F5F" transform="matrix(1.00, 0.00, -0.00, -1.00, 425.8, 9.0)">3</text><text xml:space="preserve" font-family="GillSans" font-size="34.0" fill="#605F5F" transform="matrix(1.00, 0.00, -0.00, -1.00, 442.8, 9.0)">6</text><text xml:space="preserve" font-family="GillSans" font-size="34.0" fill="#605F5F" transform="matrix(1.00, 0.00, -0.00, -1.00, 459.8, 9.0)">5</text></g></svg>