<?xml version="1.0" encoding="UTF-8" standalone="no"?><svg xmlns="http://www.w3.org/2000/svg" xmlns:xlink="http://www.w3.org/1999/xlink" clip-rule="evenodd" stroke-miterlimit="4.00" viewBox="0 0 420 69"><desc>SVG generated by Keynote</desc><defs></defs><g transform="matrix(1.00, 0.00, -0.00, -1.00, 0.0, 69.0)"><g><clipPath id="clip-1336"><path d="M -0.1 61.0 L 13.1 61.0 L 13.1 47.7 L -0.1 47.7 Z M -0.1 61.0 "></path></clipPath><g clip-path="url(#clip-1336)"><g><clipPath id="clip-1337"><path d="M 1.0 48.9 L 12.0 48.9 L 12.0 59.9 L 1.0 59.9 Z M 1.0 48.9 "></path></clipPath><g clip-path="url(#clip-1337)"><path d="M 12.0 48.9 L 1.0 48.9 L 1.0 59.9 L 12.0 59.9 Z M 12.0 48.9 " fill="#BDBDBD"></path></g></g></g></g><text xml:space="preserve" font-family="GillSans" font-size="32.0" fill="#605F5F" transform="matrix(1.00, 0.00, -0.00, -1.00, 36.0, 44.0)">H</text><text xml:space="preserve" font-family="GillSans" font-size="32.0" fill="#605F5F" transform="matrix(1.00, 0.00, -0.00, -1.00, 59.3, 44.0)">e</text><text xml:space="preserve" font-family="GillSans" font-size="32.0" fill="#605F5F" transform="matrix(1.00, 0.00, -0.00, -1.00, 74.7, 44.0)">n</text><text xml:space="preserve" font-family="GillSans" font-size="32.0" fill="#605F5F" transform="matrix(1.00, 0.00, -0.00, -1.00, 90.7, 44.0)">c</text><text xml:space="preserve" font-family="GillSans" font-size="32.0" fill="#605F5F" transform="matrix(1.00, 0.00, -0.00, -1.00, 104.7, 44.0)">e</text><text xml:space="preserve" font-family="GillSans" font-size="32.0" fill="#605F5F" transform="matrix(1.00, 0.00, -0.00, -1.00, 120.6, 44.0)">,</text><text xml:space="preserve" font-family="GillSans" font-size="32.0" fill="#605F5F" transform="matrix(1.00, 0.00, -0.00, -1.00, 124.5, 44.0)"> </text><text xml:space="preserve" font-family="GillSans" font-size="32.0" fill="#605F5F" transform="matrix(1.00, 0.00, -0.00, -1.00, 129.3, 44.0)">W</text><text xml:space="preserve" font-family="GillSans" font-size="32.0" fill="#605F5F" transform="matrix(1.00, 0.00, -0.00, -1.00, 162.7, 44.0)">i</text><text xml:space="preserve" font-family="GillSans" font-size="32.0" fill="#605F5F" transform="matrix(1.00, 0.00, -0.00, -1.00, 169.7, 44.0)">n</text><text xml:space="preserve" font-family="GillSans" font-size="32.0" fill="#605F5F" transform="matrix(1.00, 0.00, -0.00, -1.00, 185.7, 44.0)">d</text><text xml:space="preserve" font-family="GillSans" font-size="32.0" fill="#605F5F" transform="matrix(1.00, 0.00, -0.00, -1.00, 202.0, 44.0)">o</text><text xml:space="preserve" font-family="GillSans" font-size="32.0" fill="#605F5F" transform="matrix(1.00, 0.00, -0.00, -1.00, 219.4, 44.0)">w</text><text xml:space="preserve" font-family="GillSans" font-size="32.0" fill="#605F5F" transform="matrix(1.00, 0.00, -0.00, -1.00, 242.4, 44.0)">s</text><text xml:space="preserve" font-family="GillSans" font-size="32.0" fill="#605F5F" transform="matrix(1.00, 0.00, -0.00, -1.00, 254.7, 44.0)"> </text><text xml:space="preserve" font-family="GillSans" font-size="32.0" fill="#605F5F" transform="matrix(1.00, 0.00, -0.00, -1.00, 263.6, 44.0)">o</text><text xml:space="preserve" font-family="GillSans" font-size="32.0" fill="#605F5F" transform="matrix(1.00, 0.00, -0.00, -1.00, 281.2, 44.0)">r</text><text xml:space="preserve" font-family="GillSans" font-size="32.0" fill="#605F5F" transform="matrix(1.00, 0.00, -0.00, -1.00, 293.9, 44.0)"> </text><text xml:space="preserve" font-family="GillSans" font-size="32.0" fill="#605F5F" transform="matrix(1.00, 0.00, -0.00, -1.00, 302.8, 44.0)">M</text><text xml:space="preserve" font-family="GillSans" font-size="32.0" fill="#605F5F" transform="matrix(1.00, 0.00, -0.00, -1.00, 327.7, 44.0)">a</text><text xml:space="preserve" font-family="GillSans" font-size="32.0" fill="#605F5F" transform="matrix(1.00, 0.00, -0.00, -1.00, 341.4, 44.0)">c</text><text xml:space="preserve" font-family="GillSans" font-size="32.0" fill="#605F5F" transform="matrix(1.00, 0.00, -0.00, -1.00, 355.4, 44.0)"> </text><text xml:space="preserve" font-family="GillSans" font-size="32.0" fill="#605F5F" transform="matrix(1.00, 0.00, -0.00, -1.00, 364.3, 44.0)">(</text><text xml:space="preserve" font-family="GillSans" font-size="32.0" fill="#605F5F" transform="matrix(1.00, 0.00, -0.00, -1.00, 374.6, 44.0)">n</text><text xml:space="preserve" font-family="GillSans" font-size="32.0" fill="#605F5F" transform="matrix(1.00, 0.00, -0.00, -1.00, 390.6, 44.0)">o</text><text xml:space="preserve" font-family="GillSans" font-size="32.0" fill="#605F5F" transform="matrix(1.00, 0.00, -0.00, -1.00, 408.3, 44.0)">t</text><text xml:space="preserve" font-family="GillSans" font-size="32.0" fill="#605F5F" transform="matrix(1.00, 0.00, -0.00, -1.00, 419.0, 44.0)"> </text><text xml:space="preserve" font-family="GillSans" font-size="32.0" fill="#605F5F" transform="matrix(1.00, 0.00, -0.00, -1.00, 36.0, 8.0)">M</text><text xml:space="preserve" font-family="GillSans" font-size="32.0" fill="#605F5F" transform="matrix(1.00, 0.00, -0.00, -1.00, 61.0, 8.0)">o</text><text xml:space="preserve" font-family="GillSans" font-size="32.0" fill="#605F5F" transform="matrix(1.00, 0.00, -0.00, -1.00, 78.6, 8.0)">b</text><text xml:space="preserve" font-family="GillSans" font-size="32.0" fill="#605F5F" transform="matrix(1.00, 0.00, -0.00, -1.00, 94.6, 8.0)">i</text><text xml:space="preserve" font-family="GillSans" font-size="32.0" fill="#605F5F" transform="matrix(1.00, 0.00, -0.00, -1.00, 101.6, 8.0)">l</text><text xml:space="preserve" font-family="GillSans" font-size="32.0" fill="#605F5F" transform="matrix(1.00, 0.00, -0.00, -1.00, 108.7, 8.0)">e</text><text xml:space="preserve" font-family="GillSans" font-size="32.0" fill="#605F5F" transform="matrix(1.00, 0.00, -0.00, -1.00, 124.0, 8.0)">)</text></g></svg>