<?xml version="1.0" encoding="UTF-8" standalone="no"?><svg xmlns="http://www.w3.org/2000/svg" xmlns:xlink="http://www.w3.org/1999/xlink" clip-rule="evenodd" stroke-miterlimit="4.00" viewBox="0 0 443 98"><desc>SVG generated by Keynote</desc><defs></defs><g transform="matrix(1.00, 0.00, -0.00, -1.00, 0.0, 98.0)"><g><clipPath id="clip-2425"><path d="M -0.1 90.0 L 13.1 90.0 L 13.1 76.7 L -0.1 76.7 Z M -0.1 90.0 "></path></clipPath><g clip-path="url(#clip-2425)"><g><clipPath id="clip-2426"><path d="M 1.0 77.9 L 12.0 77.9 L 12.0 88.9 L 1.0 88.9 Z M 1.0 77.9 "></path></clipPath><g clip-path="url(#clip-2426)"><path d="M 12.0 77.9 L 1.0 77.9 L 1.0 88.9 L 12.0 88.9 Z M 12.0 77.9 " fill="#BDBDBD"></path></g></g></g></g><text xml:space="preserve" font-family="GillSans" font-size="32.0" fill="#605F5F" transform="matrix(1.00, 0.00, -0.00, -1.00, 36.0, 73.0)">A</text><text xml:space="preserve" font-family="GillSans" font-size="32.0" fill="#605F5F" transform="matrix(1.00, 0.00, -0.00, -1.00, 57.3, 73.0)">n</text><text xml:space="preserve" font-family="GillSans" font-size="32.0" fill="#605F5F" transform="matrix(1.00, 0.00, -0.00, -1.00, 72.7, 73.0)">y</text><text xml:space="preserve" font-family="GillSans" font-size="32.0" fill="#605F5F" transform="matrix(1.00, 0.00, -0.00, -1.00, 86.7, 73.0)"> </text><text xml:space="preserve" font-family="GillSans" font-size="32.0" fill="#605F5F" transform="matrix(1.00, 0.00, -0.00, -1.00, 95.6, 73.0)">O</text><text xml:space="preserve" font-family="GillSans" font-size="32.0" fill="#605F5F" transform="matrix(1.00, 0.00, -0.00, -1.00, 122.0, 73.0)">D</text><text xml:space="preserve" font-family="GillSans" font-size="32.0" fill="#605F5F" transform="matrix(1.00, 0.00, -0.00, -1.00, 146.0, 73.0)">B</text><text xml:space="preserve" font-family="GillSans" font-size="32.0" fill="#605F5F" transform="matrix(1.00, 0.00, -0.00, -1.00, 164.0, 73.0)">C</text><text xml:space="preserve" font-family="GillSans" font-size="32.0" fill="#605F5F" transform="matrix(1.00, 0.00, -0.00, -1.00, 186.6, 73.0)">-</text><text xml:space="preserve" font-family="GillSans" font-size="32.0" fill="#605F5F" transform="matrix(1.00, 0.00, -0.00, -1.00, 197.0, 73.0)">c</text><text xml:space="preserve" font-family="GillSans" font-size="32.0" fill="#605F5F" transform="matrix(1.00, 0.00, -0.00, -1.00, 211.0, 73.0)">o</text><text xml:space="preserve" font-family="GillSans" font-size="32.0" fill="#605F5F" transform="matrix(1.00, 0.00, -0.00, -1.00, 228.6, 73.0)">m</text><text xml:space="preserve" font-family="GillSans" font-size="32.0" fill="#605F5F" transform="matrix(1.00, 0.00, -0.00, -1.00, 253.3, 73.0)">p</text><text xml:space="preserve" font-family="GillSans" font-size="32.0" fill="#605F5F" transform="matrix(1.00, 0.00, -0.00, -1.00, 269.3, 73.0)">l</text><text xml:space="preserve" font-family="GillSans" font-size="32.0" fill="#605F5F" transform="matrix(1.00, 0.00, -0.00, -1.00, 276.3, 73.0)">i</text><text xml:space="preserve" font-family="GillSans" font-size="32.0" fill="#605F5F" transform="matrix(1.00, 0.00, -0.00, -1.00, 283.4, 73.0)">a</text><text xml:space="preserve" font-family="GillSans" font-size="32.0" fill="#605F5F" transform="matrix(1.00, 0.00, -0.00, -1.00, 297.0, 73.0)">n</text><text xml:space="preserve" font-family="GillSans" font-size="32.0" fill="#605F5F" transform="matrix(1.00, 0.00, -0.00, -1.00, 313.0, 73.0)">t</text><text xml:space="preserve" font-family="GillSans" font-size="32.0" fill="#605F5F" transform="matrix(1.00, 0.00, -0.00, -1.00, 323.7, 73.0)"> </text><text xml:space="preserve" font-family="GillSans" font-size="32.0" fill="#605F5F" transform="matrix(1.00, 0.00, -0.00, -1.00, 332.5, 73.0)">a</text><text xml:space="preserve" font-family="GillSans" font-size="32.0" fill="#605F5F" transform="matrix(1.00, 0.00, -0.00, -1.00, 346.2, 73.0)">n</text><text xml:space="preserve" font-family="GillSans" font-size="32.0" fill="#605F5F" transform="matrix(1.00, 0.00, -0.00, -1.00, 362.2, 73.0)">a</text><text xml:space="preserve" font-family="GillSans" font-size="32.0" fill="#605F5F" transform="matrix(1.00, 0.00, -0.00, -1.00, 375.8, 73.0)">l</text><text xml:space="preserve" font-family="GillSans" font-size="32.0" fill="#605F5F" transform="matrix(1.00, 0.00, -0.00, -1.00, 382.6, 73.0)">y</text><text xml:space="preserve" font-family="GillSans" font-size="32.0" fill="#605F5F" transform="matrix(1.00, 0.00, -0.00, -1.00, 396.6, 73.0)">s</text><text xml:space="preserve" font-family="GillSans" font-size="32.0" fill="#605F5F" transform="matrix(1.00, 0.00, -0.00, -1.00, 408.9, 73.0)">i</text><text xml:space="preserve" font-family="GillSans" font-size="32.0" fill="#605F5F" transform="matrix(1.00, 0.00, -0.00, -1.00, 415.9, 73.0)">s</text><text xml:space="preserve" font-family="GillSans" font-size="32.0" fill="#605F5F" transform="matrix(1.00, 0.00, -0.00, -1.00, 428.2, 73.0)"> </text><text xml:space="preserve" font-family="GillSans" font-size="32.0" fill="#605F5F" transform="matrix(1.00, 0.00, -0.00, -1.00, 36.0, 37.0)">p</text><text xml:space="preserve" font-family="GillSans" font-size="32.0" fill="#605F5F" transform="matrix(1.00, 0.00, -0.00, -1.00, 52.0, 37.0)">a</text><text xml:space="preserve" font-family="GillSans" font-size="32.0" fill="#605F5F" transform="matrix(1.00, 0.00, -0.00, -1.00, 65.6, 37.0)">c</text><text xml:space="preserve" font-family="GillSans" font-size="32.0" fill="#605F5F" transform="matrix(1.00, 0.00, -0.00, -1.00, 79.7, 37.0)">k</text><text xml:space="preserve" font-family="GillSans" font-size="32.0" fill="#605F5F" transform="matrix(1.00, 0.00, -0.00, -1.00, 95.0, 37.0)">a</text><text xml:space="preserve" font-family="GillSans" font-size="32.0" fill="#605F5F" transform="matrix(1.00, 0.00, -0.00, -1.00, 108.6, 37.0)">g</text><text xml:space="preserve" font-family="GillSans" font-size="32.0" fill="#605F5F" transform="matrix(1.00, 0.00, -0.00, -1.00, 122.3, 37.0)">e</text><text xml:space="preserve" font-family="GillSans" font-size="32.0" fill="#605F5F" transform="matrix(1.00, 0.00, -0.00, -1.00, 137.6, 37.0)"> </text><text xml:space="preserve" font-family="GillSans" font-size="32.0" fill="#605F5F" transform="matrix(1.00, 0.00, -0.00, -1.00, 146.5, 37.0)">t</text><text xml:space="preserve" font-family="GillSans" font-size="32.0" fill="#605F5F" transform="matrix(1.00, 0.00, -0.00, -1.00, 157.2, 37.0)">h</text><text xml:space="preserve" font-family="GillSans" font-size="32.0" fill="#605F5F" transform="matrix(1.00, 0.00, -0.00, -1.00, 173.2, 37.0)">a</text><text xml:space="preserve" font-family="GillSans" font-size="32.0" fill="#605F5F" transform="matrix(1.00, 0.00, -0.00, -1.00, 186.8, 37.0)">t</text><text xml:space="preserve" font-family="GillSans" font-size="32.0" fill="#605F5F" transform="matrix(1.00, 0.00, -0.00, -1.00, 197.5, 37.0)"> </text><text xml:space="preserve" font-family="GillSans" font-size="32.0" fill="#605F5F" transform="matrix(1.00, 0.00, -0.00, -1.00, 206.4, 37.0)">p</text><text xml:space="preserve" font-family="GillSans" font-size="32.0" fill="#605F5F" transform="matrix(1.00, 0.00, -0.00, -1.00, 222.4, 37.0)">r</text><text xml:space="preserve" font-family="GillSans" font-size="32.0" fill="#605F5F" transform="matrix(1.00, 0.00, -0.00, -1.00, 234.2, 37.0)">o</text><text xml:space="preserve" font-family="GillSans" font-size="32.0" fill="#605F5F" transform="matrix(1.00, 0.00, -0.00, -1.00, 251.6, 37.0)">v</text><text xml:space="preserve" font-family="GillSans" font-size="32.0" fill="#605F5F" transform="matrix(1.00, 0.00, -0.00, -1.00, 265.6, 37.0)">i</text><text xml:space="preserve" font-family="GillSans" font-size="32.0" fill="#605F5F" transform="matrix(1.00, 0.00, -0.00, -1.00, 272.6, 37.0)">d</text><text xml:space="preserve" font-family="GillSans" font-size="32.0" fill="#605F5F" transform="matrix(1.00, 0.00, -0.00, -1.00, 288.9, 37.0)">e</text><text xml:space="preserve" font-family="GillSans" font-size="32.0" fill="#605F5F" transform="matrix(1.00, 0.00, -0.00, -1.00, 304.2, 37.0)">s</text><text xml:space="preserve" font-family="GillSans" font-size="32.0" fill="#605F5F" transform="matrix(1.00, 0.00, -0.00, -1.00, 316.5, 37.0)"> </text><text xml:space="preserve" font-family="GillSans" font-size="32.0" fill="#605F5F" transform="matrix(1.00, 0.00, -0.00, -1.00, 325.4, 37.0)">t</text><text xml:space="preserve" font-family="GillSans" font-size="32.0" fill="#605F5F" transform="matrix(1.00, 0.00, -0.00, -1.00, 336.1, 37.0)">h</text><text xml:space="preserve" font-family="GillSans" font-size="32.0" fill="#605F5F" transform="matrix(1.00, 0.00, -0.00, -1.00, 352.1, 37.0)">e</text><text xml:space="preserve" font-family="GillSans" font-size="32.0" fill="#605F5F" transform="matrix(1.00, 0.00, -0.00, -1.00, 367.4, 37.0)"> </text><text xml:space="preserve" font-family="GillSans" font-size="32.0" fill="#605F5F" transform="matrix(1.00, 0.00, -0.00, -1.00, 376.3, 37.0)">P</text><text xml:space="preserve" font-family="GillSans" font-size="32.0" fill="#605F5F" transform="matrix(1.00, 0.00, -0.00, -1.00, 392.6, 37.0)">i</text><text xml:space="preserve" font-family="GillSans" font-size="32.0" fill="#605F5F" transform="matrix(1.00, 0.00, -0.00, -1.00, 399.6, 37.0)">v</text><text xml:space="preserve" font-family="GillSans" font-size="32.0" fill="#605F5F" transform="matrix(1.00, 0.00, -0.00, -1.00, 413.0, 37.0)">o</text><text xml:space="preserve" font-family="GillSans" font-size="32.0" fill="#605F5F" transform="matrix(1.00, 0.00, -0.00, -1.00, 430.6, 37.0)">t</text><text xml:space="preserve" font-family="GillSans" font-size="32.0" fill="#605F5F" transform="matrix(1.00, 0.00, -0.00, -1.00, 441.3, 37.0)"> </text><text xml:space="preserve" font-family="GillSans" font-size="32.0" fill="#605F5F" transform="matrix(1.00, 0.00, -0.00, -1.00, 36.0, 1.0)">T</text><text xml:space="preserve" font-family="GillSans" font-size="32.0" fill="#605F5F" transform="matrix(1.00, 0.00, -0.00, -1.00, 51.3, 1.0)">a</text><text xml:space="preserve" font-family="GillSans" font-size="32.0" fill="#605F5F" transform="matrix(1.00, 0.00, -0.00, -1.00, 65.0, 1.0)">b</text><text xml:space="preserve" font-family="GillSans" font-size="32.0" fill="#605F5F" transform="matrix(1.00, 0.00, -0.00, -1.00, 81.0, 1.0)">l</text><text xml:space="preserve" font-family="GillSans" font-size="32.0" fill="#605F5F" transform="matrix(1.00, 0.00, -0.00, -1.00, 88.0, 1.0)">e</text><text xml:space="preserve" font-family="GillSans" font-size="32.0" fill="#605F5F" transform="matrix(1.00, 0.00, -0.00, -1.00, 103.3, 1.0)"> </text><text xml:space="preserve" font-family="GillSans" font-size="32.0" fill="#605F5F" transform="matrix(1.00, 0.00, -0.00, -1.00, 112.2, 1.0)">f</text><text xml:space="preserve" font-family="GillSans" font-size="32.0" fill="#605F5F" transform="matrix(1.00, 0.00, -0.00, -1.00, 120.2, 1.0)">u</text><text xml:space="preserve" font-family="GillSans" font-size="32.0" fill="#605F5F" transform="matrix(1.00, 0.00, -0.00, -1.00, 136.2, 1.0)">n</text><text xml:space="preserve" font-family="GillSans" font-size="32.0" fill="#605F5F" transform="matrix(1.00, 0.00, -0.00, -1.00, 152.2, 1.0)">c</text><text xml:space="preserve" font-family="GillSans" font-size="32.0" fill="#605F5F" transform="matrix(1.00, 0.00, -0.00, -1.00, 166.2, 1.0)">t</text><text xml:space="preserve" font-family="GillSans" font-size="32.0" fill="#605F5F" transform="matrix(1.00, 0.00, -0.00, -1.00, 176.9, 1.0)">i</text><text xml:space="preserve" font-family="GillSans" font-size="32.0" fill="#605F5F" transform="matrix(1.00, 0.00, -0.00, -1.00, 183.9, 1.0)">o</text><text xml:space="preserve" font-family="GillSans" font-size="32.0" fill="#605F5F" transform="matrix(1.00, 0.00, -0.00, -1.00, 201.6, 1.0)">n</text><text xml:space="preserve" font-family="GillSans" font-size="32.0" fill="#605F5F" transform="matrix(1.00, 0.00, -0.00, -1.00, 217.6, 1.0)">s</text></g></svg>