<?xml version="1.0" encoding="UTF-8" standalone="no"?><svg xmlns="http://www.w3.org/2000/svg" xmlns:xlink="http://www.w3.org/1999/xlink" clip-rule="evenodd" stroke-miterlimit="4.00" viewBox="0 0 1024 768"><desc>SVG generated by Keynote</desc><defs></defs><g transform="matrix(1.00, 0.00, -0.00, -1.00, 0.0, 768.0)"><g><clipPath id="clip-1614"><path d="M 0.0 768.0 L 1024.0 768.0 L 1024.0 0.0 L 0.0 0.0 Z M 0.0 768.0 "></path></clipPath><g clip-path="url(#clip-1614)"><image xlink:href="../../41F9CECD-E746-4B6A-B57C-11EF94883B77/assets/A48D6513BC58F3BBF0655FD09F4A8718.jpeg" width="768.00" height="768.00" transform="matrix(1.33, 0.00, -0.00, -1.33, 0.0, 768.0)"></image></g></g><g opacity="0.30"><g><clipPath id="clip-1615"><path d="M 38.0 36.0 L 986.0 36.0 L 986.0 45.0 L 38.0 45.0 Z M 38.0 36.0 "></path></clipPath><g clip-path="url(#clip-1615)"><path d="M 0.0 0.0 L 944.0 0.0 " fill="none" stroke="#434343" stroke-width="6.00" transform="matrix(1.00, 0.00, 0.00, -1.00, 40.0, 40.0)"></path></g></g></g><g opacity="0.30"><g><clipPath id="clip-1616"><path d="M 38.0 726.0 L 986.0 726.0 L 986.0 730.0 L 38.0 730.0 Z M 38.0 726.0 "></path></clipPath><g clip-path="url(#clip-1616)"><path d="M 0.0 0.0 L 944.0 0.0 " fill="none" stroke="#434343" stroke-width="1.00" transform="matrix(1.00, 0.00, 0.00, -1.00, 40.0, 728.0)"></path></g></g></g><g><clipPath id="clip-1617"><path d="M 36.7 624.2 L 91.9 624.2 L 91.9 723.5 L 36.7 723.5 Z M 36.7 624.2 "></path></clipPath><g clip-path="url(#clip-1617)"><image xlink:href="../../41F9CECD-E746-4B6A-B57C-11EF94883B77/assets/8412EA7883B927C520D3E7200E74D714.png" width="55.00" height="100.00" transform="matrix(1.00, 0.00, -0.00, -1.00, 37.0, 724.0)"></image></g></g><g><clipPath id="clip-1618"><path d="M 111.4 651.0 L 492.6 651.0 L 492.6 712.7 L 111.4 712.7 Z M 111.4 651.0 "></path></clipPath><g clip-path="url(#clip-1618)"><text xml:space="preserve" font-family="GillSans" font-size="36.0" fill="#0B75FE" transform="matrix(1.00, 0.00, -0.00, -1.00, 122.0, 670.0)">C</text><text xml:space="preserve" font-family="GillSans" font-size="36.0" fill="#605F5F" transform="matrix(1.00, 0.00, -0.00, -1.00, 147.5, 670.0)">o</text><text xml:space="preserve" font-family="GillSans" font-size="36.0" fill="#605F5F" transform="matrix(1.00, 0.00, -0.00, -1.00, 167.3, 670.0)">m</text><text xml:space="preserve" font-family="GillSans" font-size="36.0" fill="#605F5F" transform="matrix(1.00, 0.00, -0.00, -1.00, 195.1, 670.0)">m</text><text xml:space="preserve" font-family="GillSans" font-size="36.0" fill="#605F5F" transform="matrix(1.00, 0.00, -0.00, -1.00, 222.5, 670.0)">u</text><text xml:space="preserve" font-family="GillSans" font-size="36.0" fill="#605F5F" transform="matrix(1.00, 0.00, -0.00, -1.00, 240.5, 670.0)">n</text><text xml:space="preserve" font-family="GillSans" font-size="36.0" fill="#605F5F" transform="matrix(1.00, 0.00, -0.00, -1.00, 258.5, 670.0)">i</text><text xml:space="preserve" font-family="GillSans" font-size="36.0" fill="#605F5F" transform="matrix(1.00, 0.00, -0.00, -1.00, 266.4, 670.0)">t</text><text xml:space="preserve" font-family="GillSans" font-size="36.0" fill="#605F5F" transform="matrix(1.00, 0.00, -0.00, -1.00, 278.4, 670.0)">y</text><text xml:space="preserve" font-family="GillSans" font-size="36.0" fill="#605F5F" transform="matrix(1.00, 0.00, -0.00, -1.00, 294.2, 670.0)"> </text><text xml:space="preserve" font-family="GillSans" font-size="36.0" fill="#FDA602" transform="matrix(1.00, 0.00, -0.00, -1.00, 304.2, 670.0)">C</text><text xml:space="preserve" font-family="GillSans" font-size="36.0" fill="#605F5F" transform="matrix(1.00, 0.00, -0.00, -1.00, 329.7, 670.0)">o</text><text xml:space="preserve" font-family="GillSans" font-size="36.0" fill="#605F5F" transform="matrix(1.00, 0.00, -0.00, -1.00, 349.5, 670.0)">u</text><text xml:space="preserve" font-family="GillSans" font-size="36.0" fill="#605F5F" transform="matrix(1.00, 0.00, -0.00, -1.00, 367.5, 670.0)">n</text><text xml:space="preserve" font-family="GillSans" font-size="36.0" fill="#605F5F" transform="matrix(1.00, 0.00, -0.00, -1.00, 385.5, 670.0)">t</text><text xml:space="preserve" font-family="GillSans" font-size="36.0" fill="#605F5F" transform="matrix(1.00, 0.00, -0.00, -1.00, 397.5, 670.0)">s</text><text xml:space="preserve" font-family="GillSans" font-size="36.0" fill="#605F5F" transform="matrix(1.00, 0.00, -0.00, -1.00, 411.3, 670.0)"> </text><text xml:space="preserve" font-family="GillSans" font-size="36.0" fill="#605F5F" transform="matrix(1.00, 0.00, -0.00, -1.00, 415.9, 670.0)">V</text><text xml:space="preserve" font-family="GillSans" font-size="36.0" fill="#605F5F" transform="matrix(1.00, 0.00, -0.00, -1.00, 437.7, 670.0)">3</text><text xml:space="preserve" font-family="GillSans" font-size="36.0" fill="#605F5F" transform="matrix(1.00, 0.00, -0.00, -1.00, 455.7, 670.0)">.</text><text xml:space="preserve" font-family="GillSans" font-size="36.0" fill="#605F5F" transform="matrix(1.00, 0.00, -0.00, -1.00, 463.6, 670.0)">0</text></g></g><g><clipPath id="clip-1619"><path d="M 536.0 549.0 L 975.0 549.0 L 975.0 240.0 L 536.0 240.0 Z M 535.9 548.5 "></path></clipPath><g clip-path="url(#clip-1619)"><image xlink:href="CFF91D7B66464A774D7A0C1C60D0987A.png" width="439.00" height="313.00" transform="matrix(1.00, 0.00, -0.00, -1.00, 536.0, 551.0)"></image></g></g><image xlink:href="8C62A9C09DDE9FA65F2222833525F649.png" width="459.00" height="335.00" transform="matrix(1.00, 0.00, -0.00, 1.00, 525.9, 220.8)"></image><text xml:space="preserve" font-family="GillSans-Light" font-size="64.0" fill="#605F5F" transform="matrix(1.00, 0.00, -0.00, -1.00, 62.0, 518.0)">N</text><text xml:space="preserve" font-family="GillSans-Light" font-size="64.0" fill="#605F5F" transform="matrix(1.00, 0.00, -0.00, -1.00, 111.3, 518.0)">E</text><text xml:space="preserve" font-family="GillSans-Light" font-size="64.0" fill="#605F5F" transform="matrix(1.00, 0.00, -0.00, -1.00, 142.7, 518.0)">W</text><text xml:space="preserve" font-family="GillSans-Light" font-size="64.0" fill="#605F5F" transform="matrix(1.00, 0.00, -0.00, -1.00, 208.7, 518.0)">:</text><text xml:space="preserve" font-family="GillSans" font-size="24.0" fill="#605F5F" transform="matrix(1.00, 0.00, -0.00, -1.00, 44.0, 445.0)">R</text><text xml:space="preserve" font-family="GillSans" font-size="24.0" fill="#605F5F" transform="matrix(1.00, 0.00, -0.00, -1.00, 58.5, 445.0)">e</text><text xml:space="preserve" font-family="GillSans" font-size="24.0" fill="#605F5F" transform="matrix(1.00, 0.00, -0.00, -1.00, 70.0, 445.0)">g</text><text xml:space="preserve" font-family="GillSans" font-size="24.0" fill="#605F5F" transform="matrix(1.00, 0.00, -0.00, -1.00, 80.2, 445.0)">i</text><text xml:space="preserve" font-family="GillSans" font-size="24.0" fill="#605F5F" transform="matrix(1.00, 0.00, -0.00, -1.00, 85.5, 445.0)">s</text><text xml:space="preserve" font-family="GillSans" font-size="24.0" fill="#605F5F" transform="matrix(1.00, 0.00, -0.00, -1.00, 94.7, 445.0)">t</text><text xml:space="preserve" font-family="GillSans" font-size="24.0" fill="#605F5F" transform="matrix(1.00, 0.00, -0.00, -1.00, 102.7, 445.0)">r</text><text xml:space="preserve" font-family="GillSans" font-size="24.0" fill="#605F5F" transform="matrix(1.00, 0.00, -0.00, -1.00, 112.2, 445.0)">a</text><text xml:space="preserve" font-family="GillSans" font-size="24.0" fill="#605F5F" transform="matrix(1.00, 0.00, -0.00, -1.00, 122.5, 445.0)">t</text><text xml:space="preserve" font-family="GillSans" font-size="24.0" fill="#605F5F" transform="matrix(1.00, 0.00, -0.00, -1.00, 130.5, 445.0)">i</text><text xml:space="preserve" font-family="GillSans" font-size="24.0" fill="#605F5F" transform="matrix(1.00, 0.00, -0.00, -1.00, 135.7, 445.0)">o</text><text xml:space="preserve" font-family="GillSans" font-size="24.0" fill="#605F5F" transform="matrix(1.00, 0.00, -0.00, -1.00, 149.0, 445.0)">n</text><text xml:space="preserve" font-family="GillSans" font-size="24.0" fill="#605F5F" transform="matrix(1.00, 0.00, -0.00, -1.00, 161.0, 445.0)"> </text><text xml:space="preserve" font-family="GillSans" font-size="24.0" fill="#605F5F" transform="matrix(1.00, 0.00, -0.00, -1.00, 164.0, 445.0)">Y</text><text xml:space="preserve" font-family="GillSans" font-size="24.0" fill="#605F5F" transform="matrix(1.00, 0.00, -0.00, -1.00, 175.4, 445.0)">e</text><text xml:space="preserve" font-family="GillSans" font-size="24.0" fill="#605F5F" transform="matrix(1.00, 0.00, -0.00, -1.00, 186.9, 445.0)">a</text><text xml:space="preserve" font-family="GillSans" font-size="24.0" fill="#605F5F" transform="matrix(1.00, 0.00, -0.00, -1.00, 197.1, 445.0)">r</text><text xml:space="preserve" font-family="GillSans" font-size="36.0" fill="#0432FF" transform="matrix(1.00, 0.00, -0.00, -1.00, 571.0, 598.0)">S</text><text xml:space="preserve" font-family="GillSans" font-size="36.0" fill="#0432FF" transform="matrix(1.00, 0.00, -0.00, -1.00, 587.5, 598.0)">e</text><text xml:space="preserve" font-family="GillSans" font-size="36.0" fill="#0432FF" transform="matrix(1.00, 0.00, -0.00, -1.00, 604.7, 598.0)">t</text><text xml:space="preserve" font-family="GillSans" font-size="36.0" fill="#0432FF" transform="matrix(1.00, 0.00, -0.00, -1.00, 616.7, 598.0)">u</text><text xml:space="preserve" font-family="GillSans" font-size="36.0" fill="#0432FF" transform="matrix(1.00, 0.00, -0.00, -1.00, 634.7, 598.0)">p</text><text xml:space="preserve" font-family="GillSans" font-size="36.0" fill="#0432FF" transform="matrix(1.00, 0.00, -0.00, -1.00, 652.7, 598.0)"> </text><text xml:space="preserve" font-family="GillSans" font-size="36.0" fill="#0432FF" transform="matrix(1.00, 0.00, -0.00, -1.00, 662.7, 598.0)">:</text><text xml:space="preserve" font-family="GillSans" font-size="36.0" fill="#0432FF" transform="matrix(1.00, 0.00, -0.00, -1.00, 667.0, 598.0)"> </text><text xml:space="preserve" font-family="GillSans" font-size="36.0" fill="#0432FF" transform="matrix(1.00, 0.00, -0.00, -1.00, 677.0, 598.0)"> </text><text xml:space="preserve" font-family="GillSans" font-size="36.0" fill="#0432FF" transform="matrix(1.00, 0.00, -0.00, -1.00, 687.0, 598.0)">C</text><text xml:space="preserve" font-family="GillSans" font-size="36.0" fill="#0432FF" transform="matrix(1.00, 0.00, -0.00, -1.00, 712.5, 598.0)">h</text><text xml:space="preserve" font-family="GillSans" font-size="36.0" fill="#0432FF" transform="matrix(1.00, 0.00, -0.00, -1.00, 730.5, 598.0)">a</text><text xml:space="preserve" font-family="GillSans" font-size="36.0" fill="#0432FF" transform="matrix(1.00, 0.00, -0.00, -1.00, 745.8, 598.0)">n</text><text xml:space="preserve" font-family="GillSans" font-size="36.0" fill="#0432FF" transform="matrix(1.00, 0.00, -0.00, -1.00, 763.8, 598.0)">g</text><text xml:space="preserve" font-family="GillSans" font-size="36.0" fill="#0432FF" transform="matrix(1.00, 0.00, -0.00, -1.00, 779.2, 598.0)">e</text><text xml:space="preserve" font-family="GillSans" font-size="36.0" fill="#0432FF" transform="matrix(1.00, 0.00, -0.00, -1.00, 796.4, 598.0)"> </text><text xml:space="preserve" font-family="GillSans" font-size="36.0" fill="#0432FF" transform="matrix(1.00, 0.00, -0.00, -1.00, 801.0, 598.0)">Y</text><text xml:space="preserve" font-family="GillSans" font-size="36.0" fill="#0432FF" transform="matrix(1.00, 0.00, -0.00, -1.00, 818.1, 598.0)">e</text><text xml:space="preserve" font-family="GillSans" font-size="36.0" fill="#0432FF" transform="matrix(1.00, 0.00, -0.00, -1.00, 835.4, 598.0)">a</text><text xml:space="preserve" font-family="GillSans" font-size="36.0" fill="#0432FF" transform="matrix(1.00, 0.00, -0.00, -1.00, 850.7, 598.0)">r</text><path d="M 0.0 0.0 L 54.6 0.0 L 56.1 0.0 " fill="none" stroke="#6E695A" stroke-width="3.00" transform="matrix(0.71, -0.71, -0.71, -0.71, 761.9, 590.4)"></path><path d="M 795.8 547.1 L 809.8 542.5 L 805.2 556.5 Z M 795.8 547.1 " fill="#6E695A"></path></g></svg>